<svg xmlns="http://www.w3.org/2000/svg" viewBox="0 0 1000 500"><path d="M53.2 16.8L70.7 81c.2 1.3 0 1.6-1.2 1.6h-8c-.8 0-1-.3-1.3-1.6l-6.3-22.6H23.1L16.7 81c-.3 1.3-.4 1.6-1.3 1.6h-8c-1.2 0-1.4-.3-1.2-1.6l18.1-64.2c3-10.5 4.7-12 14.2-12 10.4.1 11.9 1.5 14.7 12zM34 19.3l-8.4 30.2h25.8l-8-30.2c-1.3-4.7-1.5-5.4-5.1-5.4-2.8 0-3 .7-4.3 5.4zm112.3 7c0 9.7-2.6 15.7-9 17.3v.3c8.8 1.5 10.9 9.5 10.9 18.4 0 17.3-9.4 20.9-25.4 20.9-5.7 0-22.2-.2-29.4-.7-1.2-.1-1.5-.3-1.5-1.5V7.1c0-1.2.3-1.4 1.5-1.5 7.3-.5 20.4-.7 26.3-.7 17.3 0 26.6 4.7 26.6 21.4zM102.2 14v26h12.6c15.4 0 21.1-.5 21.1-12.7 0-11.2-5.5-13.4-17.2-13.4h-16.5v.1zm0 34.3v25.8H123c10.1 0 14.9-2 14.9-12.3 0-11.5-5.8-13.6-14.7-13.6h-21v.1zM219.6 5.9c1 .1 1.6.7 1.6 1.7v4.8c0 1-.5 1.5-1.5 1.5h-19.1c-17.7 0-20.7 6.7-20.7 30.1 0 23.3 3.1 30 20.7 30h19.1c1 0 1.5.5 1.5 1.5v4.8c0 1-.6 1.6-1.6 1.8-5.1.7-12.4.9-19 .9-24.9 0-31.1-8.9-31.1-39.1s6.1-39.2 31.1-39.2c6.7.2 13.9.5 19 1.2zM304.9 44c0 27.7-8.7 39.2-31.8 39.2-9 0-20.8-.2-28.1-.7-1.2-.1-1.5-.3-1.5-1.4v-74c0-1.2.3-1.4 1.5-1.5 7.3-.5 19.1-.7 28.1-.7 23.1 0 31.8 11.6 31.8 39.1zm-51.1-30v60.2h19.3c15.6 0 21.3-8.9 21.3-30.1 0-20.9-6.1-30-22.8-30l-17.8-.1zm124.6-8.6c1 0 1.5.5 1.5 1.5v6c0 1-.5 1.5-1.5 1.5h-39v26.3h35.5c1 0 1.5.5 1.5 1.5v5.9c0 1-.5 1.5-1.5 1.5h-35.5v23.9h39c1 0 1.5.5 1.5 1.5v6c0 1-.5 1.5-1.5 1.5h-47.8c-1 0-1.5-.5-1.5-1.5V6.9c0-1 .5-1.5 1.5-1.5h47.8zm74.1 0c1 0 1.5.5 1.5 1.5v6c0 1-.5 1.5-1.5 1.5h-38.7v26.3h35.1c1 0 1.5.5 1.5 1.5v5.9c0 1-.5 1.5-1.5 1.5h-35.1v31.5c0 1-.5 1.5-1.5 1.5H405c-1 0-1.5-.5-1.5-1.5V6.9c0-1 .5-1.5 1.5-1.5h47.5zm70.4.5c1 .1 1.6.7 1.6 1.7v4.8c0 1-.5 1.5-1.5 1.5h-19.7c-17.7 0-20.7 6.8-20.7 30.2 0 23.3 3.1 29.9 20.7 29.9h15.5V46c0-1 .5-1.6 1.5-1.6h6.7c1 0 1.5.6 1.5 1.6v30.4c0 1.1-.1 1.5-.3 2-2.1 4.6-16 4.6-25 4.6-24.9 0-31.1-8.8-31.1-39 0-30.3 6.1-39.3 31.1-39.3 6.3.2 14.6.5 19.7 1.2zm90.4-.5c1 0 1.5.5 1.5 1.6v74.2c0 1-.5 1.5-1.5 1.5H606c-1 0-1.5-.5-1.5-1.5V48h-41.6v33.2c0 1-.5 1.5-1.5 1.5h-7.3c-1 0-1.5-.5-1.5-1.5V7c0-1.1.5-1.6 1.5-1.6h7.3c1 0 1.5.5 1.5 1.6v31.9h41.6V7c0-1.1.5-1.6 1.5-1.6h7.3zm37.3 0c1 0 1.5.5 1.5 1.6v74.2c0 1-.5 1.5-1.5 1.5h-7.3c-1 0-1.5-.5-1.5-1.5V7c0-1.1.5-1.6 1.5-1.6h7.3zm69.3 0c1 0 1.5.5 1.5 1.5v37.3c0 30.1-6.5 39-32.2 39-6.2 0-10.2-.2-15.3-.9-1-.2-1.5-.8-1.5-1.8v-4.8c0-1 .5-1.5 1.5-1.5h15.3c18.3 0 22-6.6 21.8-29.9V14.5h-25.4c-1 0-1.5-.5-1.5-1.5V7c0-1 .5-1.5 1.5-1.5h34.3v-.1zm78.6 0c1.8 0 1.8.9.9 1.9l-30.3 33.9L801.7 80c.9 1.2 1 2.8-1.7 2.8h-8c-1 0-1.8-.4-2.2-1.1l-31.6-38v37.6c0 1-.5 1.5-1.5 1.5h-7.4c-1 0-1.5-.5-1.5-1.5V6.9c0-1 .5-1.5 1.5-1.5h7.4c1 0 1.5.5 1.5 1.5V39l29.9-32.6c.5-.6 1.2-1 2.1-1h8.3zm31.7 0c1 0 1.5.5 1.5 1.5v66.7h37.1c1 0 1.5.5 1.5 1.5v6c0 1-.5 1.5-1.5 1.5h-45.9c-1 0-1.5-.5-1.5-1.5V6.9c0-1 .5-1.5 1.5-1.5h7.3zm134.6 0c1 0 1.4.6 1.5 1.5l6.6 74.3c.1 1-.5 1.5-1.5 1.5H964c-1 0-1.4-.5-1.5-1.5l-4.7-58L935.7 79c-.3.8-.9 1.2-1.8 1.2h-7.3c-1 0-1.6-.4-1.9-1.2l-22.1-55.8-4.7 58c-.1 1-.5 1.5-1.5 1.5h-7.3c-1 0-1.6-.5-1.5-1.5L894.1 7c.1-1 .5-1.6 1.5-1.6h8c2.5 0 3.1 1 4.2 4l22.4 58 22.4-58c1.1-3 1.7-4 4.2-4h8zm-892 136.2c1 0 1.5.5 1.5 1.6v74.2c0 1-.5 1.5-1.5 1.5h-6.2c-1.5 0-2.6-.3-3.6-1.8l-40.3-60.8v61.1c0 1-.5 1.5-1.5 1.5h-7.3c-1 0-1.5-.5-1.5-1.5v-74.2c0-1.1.5-1.6 1.5-1.6h6.9c3.7.1 4.3.6 5.8 3L64 200.9v-57.6c0-1.1.5-1.6 1.5-1.6l7.3-.1zm88.3 38.8c0 30.1-6.2 39-31.2 39s-31.2-8.9-31.2-39c0-30.2 6.2-39.3 31.2-39.3s31.2 9.1 31.2 39.3zm-51.9 0c0 23.3 3.1 29.9 20.7 29.9 17.7 0 20.7-6.6 20.7-29.9 0-23.4-3.1-30.2-20.7-30.2s-20.7 6.8-20.7 30.2zM239.4 166c0 21.4-7.7 24-30.6 24h-13v27.4c0 1.2-.3 1.5-1.5 1.5H187c-1.2 0-1.5-.3-1.5-1.5v-74.1c0-1.2.3-1.4 1.5-1.5 7.3-.5 16-.7 21.8-.7 23 0 30.6 3.9 30.6 24.9zm-43.6-15.8v31.1h12.1c16.9 0 21.1-.7 21.1-15 0-14.1-4.3-16-21.1-16h-12.1v-.1zm100.9 69l3.7 12.5c.3 1.1-.5 1.6-1.5 1.6h-6.8c-1 0-1.8-.5-2.1-1.6l-3.7-12.4c-21.4-1-26.9-10.5-26.9-38.9 0-30.2 6.1-39.3 31.2-39.3 24.9 0 31.1 9.1 31.1 39.3-.1 27.5-5.2 37.3-25 38.8zm14.6-38.8c0-23.4-3.2-30.2-20.7-30.2-17.7 0-20.8 6.8-20.8 30.2 0 23.3 3.2 29.9 20.8 29.9 17.5 0 20.7-6.6 20.7-29.9zm88.6-14.4c0 16.3-4.5 21.8-16.8 23.4l17.3 27.5c.8 1.1.3 2-1.2 2h-6.5c-2.3 0-3.1-.7-4.1-2.2L371.7 190h-15.4v27.4c0 1.2-.3 1.5-1.5 1.5h-7.3c-1.2 0-1.5-.3-1.5-1.5v-74.1c0-1.2.3-1.4 1.5-1.5 7.3-.5 16-.7 21.8-.7 23 0 30.6 3.9 30.6 24.9zm-43.6-15.8v31.1h12.1c16.9 0 21.1-.7 21.1-15 0-14.1-4.3-16-21.1-16h-12.1v-.1zm111.2-7.6c1 .1 1.4.5 1.4 1.3v4.7c0 1-.4 1.5-1.3 1.5h-23c-9 0-13.4 2.8-13.4 9.1v1.7c0 5.1 1.4 7.9 7.7 10.4l22.3 9.2c9.4 3.9 11.7 9.7 11.7 17.8v3.3c0 15.5-12.5 17.8-27 17.8-8.3 0-16.3-.4-24.9-1.4-.9-.2-1.2-.6-1.2-1.6v-4.6c0-.9.5-1.4 1.4-1.4h28c9 0 13.3-2.6 13.3-9v-1.9c0-5.2-1.4-8.5-7.8-11l-24.2-9.8c-8-3.1-9.6-9.6-9.6-17.4v-2.5c0-15.5 12.2-17.7 26.8-17.7 8.5 0 11.6.5 19.8 1.5zm77.8-1c1 0 1.5.5 1.5 1.5v6c0 1-.5 1.5-1.5 1.5h-23.2v66.7c0 1-.5 1.5-1.5 1.5h-7.3c-1 0-1.5-.5-1.5-1.5v-66.7h-23.2c-1 0-1.5-.5-1.5-1.5v-6c0-1 .5-1.5 1.5-1.5h56.7zm80.2 0c1.2 0 1.5.4 1.5 1.5v37.3c0 31.3-6.1 39-30.4 39-24.3 0-30.3-7.8-30.3-39v-37.3c0-1.1.3-1.5 1.5-1.5h7.3c1.2 0 1.5.4 1.5 1.5v37.3c0 24 4.1 29.9 20 29.9 16 0 20.1-5.9 20.1-29.9v-37.3c0-1.1.3-1.5 1.5-1.5h7.3zm31.3 0c.8 0 .9.4 1.3 1.6l17 61.8c1.3 4.7 1.6 5.5 3.8 5.5 2.8 0 3.2-.8 4.4-5.5l16.2-61.8c.3-1.2.5-1.6 1.3-1.6h8c1.2 0 1.5.4 1.3 1.6L693 207.4c-2.8 10.5-3.7 12-14.2 12-9.5 0-10.6-1.4-13.5-12l-17.9-64.2c-.2-1.2.1-1.6 1.3-1.6h8.1zm173 0c1.2 0 1.5.4 1.3 1.6l-13.9 64.2c-2.2 10.5-3.9 12-13.3 12-10.5 0-11.5-1.4-14.1-12l-11-46.3-11 46.3c-2.7 10.5-3.6 12-14.2 12-9.3 0-11-1.4-13.3-12l-13.8-64.2c-.2-1.2 0-1.6 1.2-1.6h8.1c.8 0 1 .4 1.3 1.6l13 61.3c1 4.7 1.7 5.4 3.8 5.4 2.8 0 3.3-.7 4.4-5.4l14.6-58.1c.3-1.3 1-1.6 1.8-1.6h8.2c.8 0 1.4.3 1.7 1.6l14.6 58.1c1.2 4.7 1.6 5.4 4.4 5.4 2.1 0 2.8-.7 3.8-5.4l13-61.3c.3-1.2.5-1.6 1.3-1.6h8.1zm76.1 0c1.5 0 2 .8 1.1 2.2l-23.3 34.8 25.4 38c1.1 1.6.3 2.2-1.1 2.2h-7.9c-1.5 0-2-.5-2.8-1.6l-19.8-29.7-19.5 29.8c-.8 1.1-1.2 1.6-2.8 1.6h-8c-1.4 0-2.2-.6-1.1-2.2l25.4-38-23.4-34.8c-.9-1.4-.4-2.2 1.1-2.2h7.9c1.6 0 2.1.6 2.8 1.6l17.7 26.7 17.7-26.7c.6-1 1.1-1.6 2.8-1.6h7.8v-.1zm80.3 0c1.4 0 2 .6 1.1 2.2l-27.7 51.6v22c0 1-.5 1.5-1.5 1.5h-7.4c-1 0-1.5-.5-1.5-1.5v-22l-27.7-51.6c-.9-1.6-.3-2.2 1.1-2.2h8c1.5 0 2 .5 2.8 1.6l21 41 21.1-41c.5-1.1 1.2-1.6 2.8-1.6h7.9zm-953 220.1v21.8c0 .6 0 1.3-1.2 1.7-2.2.8-7.6 1.4-13.8 1.4-8.2 0-12-1.7-12-10 0-7.5 3.9-9.6 11-9.6l10-.1v-4.2c0-3.9-2.2-5.6-8.1-5.6H9.8c-.7 0-.9-.2-.9-.9v-2.6c0-.7.2-.9.9-1 3.7-.6 6.8-.7 9.4-.7 9.6 0 14 3 14 9.8zm-15.9 10.1c-3.4 0-5.2 1.1-5.2 4.7 0 4.1 2.1 5 7.2 5 1.9 0 5.6-.1 8-.7v-9h-10zm35.5-32.6c.6 0 .9.3.9.9v12.2c1.9-.2 4.7-.4 8.3-.4 11.8 0 14.2 3.6 14.2 17.4s-2.4 17.2-14.5 17.2c-4.7 0-7.5-.2-12.9-1.1-.6-.1-1-.3-1-1V340c0-.6.3-.9.9-.9l4.1.1zm.9 18v23.7c2.5.3 5.6.5 8 .5 7.7 0 8.5-2.6 8.5-12.1 0-9.8-.9-12.1-8.6-12.1h-7.9zm59.2-4.7c.6.1.9.4.9 1.1v2.7c0 .6-.3.9-.9.9h-9.4c-7.5 0-8.5 2.4-8.5 12.1 0 9.6.9 12.1 8.5 12.1h9.4c.6 0 .9.3.9.9v2.7c0 .6-.3 1-.9 1.1-3.2.4-6.8.6-9.5.6-12.1 0-14.4-3.4-14.4-17.3s2.4-17.4 14.4-17.4c2.6-.1 6.3 0 9.5.5zm40-13.3c.6 0 .9.3.9.9v44.4c0 .7-.4.9-1 1-5.5.9-8.3 1.1-12.9 1.1-12.1 0-14.5-3.4-14.5-17.2 0-13.8 2.4-17.4 14.2-17.4 3.5 0 6.4.2 8.3.4v-12.2c0-.6.3-.9.9-.9l4.1-.1zm-12.9 18c-7.7 0-8.6 2.4-8.6 12.1 0 9.6.8 12.1 8.5 12.1 2.4 0 5.5-.2 8-.5v-23.7H140zm55.7 11.2v1.8c0 1.2-.3 1.7-2.2 1.7h-19.8c.2 7.6 1.6 9.5 8.3 9.5h10.2c.6 0 .9.3.9.9v2.7c0 .6-.3.9-.9 1-3.2.4-6.6.6-10.4.6-11.7 0-14.2-3.4-14.2-17.3s2.5-17.4 14.2-17.4c11.2 0 13.8 3.3 13.9 16.5zm-22.1-1.4h16.1c-.1-7.9-1.4-9.9-7.9-9.9-6.7.1-8.1 2-8.2 9.9zm52.1-27.6c.6.1.8.4.8 1v2.7c0 .6-.3.9-.9.9h-3.4c-3.5 0-5.2.2-5.2 3.4v4.9h8c.7 0 .9.3.8 1l-.5 3c-.1.6-.4.8-1 .8H217v28.3c0 .6-.3.9-.9.9H212c-.6 0-.9-.3-.9-.9v-28.3h-4.4c-.6 0-.9-.3-.9-.9v-2.9c0-.6.3-.9.9-.9h4.4v-6.2c0-7 5.7-7.3 9.3-7.3 1.5 0 3.7.2 5.3.5zm37.7 13.6c.6.1 1 .4 1 1.1v29.1c-.1 12.2-2.4 15.7-14.4 15.7-2.4 0-5.8-.1-9-.6-.6-.1-.8-.4-.8-1v-2.7c0-.6.2-.9.9-.9h8.8c7 0 8.5-1.7 8.5-7.3v-.4c-2.7.4-5.1.5-8.2.5-11.8 0-14.3-3.5-14.3-17.4 0-13.8 2.6-17.2 14.6-17.2 6 0 10.3.5 12.9 1.1zm-12.9 4.2c-7.7 0-8.5 2.4-8.5 12.1s.9 12.1 8.7 12.1c2.4 0 5.4-.1 7.8-.4v-23.8h-8zm33.7-18c.6 0 .9.3.9.9v12.1c3-.3 6.1-.3 7.9-.3 11.1 0 14.4 1.4 14.4 14.6v18.9c0 .6-.3.9-.9.9h-4.1c-.6 0-.9-.3-.9-.9V367c0-9.5-1.9-9.9-7.8-9.9h-8.5v28.3c0 .6-.3.9-.9.9h-4.1c-.6 0-.9-.3-.9-.9v-45.2c0-.6.3-.9.9-.9l4-.1zm44.5 3.1c0 2.4-1.2 3.7-3.7 3.7-2.4 0-3.7-1.3-3.7-3.7 0-2.4 1.3-3.6 3.7-3.6 2.5 0 3.7 1.2 3.7 3.6zm-1.6 9.9c.6 0 .9.3.9.9v32.2c0 .6-.3.9-.9.9H323c-.6 0-.9-.3-.9-.9v-32.2c0-.6.3-.9.9-.9h4.1zm21 0c.6 0 .9.3.9.9v40.5c0 5-3.7 5.2-6.8 5.2-.6 0-2.9-.1-3.4-.2-.6-.1-.9-.4-.9-1v-3.1c0-.6.4-.9 1-.9h1.4c2.6 0 2.7-.2 2.7-2.7v-37.8c0-.6.3-.9.9-.9h4.2zm1.6-9.9c0 2.4-1.2 3.7-3.7 3.7-2.4 0-3.7-1.3-3.7-3.7 0-2.4 1.4-3.6 3.7-3.6 2.5 0 3.7 1.2 3.7 3.6zm19.2-3.1c.6 0 .9.4.9 1v24.1l10.2-11.5c.3-.4.7-.6 1.3-.6h5.2c1.1 0 1.2.6.6 1.2l-11 12.2 14.6 19c.6.7.6 1.7-1.1 1.7h-4.4c-.6 0-1.1-.3-1.4-.7l-14-18.6v18.2c0 .7-.3 1-.9 1h-4.1c-.6 0-.9-.3-.9-1v-45.1c0-.6.3-1 .9-1h4.1v.1zm37.6 0c.6 0 .9.3.9.9v45.2c0 .6-.3.9-.9.9h-4.1c-.6 0-.9-.3-.9-.9v-45.2c0-.6.3-.9.9-.9h4.1zm61.6 27l-.1 19.1c0 .6-.3.9-.9.9h-4c-.6 0-.9-.3-.9-.9V367c0-9.5-1.9-9.9-7.7-9.9-2.6 0-5.2.2-7.3.6.7 2.1 1 4.9 1 8.8l-.1 18.9c0 .7-.2.9-.8.9h-4.1c-.6 0-.9-.3-.9-.9v-18.7c0-9.1-1.9-9.5-7.7-9.5h-6.2v28.2c0 .6-.3.9-.9.9h-4.1c-.6 0-.9-.3-.9-.9V354c0-.7.3-.9.9-1 3.2-.6 7.5-1 10.4-1 3.9 0 8 .8 10.3 1.9 3.2-1.1 7.2-1.9 10-1.9 10.6-.1 14 1.4 14 14.2zm42.8.3v18.9c0 .6-.4.9-1.1.9h-4c-.6 0-.9-.3-.9-.9V367c0-9.5-1.9-9.8-7.8-9.8h-8.5v28.2c0 .6-.3.9-.9.9h-4.1c-.6 0-.9-.3-.9-.9V354c0-.8.3-.9.9-1 4.9-.9 10-1 12.9-1 11.1-.1 14.4 1.3 14.4 14.5zm42.4 2.8c0 13.9-2.4 17.3-14.4 17.3s-14.5-3.4-14.5-17.3 2.5-17.4 14.5-17.4 14.4 3.5 14.4 17.4zm-23 0c0 9.6.9 12.1 8.5 12.1 7.5 0 8.5-2.4 8.5-12.1s-.9-12.1-8.5-12.1c-7.5 0-8.5 2.4-8.5 12.1zm65.2-.1c0 13.9-2.5 17.4-14.3 17.4-3.1 0-5.5-.1-8.2-.4v11.5c0 .6-.3.9-.9.9H568c-.6 0-.9-.3-.9-.9V354c0-.7.4-.9 1-1.1 5.5-.9 8.2-1.1 12.9-1.1 12 .1 14.5 3.7 14.5 17.4zm-22.5-12v23.7c2.5.3 5.4.5 7.8.5 7.7 0 8.7-2.4 8.7-12.1 0-9.6-.9-12.1-8.5-12.1h-8zm62.5-4.2c.7.1 1 .4 1 1.1v43.6c0 .6-.3.9-.9.9h-4.1c-.6 0-.9-.3-.9-.9v-11.4c-2.7.3-5 .3-8.2.3-11.7 0-14.2-3.5-14.2-17.4 0-13.8 2.5-17.2 14.5-17.2 4.6-.1 7.4.1 12.8 1zm-12.9 4.2c-7.7 0-8.5 2.4-8.5 12.1s.9 12.1 8.6 12.1c2.4 0 5.4-.1 7.8-.4v-23.8h-7.9zm45.4-4.6c.6.2.9.4.9 1.1v2.6c0 .6-.4.9-1 .9h-5.4c-4.3 0-5.4.7-5.4 3.5v24.7c0 .6-.3.9-.9.9h-4c-.6 0-.9-.3-.9-.9v-26.1c0-7 6.2-7.3 9.8-7.3 1.4-.1 5.6.2 6.9.6zm33.3-.1c.6.1.9.4.9 1v2.7c0 .6-.3.9-.9.9h-11.6c-2.9 0-4.5 1-4.5 3.2v.8c0 1.7.8 3.2 3.9 4.4l8.3 3.3c5.7 2.2 6.2 5.4 6.2 8.8v.7c0 7-4.2 8.3-12.6 8.3-5.4 0-10.3-.4-11.4-.6-.7-.1-.9-.4-.9-.9v-2.7c0-.6.3-.9.9-.9h11.5c5 0 6.5-.6 6.5-3.2v-.7c0-1.8-.7-3-3.6-4.2l-8.8-3.4c-4.8-1.9-6-5.5-6-8.9v-1.3c0-6.8 6-7.8 12.6-7.8 2.7-.1 5.9 0 9.5.5zm21.9-9.7c.7-.2 1.1.1 1.1.8v8.7h6.5c.7 0 1 .3 1 .9v2.9c0 .6-.3.9-1 .9h-6.5v21c0 2.7.7 3.4 4 3.4h3c.7 0 1 .2 1 .9v3c0 .6-.3.9-.9 1-1.2.3-2.9.4-3.5.4-4.5 0-9.6-.1-9.6-7.1v-22.4h-3.5c-.6 0-.9-.3-.9-.9v-2.9c0-.6.3-.9.9-.9h3.5V345c0-.6.2-.9.8-1l4.1-1.2zm48 9.4c.6 0 .9.3.9.9v31.5c0 .7-.3.8-.9.9-4.9.9-10 1-12.9 1-11.1 0-14.4-1.4-14.4-14.6v-18.8c0-.6.4-.9 1.1-.9h4c.6 0 .9.3.9.9v18.4c0 9.5 1.9 9.8 7.8 9.8h8.5v-28.2c0-.6.3-.9.9-.9h4.1zm42.8 0c.7 0 .9.2.7 1l-7 26.1c-1.7 6.4-1.9 7.3-8.3 7.3-5.8 0-6.1-.9-7.9-7.3l-7.3-26.1c-.1-.8.1-1 .7-1h4.6c.5 0 .6.2.8 1l6.7 24.7c.8 2.8 1 3.3 2.3 3.3 1.7 0 1.9-.5 2.7-3.3l6.5-24.7c.2-.8.3-1 .8-1h4.7zm58.1 0c.7 0 .9.2.7 1l-5.5 26.3c-1.3 6.2-2.2 7-7.3 7-5.5 0-5.8-.8-7.2-7l-4-17.4-4 17.4c-1.4 6.2-1.7 7-7.2 7-5 0-6-.9-7.3-7l-5.5-26.3c-.1-.8.1-1 .7-1h4.5c.4 0 .6.2.7 1l5.1 25.6c.5 2.2.9 2.4 1.7 2.4 1.1 0 1.2-.2 1.7-2.4l6-24.6c.2-.7.4-1 .9-1h5.2c.5 0 .7.2.9 1l6 24.6c.5 2.2.6 2.4 1.7 2.4.8 0 1.2-.2 1.7-2.4l5.1-25.6c.2-.8.3-1 .8-1h4.6zm39.1 0c.7 0 .9.5.5 1.1L901 368.2l12.1 16.9c.4.6.2 1.1-.5 1.1h-5.1c-.4 0-.7-.2-.9-.6l-9-12.8-9.1 12.8c-.2.4-.5.6-.9.6h-5c-.7 0-.9-.5-.6-1.1l12.1-16.9-10.6-14.9c-.5-.6-.3-1.1.4-1.1h5.1c.4 0 .7.2 1 .6l7.7 10.7 7.6-10.7c.2-.4.6-.6 1.1-.6h4.8zm40.6 0c.6 0 .9.3.9.9v30c-.1 12.2-2.4 15.7-14.4 15.7-3.9 0-6.2-.1-9.4-.6-.6-.1-.9-.4-.9-1v-2.7c0-.6.3-.9.9-.9h9.2c7 0 8.5-1.7 8.5-7.3v-.4c-2.7.4-5.1.5-8.2.5-11.8 0-14.3-3.5-14.3-17V353c0-.6.3-.9.9-.9h4c.6 0 .9.3.9.9v16.1c0 9.7 1 12.1 8.7 12.1 2.4 0 5.4-.1 7.8-.4V353c0-.6.3-.9.9-.9l4.5.1zm39.8 0c.7 0 1 .3 1 .9v1.5c0 .4-.1.7-.4 1.1L973.8 381h18.4c.6 0 1 .3 1 .9v3.4c0 .6-.4.9-1 .9h-26c-.6 0-1-.3-1-.9v-1.7c0-.4.1-.7.4-1.1l18.2-25H967c-.7 0-1-.3-1-.9v-3.4c0-.6.3-.9 1-.9l24.6-.1zM29.8 474.1c.6 0 1 .3 1 .9v3.7c0 .6-.4.9-1 .9H8c-.7 0-1-.3-1-.9V475c0-.6.3-.9.9-.9H16v-33c0-2.7-1.1-3.4-5.4-3.4H7.1c-.6.1-1-.2-1-.9V434c0-.6.3-.9.9-1.1 1.2-.4 3.5-.7 5-.7 3.7 0 10.1.2 10.1 7.3v34.6h7.7zm41.9-31.2v4.4c0 4.3-.6 8-5.5 10.5l-14.3 7.8c-3.5 1.9-4.5 3.4-4.5 6.3v2.2h24.1c.4 0 .4.1.4.4v4.8c0 .3-.1.4-.4.4H42c-1.3 0-1.6-.7-1.6-1.7v-5.5c0-5.2 1.9-8 7.9-11.3l14.8-8.2c2-1.1 2.3-3.2 2.3-5.9v-3.8c0-4.9-4.6-5.5-10.2-5.5H43.5c-.4 0-.4-.1-.4-.4v-3.5c0-.4.1-.6.5-.7 4.9-.6 6.7-.9 11.8-.9 8.5-.1 16.3 1 16.3 10.6zm42.3 1.7v1.2c0 5-1.4 9-5.2 10.2 3.9 1.4 5.2 5.2 5.2 10.1v1.1c0 10.3-4 12.7-19.4 12.7-2.9 0-6-.2-9.1-.5-.6-.1-.9-.1-.9-.5v-4c0-.4.3-.6.9-.6H95c10.7 0 12.8-1.6 12.8-7.5v-.3c-.1-5.5-1.1-7.8-8-7.8h-12c-.6 0-.7-.2-.7-.7v-3.9c0-.6.1-.7.7-.7h11.9c6.8 0 8-2.2 8-7.9v-.8c0-6-2.7-7-13.3-7h-9c-.6 0-.9-.1-.9-.6v-3.8c0-.4.3-.6.9-.6 3.1-.4 6.3-.6 9.1-.6 15.3.1 19.5 2.2 19.5 12.5zm26.5-12.1c.7 0 .9.4.7 1.1l-8.3 28.6H148v-12.6c0-.5.2-.9.7-1.1l4.5-1.7c.7-.2 1.1-.1 1.1.6v14.9h7.9c.7 0 1 .3 1 .9v3.7c0 .6-.3.9-1 .9h-7.9v11c0 .6-.3.9-.9.9h-4.5c-.6 0-.9-.3-.9-.9v-11h-21c-.6 0-.9-.3-.9-1v-2.1c0-.6.2-1.2.4-2.1l8.6-29.4c.2-.5.5-.6 1.1-.6l4.3-.1zm63.5 0c.6 0 .9.3.9.9v3.7c0 .6-.3.9-.9.9h-22.3l-.9 13.3c2.1-.2 4.4-.2 5.8-.2 15 0 19 2.8 19.2 13.8v1.4c-.1 10.9-4.3 13.6-19.4 13.6-2.8 0-7.8-.1-10.9-.4-.6-.1-.9-.3-.9-.7V475c0-.4.3-.6.9-.6H187c9.9 0 12.4-1.8 12.4-8.4v-.6c-.1-6.7-2.5-8.8-12.4-8.8h-11.5c-.7 0-1-.2-1-.7V452l1.1-18.7c.1-.6.3-.9 1-.9H204v.1zm33.6 0c.7 0 .9.5.6 1.1l-9.1 18.2c1.5-.5 3.1-.7 5.5-.7 11.2 0 16.2 4 16.2 13.7v1.3c0 9.9-5 13.8-16.4 13.8s-16.6-3.8-16.6-13.8v-1.2c0-3.4.3-5.2 1.4-7.7l12.2-24.1c.2-.4.6-.6 1.1-.6h5.1zm-13.4 33v.2c0 6.3 2.9 8.8 10.2 8.8s10.1-2.6 10.1-8.7v-.2c0-6.3-2.9-8.8-10.1-8.8-7.4-.1-10.2 2.4-10.2 8.7zm66.3-33c.6 0 .9.2.9.9v2.7c0 .6-.2 1-.4 1.4L270 479c-.2.4-.6.6-1.1.6h-5.1c-.7 0-.9-.5-.6-1.1l20.5-40.5h-24c-.7 0-1-.3-1-.9v-3.7c0-.7.3-.9 1-.9h30.8zm28.6-.3c10.1 0 14.8 4.2 14.8 12.9 0 5.5-1.9 8.9-5.9 11.3 4.7 2.2 7 5.2 7 10.8 0 8.7-5.2 12.8-15.9 12.8H318c-11 0-15.9-4.1-15.9-13.1 0-4.2 2.6-8.6 7.2-11.4-3.8-2-5.9-5.5-5.9-10.2 0-8.9 4.7-13.1 14.8-13.1h.9zm-4.2 25.7c-4.9 2.6-6.5 5.4-6.5 9 0 5 3.2 7.5 9.6 7.5h1c6.6 0 9.6-2.5 9.6-7.1 0-4.7-3.2-6-6.4-7l-7.3-2.4zm3.3-20.1c-5.4 0-8.5 2.2-8.5 6.9 0 4.5 2.7 6.3 6.3 7.7l6.2 1.9c3.7-2.1 5.4-4.9 5.4-9 0-5.1-2.7-7.6-8.5-7.6h-.9v.1zm61.4 8.2v1.2c0 3.4-.3 5.2-1.4 7.7L366 479c-.2.4-.6.6-1.1.6h-5c-.7 0-.9-.5-.6-1.1l9.1-18.2c-1.5.4-3.1.6-5.4.6-11.3 0-16.2-3.9-16.2-13.7V446c0-9.9 5-13.8 16.5-13.8 11.1 0 16.3 3.8 16.3 13.8zm-26.7.5v.2c0 6.3 2.9 8.8 10.1 8.8s10.1-2.5 10.1-8.7v-.2c0-6.3-2.9-8.8-10.1-8.8-7.3 0-10.1 2.5-10.1 8.7zm73.7 9.7c0 18.4-3.3 23.8-17.2 23.8-13.9 0-17.2-5.4-17.2-23.8s3.3-24 17.2-24c13.9 0 17.2 5.6 17.2 24zm-28.1 0c0 14.1 2.1 18.2 10.8 18.2 8.8 0 10.9-4.1 10.9-18.2 0-14.2-2.1-18.4-10.9-18.4-8.7 0-10.8 4.2-10.8 18.4zm56.9-27.3c.2 0 .3.1.3.3v.7c0 .2-.1.3-.1.4-10.1 13.8-10 16.3-10 28.4s-.1 14.6 10 28.4c.1.1.1.2.1.4v.7c0 .2-.1.3-.3.3h-4.6c-.4 0-.6-.1-.8-.4-10.3-13.3-10.3-16.4-10.3-29.5s.1-16.2 10.3-29.5c.2-.2.4-.4.8-.4h4.6v.2zm13.9 0c.4 0 .6.1.8.4 10.3 13.3 10.3 16.4 10.3 29.5s0 16.2-10.3 29.5c-.2.2-.4.4-.8.4h-4.6c-.2 0-.3-.1-.3-.3v-.7c0-.2.1-.3.1-.4 10.1-13.8 10-16.3 10-28.4s.1-14.6-10-28.4c-.1-.1-.1-.2-.1-.4v-.7c0-.2.1-.3.3-.3h4.6v-.2zm32.5 47.4c0 2.4-1.2 3.7-3.6 3.7s-3.7-1.3-3.7-3.7c0-2.3 1.3-3.5 3.7-3.5 2.3-.1 3.6 1.2 3.6 3.5zm-1.6-43.8c.6 0 .9.3.9 1v22.2c0 .4 0 .6-.1 1.3l-1 9.2c-.1.6-.3.9-.9.9H497c-.6 0-.8-.3-.9-.9l-1-9.2c-.1-.7-.1-.9-.1-1.3v-22.2c0-.7.3-1 .9-1h4.3zm42.1 10.7v3.6c0 6.7-1.7 9.1-6.8 11.4l-6.3 3c-2.8 1.4-3.1 1.8-3.3 3.9l-.1 1.6c0 .3-.2.5-.5.5h-4.2c-.3 0-.5-.2-.6-.5l-.2-3.8c-.2-2.3.1-3.4 3.2-5l9.1-4.4c2.6-1.2 3.6-2.6 3.6-6.7v-3.3c0-5.6-4.2-5.7-9.7-5.7h-11.2c-.6 0-.9-.3-.9-.9V434c0-.6.4-1 1-1.1 3.1-.4 7.1-.6 11.1-.6 8.4-.1 15.8.9 15.8 10.9zm-15.7 33.1c0 2.4-1.2 3.7-3.7 3.7-2.4 0-3.7-1.3-3.7-3.7 0-2.3 1.3-3.5 3.7-3.5 2.5-.1 3.7 1.2 3.7 3.5zm51.2-43.5c.6.1 1 .2 1 .8v3.5c0 .6-.3.7-.9.7h-7.3c-6.8 0-9.5.8-9.5 6.8v1c0 5.7 1.2 7.9 7.9 7.9h18.2c.6 0 .9.3.9.9v2.4c0 .6-.3.8-.9.9l-4.3.9v12.8c0 2.7.7 3.4 4 3.4h2.2c.7 0 1 .2 1 .9v2.9c0 .6-.3.9-.9 1-1.1.3-3.2.4-3.8.4-2.3 0-4.6 0-6.5-1.9-2.7 1.2-6 1.9-9.1 1.9-10.3 0-14.9-2.4-14.9-12.7v-1.1c0-4.9 1.4-8.8 5.3-10.1-3.9-1.2-5.3-5.2-5.3-10.2v-1.2c0-10.3 4.9-12.4 15.7-12.4.9-.1 4.6 0 7.2.5zm-8.9 25.9c-6.6 0-7.7 2.2-7.8 7.8v.7c0 5.5 3.2 7.2 8.9 7.2 2.9 0 4.5-.3 7.1-1.3v-14.4h-8.2zm41.1-26.2c.4 0 .6.2.6.6v.9c0 .3-.2.6-.3.8l-8.5 14.3c-.3.4-.6.5-.9.3l-1.4-.7c-.3-.2-.3-.6-.2-.9l4.3-14.8c.1-.4.2-.5.8-.5h5.6zm21.7 0c.4 0 .6.2.6.6v.9c0 .3-.2.6-.3.8l-8.5 14.3c-.3.4-.6.5-.9.3l-1.4-.7c-.3-.2-.3-.6-.2-.9l4.3-14.8c.1-.4.2-.5.8-.5h5.6z"/></svg>