<svg xmlns="http://www.w3.org/2000/svg" viewBox="0 0 1000 500"><path d="M37.2 4.6L56.4 90H44l-3.4-17.6H21.9L18.6 90H7.3l18-85.4h11.9zm1.7 58.2l-7.4-39h-.2l-7.4 39h15zm38-58.2h16.6c19.2 0 23.9 12.4 23.9 21.4 0 9.4-3.4 14.7-11.5 18.3 9.8 3.1 13.3 11.1 13.3 20.9 0 7.9-3 24.8-25.2 24.8H76.9V4.6zm11.8 35h1.9c8.5 0 15-3.1 15-12.5 0-8-4.1-12.4-14.5-12.4h-2.3v24.9zm0 40.3c12.3 0 18.1-4.1 18.1-15.1 0-10.6-5.5-15.7-16.4-15.7h-1.7v30.8zm84.1-53.6c-1.4-9.2-4.8-12.8-8.8-12.8-9.3 0-11.6 16-11.6 32.7 0 19.2 2.1 34.8 11.3 34.8 6.4 0 9.5-8.4 10.6-16.6l11.4 4.1c-1.9 12.8-8.1 23.2-22.2 23.2-15.7 0-23.4-12.3-23.4-45 0-16.7 2.3-43.9 24.1-43.9 10.1 0 17.2 6.3 20.4 19.5l-11.8 4zm34.7-21.7h13.7c22.5 0 28.7 21.2 28.7 43.4 0 18.2-5.7 42-27.7 42h-14.6V4.6zm11.9 75.3c14.2 0 18.1-14.4 18.1-32.7 0-21.1-6.3-32.5-18.1-32.5v65.2zM304 4.6v10.1h-19.3v25H304v10.1h-19.3V80H304v10h-31.1V4.6H304zm52.5 0v10.1h-19.3v25h19.3v10.1h-19.3V90h-11.8V4.6h31.1zM407 26c-1-7.9-3.7-12.5-8.7-12.5-6.2 0-10.2 8.6-10.2 35.6 0 17.3 1.6 31.9 10.2 31.9 8 0 9.8-11.8 10.2-29.6h-12.1V40.8h23.9v9.9c0 20.5-3.9 41.1-22.1 41.1-20.5 0-22.6-22.4-22.6-44.5 0-23.6 4.2-44.5 22.6-44.5 11.8 0 17.5 7.8 20.2 18.9L407 26zm36.2-21.4H455v35.1h17.1V4.6h11.8V90h-11.8V49.7H455V90h-11.8V4.6zm66.8 0h11.8V90H510V4.6zm65.9 0v68.9c0 9.3-4.4 18.2-16.8 18.2-7.2 0-12.2-2.8-15.6-7.7l8-8.1c1.5 3.4 4.1 5.7 6.6 5.7 3.8 0 5.9-3 5.9-7v-70h11.9zm36.4 0v38.7h.2l18.7-38.7H644l-20.4 40L645.4 90h-13.2l-19.6-42.6h-.2V90h-11.8V4.6h11.7zm66.9 0v74.8h19V90h-30.9V4.6h11.9zm51.8 0l17.2 57h.2l17.2-57h12.8V90h-11.3V33.1h-.2l-14 48.5h-9.1l-14-48.5h-.2V90h-11.3V4.6H731zm83.8 0l17.4 54.1h.2V4.6h11.3V90h-11.8l-17.4-54.1h-.2V90H803V4.6h11.8zm74-1.8c20.4 0 22.5 22.4 22.5 44.5 0 23.6-4.2 44.5-22.5 44.5-20.5 0-22.6-22.4-22.6-44.5 0-23.6 4.1-44.5 22.6-44.5zm0 78.2c8.4 0 10.1-14.6 10.1-36.4 0-25.9-4.4-31.1-10.1-31.1-6.2 0-10.2 8.6-10.2 35.6 0 17.3 1.6 31.9 10.2 31.9zm44.9-76.4h12c15.3 0 25.5 7.2 25.5 26.5 0 15.8-7.7 26.7-23.7 26.7h-2V90h-11.8V4.6zm11.8 43c10.2 0 13.2-7.5 13.2-16.8 0-9.9-4.1-16.1-13.2-16.1v32.9zm-907 197.7c-1 .3-2.1.7-3.1.9-1.2.1-2.2.2-3.5.2-20.5 0-22.6-22.4-22.6-44.5 0-23.6 4.2-44.5 22.6-44.5 20.4 0 22.5 22.4 22.5 44.5 0 15.1-1.7 29.1-7.9 37.3l5.2 8-8.9 5.9-4.3-7.8zm-2.2-21.8l3.1 4.8c2-6.3 2.6-16.4 2.6-28.9 0-25.9-4.4-31.1-10.1-31.1-6.2 0-10.2 8.6-10.2 35.6 0 17.3 1.6 31.9 10.2 31.9.5 0 .8 0 1.3-.1l-4.3-7.9 7.4-4.3zm41.2-64.2h19.2c12.9 0 22.1 9.2 22.1 23.4 0 8.7-4.9 18.5-14.6 21.1l17.3 40.9h-13.6l-15.7-39.1h-2.8v39.1H77.5v-85.4zm11.9 36.2c11.6 0 16.9-3.6 16.9-13.6 0-7.1-4.5-12.5-12.9-12.5h-4.1v26.1zm78.3-15.4c-.5-6.4-2.6-11.8-8.6-11.8-4.6 0-7.4 4.2-7.4 8.9 0 4.3 1.9 9.2 8 15.2l9.6 9.4c8.1 7.9 10.6 14.4 10.6 23.3 0 11.7-7.1 21.4-20.5 21.4-11.6 0-19.3-7.2-20.7-20.4l11.3-3.6c.7 7.9 3.6 13.9 9.5 13.9 4.3 0 8.6-3.6 8.6-10.4 0-4.6-2-9.9-8.4-16.3l-9.3-9.2c-7.7-7.7-10.6-14.3-10.6-22.6 0-12.7 9.2-20.3 19-20.3 11.7 0 19.2 7.1 19.5 18.7l-10.6 3.8zm44.6-10.1h-15.1v-10.7h42V170h-15.1v74.8h-11.8V170zm88.3 53.6c0 17.5-8.6 22.9-20.2 22.9-11.8 0-20.4-5.3-20.4-22.9v-64.3h11.8v64.2c0 5.3 1.3 12.3 8.6 12.3 7.1 0 8.4-7 8.4-12.3v-64.2h11.8v64.3zm32.9-64.3l9.3 60.1h.2l8.8-60.1h11.8l-15.3 85.4H337l-16-85.4h12.5zm115.3 0l-14.6 85.4h-11.3l-8.6-60.4h-.3l-8.6 60.4h-11.3l-14.6-85.4H392l8 60.1h.2l7.7-60.1h12.4l7.8 60.1h.2l8.6-60.1h11.9zm17.1 0h12.4l7.2 27.4h.2l7.8-27.4H506l-14.2 41.1 15.4 44.3h-12.4l-9.1-31h-.2l-8.5 31h-12.4l15.3-44.3-14-41.1zm70 0l9.3 35.6h.2l8.8-35.6H566l-15.1 51v34.5h-11.8v-34.5l-15.7-51h12.5zm-515.3 227v-4.9h-.1c-1.7 3.9-3.9 5.5-7 5.5-2.4 0-6.8-1.3-6.8-9.5 0-8.8 3.4-11.8 11.7-11.8h2.2v-4.3c0-2.2-1-3.9-3.8-3.9-2.4 0-3.5 1.3-3.9 4.2l-5.4-1.5c.9-6 4.8-7.8 9.5-7.8 5.8 0 9.2 2.6 9.2 8.8v25.3h-5.6zm-4.6-4.6c1.9 0 4.7-2.2 4.7-7.2v-4.4h-1.6c-5.7 0-6.3 3.2-6.3 6.5-.1 3 .5 5.1 3.2 5.1zm22.7-41.2h5.7V358h.1c1.4-4.1 3.2-5.8 6.4-5.8 4 0 7.6 3.4 7.6 17.2 0 10.7-2.6 17.4-7.8 17.4-3.3 0-5.1-2.2-6.2-6l-.1-.1v5.5h-5.7v-45.7zm9.7 40.9c1.7 0 3.9-1.6 3.9-11.9s-2.2-11.9-3.9-11.9c-1.7 0-3.9 1.6-3.9 11.9s2.1 11.9 3.9 11.9zm33.1-18.8c-.1-3.2-.7-4.9-2.7-4.9s-3.4 1.6-3.4 12c0 7.7.9 11.8 3.5 11.8 2 0 2.9-1.6 3.3-5.7l5.4 1.9c-.9 6.1-3.4 9.3-8.7 9.3-6.5 0-9.5-5.2-9.5-16.7 0-12.4 3-17.9 9.8-17.9 5.8 0 8 4.9 8.2 9.1l-5.9 1.1zm30.1 18.1l-.1.1c-1.1 3.9-2.9 6-6.2 6-5.2 0-7.8-6.7-7.8-17.4 0-13.8 3.6-17.2 7.6-17.2 3.2 0 5 1.7 6.4 5.8h.1v-17.6h5.7v45.8h-5.7v-5.5zm-4 .7c1.7 0 3.9-1.6 3.9-11.9s-2.2-11.9-3.9-11.9c-1.7 0-3.9 1.6-3.9 11.9s2.3 11.9 3.9 11.9zm27.9-11.2c.1 6 .4 11.6 4.3 11.6 2.8 0 3.7-3.4 3.8-5.9h5.4c-.1 5.7-3 11-9.3 11-7 0-10.2-4.9-10.2-18.2 0-11.4 3.9-16.4 10.3-16.4 6 0 9.8 4.7 9.8 13.1v4.8h-14.1zm8.3-4.6c0-4-1-8.2-4.2-8.2-3.3 0-4.1 4.2-4.1 8.2h8.3zm25.1 20.7h-6v-28.1h-3.2v-5.4h3.2v-5c0-4.9 1-7.9 6.4-7.9 1.1 0 2.1.1 2.9.2v5.7c-.2-.1-.6-.2-1.1-.2-1.2 0-2.1.7-2.1 2.6v4.5h3.2v5.4H169v28.2zm32.8-33.5v35.5c0 5.7-3.4 10.2-10.2 10.2-4.4 0-7.3-1.4-9.3-4.5l4.9-3.4c.9 1.6 2.5 2.8 4.5 2.8 3.5 0 4.5-3.2 4.5-9.8v-2.9h-.1c-1.1 3.9-2.9 6-6.2 6-5.2 0-7.8-6.7-7.8-17.4 0-13.8 3.6-17.2 7.6-17.2 3.5 0 5.3 2.2 6.7 6h.1v-5.5h5.3zm-9.7 4.8c-1.7 0-3.9 1.6-3.9 11.9s2.2 11.9 3.9 11.9c1.7 0 3.9-1.6 3.9-11.9s-2.1-11.9-3.9-11.9zm22.5-17.1h6v16.1h.1c1.1-2.4 3.2-4.4 6.3-4.4 3.4 0 6.3 3 6.3 7.4v26.6h-6V362c0-2.6-1.2-4.1-2.9-4.1-2.4 0-3.7 2.3-3.7 4.7v23.6h-6v-45.7zm34.6.7c2.2 0 3.9 1.7 3.9 3.9s-1.7 3.9-3.9 3.9c-2.1 0-3.9-1.7-3.9-3.9 0-2.1 1.7-3.9 3.9-3.9zm-3 11.6h6v33.5h-6v-33.5zm24.9 0V389c0 6.8-3.2 9.1-7.3 9.1-.7 0-1.8-.2-2.6-.4V392c.4.2.8.4 1.2.4 1.7 0 2.6-1.6 2.6-4.3v-35.4h6.1zm-3.1-11.6c2.2 0 3.9 1.7 3.9 3.9s-1.7 3.9-3.9 3.9c-2.1 0-3.9-1.7-3.9-3.9.1-2.1 1.8-3.9 3.9-3.9zm15.9-.7h6v26.1h.1l5.2-13.8h6l-5.9 14.1 5.9 19.4h-6L290 369h-.1v17.3h-6v-45.8zm28.1 0h6v36.6c0 2.6 1.1 4 3.9 4h.6v5.7h-2.2c-5 0-8.3-2.2-8.3-8.5v-37.8zm20.1 12.3h5.7v5h.1c1.4-3.5 3.5-5.6 6.7-5.6s4.9 2.1 6 5.5h.1c.9-2.4 2.7-5.5 7.2-5.5 4.2 0 6.7 3 6.7 7.3v26.8h-6v-23.5c0-2.6-.8-4.9-3.2-4.9-2.8 0-4 2.7-4 6v22.3h-6v-23.5c0-2.6-.8-4.9-3.2-4.9-2.8 0-4 2.7-4 6v22.3h-6v-33.3zm45.3 0h5.7v4.5h.1c1.5-3.7 3.7-5.1 6.7-5.1 3.3 0 6.2 3 6.2 7.4v26.6h-6V362c0-2.6-1.2-4.1-2.9-4.1-2.4 0-3.7 2.3-3.7 4.7v23.6h-6v-33.4zm30.5 16.7c0-9.6 2.6-17.3 10.5-17.3s10.5 7.7 10.5 17.3-2.6 17.3-10.5 17.3-10.5-7.7-10.5-17.3zm14.6-1.6c0-6.1-.9-10.6-4.1-10.6s-4.1 4.5-4.1 10.6c0 9.1 1.3 13.8 4.1 13.8s4.1-4.6 4.1-13.8zm18.1-15.1h5.4v5.5h.1c1.4-3.9 3.2-6 6.7-6 4 0 7.6 3.4 7.6 17.2 0 10.7-2.6 17.4-7.8 17.4-3.3 0-5.1-2.2-6.2-6l-.1-.1v17.4h-5.7v-45.4zm9.7 28.6c1.7 0 3.9-1.6 3.9-11.9s-2.2-11.9-3.9-11.9c-1.7 0-3.9 1.6-3.9 11.9s2.1 11.9 3.9 11.9zm35-.7l-.1.1c-1.1 3.9-2.9 6-6.2 6-5.2 0-7.8-6.7-7.8-17.4 0-13.8 3.6-17.2 7.6-17.2 3.5 0 5.3 2.2 6.7 6h.1v-5.5h5.4v45.4h-5.7v-17.4zm-3.9.7c1.7 0 3.9-1.6 3.9-11.9s-2.2-11.9-3.9-11.9c-1.7 0-3.9 1.6-3.9 11.9s2.2 11.9 3.9 11.9zm22.5-28.6h5.7v6.1h.1c.6-3 2.7-6.3 7.2-6.7h.1v7c-.5-.2-1.1-.3-1.8-.3-2.3 0-5.3 1.6-5.3 7.8v19.5h-6v-33.4zm27.5 24.3c.1 2.4 1.6 4.7 4.1 4.7 2.2 0 3.4-1.7 3.4-3.4 0-1.6-.9-3.4-3.7-5.6l-3.2-2.5c-4.1-3.2-5.5-5.7-5.5-9.2 0-5.5 3.9-8.8 8.9-8.8 5.2 0 7.7 2.9 9.1 6.5l-5.2 3.1c-.1-2.4-1.4-4.5-4-4.5-1.9 0-3.1 1.2-3.1 3 0 1.4.6 2.6 3.7 5l3.8 2.9c3.9 3 5.2 6.1 5.2 9.4 0 4.9-3.4 9.1-9.6 9.1-4.4 0-7.3-1.9-9.2-6.5l5.3-3.2zm35.1-18.9h-3.2v19.7c0 1.7.9 2.6 2.5 2.6h.7v5.4c-1 .2-2 .3-2.9.3-3.9 0-6.4-1.8-6.4-6v-22h-3.2v-5.4h3.2v-8.3h6v8.3h3.2v5.4zm29.5 28.1h-5.7v-4.5h-.1c-1.5 3.7-3.7 5.1-6.7 5.1-3.3 0-6.2-3-6.2-7.4v-26.6h6V377c0 2.6 1.2 4.1 2.9 4.1 2.4 0 3.7-2.3 3.7-4.7v-23.6h6v33.5zm30.2-33.5l-6.8 33.5h-5.7l-6.8-33.5h6.3l3.5 21.9h.1l3.4-21.9h6zm32.7 33.5H653l-3.3-25.4h-.1l-3.2 25.4h-5.7l-5.9-33.5h6l2.9 21.9h.1l2.8-21.9h6l3 21.9h.1l2.7-21.9h6l-5.6 33.5zm21.2-33.5l3.2 10.8h.1l3-10.8h5.7l-6.2 15.9 6.7 17.6h-6l-3.6-12.2h-.1l-3.2 12.2h-6l6.7-17.5-6.5-16h6.2zm40.9 0l-9.3 45.4h-6l3-13.4-7-31.9h6l4 22h.1l3.2-22h6zm19.8 5.4H730v-5.4h18.5v.7l-10.5 27h10.6v5.7h-18.5v-.7l10.6-27.3zM12 479.6v-35c-1.1 1.2-4.2 3-5.7 3.5v-5.7c3.9-1.7 8-4.7 10.9-7.3h1.2v44.5H12zm40.7 0H31.4l10.5-20.3c2.2-4.3 4.8-9.5 4.8-13.3 0-2.6-1.4-5.2-3.9-5.2-3.1 0-4.1 2.9-4.4 7.8H32c0-7.3 2.6-13.5 11-13.5 6.9 0 10.3 5.4 10.3 10.6 0 5.4-3.5 11.8-6.6 17.4l-5.9 10.8h12v5.7zm22.1-38H64.4v-5.7h19.8v.7l-10.1 16.1c.7-.2 1.4-.2 2.2-.2 5.7 0 8.1 5.3 8.1 14.1 0 8-4.1 13.8-11 13.8-6.8 0-9.9-5-9.9-12.8h6.3c0 4.2.9 7 4 7 3.2 0 4.2-3.9 4.2-8.9s-1.5-8.7-4.9-8.7c-1.5 0-2.7.6-3.8 2.1l-3.7-2.9 9.2-14.6zm37.6-5.7V466h4.7v5.4h-4.7v8.3h-6v-8.3H93.6V467l13-31.1h5.8zm-6.1 30.1v-18.7h-.1L98.7 466h7.6zm39.9-24.4h-12.5l-.2 10.8.1.1c1.4-2.2 3.2-3.2 6-3.2 3.6 0 8.1 3.5 8.1 14.2 0 7-1.1 16.8-10.5 16.8-8.3 0-10.5-6.4-10.5-11.9V467h6c0 3.7.9 8 4 8 3.6 0 4.5-4.6 4.5-10.8 0-6.7-1.7-9.3-4.4-9.3-1.7 0-3.6 1.1-3.8 4.7h-5.4l.2-23.6H146v5.6zm30.5-5.7c-3 4.2-6.2 10.1-9 15.4h.1c.9-.5 2.1-.8 3.4-.8 3.8 0 8.2 3.3 8.2 15.1 0 6.8-2.7 14.8-10.6 14.8-7.3 0-10.6-6-10.6-15 0-8.1 2.6-15.1 11.2-29.5h7.3zm-12.4 29.4c0 4 .9 9.7 4.5 9.7 2.8 0 4.1-3.4 4.1-9.7 0-6.1-1.2-9.3-4-9.3-3.4-.1-4.6 4.4-4.6 9.3zm26.3-29.4h21l-14.3 43.8H191l12.5-38h-12.8v-5.8zm36.7 20c-4-1.9-4.9-4.9-4.9-9.2 0-6.6 3.3-11.6 9.6-11.6s9.6 5 9.6 11.6c0 4.4-.9 7.3-4.9 9.2 4.2 1.9 5.7 5.7 5.7 11.5 0 6.2-2.6 13-10.5 13s-10.5-6.8-10.5-13c.2-5.8 1.7-9.6 5.9-11.5zm4.8 18.8c3.2 0 4.1-3.8 4.1-7.9 0-4.5-1-7.7-4.1-7.7-3.1 0-4.1 3.2-4.1 7.7 0 4.1.8 7.9 4.1 7.9zm0-21.1c2.7 0 3.6-3 3.6-6.7s-1.1-6.3-3.6-6.3c-2.6 0-3.6 2.6-3.6 6.3 0 3.7.8 6.7 3.6 6.7zm23.7 26c3-4.2 6.2-10.1 9-15.4h-.1c-.9.5-2.1.8-3.4.8-3.8 0-8.2-3.3-8.2-15.1 0-6.8 2.7-14.8 10.6-14.8 7.3 0 10.6 6 10.6 15 0 8.1-2.6 15.1-11.2 29.5h-7.3zm12.4-29.3c0-4-.9-9.7-4.5-9.7-2.8 0-4.1 3.4-4.1 9.7 0 6.1 1.2 9.3 4 9.3 3.4 0 4.6-4.5 4.6-9.3zm16.7 6.8c0-11.1.7-21.9 10.5-21.9s10.5 10.8 10.5 21.9c0 13.8-1.4 23.3-10.5 23.3-9.2 0-10.5-9.6-10.5-23.3zm6.3 0c0 12.7.7 17.6 4.1 17.6 3.7 0 4.1-4 4.1-17.6 0-12.5-.6-16.2-4.1-16.2-3.5 0-4.1 3.6-4.1 16.2zm40-23.3c-4.3 8.2-6.3 17.4-6.3 26.9s2.1 18.7 6.3 26.9l-5.4 2.7c-4.9-9.1-7-19.5-7-29.6 0-10.1 2.1-20.4 7-29.6l5.4 2.7zm9.2 53.8c4.3-8.2 6.3-17.4 6.3-26.9s-2.1-18.7-6.3-26.9l5.4-2.7c4.9 9.1 7 19.5 7 29.6 0 10.1-2.1 20.4-7 29.6l-5.4-2.7zm30.6-15c2.1 0 3.7 1.7 3.7 3.7 0 2.1-1.7 3.7-3.7 3.7-2.1 0-3.7-1.7-3.7-3.7 0-2.1 1.6-3.7 3.7-3.7zm3.5-38.8l-1.2 34h-4.6l-1.2-34h7zm17.3 34c.2-7.7.7-9.4 2.4-12.2l2.6-4.2c1.9-3 2.2-4.5 2.2-8s-.9-5.1-3.2-5.1c-3 0-3.4 3.6-3.5 7.8H386v-1c0-7.2 3.1-12.3 10.1-12.3 5 0 9.3 3 9.3 10.6 0 3.8-.7 6-2.9 9.3l-2.7 4.1c-2.1 3-2.4 5.5-2.5 10.8h-5.5zm2.7 4.8c2.1 0 3.7 1.7 3.7 3.7 0 2.1-1.7 3.7-3.7 3.7-2.1 0-3.7-1.7-3.7-3.7 0-2.1 1.7-3.7 3.7-3.7zm42.3-4.7l3-4.3 4.4 3.5-4.5 6.1 3.3 6.3h-6.3l-1.3-2.9c-2.1 2.2-5.3 3.4-9 3.4-7.2 0-11-5.2-11-11.2 0-4.7 2.9-9.1 8.7-13.4-2.3-4.5-3-7.1-3-10 0-4.9 3.4-8.3 8.2-8.3 4.1 0 8.3 2.9 8.3 8.3 0 4.1-2 7.9-6.4 11.3l5.6 11.2zm-10.2-7.4c-3.6 2.4-5.3 5.2-5.3 8 0 3.4 2.4 6.2 5.7 6.2 2.2 0 4-.9 5.4-2.4l-5.8-11.8zm2.3-8.4c2.2-2.3 2.9-4.4 2.9-6.1 0-2.2-1.1-3.3-2.6-3.3s-2.6 1.1-2.6 3.3c.1 1.3.9 4 2.3 6.1zm25.1-5.6l3.7-12.7h6l-5.1 12.7H454zm16.2 0l3.7-12.7h6l-5.1 12.7h-4.6z"/></svg>