<?xml version="1.0" encoding="utf-8"?>
<!-- Generator: Adobe Illustrator 21.0.2, SVG Export Plug-In . SVG Version: 6.00 Build 0)  -->
<svg version="1.1" id="st_x5F_wilfs_x5F_body" xmlns="http://www.w3.org/2000/svg" xmlns:xlink="http://www.w3.org/1999/xlink"
	 x="0px" y="0px" viewBox="0 0 1000 500" style="enable-background:new 0 0 1000 500;" xml:space="preserve">
<g>
	<path d="M7.6,54.7h0.7c0.9,0,1.4,0.6,1.4,1.8c0,0.2,0,0.5-0.1,0.7c0,0.2-0.1,0.5-0.2,0.8c-0.2,0.8-0.4,1.5-0.7,2.3
		c-0.2,0.8-0.4,1.6-0.6,2.3C8,62.9,8,63.2,7.9,63.5C8,63.8,8,64,8,64.2c0,1.1,0.3,2,1,2.7s1.6,1.1,2.9,1.2l1.8,0.2h0.9
		c2.3,0,3.9-1.2,4.5-3.7l2.6-9.4c0.4-1.6,1.4-2.5,3.1-2.6c4.5-0.5,9.1-0.8,13.6-1.2c4.5-0.3,9.1-0.6,13.7-0.8c1.4,0,2.6,0.6,3.5,1.8
		c1.9,2.5,3.7,4.9,5.6,7.4c1.8,2.5,3.7,5,5.5,7.6c0.5,0.7,1.1,1.2,1.7,1.6s1.2,0.6,1.9,0.6c0.5,0,1-0.1,1.4-0.3
		c0.5-0.2,1-0.5,1.5-0.8l2.2-1.5c1.5-1,2.3-2.2,2.3-3.6c0-0.9-0.3-1.9-1-2.9l-6.1-8.3c-0.5-0.8-0.8-1.6-0.8-2.4c0-0.2,0-0.5,0.1-0.7
		c0-0.2,0.1-0.5,0.2-0.8l1.1-3.2c0.1-0.3,0.2-0.6,0.2-0.9s0-0.6,0-0.8c0-1.1-0.4-2-1.1-2.6s-1.8-0.9-3.1-0.9H64
		c-0.8,0-1.4-0.1-2-0.4c-0.5-0.3-1.1-0.7-1.6-1.3c-3.3-4.5-6.1-8.3-8.4-11.4c-2.3-3.2-4.4-5.8-6.2-8.1c-1.8-2.2-3.4-4.1-4.8-5.5
		c-1.4-1.4-2.9-2.7-4.4-3.7c-1.1-0.7-2.2-1.1-3.3-1.1c-0.9,0-1.7,0.1-2.6,0.4c-0.9,0.2-1.7,0.6-2.5,1s-1.5,0.8-2.1,1.3
		s-1.1,1-1.4,1.4c-0.8,1.1-1.5,2.3-2.1,3.6s-1.2,2.7-1.6,4c-0.5,1.4-0.9,2.7-1.3,4.1c-0.4,1.4-0.8,2.7-1.2,3.9
		c-0.7,2.2-1.4,4.3-2,6.5s-1.3,4.4-1.9,6.5c-0.2,0.8-0.6,1.4-1.1,1.8s-1.2,0.7-2,0.8l-1.3,0.1c-2.6,0.5-3.9,2-4,4.8
		c-0.1,0.7-0.1,1.2-0.1,1.4c0,0.2,0,0.5,0,0.7c0,1.2,0.2,2.1,0.5,2.7C6.4,54.4,6.9,54.7,7.6,54.7z M26.2,39.3c0-0.2,0-0.3,0.1-0.5
		c0.7-2.3,1.4-4.5,2.1-6.7s1.4-4.4,2.2-6.6c0.4-1.3,1-2,2-2c0.3,0,0.7,0.1,1,0.3s0.6,0.5,1,0.9c1.7,2,3.4,4.1,5,6.1
		c1.6,2.1,3.2,4.1,4.8,6.3c0.5,0.7,0.7,1.3,0.7,1.8s-0.2,1-0.7,1.3c-0.4,0.3-1,0.5-1.8,0.6c-2.3,0.1-4.5,0.3-6.8,0.4
		c-2.3,0.2-4.5,0.4-6.8,0.7h-0.6c-1.5,0-2.2-0.7-2.2-2.1C26.2,39.7,26.2,39.5,26.2,39.3z"/>
	<path d="M87.3,28.4c0.3,0,0.6,0,0.9-0.1c0.3,0,0.5-0.1,0.8-0.1s0.5,0.1,0.7,0.4c0.2,0.3,0.3,0.7,0.4,1.1c1.4,6.9,2.5,13.8,3.5,20.6
		c1,6.8,1.7,13.7,2.4,20.6c0.2,1.6,0.7,2.8,1.5,3.5s1.8,1,2.9,1c1.2,0,2.4-0.4,3.6-1.1s2.1-1.7,2.7-3c0.4-0.8,0.9-1.1,1.5-1.1
		c0.3,0,0.5,0,0.7,0.1c2.3,0.7,4.8,1.2,7.2,1.7c2.5,0.4,4.9,0.7,7.4,0.7c3.1,0,6.1-0.3,8.8-1s5-1.8,7-3.2c2-1.4,3.5-3.2,4.6-5.4
		c1.1-2.2,1.7-4.7,1.7-7.6c0-2.1-0.5-4-1.4-5.9s-2.2-3.5-3.7-4.8c-1.5-1.4-3.4-2.5-5.4-3.4c-2.1-0.9-4.2-1.4-6.4-1.6
		c-0.8-0.1-1.1-0.3-1.1-0.7c0-0.2,0-0.4,0.1-0.5c0.1-0.2,0.2-0.4,0.5-0.7c1.9-2,3.3-4.2,4.1-6.4s1.2-4.3,1.2-6.2s-0.4-3.7-1.1-5.5
		c-0.7-1.8-1.9-3.3-3.5-4.7s-3.6-2.5-6-3.3s-5.3-1.2-8.7-1.2c-1.9,0-3.9,0.2-6.2,0.5c-2.3,0.4-4.6,0.9-6.9,1.5s-4.6,1.4-6.8,2.2
		c-2.2,0.9-4.1,1.8-5.8,2.9c-1.7,1-3.1,2.1-4.1,3.3s-1.6,2.4-1.6,3.6c0,1.1,0.4,2,1.2,2.7C84.8,28,85.9,28.4,87.3,28.4z M124.3,47.5
		c1.7,0.3,3.3,0.8,4.7,1.6c1.4,0.7,2.6,1.7,3.6,2.8c0.9,1.2,1.4,2.6,1.4,4.3c0,1.2-0.2,2.2-0.7,3s-1.1,1.5-1.9,2
		c-0.8,0.5-1.7,0.9-2.7,1.2c-1,0.2-2.1,0.4-3.2,0.4c-1.4,0-2.9-0.1-4.5-0.3c-1.5-0.2-3.1-0.4-4.6-0.7c-1.5-0.3-3-0.6-4.4-1
		s-2.7-0.7-3.9-1c-0.9-0.2-1.4-0.8-1.5-1.8c-0.2-1.1-0.4-2.2-0.5-3.2c-0.2-0.8-0.3-1.6-0.4-2.3c-0.1-0.7-0.1-1.1-0.1-1.2
		c0-0.9,0.4-1.5,1.2-1.8c2.2-0.6,4.3-1.2,6.4-1.6c2.1-0.5,4.2-0.7,6.2-0.7C121,47.1,122.6,47.2,124.3,47.5z M101.6,22.7
		c0.2-0.2,0.5-0.3,1-0.4c1.4-0.4,2.9-0.7,4.4-1s3.1-0.3,4.6-0.3s2.8,0.1,4.1,0.3c1.2,0.2,2.3,0.6,3.3,1.2c0.9,0.5,1.7,1.2,2.2,2.1
		c0.5,0.9,0.8,1.9,0.8,3.1c0,1.6-0.5,3-1.4,4.2s-2.1,2.2-3.5,3.1c-1.4,0.9-3,1.6-4.7,2.2c-1.7,0.6-3.4,1.2-4.9,1.7
		c-0.6,0.2-1.1,0.3-1.4,0.4c-0.4,0.1-0.7,0.1-0.9,0.1c-0.4,0-0.7-0.1-0.9-0.4c-0.2-0.3-0.4-0.8-0.5-1.5c-0.2-1.2-0.5-2.5-0.8-3.9
		c-0.3-1.5-0.5-2.9-0.8-4.2c-0.2-1.4-0.5-2.6-0.6-3.7c-0.2-1.1-0.3-1.8-0.3-2.2C101.2,23.2,101.4,22.9,101.6,22.7z"/>
	<path d="M167,58.1c3.1,2.5,6.8,4.4,11.1,5.8s9,2.1,14.1,2.1c4.6,0,8.9-0.5,12.8-1.6c3.9-1.1,7.3-2.6,10.2-4.4
		c2.9-1.9,5.1-4.1,6.7-6.8c1.6-2.6,2.4-5.5,2.4-8.5c0-1.5-0.2-2.9-0.6-4.3c-0.4-1.3-0.9-2.5-1.6-3.5c-0.7-1-1.5-1.8-2.5-2.4
		c-1-0.6-2-0.9-3.1-0.9c-0.9,0-1.8,0.2-2.6,0.5c-0.9,0.3-1.6,0.7-2.3,1.2s-1.2,1.1-1.6,1.8c-0.4,0.7-0.6,1.4-0.6,2.2s0.2,1.4,0.5,2
		c0.3,0.5,0.7,1,1.2,1.5c0.4,0.5,0.8,1.1,1.2,1.7c0.3,0.6,0.5,1.4,0.5,2.4c0,1.2-0.5,2.4-1.5,3.4c-1,1.1-2.4,2-4.1,2.8
		c-1.7,0.8-3.8,1.4-6.1,1.9s-4.8,0.7-7.4,0.7c-3.6,0-6.9-0.5-9.9-1.5s-5.7-2.4-7.9-4.1c-2.2-1.8-4-3.8-5.3-6.2
		c-1.3-2.4-1.9-4.9-1.9-7.7c0-2.7,0.4-5.3,1.1-7.7c0.8-2.4,1.8-4.4,3.1-6.2s2.9-3.1,4.7-4.1s3.7-1.5,5.9-1.5c1,0,1.8,0.2,2.3,0.7
		c0.6,0.5,1.1,1,1.6,1.5s1,1,1.6,1.5s1.4,0.7,2.4,0.7c0.9,0,1.8-0.2,2.7-0.6c0.9-0.4,1.6-0.9,2.2-1.5c0.6-0.6,1.2-1.3,1.6-2.2
		c0.4-0.8,0.6-1.7,0.6-2.6c0-1.1-0.3-2.2-0.9-3.1c-0.6-1-1.5-1.8-2.6-2.5s-2.4-1.3-3.9-1.7c-1.5-0.4-3.1-0.6-4.9-0.6
		c-4,0-7.8,0.9-11.3,2.6s-6.6,4-9.3,6.9c-2.6,2.9-4.7,6.3-6.3,10.2c-1.5,3.9-2.3,8-2.3,12.4c0,4,0.9,7.7,2.6,11.1
		C161.5,52.7,163.9,55.6,167,58.1z"/>
	<path d="M226.7,22.9c0.2,0,0.5,0,0.9-0.1c0.3,0,0.8-0.1,1.2-0.2c1.5-0.2,2.7-0.4,3.7-0.6c0.9-0.2,1.7-0.2,2.4-0.2
		c0.4,0,0.9,0.5,1.4,1.6c0.5,1,1,2.4,1.5,4.2c0.5,1.7,1,3.7,1.4,6c0.5,2.2,0.9,4.6,1.2,7.1c0.4,2.5,0.6,4.9,0.9,7.4
		c0.2,2.5,0.3,4.8,0.3,6.9c0,0.4-0.1,0.7-0.3,1.1s-0.5,0.7-0.7,1.1s-0.5,0.8-0.7,1.2c-0.2,0.4-0.3,0.9-0.3,1.4
		c0,2.2,1.2,3.7,3.5,4.3c5.1,1.6,9.7,2.7,13.9,3.5c4.2,0.7,8.2,1.1,12.1,1.1c4.8,0,9.5-0.6,13.9-1.8c4.4-1.2,8.3-2.8,11.7-4.9
		c3.4-2,6-4.4,8-7.1s3-5.5,3-8.4s-0.8-5.8-2.4-8.7c-1.6-2.9-3.7-5.6-6.5-8.3c-2.8-2.6-6.1-5.1-9.8-7.3c-3.8-2.2-7.9-4.2-12.3-5.8
		s-9-2.9-13.9-3.9c-4.9-0.9-9.7-1.4-14.7-1.4c-3.7,0-7,0.1-10,0.4c-3,0.3-5.8,0.7-8.4,1.3c-2.9,0.8-4.4,2.7-4.4,5.8
		c0,1.5,0.3,2.7,0.8,3.3C224.5,22.5,225.4,22.8,226.7,22.9z M250.6,21.8c6,0.6,11.7,1.7,16.8,3.3c5.2,1.5,9.7,3.4,13.5,5.5
		s6.8,4.5,9,7.1s3.3,5.3,3.3,8c0,1.7-0.6,3.3-1.8,4.8c-1.2,1.5-2.9,2.9-4.9,4.1c-2.1,1.2-4.4,2.1-7.1,2.8c-2.7,0.7-5.5,1-8.5,1
		c-2.2,0-4.4-0.1-6.5-0.4c-2.1-0.2-4-0.6-5.6-1s-2.9-0.9-3.9-1.4s-1.5-1-1.5-1.6c-0.3-3.5-0.6-6.6-0.9-9.4c-0.3-2.8-0.6-5.3-0.9-7.5
		c-0.3-2.2-0.6-4.3-0.9-6.1c-0.3-1.8-0.6-3.5-1-5.1c-0.2-1-0.4-1.7-0.5-2.2s-0.2-0.8-0.2-1C248.9,22.2,249.5,21.8,250.6,21.8z"/>
	<path d="M361.6,69.6c3.7,0,7.5-0.3,11.2-0.9s7-1.5,10-2.7s5.3-2.7,7.2-4.5c1.8-1.8,2.7-4,2.7-6.5c0-0.9-0.2-1.9-0.5-2.8
		c-0.4-0.9-0.9-1.7-1.5-2.4c-0.7-0.7-1.4-1.3-2.4-1.7c-0.9-0.4-1.9-0.7-3-0.7c-0.9,0-1.7,0.2-2.6,0.5c-0.9,0.4-1.6,0.8-2.3,1.4
		c-0.7,0.6-1.2,1.2-1.6,2c-0.4,0.7-0.6,1.5-0.6,2.2c0,0.5,0.1,1,0.4,1.5s0.4,0.9,0.4,1.3c0,0.5-0.3,0.8-1,1.2
		c-0.7,0.3-1.6,0.6-2.7,0.8c-1.1,0.2-2.3,0.4-3.6,0.5c-1.3,0.1-2.6,0.2-3.9,0.3c-1.3,0.1-2.4,0.1-3.5,0.1s-1.9,0-2.4,0
		c-1.3,0-2.8-0.1-4.3-0.3c-1.5-0.2-3.1-0.4-4.7-0.8c-1.6-0.3-3.2-0.7-4.6-1.2c-1.5-0.5-2.8-1-4-1.6s-2.2-1.3-2.9-2
		c-0.8-0.7-1.2-1.5-1.3-2.3c0-0.2,0.1-0.4,0.3-0.6c0.2-0.2,0.8-0.4,1.8-0.6c1.1-0.3,2.6-0.6,4.4-1s3.7-0.9,5.8-1.4
		c2.1-0.5,4.2-1,6.3-1.4c2.2-0.5,4.2-1,6-1.4c1.9-0.4,3.5-0.8,4.8-1.1c1.4-0.3,2.3-0.6,2.7-0.7c1.7-0.5,2.9-1.1,3.5-2.1
		c0.7-0.9,1-1.9,1-3c0-0.2,0-0.4-0.1-0.5c0-0.2-0.1-0.3-0.1-0.5c-0.2-1.2-0.6-2.1-1.1-2.9c-0.5-0.8-1.4-1.2-2.4-1.2
		c-0.7,0-2,0.2-3.7,0.6c-1.8,0.4-3.8,0.8-6.2,1.4c-2.3,0.5-4.8,1.2-7.5,1.8c-2.6,0.7-5.1,1.3-7.5,1.8s-4.6,1-6.5,1.4
		c-1.9,0.4-3.3,0.6-4.2,0.6c-0.4,0-0.7-0.2-0.9-0.5c-0.2-0.4-0.4-0.8-0.5-1.4c-0.1-0.6-0.2-1.2-0.3-1.9c0-0.7-0.1-1.3-0.1-2V32
		c0-0.5,0.1-1,0.4-1.3s0.7-0.5,1.2-0.6c3.9-0.5,7.7-1.1,11.6-1.6s7.8-1.1,11.6-1.8c3.9-0.7,7.7-1.4,11.5-2.2s7.6-1.8,11.3-2.9
		c1.5-0.5,2.6-1.2,3.3-2c0.7-0.9,1-1.8,1-2.7c0-0.6,0-1.2-0.1-1.8c-0.1-0.7-0.2-1.3-0.4-1.8c-0.2-0.5-0.6-1-1-1.3
		c-0.5-0.4-1.1-0.5-1.9-0.5c-0.6,0-1.2,0.1-2,0.3c-2.5,0.6-5.2,1.2-8.2,1.9c-3,0.6-6.1,1.3-9.3,1.9s-6.3,1.2-9.4,1.7s-5.9,1-8.4,1.4
		c-2.6,0.4-4.7,0.7-6.5,1c-1.8,0.2-3,0.3-3.6,0.3c-0.3,0-0.7-0.1-1-0.2c-0.3-0.2-0.7-0.3-1.1-0.5s-0.9-0.4-1.4-0.5
		c-0.5-0.2-1.2-0.2-2-0.2c-1.9,0-3.5,0.3-4.7,0.8s-2.1,1.2-2.8,2c-0.7,0.8-1.1,1.7-1.3,2.6c-0.2,0.9-0.3,1.7-0.3,2.5s0.1,1.5,0.3,2
		c0.2,0.5,0.4,1,0.7,1.4c0.2,0.4,0.5,0.8,0.7,1.2c0.2,0.3,0.3,0.7,0.4,1.1c0.1,1.9,0.2,3.5,0.3,4.8c0.1,1.4,0.1,2.7,0.1,3.9
		c0,0.5-0.1,0.8-0.4,1c-0.2,0.2-0.6,0.5-1,0.7c-1.4,0.6-2.4,1.4-3,2.3s-1,1.9-1,2.8c0,1.5,0.4,2.7,1.2,3.5c0.8,0.9,1.7,1.3,2.8,1.3
		c0.2,0,0.4,0,0.6-0.1c0.3,0,0.5-0.1,0.8-0.1s0.5-0.1,0.8-0.1c0.2,0,0.4-0.1,0.5-0.1c0.5,0,1,0.4,1.5,1.3c1.3,2.9,3,5.5,5.1,7.5
		c2.1,2.1,4.6,3.7,7.4,5c2.9,1.3,6.1,2.2,9.7,2.8C353.3,69.3,357.3,69.6,361.6,69.6z"/>
	<path d="M400.2,25.5c0.2,0.5,0.6,0.8,1,1.1c0.5,0.3,1.1,0.4,2,0.4c0.8,0,1.7-0.1,2.7-0.4c1-0.2,2-0.5,3-0.9c1-0.3,2-0.6,2.9-0.9
		c0.9-0.2,1.8-0.4,2.5-0.4s1.2,0.1,1.5,0.4c0.3,0.3,0.6,0.6,0.9,1.1c0.5,0.7,1,1.6,1.4,2.6s0.8,2.1,1.2,3.2c0.3,1.1,0.6,2.1,0.8,3.1
		c0.2,1,0.3,1.8,0.3,2.4c0,0.6-0.3,1-0.9,1c-1.2,0-2.3-0.2-3.4-0.5c-1-0.3-2-0.7-2.9-1.1c-0.9-0.4-1.8-0.8-2.6-1.1
		c-0.8-0.3-1.5-0.5-2.2-0.5c-0.6,0-1.2,0.2-1.8,0.5c-0.6,0.3-1.2,0.8-1.7,1.3s-1,1.2-1.3,1.9s-0.5,1.4-0.5,2.1c0,1.1,0.3,2.1,1,2.9
		s1.5,1.5,2.6,2.2c1.1,0.6,2.3,1.1,3.7,1.4c1.4,0.4,2.8,0.7,4.3,0.9c1.5,0.2,2.9,0.4,4.3,0.5s2.7,0.1,3.8,0.1c1,0,1.6,0.5,2,1.5
		c0.8,2.9,1.6,5.9,2.4,8.9s1.4,6,2,9.1c0.2,1.1,0.7,1.8,1.5,2.2c0.8,0.4,1.7,0.6,2.5,0.6c2.4,0,4.2-0.5,5.5-1.4s2-2.2,2-4
		c0-0.9-0.1-2-0.4-3.3c-0.3-1.4-0.6-2.8-1-4.3s-0.8-3-1.3-4.6c-0.5-1.5-0.9-2.9-1.2-4.2c0-0.1,0-0.2-0.1-0.3c0-0.1-0.1-0.2-0.1-0.3
		c0-0.4,0.1-0.8,0.4-1c0.3-0.3,0.6-0.4,1.1-0.5l1.4-0.1c2.7-0.3,5.2-0.5,7.6-0.6c2.4-0.2,4.5-0.4,6.3-0.9c1.8-0.4,3.2-1,4.3-1.9
		c1.1-0.9,1.6-2.1,1.6-3.8c0-0.4-0.1-0.8-0.2-1.4c-0.1-0.5-0.4-1-0.7-1.5c-0.3-0.5-0.8-0.9-1.4-1.2s-1.3-0.5-2.2-0.5
		c-1.6,0-3.3,0.1-4.9,0.3s-3.3,0.4-4.9,0.7c-1.6,0.2-3.3,0.5-4.9,0.7s-3.2,0.3-4.8,0.3c-0.6,0-1.2-0.1-1.5-0.3
		c-0.4-0.2-0.7-0.7-1-1.3c-0.3-0.8-0.8-1.8-1.3-3s-1-2.4-1.5-3.6c-0.5-1.2-0.9-2.4-1.2-3.4c-0.3-1.1-0.5-1.8-0.5-2.3
		s0.4-0.8,1.2-1.1c0.8-0.3,2-0.6,3.4-0.8s3-0.4,4.9-0.5c1.8-0.1,3.7-0.2,5.8-0.3c2-0.1,4-0.1,6.1-0.1c2,0,4,0,5.8,0h4.5
		c0.9,0,1.7-0.2,2.4-0.6c0.7-0.4,1.2-0.9,1.6-1.4c0.4-0.6,0.7-1.2,0.9-1.9c0.2-0.7,0.3-1.4,0.3-2c0-0.5,0-1.1-0.1-1.6
		s-0.2-1-0.5-1.4s-0.7-0.8-1.3-1c-0.6-0.3-1.4-0.4-2.5-0.4c-3.6,0-6.9,0-10.1,0.1c-3.2,0-6.5,0.2-9.8,0.4s-6.9,0.5-10.5,1
		c-3.7,0.5-7.8,1.1-12.2,1.9c-2.8,0.5-5.4,1-7.6,1.4s-4.2,1-5.8,1.6s-2.8,1.4-3.7,2.3s-1.3,2.1-1.3,3.5c0,0.5,0,1,0.1,1.5
		C399.8,24.5,399.9,25,400.2,25.5z"/>
	<path d="M487.5,61.7c3.5,2.2,7.8,3.9,12.7,5.1c4.9,1.2,10.4,1.8,16.3,1.8c4.5,0,8.6-0.6,12.5-1.8c3.9-1.2,7.2-2.7,10-4.7
		s5.1-4.3,6.7-6.9c1.6-2.6,2.4-5.3,2.4-8.2c0-2.5-0.6-4.9-1.9-7c-1.3-2.1-3.1-4-5.4-5.5c-2.3-1.5-5.1-2.7-8.4-3.5
		c-3.2-0.9-6.8-1.3-10.7-1.3c-2.5,0-5,0.2-7.6,0.5c-2.6,0.4-5.2,0.9-7.8,1.6c-2.6,0.7-5.2,1.6-7.7,2.6c-2.6,1-5,2.2-7.3,3.5
		c-0.7,0.4-1.4,0.6-2,0.6s-1-0.2-1.3-0.5s-0.5-0.8-0.5-1.4c0-0.7,0.2-1.5,0.7-2.6c0.4-1.1,1-2.2,1.7-3.3c0.7-1.2,1.5-2.3,2.4-3.5
		s1.9-2.2,2.8-3.1c0.7-0.7,1.4-1.3,2-1.9c0.7-0.6,1.5-1.2,2.4-1.8s2.1-1.4,3.4-2.2s3-1.8,4.9-2.9c1-0.5,1.7-1.2,2.3-1.9
		c0.5-0.8,0.8-1.5,0.8-2.4c0-0.6-0.1-1.2-0.4-1.8s-0.7-1.2-1.2-1.7s-1.2-0.9-1.9-1.2c-0.8-0.3-1.6-0.5-2.5-0.5
		c-0.7,0-1.5,0.1-2.3,0.3c-0.8,0.2-1.6,0.5-2.4,1c-3.9,2.2-7.4,4.6-10.3,7.3s-5.4,5.6-7.4,8.7S479,29.5,478,33s-1.5,7-1.5,10.6
		s1,7,2.9,10C481.2,56.9,483.9,59.5,487.5,61.7z M493.4,48.1c4-2.5,8.2-4.3,12.7-5.6c4.5-1.3,9.1-2,13.9-2c2.5,0,4.8,0.2,6.8,0.6
		c2.1,0.4,3.8,1,5.3,1.8s2.6,1.7,3.4,2.7c0.8,1.1,1.2,2.2,1.2,3.5s-0.5,2.5-1.6,3.6s-2.5,2.1-4.4,2.9s-4.1,1.5-6.6,1.9
		c-2.5,0.5-5.2,0.7-8.1,0.7c-1.8,0-3.7-0.1-5.6-0.3c-1.9-0.2-3.7-0.5-5.5-0.9s-3.5-0.8-5-1.4c-1.6-0.5-3-1.1-4.1-1.6
		c-1.2-0.6-2.1-1.2-2.8-1.8s-1-1.2-1-1.8C492,49.5,492.5,48.7,493.4,48.1z"/>
	<path d="M562.6,36.6c0.5,0.4,1,0.7,1.5,0.9c0.6,0.2,1.1,0.4,1.5,0.7c0.5,0.2,0.8,0.5,1.2,0.9c0.3,0.4,0.5,0.9,0.5,1.6
		c0,1.6,0,3.1,0.1,4.6c0,1.5,0.1,3,0.1,4.6c0,2.3-0.1,4.7-0.2,7c-0.1,2.3-0.2,4.5-0.2,6.6c0,1.4,0.5,2.4,1.5,3s2.4,0.9,4.1,0.9
		c0.7,0,1.4-0.1,2.1-0.2c0.7-0.1,1.3-0.3,1.9-0.6c0.5-0.3,1-0.7,1.4-1.2s0.6-1.1,0.7-1.9c0.1-2,0.2-4.2,0.3-6.3
		c0.1-2.2,0.1-4.3,0.1-6.4c0-1.8,0-3.6-0.1-5.3c0-1.7-0.1-3.5-0.1-5.3c0-0.8,0.2-1.4,0.7-1.9s1.2-0.8,2-0.9c2.5-0.1,5-0.3,7.6-0.4
		c2.6-0.2,5.2-0.3,7.7-0.3c0.8,0,1.4,0.2,1.9,0.6c0.5,0.4,0.8,1,1,1.8c0.3,1.8,0.6,3.6,1,5.6c0.4,1.9,0.7,3.9,1.1,6s0.8,4.1,1.2,6.2
		s0.9,4.1,1.4,6.1c0.2,1.1,0.6,2,1.2,2.8c0.6,0.8,1.5,1.2,2.9,1.2c1.2,0,2.3-0.1,3.2-0.4s1.7-0.7,2.4-1.1c0.7-0.5,1.2-1,1.5-1.6
		s0.5-1.2,0.5-1.8c0-0.8-0.1-1.4-0.2-1.9c-0.1-0.5-0.3-1.1-0.5-1.9c-0.1-0.5-0.3-1.3-0.5-2.5s-0.5-2.5-0.8-3.9s-0.6-3-0.9-4.6
		c-0.3-1.6-0.6-3.1-0.8-4.4s-0.4-2.5-0.6-3.4c-0.2-0.9-0.2-1.4-0.2-1.5c0-1.4,0.9-2.1,2.7-2.3c0.8-0.1,1.5-0.1,2.1-0.2
		c0.5-0.1,1.1-0.1,1.8-0.3l2-0.5c1.1-0.2,1.8-0.7,2.2-1.3c0.4-0.7,0.6-1.5,0.6-2.5c0-1.2-0.1-2.1-0.4-2.9c-0.2-0.8-0.6-1.4-1-1.8
		c-0.4-0.4-0.9-0.7-1.4-0.9s-1-0.3-1.6-0.3c-0.8,0-1.7,0.1-2.5,0.2c-0.9,0.2-1.7,0.2-2.4,0.2s-1.3,0-1.9-0.1
		c-0.6-0.1-1.1-0.3-1.6-0.5c-0.5-0.3-0.9-0.7-1.3-1.2c-0.4-0.5-0.7-1.2-0.9-2.2c-0.2-1.1-0.4-2.4-0.7-3.7c-0.2-1.3-0.4-2.7-0.7-4.1
		s-0.5-2.9-0.8-4.4s-0.6-3-1-4.4c-0.3-1.4-1-2.4-1.9-2.9s-1.9-0.8-2.9-0.8c-0.8,0-1.6,0.1-2.5,0.2s-1.7,0.3-2.4,0.6
		c-0.8,0.3-1.4,0.7-1.9,1.3c-0.5,0.5-0.7,1.3-0.7,2.1c0,0.7,0.1,1.5,0.3,2.6c0.2,1,0.4,2.1,0.7,3.3s0.6,2.4,0.9,3.6
		c0.3,1.2,0.6,2.4,0.9,3.5c0.3,1.1,0.5,2,0.7,2.9c0.2,0.8,0.3,1.5,0.3,1.9c0,1.1-0.2,1.9-0.5,2.4s-1,0.8-2.1,0.9L581,26.9
		c-0.9,0-1.6-0.2-2-0.7s-0.7-1.2-0.7-2.1l-0.2-6c-0.1-1.6-0.6-2.9-1.4-3.7s-2.5-1.3-4.7-1.3c-0.6,0-1.2,0.1-1.9,0.2
		c-0.7,0.1-1.3,0.4-1.8,0.8c-0.5,0.4-1,1-1.3,1.8c-0.4,0.8-0.5,1.8-0.5,3.1c0,0.2,0,0.4,0.1,0.9c0,0.4,0.1,0.9,0.1,1.5
		s0.1,1.2,0.1,1.8s0.1,1.2,0.1,1.6c0,0.8-0.1,1.3-0.4,1.7c-0.3,0.4-0.6,0.7-1.1,1c-0.4,0.3-0.9,0.5-1.4,0.7s-1,0.4-1.4,0.7
		s-0.8,0.6-1.1,1s-0.4,1-0.4,1.8c0,1.4,0.2,2.5,0.5,3.3C561.7,35.6,562.1,36.2,562.6,36.6z"/>
	<path d="M642.2,30.2c0.5,4.4,0.9,9.5,1.3,15.2c0.4,5.7,0.6,11.8,0.6,18.3c0,1.1,0.3,1.9,1,2.4s1.6,0.8,2.7,0.8
		c2.6,0,4.5-0.5,5.9-1.4c1.3-0.9,2-2.4,2-4.3c0-3.5-0.1-7.1-0.2-10.8c-0.1-3.7-0.3-7.6-0.6-11.7s-0.6-8.3-1-12.8s-1-9.2-1.6-14.3
		c-0.2-1.2-0.7-2.1-1.5-2.7C650,8.3,648.7,8,646.9,8c-0.9,0-1.8,0.1-2.6,0.4s-1.5,0.6-2.1,1s-1.1,0.9-1.4,1.5
		c-0.3,0.6-0.5,1.2-0.5,1.9c0,1.1,0.2,3.1,0.6,6.1C641.3,22.1,641.7,25.8,642.2,30.2z"/>
	<path d="M679.5,59.8c1.4,2.5,3.1,4.8,5,6.9s4.1,3.9,6.4,5.3s4.8,2.6,7.5,3.5c2.7,0.8,5.4,1.2,8.2,1.2c3.2,0,6.1-0.6,8.7-1.7
		c2.6-1.1,4.8-2.7,6.7-4.8c1.9-2.1,3.3-4.6,4.3-7.5s1.5-6.2,1.5-9.8c0-3.5-0.2-6.8-0.5-9.9c-0.4-3.1-0.8-5.8-1.2-8.2
		s-0.8-4.4-1.2-6.1c-0.4-1.6-0.5-2.8-0.5-3.5c0-0.8,0.2-1.4,0.6-1.8c0.4-0.4,1.1-0.7,1.9-0.8c2.5-0.2,4.6-0.3,6.3-0.6
		c1.6-0.2,2.9-0.5,3.9-0.9c0.9-0.4,1.6-0.8,2-1.4c0.4-0.6,0.5-1.3,0.5-2.1c0-1.1-0.6-2.2-1.7-3.4c-1.2-1.2-2.6-2.3-4.4-3.3
		c-1.8-1-3.7-1.8-5.8-2.5s-4-1-5.9-1s-3.7,0.3-5.4,0.8s-3.2,1.3-4.6,2.2c-0.8,0.5-1.5,0.8-2.2,1s-1.5,0.3-2.4,0.3
		c-1.5,0-3.2-0.1-5-0.2c-1.8-0.1-3.6-0.3-5.4-0.4c-1.8-0.2-3.6-0.4-5.4-0.6c-1.8-0.2-3.4-0.4-4.9-0.6s-2.8-0.3-3.9-0.4
		c-1.1-0.1-1.9-0.2-2.4-0.2c-0.9,0-1.6,0.3-2.1,1c-0.5,0.6-0.8,1.5-0.8,2.6c0,0.9,0.2,1.7,0.5,2.5s0.7,1.5,1.2,2.2s1.1,1.2,1.8,1.6
		c0.7,0.4,1.4,0.7,2.2,0.7c4,0.6,8.1,1.2,12.4,1.6c4.3,0.4,8.7,0.7,13.2,1c1.7,0.1,2.8,1.2,3.4,3.2c1.4,5.8,2.5,11.1,3.2,16
		s1.1,9.5,1.1,13.9c0,3.4-0.7,6.1-2,7.9s-3.2,2.7-5.7,2.7c-2.8,0-5.4-0.6-7.9-1.9c-2.5-1.2-4.7-2.9-6.6-5c-1.9-2.1-3.4-4.6-4.5-7.4
		s-1.7-5.7-1.7-8.8c0-0.7-0.2-1.4-0.7-2s-1.1-1.2-1.8-1.7c-0.8-0.5-1.7-0.9-2.7-1.1c-1.1-0.3-2.2-0.4-3.3-0.4
		c-1.3,0-2.3,0.5-3.2,1.4c-0.8,0.9-1.2,2.1-1.2,3.5c0,3,0.4,6,1.2,8.8C677.1,54.6,678.1,57.3,679.5,59.8z"/>
	<path d="M748.4,23c1.2,2.9,2.4,6,3.5,9.2s2.2,6.5,3.1,9.7c1,3.3,1.9,6.6,2.7,9.9s1.5,6.5,2.1,9.7c0.3,2.1,1.6,3.1,3.9,3.1
		c2.2,0,3.8-0.5,5.1-1.4c1.2-1,1.9-2.4,2.1-4.4c0.2-1.8,0.4-3.4,0.7-4.9s0.8-2.8,1.3-3.9s1.1-2,1.7-2.6c0.6-0.6,1.3-0.9,2-0.9
		c0.9,0,2.2,0.3,3.9,0.9s3.7,1.3,6,2.1c2.2,0.8,4.7,1.7,7.2,2.7c2.6,1,5.1,1.9,7.7,2.7c2.6,0.8,5.1,1.5,7.5,2.1s4.5,0.9,6.4,0.9
		c0.8,0,1.6-0.2,2.4-0.5c0.8-0.3,1.5-0.8,2.1-1.3s1.1-1.2,1.4-1.9c0.4-0.7,0.5-1.5,0.5-2.2c0-2-1.3-3.3-4-4
		c-5.3-1.2-10.1-2.4-14.3-3.5s-7.8-2.2-10.8-3.3c-3-1.1-5.3-2.1-6.9-3.2c-1.6-1.1-2.4-2.2-2.4-3.3c0-1.4,0.5-2.6,1.4-3.9
		c1-1.2,2.2-2.4,3.6-3.6c1.5-1.2,3-2.3,4.7-3.5c1.7-1.1,3.3-2.3,4.7-3.5c1.5-1.2,2.7-2.5,3.6-3.7c1-1.3,1.4-2.7,1.4-4.1
		c0-0.9-0.2-1.7-0.5-2.5s-0.8-1.4-1.4-2c-0.6-0.6-1.3-1-2.1-1.3s-1.6-0.5-2.5-0.5c-2.3,0-4.6,0.7-7.1,2s-4.9,3.2-7.4,5.6
		c-2.5,2.4-4.9,5.3-7.2,8.7s-4.5,7.1-6.5,11.2c-0.3,0.5-0.6,0.9-0.8,1.2s-0.5,0.4-0.8,0.4s-0.7-0.3-1-0.9c-0.4-0.6-0.7-1.3-1.1-2.3
		c-0.4-0.9-0.7-2-1.1-3.1c-0.4-1.2-0.8-2.3-1.1-3.4c-0.4-1.1-0.8-2.2-1.2-3.2s-0.8-1.8-1.3-2.4c-0.9-1.3-1.9-2.2-2.8-2.9
		c-0.9-0.6-2.1-1-3.7-1c-0.8,0-1.5,0.1-2.2,0.3s-1.3,0.5-1.8,0.8s-0.9,0.7-1.2,1.2c-0.3,0.4-0.5,0.9-0.5,1.4c0,0.6,0.1,1.1,0.2,1.7
		C747.9,21.8,748.1,22.4,748.4,23z"/>
	<path d="M829.9,32.5c0.4,4,0.8,8.3,1.3,13.1c0.4,4.8,0.8,9.6,1,14.5c0,1.3-0.1,2.6-0.4,3.8c-0.3,1.3-0.4,2.3-0.4,3.1
		c0,1,0.4,1.9,1.1,2.7c0.8,0.8,1.8,1.2,3.2,1.2c1.3,0,2.4-0.1,3.2-0.4c0.9-0.2,1.9-0.5,2.9-0.7c2.4-0.4,5.5-0.7,9.3-1
		c3.8-0.2,8.1-0.6,12.7-1c1-0.1,1.8-0.3,2.4-0.7c0.6-0.4,1.2-0.9,1.5-1.5c0.4-0.6,0.6-1.2,0.8-2c0.2-0.7,0.2-1.4,0.2-2.2
		c0-0.5,0-0.9-0.1-1.4s-0.3-0.9-0.6-1.3s-0.8-0.7-1.4-0.9c-0.6-0.2-1.4-0.3-2.3-0.3c-1.4,0-2.9,0.1-4.4,0.3
		c-1.5,0.2-3.1,0.4-4.6,0.5c-1.5,0.2-3.1,0.4-4.6,0.5c-1.5,0.2-3.1,0.3-4.6,0.3c-0.8,0-1.4-0.2-1.8-0.7c-0.5-0.5-0.7-1.1-0.7-2
		c-0.2-5.9-0.5-12.3-1-19.1s-1.2-14.2-2.3-22.4c-0.2-1.2-0.7-2.1-1.5-2.6s-2.1-0.8-3.9-0.8c-0.9,0-1.8,0.1-2.6,0.4
		c-0.8,0.2-1.5,0.6-2.1,1c-0.6,0.5-1.1,1-1.4,1.6c-0.3,0.6-0.5,1.2-0.5,1.9c0,1,0.2,2.9,0.5,5.8C829.2,25.1,829.5,28.5,829.9,32.5z"
		/>
	<path d="M957.7,57.7c-0.1-0.3-0.3-0.9-0.5-1.7c-0.9-2.8-1.8-5.8-2.7-8.9s-1.9-6.2-2.8-9.2c-1-3-2-5.9-3-8.7s-2.1-5.2-3.1-7.3
		c-1.1-2.1-2.2-3.7-3.3-5c-1.1-1.2-2.3-1.9-3.5-1.9c-1,0-1.9,0.2-2.7,0.5s-1.5,0.9-2.3,1.6c-0.7,0.7-1.4,1.7-2.2,2.9
		c-0.7,1.2-1.5,2.7-2.4,4.5c-1.7,3.5-3.1,6.3-4.3,8.3c-1.2,2.1-2.2,3.7-3,4.7c-0.9,1.1-1.6,1.8-2.3,2.1s-1.4,0.5-2.1,0.5
		s-1.5-0.4-2.4-1.1c-0.9-0.7-1.8-1.8-2.8-3.1s-1.9-2.8-2.9-4.6s-1.9-3.7-2.7-5.7c-2.1-5-4-8.7-5.8-10.9c-1.8-2.2-3.7-3.4-5.6-3.4
		c-2.2,0-4.2,1-6,3s-3.3,4.9-4.6,8.6s-2.3,8.1-3,13.3s-1,10.9-1,17.2c0,5,0.4,8.6,1.2,10.9s2.2,3.4,4.1,3.4c0.9,0,1.8-0.1,2.7-0.4
		c0.8-0.3,1.6-0.6,2.2-1c0.6-0.4,1.1-0.9,1.5-1.5s0.6-1.2,0.6-1.9c0-2-0.1-3.9-0.3-5.8s-0.3-3.8-0.3-5.7c0-3.2,0.1-6.1,0.3-8.7
		s0.4-4.9,0.7-6.7c0.3-1.9,0.7-3.3,1.1-4.4c0.4-1,0.9-1.6,1.4-1.6c0.3,0,0.7,0.2,1.2,0.5c0.4,0.4,0.9,0.9,1.3,1.7
		c2.5,4.6,4.6,8.4,6.3,11.2c1.7,2.9,3.2,5.1,4.6,6.7c1.3,1.6,2.6,2.7,3.7,3.3c1.2,0.6,2.4,0.9,3.8,0.9c1.4,0,2.9-0.4,4.5-1.3
		s3.2-2.1,4.8-3.7s3.2-3.5,4.8-5.8s3.1-4.8,4.6-7.6c0.3-0.7,0.7-1.1,1.2-1.1s1.1,0.6,1.8,1.9c0.7,1.3,1.4,2.9,2.1,4.8
		c0.7,1.9,1.5,4,2.2,6.3s1.4,4.4,2,6.4s1.2,3.8,1.6,5.2s0.8,2.4,1,2.7c0.3,0.6,0.8,1.1,1.4,1.3c0.6,0.2,1.4,0.4,2.5,0.4
		c0.8,0,1.6-0.2,2.4-0.5c0.8-0.3,1.5-0.7,2.2-1.2c0.6-0.5,1.2-1,1.6-1.7s0.6-1.3,0.6-1.9C957.8,58.4,957.8,58.1,957.7,57.7z"/>
	<path d="M23.3,190c0.6,0,1.3,0.4,2,1.1c1.7,1.7,3.6,3.5,5.6,5.4s4.1,3.9,6.3,5.8c2.2,1.9,4.4,3.8,6.6,5.6c2.2,1.8,4.5,3.4,6.7,4.7
		c2.2,1.4,4.4,2.5,6.5,3.3c2.2,0.8,4.2,1.2,6.2,1.2c2.5,0,4.4-0.4,5.9-1.2s2.6-2,3.4-3.6s1.3-3.5,1.5-5.9c0.2-2.3,0.4-5,0.4-8.1
		c0-1.6-0.1-3.7-0.2-6.1c-0.1-2.4-0.4-5-0.7-7.7c-0.3-2.7-0.7-5.4-1.2-8c-0.5-2.7-1.1-5.1-1.8-7.2c-0.7-2.1-1.6-3.9-2.6-5.2
		s-2.1-2-3.3-2c-0.6,0-1.3,0.1-2.2,0.4c-0.9,0.2-1.7,0.6-2.5,1c-0.8,0.5-1.5,1-2,1.7c-0.6,0.7-0.9,1.5-0.9,2.3c0,0.5,0.1,1,0.3,1.4
		s0.3,0.9,0.5,1.3c0.9,2.1,1.6,4.4,2.3,7s1.2,5.1,1.7,7.6s0.8,4.9,1,7.1c0.2,2.2,0.4,4.1,0.4,5.6c0,2-0.2,3.5-0.5,4.4
		c-0.3,0.9-1,1.4-2.1,1.4s-2.3-0.3-3.5-1s-2.5-1.5-3.7-2.4s-2.4-1.9-3.6-3c-1.2-1.1-2.2-2-3.1-2.8c-2-1.7-4.1-3.6-6-5.5
		c-2-1.9-3.9-3.9-5.8-5.8c-1.9-1.9-3.7-3.7-5.5-5.4s-3.4-3.2-5-4.6c-1.6-1.3-3-2.4-4.4-3.1c-1.4-0.8-2.6-1.2-3.7-1.2
		c-1.4,0-2.6,0.2-3.4,0.7c-0.9,0.5-1.5,1.1-2,1.8c-0.5,0.8-0.8,1.6-1,2.7c-0.2,1-0.2,2.1-0.2,3.2c0,1.3,0,2.9,0.1,4.7
		c0,1.9,0.1,3.9,0.2,6.1c0.1,2.2,0.2,4.5,0.3,6.9s0.2,4.8,0.4,7.1c0.1,2.4,0.3,4.6,0.5,6.9s0.3,4.2,0.5,6c0.1,1.4,0.6,2.4,1.6,3.1
		c0.9,0.6,1.9,1,3,1c2.2,0,3.9-0.6,5.2-1.7c1.3-1.2,1.9-2.7,1.9-4.5c0-1.7-0.1-3.4-0.2-5.1c-0.2-1.7-0.3-3.4-0.5-5.1
		c-0.2-1.7-0.4-3.4-0.5-5.1c-0.2-1.7-0.2-3.3-0.2-4.9c0-0.8,0.1-1.4,0.4-1.8C22.3,190.2,22.7,190,23.3,190z"/>
	<path d="M137,225.3c4.4-1.7,8.2-4,11.4-7c3.2-2.9,5.8-6.4,7.6-10.5c1.9-4,2.8-8.4,2.8-13c0-4.2-0.7-7.9-2.2-11.2s-3.6-6.1-6.3-8.5
		c-2.7-2.3-6.1-4.1-10-5.4c-3.9-1.2-8.3-1.9-13.2-1.9c-4,0-7.8,0.4-11.6,1.1c-3.8,0.7-7.2,1.7-10.1,2.9c-3,1.2-5.4,2.6-7.2,4.1
		s-2.7,3.1-2.7,4.7c0,0.5,0.1,1,0.3,1.4c0.2,0.4,0.4,0.8,0.6,1.2s0.4,0.7,0.6,1.1c0.2,0.3,0.3,0.7,0.3,1.1c0,0.3-0.2,0.8-0.5,1.5
		c-0.7,1.8-1.2,3.8-1.6,5.9c-0.4,2.1-0.6,4.3-0.6,6.5c0,4.2,0.7,8,2.1,11.5s3.3,6.5,5.8,9s5.5,4.5,8.9,5.9c3.5,1.4,7.2,2.1,11.4,2.1
		C127.9,227.8,132.6,227,137,225.3z M111.4,211.8c-1.7-1.8-3-3.9-4-6.5c-0.9-2.5-1.4-5.3-1.4-8.3c0-6.2,1.6-10.9,4.7-14.1
		c3.2-3.2,7.8-4.7,14.1-4.7c3.6,0,6.7,0.4,9.6,1.3c2.8,0.9,5.2,2.1,7.1,3.7c1.9,1.6,3.4,3.6,4.4,5.9c1,2.3,1.5,5,1.5,7.9
		c0,3-0.5,5.7-1.6,8.2s-2.6,4.7-4.6,6.5c-1.9,1.8-4.3,3.2-7,4.2s-5.7,1.5-9,1.5c-2.8,0-5.4-0.5-7.8-1.5
		C115.1,215,113.1,213.6,111.4,211.8z"/>
	<path d="M235.4,188.7c1.7-2.7,2.6-5.6,2.6-8.6c0-2.6-0.7-5.1-2.2-7.3s-3.5-4.2-6.1-5.8s-5.7-2.9-9.2-3.9c-3.6-0.9-7.4-1.4-11.6-1.4
		c-5.9,0-11.2,0.5-16,1.5s-8.9,2.4-12.3,4.3c-3.4,1.8-6,4-7.9,6.6s-2.8,5.5-2.8,8.6c0,2.3,0.5,4,1.5,5.2s2.2,1.8,3.7,1.8
		c2,0,3.6-0.3,4.5-1c1-0.6,1.7-1.4,2-2.4c0.4-0.9,0.5-2,0.5-3.1s0-2.1,0.1-3.1c0.1-0.9,0.3-1.7,0.6-2.4c0.4-0.6,1.1-1,2.2-1
		c1.2,0,2.1,0.7,2.6,2c0.5,1.4,0.9,3.5,1.2,6.4c0.2,2,0.4,4.3,0.6,6.8c0.2,2.5,0.4,5.1,0.7,7.8c0.2,2.7,0.4,5.4,0.6,8.1
		c0.2,2.7,0.4,5.3,0.5,7.7c0.2,2.4,0.3,4.6,0.4,6.6c0.1,2,0.1,3.6,0.1,4.9c0,1.2,0.5,2.1,1.5,2.7s2.4,0.9,4.3,0.9
		c1.9,0,3.4-0.5,4.4-1.4s1.5-2.4,1.5-4.5c0-1.2-0.1-2.5-0.2-4c-0.1-1.5-0.3-3-0.4-4.6c-0.1-1.5-0.3-3-0.4-4.4
		c-0.1-1.4-0.2-2.6-0.2-3.5c0-1.4,0.7-2.2,2-2.4c4.7-0.9,9.1-2.3,13.3-3.9c4.1-1.7,7.7-3.7,10.7-5.9
		C231.3,193.9,233.7,191.4,235.4,188.7z M225,185c-0.8,1.1-1.9,2.2-3.2,3.3s-2.9,2.1-4.5,3.1c-1.7,1-3.4,1.8-5.2,2.6
		s-3.5,1.3-5.1,1.8c-1.7,0.4-3.1,0.7-4.4,0.7c-0.5,0-0.8-0.2-1-0.6c-0.2-0.4-0.4-1.2-0.5-2.3c-0.2-1.6-0.4-3.4-0.7-5.4
		c-0.2-2-0.4-3.9-0.6-5.7c-0.2-1.8-0.3-3.4-0.5-4.8c-0.1-1.4-0.2-2.3-0.2-2.6c0-0.6,0.1-1,0.3-1.4s0.6-0.7,1.1-0.9s1.2-0.4,2.1-0.5
		c0.9-0.1,2-0.1,3.3-0.1c2.7,0,5.2,0.3,7.7,0.8c2.4,0.5,4.6,1.2,6.4,2.2c1.9,0.9,3.3,1.9,4.4,3.1c1.1,1.2,1.6,2.4,1.6,3.7
		C226.3,182.8,225.9,183.8,225,185z"/>
	<path d="M302.8,242.9c0.7-0.1,1.5-0.2,2.3-0.4c2.6-0.6,4-2.1,4-4.4c0-1-0.1-2.3-0.3-3.8c-0.2-1.5-0.5-3-0.8-4.6s-0.6-3.2-1-4.6
		c-0.3-1.5-0.6-2.7-0.8-3.8c0-0.1-0.1-0.2-0.1-0.4c0-0.1-0.1-0.2-0.1-0.4c0-0.1,0-0.3,0-0.4c0-1.2,0.6-2,1.9-2.6
		c2.1-1.1,4-2.4,5.8-3.9c1.7-1.5,3.2-3.3,4.4-5.2c1.2-2,2.2-4.2,2.9-6.6c0.7-2.4,1-5.1,1-8c0-3.5-0.5-6.7-1.6-9.6
		c-1-2.9-2.4-5.6-4.2-8c-1.8-2.4-3.9-4.5-6.2-6.3c-2.4-1.8-4.9-3.3-7.6-4.6c-2.7-1.2-5.4-2.2-8.2-2.8c-2.8-0.6-5.5-0.9-8.2-0.9
		c-3.3,0-6.6,0.3-9.8,0.8c-3.3,0.5-6.3,1.4-9.3,2.6c-2.9,1.2-5.7,2.7-8.1,4.6c-2.5,1.9-4.6,4.1-6.3,6.8c-0.7,1-1.1,2-1.1,3
		c0,0.7,0.2,1.3,0.7,1.7c0.4,0.5,1,0.7,1.7,0.8c0.6,0.1,1.1,0.3,1.5,0.7c0.4,0.4,0.7,0.8,0.9,1.3c0.2,0.5,0.3,1.1,0.4,1.7
		c0.1,0.6,0.1,1.2,0.1,1.8s0,1.3-0.1,1.9c0,0.6-0.1,1.1-0.1,1.5c0,4.2,0.8,8.1,2.5,11.8s4,7,7,9.8s6.6,5,10.7,6.7
		c4.2,1.6,8.7,2.5,13.8,2.5h1.6c0.5,0,1,0.2,1.4,0.6c0.4,0.4,0.7,1,0.9,1.9c0.6,2.5,1.1,5,1.6,7.5c0.5,2.5,0.9,5,1.3,7.7
		c0.3,2.7,1.7,4,4,4C301.6,243,302.1,243,302.8,242.9z M299.4,199.3c-0.4-1.5-0.9-2.9-1.4-4.2s-1.1-2.4-1.7-3.2
		c-0.6-0.9-1.4-1.3-2.3-1.3c-0.2,0-0.5,0-0.7,0.1c-0.2,0-0.5,0.1-0.9,0.3c-0.4,0.1-0.8,0.3-1.3,0.6c-0.5,0.2-1.2,0.6-2,0.9
		c-1.9,0.9-2.9,2.3-2.9,4.1c0,0.6,0.1,1.3,0.3,2l2.9,8.8c0.1,0.3,0.1,0.5,0.2,0.7c0,0.2,0.1,0.3,0.1,0.5c0,0.6-0.2,1-0.5,1.4
		c-0.4,0.4-0.8,0.6-1.4,0.6c-0.2,0-0.3,0-0.5,0s-0.3,0-0.5-0.1c-2.9-0.7-5.6-1.7-7.9-3.1c-2.3-1.4-4.3-2.9-5.8-4.7
		c-1.6-1.8-2.8-3.7-3.6-5.8c-0.8-2.1-1.2-4.2-1.2-6.4c0-2.9,0.3-5.4,0.8-7.7s1.4-4.2,2.7-5.8c1.3-1.6,3.1-2.8,5.4-3.6
		s5.2-1.2,8.7-1.2c2.9,0,5.9,0.6,8.9,1.7c3,1.1,5.6,2.7,8,4.8c2.3,2.1,4.3,4.7,5.7,7.7c1.5,3,2.2,6.5,2.2,10.3
		c0,1.2-0.2,2.5-0.6,3.8s-0.9,2.6-1.6,3.7c-0.6,1.1-1.4,2.1-2.1,2.8c-0.8,0.7-1.6,1.1-2.4,1.1c-0.7,0-1.3-0.4-1.8-1.3
		c-0.5-0.9-1-1.9-1.4-3.2C300.2,202.2,299.8,200.8,299.4,199.3z"/>
	<path d="M394.3,222.2c0.8,0.2,1.5,0.3,2.1,0.3c1.6,0,3-0.8,4.1-2.4c0.5-0.6,1-1.4,1.4-2.1c0.4-0.8,0.7-1.5,0.7-2.3
		c0-1.6-1-2.8-3.1-3.5c-4.3-1.5-8.6-2.9-12.9-4.2c-4.2-1.2-8.4-2.6-12.4-4c-1.2-0.5-1.8-1.1-1.8-1.9c0-0.7,0.5-1.3,1.6-2
		c1.3-0.7,2.7-1.5,4.3-2.4c1.6-0.9,3.2-2,4.8-3.1c1.6-1.1,3.2-2.4,4.8-3.7c1.5-1.4,2.9-2.8,4.1-4.3s2.2-3.1,2.9-4.8
		c0.7-1.7,1.1-3.4,1.1-5.2c0-2.6-0.5-4.7-1.4-6.4s-2.2-3.1-3.7-4.1s-3.2-1.7-5.1-2.2c-1.9-0.4-3.8-0.6-5.8-0.6
		c-4.2,0-8.4,0.5-12.5,1.5s-8.2,2.3-12.1,3.9c-2,0.9-3,2.2-3,4c0,0.3,0,0.6,0.1,1s0.2,0.9,0.4,1.4c0.7,2.2,1.9,3.2,3.7,3.2
		c0.7,0,1.5-0.2,2.2-0.5c1.4-0.6,2.8-1.1,4.3-1.6s3-1,4.6-1.4c1.5-0.4,3.1-0.7,4.7-1c1.6-0.2,3.1-0.4,4.5-0.4c1.5,0,2.7,0.1,3.7,0.3
		s1.7,0.5,2.3,1c0.6,0.4,1,0.9,1.2,1.5s0.3,1.2,0.3,1.9c0,1.1-0.5,2.3-1.4,3.5s-2.1,2.5-3.5,3.8c-1.5,1.3-3.1,2.6-4.9,3.9
		c-1.8,1.3-3.7,2.5-5.6,3.7s-3.7,2.2-5.4,3.1c-1.7,0.9-3.2,1.7-4.4,2.4c-0.4,0.2-0.8,0.3-1.1,0.4c-0.3,0.1-0.6,0.1-0.8,0.1
		c-0.8,0-1.3-0.7-1.6-2c-0.6-2.7-1.2-5.4-1.9-8.2c-0.7-2.8-1.4-5.6-2.2-8.6c-0.6-2.3-1.9-3.5-4-3.5c-0.2,0-0.3,0-0.5,0.1
		c-0.2,0-0.4,0.1-0.7,0.2c-0.3,0.1-0.7,0.2-1.2,0.4s-1.2,0.4-2,0.6c-2.2,0.7-3.2,2.1-3.2,4.1c0,0.2,0,0.5,0,0.8s0.1,0.6,0.2,1
		c1.8,6.7,3.4,13.3,4.8,20s2.6,13.5,3.5,20.3c0.3,2.6,1.5,3.9,3.6,3.9c0.3,0,0.7,0,1-0.1s0.6-0.1,1-0.3l2.6-0.8
		c2.3-0.8,3.5-2.3,3.5-4.4c0-0.6-0.1-1.3-0.2-2.2s-0.3-1.8-0.4-2.8c-0.2-1-0.3-1.9-0.5-2.9c-0.2-0.9-0.3-1.7-0.4-2.2
		c0-0.2,0-0.4-0.1-0.5c0-0.2-0.1-0.3-0.1-0.4c0-0.4,0.1-0.7,0.3-0.8c0.2-0.1,0.4-0.2,0.7-0.2c0.3,0,0.9,0.1,1.8,0.3
		c2.4,0.8,5,1.6,7.9,2.5c2.8,0.9,5.7,1.9,8.6,2.9s5.8,2,8.6,3S391.8,221.2,394.3,222.2z"/>
	<path d="M457.7,219.8c2-1.4,3.6-3.1,4.8-5.2c1.2-2.1,1.9-4.5,1.9-7.2c0-2.2-0.5-4.4-1.6-6.5c-1-2.1-2.4-4.1-4.1-5.9
		c-1.7-1.9-3.7-3.6-5.9-5.3c-2.2-1.7-4.4-3.3-6.7-4.8c-2.3-1.5-4.5-2.9-6.7-4.2s-4.1-2.5-5.9-3.6c-1.7-1.1-3.1-2.1-4.1-3
		s-1.6-1.7-1.6-2.4s0.2-1.3,0.7-1.8s1.1-0.8,1.9-1.1c0.8-0.2,1.7-0.4,2.6-0.5c1-0.1,1.9-0.1,2.9-0.1c1.7,0,3.5,0.2,5.2,0.5
		c1.7,0.4,3.4,0.5,4.9,0.5c1.1,0,2-0.3,2.7-0.8s1.3-1.4,1.8-2.5c0.5-1.2,0.9-2,1-2.5s0.2-0.9,0.2-1.3c0-1.1-0.4-1.9-1.3-2.4
		c-0.9-0.6-2-1-3.3-1.3s-2.7-0.5-4.2-0.5c-1.5-0.1-2.9-0.1-4.1-0.1c-1.7,0-3.5,0.1-5.4,0.4c-1.9,0.3-3.7,0.7-5.6,1.3
		s-3.6,1.3-5.3,2.1c-1.7,0.8-3.2,1.8-4.5,2.8c-1.3,1.1-2.3,2.2-3.1,3.5c-0.8,1.3-1.2,2.7-1.2,4.2c0,1.6,0.6,3.2,1.7,4.7
		c1.1,1.6,2.6,3.1,4.4,4.6s3.9,3.1,6.2,4.6c2.3,1.5,4.7,3.1,7.1,4.6s4.8,3,7.1,4.6c2.3,1.5,4.4,3.1,6.2,4.6c1.8,1.5,3.3,3.1,4.4,4.6
		s1.7,3.1,1.7,4.7c0,0.8-0.2,1.5-0.6,2.1c-0.4,0.5-0.9,1-1.6,1.3c-0.6,0.3-1.4,0.6-2.2,0.7c-0.8,0.1-1.6,0.2-2.3,0.2
		c-2.5,0-4.9-0.4-7.2-1.2c-2.3-0.8-4.4-1.9-6.2-3.4c-1.8-1.5-3.3-3.2-4.4-5.1c-1.1-1.9-1.7-4.1-1.7-6.3c0-1.2-0.4-2.1-1.3-2.9
		c-0.9-0.7-1.8-1.3-2.9-1.6c-0.9-0.3-1.6-0.5-2-0.5c-0.4-0.1-0.7-0.1-1-0.1c-0.9,0-1.7,0.2-2.3,0.7c-0.6,0.5-1.1,1.1-1.4,1.8
		s-0.6,1.6-0.7,2.6s-0.2,1.9-0.2,2.9c0,2.2,0.4,4.4,1.2,6.4c0.8,2,1.9,3.9,3.3,5.7s3.1,3.3,5,4.8c1.9,1.4,4,2.6,6.1,3.6
		c2.2,1,4.5,1.8,6.8,2.3c2.4,0.5,4.7,0.8,7,0.8s4.6-0.3,7-1C453.6,222.2,455.7,221.2,457.7,219.8z"/>
	<path d="M523.8,166c0.3-0.5,0.5-1.1,0.6-1.8s0.2-1.4,0.2-2.1c0-1.4-0.3-2.5-0.9-3.3c-0.6-0.8-1.5-1.2-2.8-1.2c-1,0-2.1,0.1-3.3,0.2
		c-1.2,0.2-2.4,0.3-3.7,0.6c-1.3,0.2-2.5,0.5-3.8,0.8c-1.2,0.3-2.4,0.6-3.5,0.9c-1,0.3-1.9,0.5-2.7,0.7c-0.8,0.2-1.7,0.3-2.7,0.5
		c-4.5,0.8-8.9,1.6-13.3,2.4c-4.4,0.8-8.8,1.5-13.2,2.2c-0.9,0.2-1.6,0.4-2.2,0.9c-0.6,0.4-1,0.9-1.4,1.5c-0.3,0.6-0.6,1.2-0.7,1.9
		s-0.2,1.4-0.2,2.1c0,2.6,1.3,4,3.8,4c0.3,0,0.8-0.1,1.6-0.2c0.8-0.1,1.8-0.3,2.9-0.5s2.3-0.4,3.5-0.7c1.2-0.2,2.4-0.5,3.6-0.7
		c1.1-0.2,2.1-0.3,3-0.5c0.8-0.1,1.4-0.2,1.7-0.2c1.5,0,2.3,0.9,2.3,2.8c0,1.3,0,2.6,0.1,3.9c0,1.2,0.1,2.4,0.2,3.5
		c0.2,6.5,0.7,13,1.5,19.5c0.8,6.4,1.7,12.9,2.8,19.4c0.2,1.2,0.6,2.1,1.2,2.7c0.6,0.6,1.4,0.9,2.4,0.9c0.6,0,1.3-0.1,2-0.3l2.6-0.8
		c2.3-0.9,3.5-2.3,3.5-4.4c0-0.2,0-0.4,0-0.6c0-0.2,0-0.4-0.1-0.6c-0.8-5.4-1.6-10.8-2.3-16.2s-1.2-10.7-1.6-16.2
		c-0.1-1.6-0.2-3.2-0.4-4.8c-0.1-1.6-0.2-3.2-0.2-4.8c0-0.7,0-1.4,0-2.1s0.1-1.5,0.2-2.2c0.1-0.8,0.4-1.4,0.7-1.9
		c0.4-0.5,0.9-0.9,1.7-1.1c1.8-0.5,3.9-1,6.4-1.4c2.5-0.4,4.8-0.8,6.9-1.1c0.8-0.1,1.5-0.3,2-0.6C523.1,167,523.5,166.5,523.8,166z"
		/>
	<path d="M548.9,175c0-0.2,0-0.4,0.1-0.5c0-0.2,0.1-0.3,0.1-0.5c0-1.2-0.4-2.2-1.1-2.8c-0.7-0.7-1.8-1-3.1-1c-2.5,0-4.2,0.3-5.3,1
		s-1.7,1.7-1.9,3c-0.5,2.9-1,6-1.4,9.4c-0.4,3.3-0.6,6.7-0.6,10c0,4.8,0.7,9.2,2,13.2c1.3,4.1,3.3,7.6,5.8,10.5c2.6,3,5.7,5.3,9.5,7
		s8.1,2.5,12.9,2.5c4.5,0,8.5-0.7,12.2-2.1c3.6-1.4,6.8-3.3,9.4-5.8c2.6-2.5,4.6-5.5,6-9s2.1-7.4,2.1-11.7c0-3.1-0.3-6-0.9-8.9
		s-1.4-5.7-2.4-8.4s-2.2-5.4-3.5-8s-2.7-5.1-4.1-7.7c-0.9-1.7-2.1-2.6-3.5-2.6c-0.9,0-1.9,0.3-2.9,1l-2.3,1.5
		c-1.5,1-2.3,2.3-2.3,3.7c0,0.8,0.3,1.8,0.8,2.8c1.2,2.3,2.4,4.5,3.5,6.7s2.1,4.5,2.9,6.8c0.9,2.3,1.5,4.6,2,6.9
		c0.5,2.3,0.8,4.7,0.8,7.1c0,2.4-0.3,4.7-0.9,6.7c-0.6,2.1-1.5,3.9-2.8,5.4c-1.2,1.5-2.8,2.7-4.6,3.6c-1.9,0.9-4,1.3-6.4,1.3
		c-4.3,0-7.8-0.7-10.6-2s-5-3.2-6.6-5.5s-2.7-5-3.3-8.2c-0.6-3.1-0.9-6.4-0.9-9.9c0-2.7,0.1-5.4,0.4-8
		C548.1,180,548.5,177.5,548.9,175z"/>
	<path d="M660.9,210.4c1-2.2,1.9-4.5,2.7-6.7s1.4-4.4,1.9-6.4s0.9-3.7,1.2-5.1c0.5-1.9,0.9-4,1.4-6.1c0.5-2.2,0.9-4.3,1.2-6.4
		c0.4-2.1,0.7-4.1,0.9-6s0.4-3.5,0.4-4.9c0-0.9-0.3-1.7-0.8-2.5s-1.2-1.5-2.1-2c-0.8-0.6-1.7-1-2.7-1.4c-0.9-0.3-1.8-0.5-2.6-0.5
		c-0.9,0-1.6,0.3-2.2,0.9c-0.6,0.6-0.9,1.5-1,2.7c-0.2,2.3-0.5,4.9-0.9,7.9c-0.3,3-0.7,6.1-1.2,9.3s-1,6.4-1.6,9.5s-1.3,5.9-2.1,8.4
		s-1.6,4.4-2.5,6c-0.9,1.5-1.9,2.3-3,2.3c-0.8,0-1.8-0.5-3-1.4s-2.4-2.2-3.7-3.7s-2.7-3.3-4.2-5.4c-1.5-2-2.9-4.1-4.4-6.3
		s-2.9-4.4-4.2-6.6c-1.4-2.2-2.6-4.3-3.8-6.2c-1.1-1.9-2.1-3.7-3-5.2c-0.8-1.5-1.5-2.7-1.9-3.5c-1-1.7-2.2-2.6-3.5-2.6
		c-0.6,0-1.3,0.2-2.1,0.7s-1.7,1.1-2.5,1.8s-1.5,1.5-2.1,2.3s-0.9,1.6-0.9,2.2c0,1.4,0.3,2.9,1,4.5c0.7,1.7,1.7,3.5,2.9,5.5
		s2.6,4.1,4.2,6.4c1.6,2.3,3.3,4.7,5.1,7.3c0.9,1.2,1.9,2.7,3.1,4.3s2.5,3.3,3.9,5.1c1.4,1.7,2.9,3.4,4.4,5.1
		c1.5,1.7,3.1,3.2,4.7,4.5c1.6,1.3,3.2,2.4,4.8,3.2s3.1,1.2,4.6,1.2c2,0,3.9-0.6,5.5-1.7c1.6-1.1,3.1-2.6,4.4-4.4
		C658.7,214.7,659.9,212.7,660.9,210.4z"/>
	<path d="M775,211.7c2.1-3.3,3.7-7.1,4.9-11.5s1.8-9.1,1.8-14.1c0-2.3-0.1-4.7-0.4-7c-0.2-2.3-0.6-4.7-1-7c-0.4-2.5-1.6-3.7-3.6-3.7
		c-0.6,0-1.3,0.1-2,0.3l-2.6,0.9c-2.3,0.8-3.5,2.3-3.5,4.4c0,0.2,0,0.4,0,0.6c0,0.2,0,0.4,0.1,0.6c0.3,2,0.5,4.3,0.7,6.7
		s0.3,4.9,0.3,7.4c0,2.3-0.2,4.8-0.7,7.4c-0.5,2.6-1.2,5-2.1,7.2c-0.9,2.2-2.1,4-3.4,5.4c-1.4,1.4-2.9,2.2-4.6,2.2
		c-1.9,0-3.6-0.5-5.2-1.4c-1.5-0.9-2.9-2.2-4.1-3.6s-2.3-3.1-3.2-5c-0.9-1.8-1.7-3.6-2.4-5.4c-0.2-0.4-0.3-0.8-0.4-1.1
		c-0.1-0.3-0.1-0.7-0.1-1c0-0.6,0.1-1.2,0.4-1.8c0.5-2.1,1-4.2,1.4-6.4c0.4-2.1,0.6-4.2,0.6-6.3c0-1.9-0.2-3.8-0.7-5.6
		c-0.4-1.9-1.2-3.5-2.2-4.9c-0.5-0.8-1.1-1.3-1.8-1.6s-1.4-0.5-2.3-0.5c-0.8,0-1.6,0.1-2.5,0.2c-0.9,0.1-1.7,0.3-2.6,0.7
		c-0.8,0.3-1.6,0.7-2.2,1.2c-0.7,0.5-1.2,1.1-1.5,1.8c-0.6,1.3-1.1,2.7-1.4,4.3c-0.3,1.5-0.4,3.1-0.4,4.7c0,2.7,0.2,5.3,0.6,7.6
		c0.4,2.3,0.9,4.7,1.6,7c0.1,0.3,0.1,0.7,0.2,1c0,0.3,0.1,0.6,0.1,0.9c0,0.6-0.1,1.3-0.3,2c-0.3,0.8-0.8,1.8-1.4,2.9
		c-0.6,1.1-1.2,2.3-2,3.5c-0.7,1.2-1.5,2.4-2.4,3.6c-0.9,1.2-1.8,2.2-2.7,3.1c-0.9,0.9-1.9,1.7-2.9,2.2c-1,0.6-1.9,0.9-2.9,0.9
		c-1.3,0-2.5-0.5-3.7-1.5c-1.1-1-2.1-2.4-3.1-4.1c-0.9-1.7-1.8-3.7-2.6-5.9s-1.4-4.6-2-7.1s-1.1-5-1.6-7.6s-0.9-5-1.2-7.4
		c-0.4-2.3-0.7-4.5-0.9-6.5s-0.4-3.6-0.6-4.9c-0.4-2.6-1.8-4-4.1-4c-0.2,0-0.4,0-0.6,0c-0.2,0-0.4,0-0.7,0.1l-2.4,0.5
		c-2.6,0.5-3.9,2-3.9,4.4v0.9c0.4,3.5,0.8,7.3,1.3,11.3s1.2,8.1,2,12.1s1.8,7.9,3,11.6c1.2,3.7,2.7,7,4.4,9.9
		c1.8,2.9,3.8,5.2,6.2,6.9s5.2,2.6,8.4,2.6c2,0,3.9-0.4,5.8-1.2s3.8-1.9,5.6-3.3c1.8-1.4,3.5-3.1,5-5.1c1.6-2,3-4.1,4.4-6.5
		c0.5-1,1.1-1.5,1.8-1.5s1.3,0.5,1.8,1.5c2.8,4.4,5.8,7.6,9.2,9.7s6.8,3,10.1,3c3.4,0,6.6-0.9,9.5-2.8
		C770.4,217.6,772.9,215,775,211.7z"/>
	<path d="M858.8,221.1l2-1.8c1.2-1,1.8-2.1,1.8-3.2c0-1.2-0.7-2.3-2-3.3c-4.3-3.3-8.7-6.7-13-10.1c-4.3-3.4-8.7-6.8-13-10.2
		c-0.9-0.7-1.4-1.5-1.4-2.4c0-0.2,0-0.5,0.1-0.7s0.2-0.5,0.3-0.8c1.9-3.7,3.8-7.4,5.8-11.1c2-3.6,4.1-7.2,6.3-10.8
		c0.3-0.5,0.5-1,0.7-1.5s0.2-1,0.2-1.4c0-1.4-0.8-2.6-2.3-3.6l-0.9-0.6c-1.1-0.6-2-1-2.8-1c-1.4,0-2.6,0.8-3.6,2.3
		c-2,3.3-4,6.7-6,10.1c-1.9,3.4-3.8,6.9-5.6,10.4c-0.6,1.1-1.4,1.6-2.2,1.6c-0.3,0-0.6-0.1-0.9-0.2c-0.3-0.2-0.6-0.3-1-0.6
		c-2.7-2.1-5.5-4.2-8.2-6.2s-5.5-4.1-8.3-6.1c-0.5-0.3-1-0.6-1.5-0.8s-0.9-0.3-1.4-0.3c-1.3,0-2.5,0.6-3.6,1.9l-1.6,1.9
		c-0.5,0.5-0.8,1-1,1.6c-0.2,0.5-0.3,1-0.3,1.6c0,1.3,0.7,2.4,2.1,3.4c3.2,2.3,6.4,4.7,9.5,7.1c3.1,2.4,6.3,4.8,9.4,7.2
		c0.9,0.7,1.4,1.5,1.4,2.4c0,0.2-0.1,0.5-0.2,0.7c-0.1,0.3-0.2,0.5-0.3,0.9c-1.5,3.1-2.9,6.1-4.3,9.1c-1.4,3-2.6,5.8-3.8,8.6
		c-0.3,0.7-0.5,1.5-0.5,2.3c0,1.6,0.9,2.9,2.8,3.8l1.5,0.7c0.9,0.4,1.6,0.6,2.3,0.6c1.7,0,3-1,3.8-3l6.5-14.9
		c0.6-1.1,1.3-1.7,2.2-1.7c0.3,0,0.6,0.1,0.9,0.2c0.3,0.2,0.6,0.3,0.9,0.6l22.4,17.5c1.1,0.9,2.1,1.3,3.1,1.3
		C856.6,222.6,857.7,222.1,858.8,221.1z"/>
	<path d="M917.1,166.9l-2-1.1c-0.5-0.3-0.9-0.5-1.3-0.6c-0.4-0.1-0.8-0.2-1.2-0.2c-1.7,0-2.9,1.1-3.5,3.3l-5,19.9
		c-0.2,1.4-0.8,2-1.9,2c-0.5,0-1.2-0.3-1.9-1c-4.6-5-9.3-9.7-14.2-13.9s-10-8.4-15.3-12.3c-0.5-0.4-1-0.7-1.6-0.9
		c-0.5-0.2-1-0.3-1.4-0.3c-1.3,0-2.5,0.6-3.5,1.8l-1.6,1.9c-0.5,0.5-0.8,1-1,1.6c-0.2,0.5-0.3,1-0.3,1.6c0,1.4,0.7,2.5,2,3.5
		c6.3,4.7,12.4,9.7,18.2,14.8c5.8,5.2,11.4,10.7,16.7,16.6c0.3,0.4,0.6,0.8,0.8,1.2s0.3,0.9,0.3,1.3c0,0.2,0,0.4-0.1,0.6
		c0,0.2-0.1,0.4-0.2,0.7c-1.1,4.5-2.2,8.9-3.4,13.3c-1.2,4.4-2.4,8.9-3.6,13.4c-0.1,0.3-0.2,0.6-0.2,0.9s0,0.6,0,0.8
		c0,1,0.3,1.8,0.8,2.5s1.4,1.2,2.5,1.5l1.9,0.6c0.7,0.2,1.3,0.3,1.9,0.3c2,0,3.3-1.2,3.9-3.5c1.5-5.5,3-11.1,4.4-16.7
		c1.4-5.6,2.8-11.2,4.2-16.7s2.7-10.9,4-16.1c1.3-5.2,2.6-10.2,3.9-14.9c0.2-0.7,0.3-1.3,0.3-1.9
		C919.8,169.3,918.9,167.9,917.1,166.9z"/>
	<path d="M39.5,377.7c0.4-0.6,0.7-1.1,0.7-1.7s-0.2-1.1-0.5-1.5c-0.4-0.4-0.8-0.6-1.2-0.6c-0.3,0-0.5,0-0.8,0.1s-0.5,0.2-0.8,0.3
		c-0.3,0.1-0.6,0.2-0.9,0.3c-0.3,0.1-0.7,0.1-1.1,0.1c-1.2,0-2.2-0.7-2.9-2s-1.1-3.5-1.2-6.4l-0.1-2.4h0.1h0.1H31
		c0.4,0,0.9-0.1,1.3-0.3c0.4-0.2,0.8-0.4,1.1-0.7c0.3-0.3,0.6-0.6,0.8-1s0.3-0.8,0.3-1.2c0-1-0.2-2-0.7-2.8
		c-0.5-0.9-1.1-1.6-1.9-2.2c-0.8-0.6-1.7-1.1-2.7-1.4s-2.1-0.5-3.2-0.5c-1.4,0-2.9,0.3-4.5,0.9s-3.1,1.4-4.7,2.5
		c-1.5,1-3,2.2-4.4,3.6s-2.6,2.8-3.7,4.3s-1.9,3-2.5,4.6c-0.6,1.5-0.9,3-0.9,4.4c0,1,0.2,1.9,0.5,2.7c0.3,0.8,0.8,1.5,1.3,2
		c0.6,0.6,1.3,1,2.1,1.3c0.8,0.3,1.8,0.5,2.8,0.5c2.2,0,4.4-0.6,6.7-1.9s4.4-3.2,6.4-5.7c0.2-0.2,0.4-0.4,0.6-0.4s0.4,0.2,0.5,0.6
		c0.5,2.5,1.4,4.5,2.6,5.8s2.6,2,4.2,2c0.9,0,1.8-0.1,2.7-0.4s1.7-0.7,2.4-1.1C38.4,378.8,39,378.3,39.5,377.7z M26.9,362.1
		c-0.6,0.1-1,0.3-1.3,0.6c-0.3,0.3-0.6,0.8-1,1.5c-2,3.5-3.9,6.2-5.9,7.9c-2,1.8-3.8,2.6-5.4,2.6c-0.6,0-1.2-0.2-1.5-0.6
		c-0.4-0.4-0.6-0.9-0.6-1.6c0-0.8,0.2-1.6,0.7-2.6s1-2,1.8-2.9c0.7-1,1.6-2,2.5-2.9s1.9-1.8,2.9-2.5s2-1.3,2.9-1.8
		c1-0.4,1.8-0.7,2.6-0.7c0.7,0,1.3,0.2,1.7,0.6c0.4,0.4,0.8,0.9,1.2,1.4c0.1,0.2,0.2,0.4,0.2,0.5C27.6,361.9,27.4,362,26.9,362.1z"
		/>
	<path d="M75.3,371.7c0.5-1.5,0.8-3,0.8-4.7c0-1.8-0.3-3.5-0.8-5.1c-0.6-1.6-1.3-2.9-2.3-4.1s-2.1-2.1-3.4-2.7c-1.3-0.7-2.7-1-4.3-1
		c-4.1,0-7.6,1.9-10.5,5.8c-0.2,0.3-0.5,0.5-0.7,0.5c-0.3,0-0.4-0.3-0.5-0.8c-0.2-1.8-0.4-3.6-0.6-5.3s-0.5-3.3-0.7-4.7
		c-0.2-1.4-0.5-2.7-0.7-3.8c-0.2-1.1-0.4-1.9-0.6-2.5c-0.5-1.2-1.3-1.7-2.6-1.7c-0.5,0-0.9,0.1-1.3,0.2c-0.4,0.1-0.8,0.3-1.1,0.5
		s-0.6,0.5-0.8,0.9c-0.2,0.3-0.3,0.8-0.3,1.2c0,0.1,0,0.2,0,0.4s0,0.3,0.1,0.4c1,4.7,1.7,9.3,2.2,14s0.9,9.4,1.3,14.1
		c0.1,1.7,0.9,2.6,2.5,2.6c0.5,0,1-0.1,1.3-0.2c0.4-0.1,0.7-0.3,1-0.7c0.2-0.3,0.5-0.4,0.7-0.4s0.4,0.1,0.6,0.2
		c1.6,1.3,3.3,2.3,5.2,3c1.8,0.7,3.7,1.1,5.6,1.1c1.5,0,3-0.3,4.3-0.9s2.4-1.4,3.4-2.5C74.1,374.4,74.8,373.2,75.3,371.7z
		 M68.7,372.1c-0.8,0.9-1.9,1.3-3.3,1.3c-0.6,0-1.3-0.1-2.1-0.3c-0.7-0.2-1.5-0.6-2.3-1s-1.5-0.9-2.3-1.4s-1.5-1.1-2.3-1.8
		c-0.2-0.2-0.4-0.4-0.4-0.8c0-0.1,0-0.2,0-0.3c0-0.1,0.1-0.2,0.1-0.3c0.4-1.2,0.9-2.2,1.5-3.2s1.3-1.8,2-2.5s1.5-1.2,2.3-1.6
		s1.6-0.6,2.4-0.6s1.5,0.2,2.2,0.7c0.7,0.4,1.3,1,1.7,1.8c0.5,0.8,0.9,1.7,1.2,2.8c0.3,1.1,0.4,2.2,0.4,3.5
		C69.8,370,69.4,371.3,68.7,372.1z"/>
	<path d="M106.1,374.2c-0.2-0.2-0.4-0.4-0.7-0.6s-0.5-0.2-0.7-0.2c-0.4,0-0.9,0.2-1.3,0.5s-0.9,0.6-1.4,1s-1.1,0.7-1.8,1
		c-0.7,0.3-1.5,0.5-2.4,0.5c-2,0-3.5-0.7-4.6-2.2s-1.6-3.7-1.6-6.5c0-1,0.1-1.9,0.3-2.8c0.2-0.8,0.5-1.6,0.9-2.2s0.9-1.1,1.5-1.4
		s1.2-0.5,2-0.5c0.7,0,1.4,0.2,1.9,0.5s1,0.7,1.5,1.2c0.4,0.4,0.8,0.8,1.2,1.2c0.4,0.4,0.8,0.5,1.3,0.5c0.4,0,0.8-0.1,1.2-0.3
		c0.4-0.2,0.7-0.4,1-0.8c0.3-0.3,0.5-0.7,0.7-1.1s0.3-0.8,0.3-1.3c0-0.7-0.2-1.4-0.7-2c-0.5-0.7-1.1-1.2-1.8-1.8
		c-0.8-0.5-1.6-0.9-2.6-1.2c-1-0.3-2-0.5-3.1-0.5c-1.7,0-3.3,0.3-4.8,1s-2.7,1.7-3.8,2.9s-1.9,2.7-2.5,4.4c-0.6,1.7-0.9,3.6-0.9,5.6
		c0,1.9,0.3,3.6,0.8,5.1s1.3,2.9,2.3,4s2.1,2,3.5,2.6c1.3,0.6,2.8,0.9,4.4,0.9c1.2,0,2.4-0.2,3.7-0.5c1.3-0.4,2.4-0.8,3.4-1.4
		s1.9-1.2,2.5-1.9c0.7-0.7,1-1.4,1-2.1c0-0.3-0.1-0.6-0.2-0.9C106.4,374.7,106.3,374.4,106.1,374.2z"/>
	<path d="M151.3,376.4c0.3-0.5,0.5-1,0.5-1.5c0-0.6-0.1-1.1-0.4-1.5s-0.6-0.6-1-0.6c-0.6,0-1.1,0.1-1.5,0.2s-0.9,0.2-1.4,0.2
		c-0.9,0-1.7-0.2-2.5-0.7s-1.4-1.2-1.9-2.2s-0.9-2.2-1.2-3.7s-0.4-3.3-0.4-5.3c0-1.3,0-2.7,0.1-4.1s0.1-2.6,0.2-3.8
		c0.1-1.2,0.1-2.3,0.2-3.2c0.1-0.9,0.1-1.7,0.1-2.1c0-1.3-0.3-2.2-0.8-2.7s-1.4-0.8-2.7-0.8s-2.2,0.3-2.7,0.8s-0.8,1.4-0.8,2.6v9.5
		c0,0.6-0.2,0.9-0.7,0.9c-0.2,0-0.3,0-0.4-0.1c-1-0.3-2-0.5-3-0.6s-1.9-0.2-2.7-0.2c-2.1,0-4.1,0.4-5.9,1.1s-3.5,1.8-4.8,3.1
		c-1.4,1.3-2.5,2.8-3.3,4.5s-1.2,3.6-1.2,5.5c0,1.5,0.3,2.9,0.8,4.2c0.5,1.3,1.3,2.4,2.3,3.4s2.1,1.7,3.5,2.2
		c1.3,0.5,2.8,0.8,4.5,0.8c1.5,0,3-0.2,4.4-0.7c1.4-0.4,2.7-1.1,3.8-1.9c1.2-0.8,2.2-1.9,3.1-3c0.9-1.2,1.6-2.5,2.1-4
		c0.1-0.3,0.2-0.5,0.4-0.5c0.1,0,0.2,0.2,0.3,0.5c0.7,2.1,1.7,3.7,3.1,4.7c1.4,1,2.9,1.5,4.6,1.5c0.8,0,1.5-0.1,2.2-0.3
		c0.7-0.2,1.3-0.5,1.9-0.8C150.6,377.3,151,376.9,151.3,376.4z M134.5,366.2c-0.1,0.7-0.4,1.5-0.7,2.4s-0.7,1.8-1.2,2.8
		s-1.1,1.8-1.8,2.6c-0.7,0.8-1.5,1.4-2.4,1.9s-1.9,0.8-3.1,0.8c-0.9,0-1.7-0.2-2.4-0.5s-1.4-0.7-1.9-1.3c-0.5-0.5-0.9-1.2-1.2-2
		c-0.3-0.8-0.4-1.7-0.4-2.6c0-1.1,0.2-2.1,0.6-3s0.9-1.7,1.6-2.4c0.7-0.7,1.5-1.2,2.5-1.6s2.1-0.5,3.3-0.5c0.4,0,0.9,0,1.4,0.1
		c0.5,0,1.1,0.1,1.6,0.2c0.6,0.1,1.1,0.2,1.7,0.3c0.6,0.1,1.2,0.2,1.7,0.4c0.2,0.1,0.4,0.2,0.5,0.4c0.1,0.2,0.2,0.4,0.2,0.6
		C134.7,365,134.6,365.5,134.5,366.2z"/>
	<path d="M185.8,373.9c-0.3-0.3-0.6-0.6-0.9-0.8c-0.3-0.2-0.6-0.2-0.9-0.2c-0.6,0-1.1,0.3-1.7,0.8c-0.8,0.6-1.6,1.1-2.4,1.6
		c-0.9,0.5-1.7,0.8-2.6,1.2c-0.9,0.3-1.8,0.6-2.7,0.7c-0.9,0.2-1.8,0.3-2.7,0.3s-1.8-0.1-2.7-0.3c-0.9-0.2-1.6-0.5-2.3-0.9
		s-1.2-0.8-1.6-1.3c-0.4-0.5-0.6-1-0.6-1.5c0-0.3,0.1-0.6,0.4-0.8c0.3-0.2,0.6-0.3,1-0.3l10.5-1.1c1.1-0.1,2.1-0.3,2.9-0.6
		c0.9-0.3,1.6-0.7,2.2-1.3c0.6-0.5,1.1-1.1,1.4-1.8c0.3-0.7,0.5-1.4,0.5-2.3c0-1.2-0.3-2.3-0.8-3.3c-0.6-1-1.3-1.9-2.3-2.7
		c-1-0.8-2.1-1.4-3.4-1.8c-1.3-0.4-2.7-0.7-4.2-0.7c-1.4,0-2.9,0.2-4.2,0.7s-2.7,1.1-3.9,1.9s-2.3,1.8-3.3,3s-1.8,2.4-2.4,3.8
		c-0.3,0.8-0.9,1.2-1.8,1.2h-0.5c-0.6,0-1.1,0.2-1.4,0.5c-0.3,0.3-0.5,0.9-0.6,1.6l-0.1,0.6c0,0.1-0.1,0.3-0.1,0.5
		c0,0.7,0.2,1.2,0.6,1.6c0.4,0.4,1,0.5,1.7,0.5c0.3,0,0.6,0.1,0.7,0.3c0.2,0.2,0.3,0.5,0.5,1.1c0.3,1.4,0.9,2.6,1.6,3.7
		c0.8,1.1,1.7,2,2.8,2.8s2.4,1.4,3.8,1.8c1.4,0.4,3,0.6,4.6,0.6c1.3,0,2.6-0.1,3.9-0.3c1.3-0.2,2.6-0.6,3.8-1s2.4-1,3.6-1.6
		c1.1-0.6,2.2-1.4,3.2-2.2c0.6-0.5,0.9-1.1,0.9-1.7c0-0.3-0.1-0.6-0.2-0.9C186.3,374.7,186.1,374.3,185.8,373.9z M165.8,364.9
		c0.4-0.5,1-0.9,1.7-1.3s1.5-0.7,2.4-1s1.7-0.4,2.6-0.4c0.6,0,1.1,0.1,1.6,0.2s1,0.3,1.3,0.5c0.4,0.2,0.7,0.5,0.9,0.7
		c0.2,0.3,0.3,0.5,0.3,0.9c0,0.3-0.1,0.6-0.3,0.9c-0.2,0.2-0.5,0.4-0.8,0.4c-0.7,0.1-1.5,0.3-2.5,0.4s-1.9,0.3-2.8,0.4
		c-0.9,0.1-1.8,0.2-2.6,0.3c-0.8,0.1-1.3,0.1-1.7,0.1c-0.6,0-0.9-0.2-0.9-0.7S165.4,365.3,165.8,364.9z"/>
	<path d="M206.6,347c0.4-1.1,0.9-1.9,1.6-2.7s1.3-1.4,2.1-2c0.1-0.1,0.2-0.2,0.3-0.3c0.1-0.1,0.1-0.3,0.1-0.4c0-0.5-0.2-1-0.5-1.5
		s-0.7-0.9-1.2-1.3s-1-0.7-1.6-1s-1.1-0.4-1.6-0.4c-0.3,0-0.5,0.1-0.9,0.3c-0.3,0.2-0.6,0.3-0.8,0.5c-0.7,0.5-1.4,1.2-2,2.1
		s-1.1,2.1-1.6,3.6s-0.9,3.3-1.2,5.4s-0.6,4.7-0.8,7.6c-0.1,0.6-0.4,0.9-0.9,1c-1.1,0.1-2.2,0.1-3.1,0.2c-1,0.1-1.8,0.1-2.6,0.1
		c-0.2,0-0.5,0.1-0.6,0.2c-0.2,0.2-0.3,0.3-0.5,0.6s-0.2,0.5-0.3,0.8s-0.1,0.6-0.1,1c0,0.7,0.1,1.3,0.4,1.9c0.3,0.6,0.7,0.9,1.1,0.9
		l5.3-0.4c0.7,0,1,0.3,1,0.9c0,0.7-0.1,1.4-0.1,2.1s0,1.4,0,2.2c0,2.9,0,5.6,0.1,8c0,2.4,0.1,4.7,0.2,6.7c0.1,2.1,0.2,3.9,0.3,5.6
		s0.3,3.2,0.5,4.7c0.1,0.4,0.3,0.7,0.7,0.9c0.4,0.2,0.8,0.3,1.4,0.3c0.5,0,1.1-0.1,1.7-0.2c0.6-0.1,1.2-0.3,1.7-0.6s0.9-0.5,1.3-0.9
		c0.3-0.3,0.5-0.7,0.5-1.2c0-0.6-0.1-1.5-0.3-2.8s-0.5-3-0.7-5.2c-0.3-2.2-0.5-4.9-0.7-8.1s-0.3-7.1-0.3-11.5c0-0.5,0-0.9,0.1-1.2
		s0.3-0.5,0.8-0.5l8.1-0.9c0.3,0,0.6-0.2,0.8-0.4c0.2-0.2,0.4-0.5,0.5-0.8s0.2-0.6,0.3-1s0.1-0.8,0.1-1.1c0-0.6-0.1-1.2-0.3-1.6
		s-0.4-0.7-0.8-0.7c-0.5,0-1.1,0.1-1.7,0.2s-1.3,0.2-2.1,0.4c-0.7,0.1-1.5,0.3-2.3,0.4s-1.6,0.2-2.4,0.2c-0.3,0-0.5-0.1-0.6-0.2
		c-0.1-0.2-0.2-0.4-0.2-0.7c0.1-2.1,0.4-3.9,0.6-5.3C205.9,349.3,206.2,348.1,206.6,347z"/>
	<path d="M228,380.3c3.1,0,5.9-0.6,8.5-1.9c2.5-1.3,4.8-3.2,6.7-5.8c0.2-0.3,0.4-0.4,0.7-0.4s0.5,0.3,0.5,0.9
		c-0.8,13.5-3.4,20.2-7.8,20.2c-0.8,0-1.4-0.2-2-0.5c-0.5-0.3-1-0.7-1.3-1.2s-0.7-1-0.9-1.5c-0.2-0.6-0.5-1.1-0.7-1.5
		c-0.2-0.5-0.5-0.9-0.7-1.2c-0.3-0.3-0.6-0.5-1-0.5s-0.8,0.1-1.3,0.4s-1,0.6-1.5,1s-0.9,0.8-1.2,1.2c-0.3,0.4-0.5,0.8-0.5,1.1
		c0,0.9,0.3,1.9,1,2.9s1.5,1.9,2.6,2.7c1.1,0.8,2.2,1.5,3.5,2s2.5,0.8,3.7,0.8c2.6,0,4.8-0.7,6.6-2.2s3.3-3.8,4.4-7.1
		c1.1-3.2,2-7.5,2.5-12.6c0.5-5.2,0.8-11.5,0.8-18.9c0-0.6-0.2-1.1-0.7-1.5c-0.4-0.4-1.1-0.6-1.8-0.6s-1.2,0.1-1.6,0.3
		c-0.4,0.2-0.7,0.4-1,0.6c-0.2,0.2-0.4,0.4-0.6,0.6c-0.2,0.2-0.3,0.3-0.5,0.3s-0.6-0.1-1.1-0.2c-0.5-0.2-1.1-0.3-1.8-0.5
		s-1.5-0.3-2.4-0.5s-1.8-0.2-2.8-0.2c-1.6,0-3.1,0.2-4.6,0.6s-2.9,0.9-4.2,1.6s-2.6,1.5-3.7,2.4c-1.1,0.9-2.1,2-2.9,3.1
		c-0.8,1.1-1.5,2.3-1.9,3.5s-0.7,2.5-0.7,3.8s0.2,2.5,0.7,3.6s1.2,2,2.1,2.8c0.9,0.8,1.9,1.4,3.1,1.8
		C225.3,380.1,226.6,380.3,228,380.3z M225.1,367.6c0.6-1,1.5-2,2.5-2.8s2.2-1.5,3.6-1.9s2.7-0.7,4.2-0.7c0.9,0,1.8,0.1,2.7,0.2
		s1.7,0.2,2.4,0.4c0.7,0.2,1.2,0.4,1.7,0.6c0.4,0.2,0.6,0.4,0.6,0.6c0,0.1,0,0.2,0,0.2c0,0.1-0.1,0.2-0.1,0.3
		c-1.6,3.3-3.6,5.9-5.9,7.6c-2.3,1.8-4.9,2.6-7.6,2.6c-1.4,0-2.6-0.4-3.5-1.1s-1.3-1.7-1.3-2.9C224.2,369.7,224.5,368.6,225.1,367.6
		z"/>
	<path d="M268.2,382.8c0.4-0.1,0.7-0.2,1-0.4c0.3-0.2,0.5-0.4,0.7-0.7c0.2-0.3,0.4-0.7,0.5-1.2c1.7-5.1,3.3-8.9,4.8-11.5
		c1.6-2.5,3.1-3.8,4.7-3.8c0.7,0,1.3,0.4,1.9,1.1s1.1,1.8,1.6,3c0.4,1.3,0.8,2.8,1,4.5c0.3,1.7,0.4,3.5,0.4,5.4
		c0,0.8,0.2,1.3,0.6,1.7c0.4,0.4,1.1,0.5,2.1,0.5c0.7,0,1.3-0.1,1.7-0.2c0.5-0.1,0.8-0.3,1.1-0.6c0.3-0.3,0.5-0.7,0.6-1.1
		c0.1-0.5,0.2-1.1,0.2-1.8c0-2.7-0.2-5.2-0.7-7.4s-1.1-4.1-2-5.7s-1.9-2.8-3.1-3.6c-1.2-0.9-2.6-1.3-4.1-1.3c-1.1,0-2.2,0.2-3.3,0.7
		c-1.1,0.4-2.1,1.1-3.1,1.9s-1.9,1.9-2.7,3.1s-1.6,2.6-2.3,4.1c-0.2,0.4-0.4,0.5-0.5,0.5s-0.2-0.1-0.3-0.2c-0.1-0.1-0.1-0.3-0.1-0.6
		c-0.2-2.7-0.3-5.1-0.4-7.1s-0.3-3.7-0.4-5.2s-0.3-2.9-0.4-4.1s-0.3-2.4-0.5-3.7c-0.1-0.5-0.3-0.8-0.6-1.1c-0.4-0.3-0.8-0.4-1.3-0.4
		c-2.8,0-4.3,1.1-4.3,3.3c0,0.7,0.1,2,0.4,3.8s0.5,4,0.9,6.6c0.3,2.6,0.7,5.5,1,8.7s0.5,6.6,0.7,10.1c0,0.9,0.3,1.6,0.7,2
		s1.2,0.6,2.3,0.6C267.3,382.9,267.8,382.9,268.2,382.8z"/>
	<path d="M308.8,368.2c-0.1-1.3-0.2-2.6-0.2-3.8s-0.2-2.4-0.3-3.5c-0.1-1.1-0.2-2.1-0.3-2.9c-0.1-1.3-1.1-1.9-2.9-1.9
		c-1,0-1.8,0.2-2.4,0.7s-0.9,1-0.9,1.7c0,0.5,0.1,1.3,0.2,2.6c0.1,1.3,0.3,2.9,0.4,4.8c0.2,1.9,0.3,4.1,0.4,6.5s0.2,5.1,0.2,7.9
		c0,0.6,0.2,1,0.5,1.3c0.4,0.3,0.8,0.4,1.5,0.4c1.4,0,2.4-0.3,3.1-0.8s1.1-1.3,1.1-2.3s0-2-0.1-3.2c0-1.2-0.1-2.4-0.2-3.7
		C309,370.8,308.9,369.5,308.8,368.2z"/>
	<path d="M309.2,345.1c-0.2-0.4-0.5-0.8-0.9-1.1c-0.4-0.3-0.8-0.6-1.3-0.8c-0.5-0.2-1-0.3-1.5-0.3c-1.1,0-2,0.3-2.7,0.8
		s-1,1.2-1,2.1c0,0.5,0.1,1,0.3,1.4c0.2,0.4,0.5,0.8,0.9,1.1c0.4,0.3,0.8,0.6,1.3,0.7c0.5,0.2,1.1,0.3,1.7,0.3c1.1,0,2-0.2,2.6-0.7
		s1-1.2,1-2.1C309.5,346,309.4,345.6,309.2,345.1z"/>
	<path d="M325.9,351.5c0.5,0.2,1,0.3,1.6,0.3c1.2,0,2-0.2,2.7-0.7c0.6-0.5,0.9-1.1,0.9-2c0-0.5-0.1-0.9-0.3-1.4
		c-0.2-0.4-0.5-0.8-0.9-1.2c-0.4-0.3-0.8-0.6-1.3-0.8c-0.5-0.2-1-0.3-1.6-0.3c-1.1,0-2,0.3-2.6,0.8s-1,1.2-1,2.1
		c0,0.5,0.1,0.9,0.3,1.4c0.2,0.4,0.5,0.8,0.9,1.1C324.9,351,325.4,351.3,325.9,351.5z"/>
	<path d="M331.8,369.2c-0.3-2.2-0.6-4.2-0.9-6.1c-0.4-1.9-0.7-3.5-1.2-5c-0.3-0.9-1.3-1.4-2.8-1.4c-1.1,0-2,0.3-2.6,0.7
		c-0.6,0.4-0.9,1-0.9,1.7c0,0.6,0.1,1.6,0.4,2.8c0.3,1.2,0.6,2.9,1,5c0.3,2.1,0.7,4.6,1,7.6s0.4,6.6,0.4,10.7c0,1.1,0,2-0.1,2.6
		c-0.1,0.7-0.2,1.2-0.4,1.6c-0.2,0.4-0.5,0.7-0.8,0.8c-0.3,0.2-0.8,0.2-1.3,0.2c-0.9,0-1.7-0.1-2.4-0.4c-0.7-0.3-1.4-0.6-2.1-1.1
		c-0.6-0.4-1.2-0.9-1.8-1.4c-0.5-0.5-1-0.9-1.5-1.4c-0.5-0.4-0.9-0.8-1.3-1.1c-0.4-0.3-0.8-0.4-1.2-0.4c-0.3,0-0.7,0.1-1.1,0.3
		c-0.4,0.2-0.8,0.5-1.1,0.8c-0.4,0.3-0.7,0.7-0.9,1.1c-0.2,0.4-0.4,0.7-0.4,1c0,0.6,0.2,1.2,0.6,1.9c0.4,0.6,1,1.3,1.7,1.9
		s1.5,1.2,2.4,1.8s1.9,1.1,2.9,1.5s2.1,0.7,3.2,1s2.1,0.4,3.1,0.4c1.7,0,3.1-0.2,4.2-0.7s2.1-1.2,2.8-2.3c0.7-1.1,1.2-2.4,1.5-4.2
		c0.3-1.7,0.4-3.9,0.4-6.4c0-2.4-0.1-4.8-0.2-7.1C332.3,373.6,332.1,371.4,331.8,369.2z"/>
	<path d="M374.5,379.3c-2.6-0.5-4.9-1.1-6.9-1.7s-3.7-1.2-5.1-1.9c-1.4-0.6-2.5-1.3-3.2-1.9c-0.7-0.7-1.1-1.3-1.1-1.9
		c0-0.7,0.2-1.4,0.7-2.1s1.1-1.4,1.9-2.1c0.7-0.7,1.5-1.4,2.4-2.2c0.9-0.7,1.7-1.6,2.4-2.4c0.7-0.9,1.4-1.8,1.9-2.7
		c0.5-1,0.7-2,0.7-3.1s-0.3-1.9-0.9-2.5s-1.4-0.9-2.5-0.9c-1.8,0-3.6,0.9-5.5,2.8s-3.7,4.5-5.4,8c-0.2,0.4-0.4,0.5-0.6,0.5
		c-0.1,0-0.2-0.1-0.3-0.2c-0.1-0.1-0.2-0.3-0.2-0.6c-0.1-1.9-0.2-3.6-0.3-5.1c-0.1-1.5-0.2-2.8-0.2-4c-0.1-1.2-0.1-2.2-0.2-3.1
		s-0.1-1.8-0.2-2.6c-0.1-0.6-0.2-1.1-0.3-1.5c-0.1-0.4-0.3-0.7-0.5-1c-0.2-0.2-0.5-0.4-0.9-0.5s-0.8-0.2-1.3-0.2
		c-1.2,0-2,0.2-2.6,0.6s-0.9,1-0.9,1.9c0,0.5,0.1,1.3,0.2,2.6c0.1,1.2,0.2,2.7,0.4,4.3c0.2,1.7,0.3,3.5,0.5,5.6
		c0.2,2,0.3,4.1,0.5,6.2s0.3,4.2,0.4,6.3c0.1,2.1,0.2,4,0.2,5.7c0,0.9,0.2,1.5,0.5,1.8c0.4,0.3,1,0.5,1.9,0.5c0.7,0,1.3-0.1,1.7-0.2
		c0.5-0.1,0.8-0.3,1.1-0.5c0.3-0.3,0.5-0.6,0.6-1s0.2-1,0.2-1.7c0-0.3,0-0.5,0-0.6s0.1-0.1,0.2-0.1s0.2,0,0.3,0.1
		c0.1,0.1,0.3,0.2,0.5,0.3c0.7,0.5,1.6,1,2.5,1.5s2,1,3.1,1.5s2.2,0.9,3.4,1.3c1.2,0.4,2.3,0.8,3.4,1.1c1.1,0.3,2.1,0.6,3.1,0.7
		c1,0.2,1.8,0.3,2.5,0.3c0.3,0,0.7-0.1,1.1-0.4s0.7-0.6,1-1s0.6-0.8,0.8-1.3c0.2-0.5,0.3-0.9,0.3-1.4c0-0.4-0.1-0.7-0.3-0.9
		C375.2,379.6,374.9,379.4,374.5,379.3z"/>
	<path d="M387.4,378.5c0.3-0.3,0.5-0.7,0.7-1.2c0.1-0.5,0.2-1.1,0.2-1.9c0-0.7,0-1.7-0.1-2.9c-0.1-1.2-0.2-2.6-0.4-4.2
		c-0.2-1.6-0.4-3.3-0.6-5.2c-0.2-1.9-0.5-3.8-0.7-5.7c-0.3-2-0.5-3.9-0.8-5.9s-0.5-3.9-0.8-5.7c-0.1-0.6-0.2-1.1-0.4-1.5
		c-0.2-0.4-0.3-0.7-0.6-0.9c-0.2-0.2-0.5-0.4-0.9-0.5s-0.8-0.2-1.3-0.2c-1.4,0-2.4,0.2-3,0.7c-0.6,0.4-0.9,1.2-0.9,2.2
		c0,0.1,0.1,0.6,0.2,1.4s0.3,1.8,0.5,3.1c0.2,1.2,0.4,2.7,0.7,4.3c0.3,1.6,0.5,3.3,0.8,5s0.5,3.5,0.8,5.3s0.5,3.5,0.7,5
		c0.2,1.6,0.4,3,0.5,4.3s0.2,2.3,0.2,3.1c0,0.8,0.2,1.3,0.6,1.7c0.4,0.4,1,0.5,1.7,0.5s1.3-0.1,1.8-0.2S387.1,378.8,387.4,378.5z"/>
	<path d="M432.6,375.7c0.3,2.2,0.6,4.7,0.9,7.5c0.1,0.5,0.3,1,0.7,1.3c0.4,0.3,1,0.5,1.8,0.5c1.2,0,2.1-0.2,2.7-0.7
		c0.7-0.4,1-1.2,1-2.3c-0.4-3.9-0.9-7.3-1.4-10.2c-0.6-2.9-1.3-5.2-2-7.1c-0.8-1.9-1.7-3.3-2.7-4.2c-1-0.9-2.1-1.4-3.4-1.4
		c-0.7,0-1.4,0.1-2.1,0.4s-1.4,0.7-2.1,1.3c-0.7,0.6-1.4,1.3-2,2.2c-0.6,0.9-1.2,2-1.7,3.4c-0.1,0.3-0.2,0.5-0.3,0.6
		s-0.2,0.1-0.3,0.1s-0.2,0-0.3-0.1s-0.2-0.3-0.3-0.6c-0.8-2.8-1.8-5-3.1-6.5c-1.3-1.5-2.9-2.2-4.8-2.2c-0.6,0-1.2,0.1-1.8,0.2
		c-0.6,0.1-1.1,0.4-1.7,0.7c-0.5,0.4-1,0.8-1.5,1.4s-0.9,1.4-1.3,2.3c-0.3,0.7-0.5,1-0.8,1c-0.2,0-0.4-0.4-0.5-1.1
		c-0.1-0.5-0.2-1-0.3-1.4c-0.1-0.4-0.2-0.7-0.3-1.1c-0.1-0.3-0.3-0.5-0.5-0.6c-0.3-0.1-0.6-0.2-0.9-0.2c-0.4,0-0.9,0.1-1.4,0.2
		c-0.5,0.2-1,0.4-1.4,0.7c-0.4,0.3-0.8,0.6-1.1,1c-0.3,0.4-0.4,0.7-0.4,1.1c0,0.3,0.1,0.9,0.4,2s0.5,2.4,0.9,4.1s0.7,3.7,1,6
		s0.5,4.8,0.7,7.5c0,0.3,0.1,0.6,0.1,0.8c0.1,0.2,0.2,0.4,0.3,0.6c0.2,0.1,0.4,0.2,0.7,0.3c0.3,0.1,0.7,0.1,1.2,0.1s1.1,0,1.5-0.1
		c0.5-0.1,0.9-0.2,1.2-0.5c0.4-0.2,0.6-0.5,0.8-0.9c0.2-0.4,0.3-0.9,0.3-1.5c0-0.4,0-0.8,0-1.2s0-0.8,0-1.1c0-2.2,0.1-4.3,0.3-6.1
		c0.2-1.8,0.5-3.4,0.9-4.7c0.4-1.3,0.8-2.3,1.3-3s1-1.1,1.5-1.1c0.4,0,0.8,0.2,1.2,0.6c0.4,0.4,0.8,1,1.2,1.8
		c0.4,0.8,0.7,1.7,1.1,2.7c0.3,1,0.7,2.1,0.9,3.3c0.3,1.2,0.5,2.5,0.7,3.8s0.3,2.7,0.4,4c0,0.8,0.3,1.3,0.7,1.6
		c0.4,0.3,1.1,0.5,2.1,0.5c0.9,0,1.6-0.2,2.3-0.6c0.6-0.4,1-1,1.1-1.8c0.4-2.8,0.9-5,1.4-6.8s1-3.2,1.4-4.2s0.9-1.7,1.3-2.1
		s0.7-0.6,1-0.6c0.5,0,1,0.4,1.4,1.2c0.4,0.8,0.8,1.9,1.2,3.4C432,371.7,432.3,373.5,432.6,375.7z"/>
	<path d="M458,359.9c-0.2,0.6-0.4,0.9-0.5,0.9s-0.2-0.1-0.3-0.3c-0.1-0.2-0.1-0.5-0.2-0.9c-0.1-1.3-0.2-2.4-0.4-3.2
		c-0.1-0.8-0.3-1.5-0.4-1.9c-0.2-0.5-0.3-0.8-0.6-0.9c-0.2-0.2-0.5-0.2-0.8-0.2c-0.5,0-1.1,0.1-1.6,0.2c-0.5,0.2-1,0.3-1.4,0.6
		c-0.4,0.2-0.8,0.5-1,0.8c-0.3,0.3-0.4,0.6-0.4,0.9c0,0.4,0.1,1,0.2,1.8s0.3,2,0.5,3.7s0.4,3.8,0.6,6.6c0.2,2.7,0.4,6.2,0.6,10.4
		c0,0.5,0.3,0.9,0.6,1.2c0.4,0.3,0.9,0.5,1.7,0.5c1.1,0,2-0.2,2.7-0.7s1.1-1.1,1.2-1.9c0.4-3,0.7-5.5,1.1-7.7
		c0.4-2.1,0.8-3.9,1.2-5.3s0.9-2.4,1.3-3.1c0.5-0.7,0.9-1,1.5-1c0.5,0,1.1,0.4,1.6,1.3s1.1,2.1,1.6,3.7s1.1,3.6,1.6,6
		c0.6,2.4,1.1,5.1,1.7,8.2c0.1,0.5,0.3,0.9,0.7,1c0.4,0.2,1,0.3,1.8,0.3c0.4,0,0.9-0.1,1.3-0.2s0.8-0.3,1.2-0.5
		c0.3-0.2,0.6-0.5,0.8-0.8c0.2-0.3,0.3-0.7,0.3-1.2c0-0.2,0-0.3,0-0.5s-0.1-0.4-0.1-0.6c-0.8-4.4-1.7-8.1-2.5-11
		c-0.8-3-1.7-5.4-2.6-7.2c-0.9-1.8-1.9-3.2-3-4s-2.2-1.2-3.5-1.2C461.6,353.4,459.5,355.6,458,359.9z"/>
	<path d="M499.4,383.1c2,0,3.8-0.4,5.6-1.1c1.8-0.7,3.3-1.7,4.6-3c1.3-1.3,2.4-2.7,3.1-4.4c0.8-1.7,1.2-3.4,1.2-5.3
		s-0.4-3.7-1.1-5.4c-0.7-1.7-1.7-3.1-3-4.4c-1.3-1.2-2.8-2.2-4.5-2.9c-1.7-0.7-3.5-1.1-5.5-1.1c-1.2,0-2.4,0.1-3.6,0.4
		c-1.3,0.3-2.5,0.6-3.8,1.1s-2.6,1.1-3.9,1.8c-1.3,0.7-2.5,1.5-3.7,2.4c-0.5,0.4-0.9,0.8-1.1,1.3c-0.3,0.5-0.4,0.9-0.4,1.4
		c0,0.6,0.1,1.1,0.4,1.5c0.3,0.3,0.6,0.6,1,0.9c0.4,0.2,0.7,0.4,1,0.6s0.4,0.4,0.4,0.8c0,0.5,0,1-0.1,1.4s-0.1,0.8-0.1,1.2
		c0,1.9,0.3,3.6,1,5.2s1.6,2.9,2.8,4.1c1.2,1.1,2.6,2,4.3,2.7C495.7,382.8,497.4,383.1,499.4,383.1z M492.1,368.4
		c0-2.4,0.6-4.2,1.8-5.4c1.2-1.2,2.9-1.7,5.2-1.7c1.2,0,2.4,0.2,3.4,0.7c1.1,0.4,2,1.1,2.8,1.8c0.8,0.8,1.4,1.7,1.8,2.8
		c0.4,1.1,0.7,2.2,0.7,3.4c0,1.2-0.2,2.3-0.7,3.2c-0.5,1-1.1,1.8-1.9,2.4c-0.8,0.7-1.6,1.2-2.5,1.5s-1.8,0.5-2.6,0.5
		c-1.1,0-2.2-0.2-3.1-0.7c-1-0.5-1.8-1.1-2.5-1.9s-1.3-1.8-1.7-2.9C492.3,370.9,492.1,369.7,492.1,368.4z"/>
	<path d="M547.3,357.2c-1.2-1.3-2.7-2.3-4.4-3.1c-1.7-0.7-3.5-1.1-5.5-1.1c-1,0-1.9,0.1-2.8,0.4c-0.9,0.3-1.7,0.7-2.4,1.3
		c-0.8,0.6-1.4,1.3-2,2.2s-1.1,1.9-1.4,3c-0.2,0.6-0.4,0.9-0.5,0.9c-0.2,0-0.3-0.4-0.5-1.1c-0.2-0.6-0.3-1.1-0.5-1.6
		c-0.2-0.4-0.3-0.7-0.5-1c-0.2-0.2-0.4-0.4-0.7-0.5s-0.5-0.1-0.8-0.1c-1.3,0-2.3,0.2-3,0.6s-1.1,1-1.1,1.8c0,0.3,0.1,1,0.3,2.1
		s0.5,2.5,0.9,4.3c0.4,1.7,0.8,3.8,1.4,6.1c0.5,2.4,1,5,1.6,7.8c0.5,2.9,1.1,6,1.6,9.3s1,6.8,1.4,10.5c0.1,1,0.9,1.4,2.4,1.4
		c0.5,0,1-0.1,1.5-0.2s0.9-0.3,1.2-0.5c0.4-0.2,0.6-0.5,0.9-0.8c0.2-0.3,0.3-0.6,0.3-1l-1.5-14c0-1,0.5-1.5,1.4-1.5l1.5,0.1
		c2.2,0,4.3-0.4,6.2-1.1c1.9-0.8,3.5-1.8,4.8-3.2c1.4-1.3,2.4-3,3.2-4.8c0.8-1.9,1.1-3.9,1.1-6.1c0-2.1-0.4-4-1.1-5.8
		S548.6,358.5,547.3,357.2z M544.5,372.4c-0.4,1-1,1.8-1.7,2.6c-0.8,0.7-1.7,1.3-2.7,1.7s-2.2,0.6-3.5,0.6c-0.4,0-1-0.1-1.7-0.2
		s-1.3-0.2-1.8-0.3c-0.9-0.1-1.4-0.6-1.5-1.5c-0.2-1.5-0.4-2.9-0.5-4.2c-0.1-1.3-0.2-2.6-0.2-3.9s0.2-2.4,0.5-3.5s0.7-2,1.3-2.7
		s1.2-1.3,2-1.7c0.8-0.4,1.6-0.6,2.6-0.6c1.1,0,2.1,0.3,3.1,0.8c0.9,0.5,1.8,1.3,2.5,2.2c0.7,1,1.3,2.1,1.7,3.4s0.6,2.7,0.6,4.1
		C545.2,370.3,545,371.4,544.5,372.4z"/>
	<path d="M601.4,373.6c-0.2,0-0.5,0.1-1,0.2s-1.2,0.3-1.9,0.4c-0.7,0.2-1.5,0.4-2.4,0.6s-1.7,0.5-2.5,0.7c-0.1,0-0.2,0.1-0.3,0.1
		s-0.2,0-0.2,0c-0.7,0-1.1-0.4-1.2-1.3c-0.2-1.3-0.3-2.6-0.5-4s-0.3-2.7-0.5-4s-0.3-2.4-0.4-3.4c-0.1-1-0.1-1.7-0.1-2.2
		c0-0.2,0-0.5,0.1-0.7s0.2-0.4,0.2-0.6s0.2-0.4,0.3-0.6s0.1-0.4,0.1-0.6c0-0.3-0.1-0.6-0.4-0.9c-0.2-0.3-0.6-0.5-0.9-0.8
		c-0.4-0.2-0.8-0.4-1.2-0.5s-0.8-0.2-1.2-0.2c-0.3,0-0.6,0.1-0.9,0.2c-0.3,0.2-0.6,0.4-0.9,0.8c-0.6-0.2-1.5-0.4-2.5-0.5
		c-1-0.2-2.2-0.2-3.7-0.2c-1.4,0-2.8,0.2-4.3,0.5s-2.9,0.8-4.4,1.4c-1.4,0.6-2.8,1.4-4.1,2.3s-2.4,1.9-3.4,2.9
		c-1,1.1-1.7,2.2-2.3,3.5s-0.9,2.6-0.9,4c0,1.2,0.3,2.4,0.8,3.4s1.2,1.9,2.1,2.7c0.9,0.8,2,1.3,3.3,1.8c1.3,0.4,2.6,0.6,4.1,0.6
		c2.5,0,4.8-0.6,7-1.7s4.1-2.9,6-5.3c0.4-0.5,0.7-0.8,1.1-0.8c0.5,0,0.8,0.4,0.9,1.2l0.4,4.5c0,0.8-0.4,1.4-1.1,1.7
		c-1.4,0.6-2.9,1.2-4.3,1.8c-1.4,0.6-2.8,1.3-4.2,1.9c-0.4,0.2-0.7,0.4-0.8,0.8c-0.2,0.3-0.2,0.7-0.2,1.1s0.1,0.7,0.2,1.1
		c0.1,0.4,0.3,0.7,0.5,1s0.4,0.6,0.7,0.7c0.3,0.2,0.5,0.3,0.9,0.3c0.1,0,0.4-0.1,1-0.3c0.6-0.2,1.3-0.5,2-0.8c0.8-0.3,1.6-0.7,2.4-1
		c0.8-0.4,1.6-0.7,2.2-1c0.3-0.1,0.6-0.2,0.8-0.2c0.6,0,1,0.4,1.1,1.2c0.2,2,0.5,4,0.7,6c0.2,1.9,0.4,3.9,0.6,5.9
		c0,0.4,0.2,0.7,0.5,1s0.7,0.4,1.2,0.4s1-0.1,1.6-0.2c0.5-0.2,1-0.4,1.4-0.7c0.4-0.3,0.8-0.6,1-1c0.3-0.4,0.4-0.8,0.4-1.2l-1.6-12.8
		c0-0.8,0.4-1.3,1.2-1.6c1.3-0.4,2.7-0.8,4-1.1c1.3-0.4,2.7-0.7,4.1-1c0.4-0.1,0.8-0.4,1-1s0.3-1.1,0.3-1.8c0-0.8-0.2-1.4-0.5-1.9
		C602.5,373.8,602,373.6,601.4,373.6z M583.1,363.3c-0.1,0.1-0.1,0.3-0.2,0.5c-0.9,1.9-1.8,3.5-2.6,4.7s-1.8,2.2-2.7,3
		c-0.9,0.7-1.9,1.2-2.8,1.5c-1,0.3-2,0.4-3,0.4c-1.8,0-3.1-0.3-4.1-1c-0.9-0.7-1.4-1.7-1.4-3.1c0-1,0.4-1.9,1.2-2.9
		c0.8-0.9,1.8-1.8,3-2.5c1.3-0.7,2.7-1.3,4.3-1.8c1.6-0.4,3.2-0.7,4.9-0.7c0.9,0,1.6,0.1,2.3,0.2c0.8,0.1,1.2,0.5,1.2,1.2
		C583.1,363,583.1,363.2,583.1,363.3z"/>
	<path d="M626.2,352.8c-0.6-0.3-1.4-0.5-2.2-0.6s-1.6-0.2-2.4-0.2c-1.4,0-2.6,0.2-3.8,0.6c-1.1,0.4-2.2,1.1-3,2
		c-0.9,0.9-1.6,2-2.2,3.4c-0.6,1.4-1,3-1.2,5c-0.1,0.7-0.2,1-0.4,1c-0.1,0-0.2-0.1-0.2-0.2c-0.1-0.2-0.1-0.4-0.2-0.9
		c-0.5-2.3-1.1-4-1.6-5.1c-0.6-1.1-1.3-1.6-2-1.6c-0.5,0-0.9,0.1-1.4,0.3c-0.5,0.2-1,0.4-1.4,0.7c-0.4,0.3-0.8,0.6-1,1
		s-0.4,0.7-0.4,1c0,0.2,0.1,0.5,0.2,0.8c0.1,0.3,0.2,0.5,0.4,0.9c0.9,1.7,1.8,3.5,2.5,5.3s1.3,3.7,1.9,5.5s0.9,3.7,1.3,5.6
		c0.3,1.9,0.6,3.7,0.8,5.5c0,0.4,0.1,0.7,0.3,0.9c0.2,0.2,0.4,0.4,0.7,0.5s0.5,0.2,0.8,0.2s0.5,0.1,0.8,0.1c1.2,0,2.1-0.2,2.8-0.7
		c0.6-0.5,1-1.2,1-2.1c0-1.3-0.1-2.8-0.2-4.4s-0.2-3.2-0.2-4.8c0-1.2,0-2.5,0.1-3.7s0.2-2.4,0.3-3.5c0.2-1.1,0.4-2.1,0.6-3.1
		c0.3-0.9,0.6-1.8,1-2.5s0.9-1.2,1.5-1.6s1.2-0.6,2-0.6c0.5,0,1,0.1,1.5,0.3c0.4,0.2,0.9,0.4,1.2,0.7c0.4,0.2,0.8,0.5,1.1,0.7
		s0.7,0.3,1.1,0.3c0.3,0,0.6-0.2,1-0.5c0.3-0.3,0.6-0.7,0.8-1.2s0.4-0.9,0.6-1.4c0.2-0.5,0.2-0.9,0.2-1.3c0-0.5-0.2-1-0.6-1.4
		C627.4,353.4,626.9,353.1,626.2,352.8z"/>
	<path d="M651.8,372.7c-0.8-1-1.7-1.8-2.7-2.6c-1-0.8-2.1-1.6-3.1-2.2c-1.1-0.7-2.1-1.3-3.1-1.9s-1.9-1.2-2.7-1.7s-1.4-1.1-1.9-1.6
		s-0.7-1-0.7-1.5c0-0.6,0.2-1,0.6-1.3c0.4-0.3,0.9-0.5,1.6-0.5c1,0,1.9,0.2,2.8,0.6c0.9,0.4,1.6,0.9,2.4,1.4c0.7,0.5,1.4,0.9,2,1.4
		c0.6,0.4,1.1,0.6,1.6,0.6c0.4,0,0.8-0.1,1.3-0.3c0.5-0.2,0.9-0.5,1.3-0.9c0.4-0.4,0.7-0.7,1-1.1s0.4-0.8,0.4-1.1
		c0-0.6-0.4-1.3-1.2-2s-1.8-1.3-2.9-1.9c-1.2-0.6-2.5-1-4-1.4c-1.4-0.4-2.8-0.5-4.2-0.5c-1.2,0-2.4,0.2-3.5,0.5
		c-1.1,0.4-2,0.9-2.8,1.5c-0.8,0.7-1.4,1.4-1.9,2.4c-0.5,0.9-0.7,1.9-0.7,3c0,1.3,0.4,2.5,1.2,3.7s1.9,2.2,3.1,3.2
		c1.3,1,2.6,1.9,4.1,2.9c1.4,0.9,2.8,1.8,4.1,2.7c1.3,0.9,2.3,1.8,3.1,2.8c0.8,0.9,1.2,1.9,1.2,3c0,1.3-0.8,2-2.4,2
		c-0.6,0-1.2-0.1-1.7-0.3c-0.5-0.2-1-0.5-1.4-0.9s-0.7-0.8-1-1.3s-0.4-1-0.4-1.5c0-0.3,0-0.6,0.1-0.9s0.2-0.6,0.2-0.9
		c0.1-0.3,0.2-0.5,0.3-0.8s0.1-0.5,0.1-0.7c0-0.5-0.3-0.9-0.8-1.2c-0.5-0.3-1.2-0.5-2-0.5c-1.4,0-2.4,0.4-3,1.2
		c-0.6,0.8-1,2.1-1,3.9c0,1.4,0.3,2.6,0.8,3.8c0.5,1.2,1.3,2.1,2.2,3c1,0.8,2.1,1.5,3.4,2c1.3,0.5,2.8,0.7,4.3,0.7
		c1.2,0,2.4-0.2,3.4-0.5s1.9-0.9,2.7-1.5c0.7-0.7,1.3-1.5,1.7-2.4s0.6-2,0.6-3.1c0-1.3-0.2-2.5-0.7-3.7S652.6,373.6,651.8,372.7z"/>
	<path d="M688.6,358.6c-0.2-0.3-0.4-0.5-0.6-0.7c-0.3-0.2-0.6-0.3-1.1-0.3c-0.6,0-1.2,0-2,0.1c-0.7,0.1-1.5,0.1-2.3,0.2
		s-1.6,0.1-2.5,0.2s-1.6,0.2-2.3,0.2s-1.3,0.1-1.8,0.2s-0.9,0.1-1.1,0.1c-0.8,0-1.3-0.5-1.4-1.4c-0.3-2-0.6-4-0.9-6
		c-0.3-2-0.6-4-0.8-5.8c-0.1-0.6-0.2-1.1-0.4-1.5s-0.4-0.7-0.6-1c-0.3-0.2-0.6-0.4-0.9-0.5c-0.4-0.1-0.8-0.1-1.3-0.1
		c-1.4,0-2.4,0.2-3,0.7c-0.6,0.4-0.9,1.2-0.9,2.3c0,0.1,0.1,0.5,0.2,1.1c0.1,0.6,0.3,1.5,0.5,2.6s0.5,2.4,0.8,3.9s0.6,3.2,0.9,5.1
		c0,0.1,0.1,0.2,0.1,0.3s0,0.2,0,0.3c0,0.5-0.1,0.8-0.3,1s-0.6,0.4-1,0.5c-1.8,0.3-3.4,0.7-4.8,1c-1.4,0.4-2.6,0.7-3.4,1.1
		c-0.4,0.2-0.7,0.4-0.9,0.6c-0.2,0.3-0.4,0.5-0.5,0.8s-0.2,0.6-0.2,0.9s-0.1,0.6-0.1,0.8c0,0.6,0.1,1.2,0.3,1.6s0.6,0.6,1,0.6
		c0.3,0,0.7,0,1.2-0.1c0.4-0.1,0.9-0.2,1.5-0.4c1-0.3,2-0.6,3.1-0.9s2.3-0.6,3.6-0.9c0.1,0,0.1,0,0.2,0c0.1,0,0.2,0,0.2,0
		c0.7,0,1.2,0.4,1.4,1.3c0.3,2.4,0.6,4.8,0.9,7.2c0.3,2.4,0.5,4.8,0.6,7.2c0,0.7,0.2,1.3,0.6,1.7c0.4,0.4,0.9,0.5,1.7,0.5
		s1.5-0.1,2-0.2s1-0.4,1.3-0.7c0.3-0.3,0.6-0.7,0.7-1.2c0.1-0.5,0.2-1.1,0.2-1.8c0-0.3,0-0.8-0.1-1.6c-0.1-0.8-0.2-1.8-0.4-3
		s-0.3-2.6-0.5-4.1s-0.4-3.2-0.7-5c0-0.1,0-0.1,0-0.2s0-0.2,0-0.2c0-0.8,0.5-1.2,1.4-1.4c1.8-0.2,3.6-0.3,5.4-0.4
		c1.8-0.1,3.6-0.2,5.3-0.2c0.4,0,0.7-0.1,1-0.2c0.3-0.2,0.5-0.4,0.7-0.6c0.2-0.3,0.3-0.5,0.5-0.9c0.1-0.3,0.2-0.6,0.2-0.9
		s0-0.7-0.1-1C688.9,359.1,688.8,358.8,688.6,358.6z"/>
	<path d="M714.2,356.7c-1.2,0-2.1,0.1-2.6,0.4s-0.8,0.8-0.8,1.4c0,0.4,0,0.9,0.1,1.3c0.1,0.5,0.2,1,0.3,1.6s0.2,1.3,0.3,2
		s0.1,1.7,0.1,2.7c0,1.7-0.2,3.3-0.5,4.7c-0.3,1.4-0.8,2.7-1.4,3.8c-0.6,1.1-1.3,1.9-2.2,2.5c-0.8,0.6-1.8,0.9-2.8,0.9
		c-1.6,0-2.8-0.7-3.6-2.2s-1.2-3.6-1.2-6.3c0-1.1,0.1-2.3,0.2-3.4c0.2-1.2,0.3-2.2,0.5-3.3s0.3-1.9,0.5-2.7c0.2-0.8,0.2-1.4,0.2-1.7
		s-0.1-0.7-0.4-1c-0.3-0.3-0.6-0.6-1-0.9c-0.4-0.2-1-0.4-1.6-0.6c-0.6-0.1-1.3-0.2-1.9-0.2c-0.8,0-1.4,0.2-1.9,0.5
		c-0.5,0.4-0.8,0.8-0.8,1.4c-0.2,1.4-0.3,2.7-0.4,3.8c-0.1,1.2-0.2,2.3-0.3,3.3s-0.1,1.9-0.2,2.8c0,0.9-0.1,1.7-0.1,2.5
		c0,2,0.3,3.9,0.9,5.6c0.6,1.7,1.4,3.2,2.4,4.4s2.2,2.2,3.6,2.9c1.4,0.7,2.9,1,4.5,1c2.3,0,4.4-0.5,6.3-1.6c1.9-1.1,3.4-2.6,4.8-4.6
		c1.3-2,2.3-4.4,3-7.3s1-6.1,1-9.7c0-1.3-0.4-2.3-1.3-3C716.9,357,715.7,356.7,714.2,356.7z"/>
	<path d="M751,354.5c-0.7-0.4-1.8-0.7-3.3-0.7c-0.5,0-0.9,0.1-1.2,0.2s-0.6,0.3-0.7,0.5c-0.2,0.2-0.3,0.5-0.4,0.9
		c-0.1,0.4-0.2,0.8-0.2,1.4l-1.3,15.6c-0.1,0.6-0.2,1-0.4,1.2s-0.5,0.4-0.8,0.4c-0.5,0-1.1-0.2-1.6-0.6c-0.6-0.4-1.1-1-1.7-1.7
		c-0.5-0.7-1.1-1.6-1.6-2.5c-0.5-1-0.9-2-1.3-3.1c-0.4-1.1-0.7-2.2-0.9-3.3s-0.3-2.2-0.3-3.2c0-0.4,0-0.9,0.1-1.3
		c0-0.4,0.1-0.9,0.1-1.3c0-0.7-0.1-1.2-0.2-1.7c-0.2-0.4-0.4-0.8-0.8-1.1s-0.8-0.5-1.4-0.6c-0.6-0.1-1.3-0.2-2.2-0.2
		c-1.3,0-2.2,0.5-2.7,1.4s-0.8,2.3-0.8,4.1c0,1.6,0.2,3.2,0.7,4.9c0.5,1.7,1.1,3.3,2,4.9c0.8,1.6,1.8,3.1,2.9,4.6
		c1.1,1.4,2.3,2.7,3.5,3.8c1.2,1.1,2.5,1.9,3.8,2.6c1.3,0.6,2.6,0.9,3.8,0.9c1.6,0,2.9-0.4,3.7-1.2c0.8-0.8,1.4-2.2,1.7-4.1
		c0.5-3.2,0.9-6.1,1.2-8.7c0.1-1.1,0.3-2.2,0.4-3.3c0.2-1.1,0.3-2.1,0.4-3c0.1-0.9,0.2-1.7,0.3-2.3c0.1-0.6,0.1-1,0.1-1.2
		C752,355.6,751.7,354.9,751,354.5z"/>
	<path d="M806.2,360.1c-0.5-1-1-1.9-1.5-2.5c-0.6-0.6-1.2-1-1.7-1c-0.4,0-0.9,0.1-1.4,0.3c-0.5,0.2-1,0.4-1.4,0.7
		c-0.4,0.3-0.8,0.6-1,0.9s-0.4,0.7-0.4,1c0,0.6,0.2,1.2,0.5,1.7s0.6,1.1,1,1.7s0.7,1.4,1,2.2c0.3,0.9,0.5,1.9,0.5,3.2
		c0,1.2-0.2,2.2-0.5,3.2c-0.4,1-0.8,1.9-1.5,2.6c-0.6,0.7-1.4,1.3-2.2,1.7c-0.9,0.4-1.8,0.6-2.7,0.6c-2.7,0-4.6-1.3-5.6-3.9
		c-0.2-0.3-0.2-0.7-0.2-1.1c0-0.1,0-0.3,0-0.4s0.1-0.3,0.1-0.5c0.3-1.2,0.5-2.4,0.7-3.6s0.2-2.6,0.2-4c0-4-1.1-5.9-3.4-5.9
		c-1.4,0-2.5,0.9-3.3,2.6s-1.2,4.2-1.2,7.4c0,0.7,0,1.4,0.1,2.1s0.1,1.4,0.2,2.2c0,0.2,0.1,0.3,0.1,0.4s0,0.3,0,0.4
		c0,0.2,0,0.4-0.1,0.6c0,0.2-0.1,0.4-0.2,0.6c-1.3,2.8-3.4,4.2-6.1,4.2c-1.2,0-2.4-0.5-3.4-1.5s-1.9-2.4-2.6-4.2
		c-0.7-1.8-1.3-3.9-1.7-6.4s-0.6-5.2-0.6-8.1c0-0.6,0.1-1.2,0.2-2c0.1-0.8,0.2-1.5,0.2-2.1c0-0.8-0.2-1.4-0.6-1.7
		c-0.4-0.3-1-0.5-1.9-0.5c-0.8,0-1.5,0.1-2,0.3c-0.5,0.2-1,0.6-1.3,1.2s-0.5,1.4-0.7,2.4c-0.1,1-0.2,2.3-0.2,3.8
		c0,3.7,0.3,7.1,0.9,10.1s1.5,5.6,2.7,7.7s2.6,3.7,4.3,4.9c1.7,1.1,3.6,1.7,5.6,1.7c1.9,0,3.6-0.4,5.2-1.2s3-2.1,4.4-3.9
		c0.2-0.3,0.4-0.4,0.5-0.5s0.3-0.2,0.5-0.2s0.3,0.1,0.5,0.2s0.3,0.3,0.5,0.5c1,1.4,2.2,2.4,3.4,2.9c1.2,0.6,2.6,0.8,4.2,0.8
		c1.9,0,3.6-0.4,5.3-1.2c1.7-0.8,3.1-1.8,4.4-3.1c1.3-1.3,2.2-2.8,3-4.6s1.1-3.6,1.1-5.6c0-1.4-0.1-2.7-0.4-4
		S806.7,361.2,806.2,360.1z"/>
	<path d="M844.8,371.5c-0.4,0-0.9,0.1-1.4,0.2s-1,0.2-1.5,0.2c-0.6,0-1.2-0.1-1.9-0.4s-1.3-0.7-2-1.2s-1.4-1.1-2.2-1.9
		c-0.7-0.7-1.5-1.5-2.2-2.4c-0.2-0.2-0.3-0.4-0.3-0.5c-0.1-0.2-0.1-0.4-0.1-0.5c0-0.2,0-0.4,0.1-0.5c0.1-0.2,0.2-0.4,0.4-0.6
		c1.3-1.4,2.6-2.7,3.9-4c1.4-1.3,2.8-2.4,4.3-3.3c1.1-0.6,1.9-1.2,2.5-1.6s0.9-0.9,0.9-1.4c0-0.3-0.1-0.6-0.3-1s-0.5-0.8-0.8-1.1
		c-0.3-0.4-0.7-0.7-1.1-0.9c-0.4-0.2-0.8-0.4-1.2-0.4c-0.2,0-0.6,0.1-1.2,0.2s-1.2,0.5-2.1,1c-1.4,0.8-2.8,1.9-4.2,3.2
		c-1.4,1.3-2.8,2.7-4.2,4.2c-0.3,0.4-0.7,0.6-1.1,0.6c-0.4,0-0.7-0.2-1.1-0.7c-0.9-1.3-1.7-2.5-2.5-3.7s-1.5-2.4-2.2-3.6
		c-0.4-0.7-0.8-1.1-1-1.3c-0.3-0.2-0.5-0.3-0.7-0.3c-0.4,0-0.8,0.1-1.3,0.3c-0.5,0.2-1,0.4-1.4,0.7c-0.4,0.3-0.8,0.6-1.1,1
		s-0.5,0.7-0.5,1.1c0,0.2,0,0.4,0.1,0.7c0.1,0.3,0.3,0.7,0.5,1.1c0.5,0.9,1.3,2.1,2.2,3.6s2,3.1,3.3,4.8c0.6,0.9,0.9,1.6,0.9,2.2
		c0,0.2,0,0.3-0.1,0.5s-0.1,0.3-0.2,0.4c-1,1.2-1.9,2.3-2.8,3.4c-0.9,1-1.6,1.9-2.3,2.6c-0.6,0.7-1.2,1.2-1.7,1.7s-1,0.8-1.4,1.1
		c-0.4,0.3-0.7,0.6-0.9,0.9s-0.3,0.5-0.3,0.8c0,0.2,0.1,0.5,0.2,0.8c0.1,0.3,0.3,0.6,0.6,0.9s0.6,0.6,1,0.8c0.4,0.2,0.9,0.3,1.4,0.3
		c0.7,0,1.5-0.2,2.2-0.7c0.8-0.4,1.5-1.1,2.4-1.8c0.8-0.8,1.7-1.7,2.6-2.7c0.9-1,1.8-2.1,2.8-3.3c0.3-0.4,0.7-0.6,1.1-0.6
		c0.4,0,0.8,0.2,1.1,0.6c1,1,1.9,1.9,2.9,2.7c1,0.8,2,1.5,3,2.1s2,1.1,3,1.4s2,0.5,3,0.5c0.6,0,1.2-0.1,1.8-0.3
		c0.6-0.2,1.1-0.5,1.5-0.8s0.7-0.8,1-1.3c0.2-0.5,0.4-1.1,0.4-1.8c0-0.6-0.1-1.1-0.3-1.4C845.8,371.7,845.4,371.5,844.8,371.5z"/>
	<path d="M882.1,360.9c-0.3-0.4-0.7-0.7-1.2-0.9s-1.1-0.3-1.8-0.3c-0.6,0-1.1,0-1.5,0.1s-0.7,0.2-1,0.5c-0.2,0.2-0.4,0.5-0.5,0.9
		s-0.2,0.9-0.2,1.5c-0.1,1.4-0.2,2.8-0.4,4.2c-0.1,1.4-0.2,2.8-0.3,4.2c0,0.4-0.1,0.7-0.2,1c-0.1,0.3-0.2,0.6-0.4,0.9
		c-0.6,0.8-1.2,1.4-2,1.8s-1.6,0.7-2.5,0.7c-1.2,0-2.4-0.4-3.5-1.3s-2.1-2.1-2.9-3.6c-0.9-1.6-1.6-3.5-2.3-5.7s-1.2-4.8-1.5-7.6
		c-0.2-1.3-1.1-2-2.7-2c-1.3,0-2.2,0.3-2.8,0.9s-0.9,1.6-0.9,3c0,1.8,0.2,3.6,0.6,5.3s1,3.5,1.7,5.1s1.5,3.2,2.5,4.6s2,2.6,3.1,3.7
		c1.1,1,2.3,1.8,3.5,2.4s2.4,0.9,3.6,0.9c0.8,0,1.6-0.1,2.3-0.3c0.7-0.2,1.4-0.5,2.2-0.9c0.3-0.2,0.5-0.3,0.7-0.3
		c0.2-0.1,0.4-0.1,0.5-0.1c0.2,0,0.4,0.1,0.5,0.2s0.1,0.4,0.1,0.8s0,1,0,1.8s0,1.8,0,2.9s0,2.3,0,3.6c0,1.3,0,2.6,0.1,3.8
		c0,1.2,0.1,2.4,0.1,3.5s0.1,2,0.2,2.8c0,0.6,0.2,1.1,0.5,1.4c0.3,0.4,0.7,0.5,1.3,0.5s1.2-0.1,1.7-0.2c0.5-0.2,1-0.4,1.4-0.6
		s0.7-0.6,1-0.9c0.2-0.3,0.4-0.7,0.4-1.1c0-0.3,0-0.9-0.1-1.6c-0.1-0.8-0.2-1.7-0.3-2.7s-0.2-2.1-0.3-3.2s-0.1-2.2-0.1-3.1
		c0-0.5,0-1,0-1.5c0-0.4,0-0.9,0-1.4s0-1.1,0.1-1.7s0.1-1.4,0.1-2.2s0.1-1.9,0.2-3.1c0.1-1.2,0.2-2.7,0.3-4.4c0-0.7,0.1-1.3,0.3-1.8
		c0.2-0.6,0.3-1.1,0.5-1.7s0.3-1.2,0.5-1.9c0.1-0.7,0.2-1.4,0.2-2.3c0-1-0.1-1.9-0.2-2.6S882.4,361.3,882.1,360.9z"/>
	<path d="M916.2,371.5c-1-1-2.3-1.8-3.8-2.4s-3.2-0.9-5.2-1c-0.8-0.1-1.1-0.3-1.1-0.6c0-0.2,0.2-0.6,0.6-0.9c1-0.9,1.8-1.8,2.5-2.6
		c0.7-0.8,1.3-1.6,1.7-2.3c0.5-0.7,0.8-1.5,1-2.2s0.3-1.6,0.3-2.4c0-1.9-0.7-3.4-2-4.4s-3.2-1.5-5.7-1.5c-0.9,0-2,0.1-3.1,0.2
		s-2.3,0.3-3.4,0.5c-1.2,0.2-2.3,0.4-3.3,0.7c-1.1,0.3-2,0.5-2.8,0.8c-0.4,0.2-0.7,0.5-1,1c-0.2,0.5-0.3,1.2-0.3,1.9
		c0,0.4,0.1,0.8,0.2,1.2s0.3,0.7,0.5,1s0.4,0.5,0.7,0.7s0.5,0.2,0.8,0.2c0.4,0,1-0.1,1.8-0.4s1.6-0.6,2.6-0.9s2-0.6,3.1-0.9
		s2.2-0.4,3.3-0.4c0.8,0,1.5,0.2,2,0.5s0.8,0.8,0.8,1.5c0,0.6-0.2,1.3-0.7,2c-0.4,0.7-1,1.5-1.6,2.3s-1.3,1.6-2.1,2.4
		s-1.5,1.5-2.1,2.2s-1.2,1.3-1.6,1.9c-0.4,0.5-0.7,1-0.7,1.3s0.1,0.7,0.2,1.1c0.1,0.4,0.3,0.7,0.5,1s0.4,0.6,0.6,0.7
		c0.2,0.2,0.5,0.3,0.7,0.3s0.6-0.1,1-0.2s0.9-0.2,1.5-0.3c0.5-0.1,1.1-0.2,1.8-0.3c0.6-0.1,1.3-0.2,2-0.2c1.1,0,2.1,0.2,3.1,0.6
		s1.8,0.9,2.5,1.6s1.2,1.5,1.6,2.4c0.4,0.9,0.6,1.9,0.6,3c0,1.3-0.2,2.6-0.6,3.7c-0.4,1.1-1,2.1-1.8,2.9s-1.7,1.4-2.7,1.9
		c-1.1,0.4-2.2,0.7-3.5,0.7c-1.1,0-2.1-0.2-3-0.5c-1-0.4-1.8-0.8-2.5-1.4s-1.3-1.3-1.7-2.1c-0.4-0.8-0.6-1.7-0.6-2.6
		c0-0.3,0-0.6,0.1-0.9s0.1-0.6,0.2-0.8c0.1-0.3,0.1-0.5,0.2-0.7s0.1-0.4,0.1-0.6s-0.1-0.5-0.3-0.7s-0.5-0.5-0.9-0.7
		s-0.8-0.3-1.3-0.5c-0.5-0.1-1-0.2-1.5-0.2c-0.3,0-0.6,0.2-1,0.5s-0.6,0.8-0.9,1.4c-0.3,0.6-0.5,1.3-0.6,2c-0.2,0.7-0.2,1.5-0.2,2.2
		c0,1.6,0.3,3,1,4.4c0.7,1.3,1.7,2.5,2.9,3.5s2.6,1.8,4.3,2.4c1.6,0.6,3.4,0.9,5.3,0.9c2.1,0,4.1-0.4,6-1.2c1.8-0.8,3.5-1.9,4.8-3.2
		c1.4-1.4,2.4-3,3.2-4.8s1.2-3.8,1.2-6c0-1.7-0.3-3.3-0.8-4.7C918,373.7,917.2,372.5,916.2,371.5z"/>
	<path d="M25,465.6c-0.1-1-0.2-2-0.3-3.2c-0.1-1.1-0.3-2.3-0.4-3.5s-0.3-2.3-0.5-3.4s-0.3-2-0.5-2.9c-0.1-0.5-0.2-1-0.3-1.6
		c-0.1-0.6-0.2-1.1-0.4-1.7s-0.3-1.1-0.6-1.6c-0.2-0.5-0.5-1-0.9-1.4c-0.3-0.4-0.8-0.7-1.3-1S18.7,445,18,445c-0.3,0-0.7,0-1,0.1
		s-0.7,0.2-1.1,0.4c-0.6,0.3-1.4,0.7-2.3,1.2c-0.9,0.5-1.8,1-2.8,1.6s-1.9,1.2-2.8,1.8c-0.9,0.6-1.7,1.2-2.5,1.8s-1.3,1.2-1.8,1.7
		S3,454.6,3,455c0,0.6,0.4,1.2,1.1,1.8c0.4,0.3,0.8,0.6,1.1,0.7c0.3,0.1,0.6,0.2,0.9,0.2c0.6,0,1.2-0.3,1.8-0.8
		c0.5-0.4,1.1-0.9,1.7-1.4c0.7-0.5,1.3-1,2-1.5s1.3-0.9,1.9-1.2c0.6-0.3,1.1-0.5,1.5-0.5s0.8,0.2,1.1,0.5c0.3,0.3,0.5,0.8,0.6,1.3
		c0.6,2.7,1,5.3,1.3,8s0.5,5.4,0.8,8.1c0.1,0.7,0.3,1.3,0.7,1.6c0.4,0.4,0.9,0.5,1.5,0.5c0.1,0,0.2,0,0.5,0c0.2,0,0.7-0.1,1.5-0.3
		c1.4-0.2,2.1-1.1,2.1-2.5c0-0.3,0-0.8-0.1-1.5C25.1,467.4,25.1,466.6,25,465.6z"/>
	<path d="M62.4,470c-2-0.2-4-0.4-6-0.6s-4-0.3-6-0.4c-0.4,0-0.7-0.1-0.9-0.2s-0.3-0.3-0.3-0.6c0-0.2,0-0.3,0.1-0.5s0.2-0.4,0.5-0.5
		c1.3-1.2,2.7-2.4,4-3.8c1.3-1.3,2.5-2.8,3.6-4.3s1.9-3,2.6-4.6c0.7-1.6,1-3.2,1-4.9c0-1.4-0.3-2.7-0.8-3.8s-1.3-2.1-2.3-2.9
		s-2.1-1.4-3.3-1.8s-2.6-0.6-4-0.6s-2.6,0.2-3.8,0.5c-1.1,0.3-2.2,0.7-3.1,1.2c-0.9,0.5-1.8,1.1-2.5,1.9c-0.7,0.7-1.4,1.5-1.9,2.4
		c-0.3,0.4-0.4,0.9-0.4,1.4c0,0.8,0.5,1.5,1.4,2c0.5,0.2,0.9,0.4,1.2,0.5s0.5,0.1,0.7,0.1c0.4,0,0.8-0.1,1.1-0.4s0.6-0.6,0.9-1.1
		c0.5-0.8,1.2-1.5,2-2.1s1.9-0.9,3.2-0.9c0.7,0,1.4,0.1,2,0.3c0.6,0.2,1.2,0.5,1.7,0.9s0.9,0.9,1.2,1.5s0.4,1.2,0.4,2
		c0,1.1-0.2,2.2-0.7,3.2c-0.5,1.1-1.1,2.2-1.9,3.2c-0.8,1.1-1.7,2.1-2.7,3.1s-2.1,2-3.1,2.9c-1.1,0.9-2.2,1.8-3.3,2.6
		c-1.1,0.8-2.1,1.6-3,2.3c-0.5,0.3-0.8,0.7-1.1,1.1s-0.4,0.9-0.4,1.5c0,0.5,0,0.9,0.1,1.3s0.2,0.8,0.4,1.1c0.2,0.3,0.4,0.6,0.8,0.8
		c0.3,0.2,0.7,0.3,1.1,0.3c1.1,0,2.3,0,3.7,0.1c1.3,0.1,2.7,0.2,4.1,0.3c1.4,0.1,2.8,0.2,4.1,0.3s2.6,0.2,3.8,0.3
		c1.2,0.1,2.2,0.2,3,0.3c0.9,0.1,1.5,0.1,1.9,0.1c0.6,0,1.2-0.2,1.6-0.5c0.5-0.3,0.8-0.8,0.9-1.5c0.2-0.6,0.3-1,0.3-1.2s0-0.4,0-0.6
		C64.4,470.9,63.7,470.2,62.4,470z"/>
	<path d="M100.1,459.3c-0.5-0.9-1.2-1.7-2-2.5c-0.8-0.7-1.8-1.4-2.9-1.9c-0.6-0.3-0.9-0.6-0.9-0.9c0-0.2,0.2-0.5,0.5-0.9
		c0.5-0.7,0.8-1.4,1-2.1s0.3-1.5,0.3-2.2c0-1.3-0.3-2.5-0.8-3.6s-1.3-2-2.3-2.8s-2.2-1.4-3.6-1.8s-3-0.6-4.7-0.6
		c-0.9,0-1.9,0.1-2.9,0.2s-1.9,0.3-2.9,0.5c-0.9,0.2-1.8,0.5-2.7,0.8c-0.9,0.3-1.6,0.7-2.2,1.1s-1.1,0.8-1.5,1.2
		c-0.4,0.4-0.6,0.9-0.6,1.3c0,0.3,0.1,0.6,0.2,0.9c0.2,0.3,0.5,0.8,0.9,1.4c0.4,0.5,0.7,0.8,1,1s0.6,0.3,1,0.3
		c0.5,0,1.1-0.2,1.7-0.7c1-0.7,2-1.4,3.2-1.8c1.1-0.5,2.4-0.7,3.7-0.7c0.7,0,1.4,0.1,2.1,0.2c0.7,0.2,1.4,0.4,2,0.7
		c0.6,0.3,1.1,0.7,1.5,1.3c0.4,0.5,0.6,1.1,0.6,1.9c0,1.3-0.4,2.3-1.1,3c-0.8,0.6-1.7,1-3,1c-0.6,0-1.1,0.1-1.7,0.1
		c-0.5,0.1-1,0.2-1.5,0.4c-0.4,0.2-0.8,0.5-1.1,0.8c-0.3,0.4-0.4,0.8-0.4,1.4c0,0.1,0,0.1,0,0.2s0,0.2,0,0.3l0.2,1.2
		c0.1,0.7,0.3,1.2,0.7,1.6s0.8,0.6,1.5,0.6c0.1,0,0.2,0,0.4,0c0.1,0,0.3-0.1,0.4-0.1c0.7-0.2,1.5-0.4,2.2-0.7
		c0.7-0.2,1.5-0.3,2.2-0.3c0.8,0,1.6,0.1,2.4,0.4s1.5,0.7,2.1,1.3c0.6,0.5,1.1,1.2,1.5,2s0.6,1.6,0.6,2.6c0,0.8-0.1,1.5-0.4,2.1
		s-0.7,1-1.2,1.4c-0.5,0.3-1.1,0.6-1.8,0.8c-0.7,0.2-1.4,0.2-2.2,0.2c-0.6,0-1.2,0-1.8-0.1c-0.6-0.1-1.2-0.2-1.8-0.4
		c-0.6-0.2-1.1-0.4-1.5-0.8c-0.4-0.3-0.8-0.8-1-1.4c-0.3-0.7-0.6-1.2-1-1.6c-0.3-0.4-0.9-0.6-1.6-0.7l-2-0.2c-0.6,0-1.2,0.2-1.6,0.5
		s-0.6,0.8-0.6,1.3c0,0.1,0,0.3,0,0.4s0.1,0.3,0.1,0.4c0.3,1.3,0.9,2.5,1.6,3.5s1.6,1.9,2.7,2.6s2.2,1.2,3.5,1.6s2.6,0.5,4.1,0.5
		c1.6,0,3.2-0.2,4.7-0.7c1.5-0.4,2.9-1.1,4-2c1.2-0.9,2.1-1.9,2.8-3.2c0.7-1.3,1.1-2.7,1.1-4.4c0-1.1-0.1-2.1-0.4-3.1
		C101,461.2,100.7,460.2,100.1,459.3z"/>
	<path d="M137,462.9l-1.4-0.1c-0.5,0-0.8-0.2-1.1-0.3c-0.3-0.2-0.5-0.5-0.6-1c-0.7-2.7-1.5-5.4-2.3-8s-1.6-5.3-2.4-8
		c-0.1-0.3-0.1-0.7-0.1-1.2s-0.1-1.1-0.3-1.6s-0.5-1-1-1.4s-1.3-0.6-2.3-0.6c-0.4,0-0.8,0-1.2,0.1c-0.4,0-0.8,0.1-1.2,0.2
		c-0.4,0.1-0.6,0.3-0.9,0.5c-0.2,0.2-0.3,0.6-0.3,1c0,0.3,0.1,0.6,0.2,1s0.2,0.7,0.2,1c0,0.8-0.3,1.4-0.8,2.1
		c-1.2,1.7-2.5,3.3-3.8,5s-2.5,3.4-3.5,5.2c-0.3,0.4-0.5,0.9-0.8,1.4s-0.6,0.9-0.8,1.4s-0.4,1-0.6,1.5s-0.2,1-0.2,1.5
		c0,0.7,0.2,1.4,0.5,1.9c0.4,0.5,0.8,1,1.4,1.3c0.6,0.4,1.2,0.7,2,0.9c0.7,0.2,1.5,0.4,2.3,0.5s1.5,0.2,2.3,0.3
		c0.7,0.1,1.4,0.1,2,0.2l5.8,0.5c0.3,0,0.6,0.1,0.8,0.3c0.2,0.1,0.4,0.4,0.6,0.7c0.2,0.3,0.3,0.8,0.5,1.4c0.1,0.6,0.3,1.3,0.5,2.2
		c0.1,0.8,0.3,1.6,0.4,2.2c0.2,0.7,0.3,1.2,0.5,1.7s0.4,0.8,0.6,1.1c0.2,0.3,0.5,0.4,0.9,0.4c0.1,0,0.3,0,0.4,0c0.1,0,0.3,0,0.5-0.1
		c0.2,0,0.4-0.1,0.7-0.2s0.6-0.2,1.1-0.3c1.2-0.4,1.8-1.1,1.8-2.3c0-0.4-0.1-0.9-0.2-1.4c-0.1-0.5-0.2-1-0.3-1.6
		c-0.1-0.5-0.2-1-0.3-1.4s-0.2-0.8-0.2-1.1c0-0.4,0.1-0.7,0.3-0.9c0.2-0.1,0.4-0.2,0.7-0.3c0.3-0.1,0.5-0.1,0.8-0.2s0.5-0.3,0.7-0.7
		c0.1-0.1,0.1-0.2,0.2-0.5c0.1-0.2,0.2-0.5,0.2-0.8c0.1-0.3,0.2-0.6,0.2-0.9c0.1-0.3,0.1-0.5,0.1-0.7c0-0.6-0.2-1.1-0.6-1.4
		C138.2,463.1,137.7,462.9,137,462.9z M126.8,462.1c-0.2,0.2-0.5,0.3-0.9,0.3c-0.2,0-0.4,0-0.7,0c-0.3,0-0.5-0.1-0.7-0.1l-4.9-0.5
		c-0.3-0.1-0.6-0.2-0.8-0.4c-0.2-0.2-0.3-0.4-0.3-0.7c0-0.3,0.1-0.6,0.3-1c0.6-1,1.2-2,1.9-2.9c0.7-1,1.3-1.9,2.1-2.9
		c0.3-0.5,0.7-0.7,1.1-0.7c0.3,0,0.6,0.1,0.8,0.4c0.2,0.3,0.3,0.5,0.4,0.7c0.3,0.7,0.5,1.4,0.7,2s0.4,1.2,0.5,1.7
		c0.2,0.5,0.3,1,0.4,1.5s0.3,0.9,0.4,1.4c0,0.1,0.1,0.2,0.1,0.3c0,0.1,0,0.2,0,0.3C127.1,461.6,127,461.9,126.8,462.1z"/>
	<path d="M174.1,458.3c-1-1-2.2-1.8-3.6-2.6c-1.4-0.8-2.8-1.5-4.3-2.2s-3-1.3-4.6-1.9c-1.5-0.6-3-1.1-4.5-1.6c-0.6-0.2-1-0.6-1-0.9
		c0-0.6,0.4-0.9,1.1-0.9c1.4-0.2,2.9-0.3,4.3-0.3c1.5-0.1,2.9-0.1,4.5-0.1c1.3,0,2.5,0,3.9,0.1c1.3,0.1,2.8,0.1,4.4,0.2
		c0.6,0,1-0.2,1.3-0.5s0.5-0.7,0.5-1.2c0-0.2,0-0.3,0-0.5s-0.1-0.3-0.1-0.5l-0.2-0.7c-0.2-0.7-0.5-1.3-0.9-1.6
		c-0.4-0.4-1-0.6-1.7-0.6c-1.6-0.1-3.2-0.2-5-0.2c-2,0-4.2,0.1-6.5,0.3c-2.3,0.2-4.9,0.5-7.7,1c-1.3,0.2-2.3,0.7-3,1.4
		s-1.1,1.7-1.3,3c-0.1,0.8-0.2,1.4-0.2,1.7c0,0.3,0,0.5,0,0.7c0,2,1.1,3.5,3.3,4.4c2.9,1.2,5.5,2.3,7.8,3.2s4.3,1.8,5.9,2.7
		s2.8,1.8,3.7,2.7c0.9,0.9,1.3,2,1.3,3.2s-0.6,2.2-1.7,2.8c-1.1,0.7-2.8,1-4.9,1c-1.1,0-2.2-0.1-3.3-0.3c-1.1-0.2-2.2-0.6-3.1-1.1
		c-0.9-0.5-1.7-1.1-2.2-1.9c-0.6-0.8-0.9-1.7-0.9-2.8c0-0.6,0.1-1.4,0.4-2.1c0-0.1,0.1-0.2,0.1-0.4c0-0.1,0-0.2,0-0.3
		c0-0.9-0.7-1.4-2.2-1.5l-1.5-0.1c-0.5,0-1,0.1-1.5,0.4s-0.8,0.7-1.1,1.4c-0.3,0.6-0.5,1.1-0.6,1.7s-0.2,1.3-0.2,2.1
		c0,1.8,0.5,3.3,1.4,4.6c0.9,1.3,2.1,2.4,3.5,3.3s3.1,1.5,4.9,1.9c1.8,0.4,3.6,0.6,5.4,0.6c2.1,0,4-0.3,5.7-0.8s3.1-1.2,4.3-2.1
		s2.1-2,2.8-3.3c0.6-1.3,1-2.7,1-4.3c0-1.4-0.3-2.7-0.9-3.8C175.9,460.3,175.1,459.3,174.1,458.3z"/>
	<path d="M214,461c-0.9-0.6-1.8-1-2.9-1.4c-1.1-0.3-2.2-0.5-3.4-0.5c-2.1,0-4.2,0.3-6.2,0.9s-3.9,1.3-5.7,2.2
		c-0.2,0.1-0.5,0.2-0.8,0.2c-0.2,0-0.4-0.1-0.5-0.2s-0.3-0.3-0.4-0.5c-0.2-0.5-0.3-1.1-0.4-1.6c-0.1-0.6-0.1-1.1-0.1-1.6
		c0-1.1,0.2-2.2,0.5-3.2s0.8-2,1.4-2.8c0.6-0.8,1.3-1.5,2.1-1.9c0.8-0.5,1.7-0.7,2.7-0.7c0.5,0,1.1,0.1,1.7,0.3
		c0.6,0.2,1.2,0.5,1.8,0.8c0.6,0.4,1.2,0.6,1.8,0.6c0.3,0,0.6-0.1,0.9-0.2c0.3-0.1,0.6-0.3,0.9-0.6l0.8-0.7c0.6-0.6,1-1.2,1-1.9
		c0-0.6-0.3-1.1-0.9-1.6c-0.9-0.7-1.9-1.3-2.9-1.7c-1.1-0.4-2.2-0.6-3.6-0.6c-2.2,0-4.2,0.4-5.9,1.3c-1.8,0.9-3.3,2-4.5,3.5
		c-1.2,1.4-2.2,3.1-2.8,4.9c-0.7,1.8-1,3.7-1,5.7c0,2.1,0.4,4.2,1.3,6c0.9,1.9,2.1,3.5,3.7,4.9c1.6,1.4,3.5,2.5,5.7,3.3
		s4.7,1.2,7.5,1.2c1.5,0,2.9-0.2,4.2-0.6s2.5-1,3.5-1.7s1.8-1.6,2.4-2.7c0.6-1.1,0.9-2.3,0.9-3.6c0-1.2-0.3-2.2-0.8-3.1
		C215.5,462.3,214.8,461.6,214,461z M209.4,468.7c-0.8,0.4-1.9,0.6-3.3,0.6c-1.1,0-2.1-0.1-3.1-0.3c-1-0.2-2.1-0.6-3.4-1.2
		c-0.5-0.2-0.8-0.5-0.8-0.9c0-0.2,0.1-0.3,0.2-0.5c0.2-0.2,0.3-0.3,0.6-0.4c1.1-0.4,2.2-0.8,3.3-1s2.1-0.3,3.1-0.3
		c0.4,0,0.9,0,1.5,0.1c0.5,0.1,1,0.2,1.5,0.4c0.5,0.2,0.8,0.4,1.1,0.7c0.3,0.3,0.5,0.7,0.5,1.2C210.5,467.7,210.1,468.2,209.4,468.7
		z"/>
	<path d="M254.7,456.8c-1.1-0.2-2.2-0.3-3.4-0.4s-2.3-0.2-3.4-0.3c-1-0.1-1.5-0.7-1.5-1.6c0-1,0-1.8-0.1-2.7c0-0.8-0.1-1.6-0.2-2.3
		c-0.1-0.7-0.3-1.3-0.5-1.8s-0.5-1-0.9-1.4c-0.8-0.7-1.7-1.3-2.7-1.7c-1-0.4-2.1-0.8-3.2-1c-1.1-0.2-2.2-0.4-3.4-0.5
		c-1.1-0.1-2.2-0.2-3.2-0.2c-0.8,0-1.5-0.1-2.3-0.1s-1.6,0-2.4,0c-0.5,0-1.1,0-1.7,0c-0.6,0-1.1,0-1.7,0c-0.8,0-1.4,0.2-1.8,0.6
		c-0.4,0.4-0.7,1-0.7,1.8l-0.1,0.9c0,1.4,0.8,2.2,2.4,2.2c0.4,0,0.8,0,1.2,0s0.9,0,1.3,0c1,0,2.1,0,3.2,0.1c1.1,0.1,2.2,0.2,3.2,0.3
		s2,0.3,2.9,0.5s1.7,0.4,2.3,0.6s1,0.5,1.3,0.9s0.5,0.9,0.6,1.5c0,0.3,0.1,0.7,0.1,1c0,0.4,0,0.7,0,1c0,1-0.5,1.5-1.6,1.5
		c-1.6,0-3.3,0-5,0.1s-3.3,0.2-5,0.3c-0.5,0-0.9,0.2-1.2,0.4c-0.3,0.2-0.6,0.5-0.7,0.8s-0.3,0.7-0.4,1.1c-0.1,0.4-0.1,0.8-0.1,1.2
		c0,0.7,0.2,1.2,0.6,1.6c0.4,0.4,0.9,0.5,1.6,0.5c0.3,0,0.8,0,1.5-0.1c0.7,0,1.5-0.1,2.4-0.1c0.9-0.1,1.9-0.1,3-0.1s2.1-0.1,3.2-0.1
		c0.5,0,0.9,0.1,1.1,0.4c0.2,0.3,0.4,0.7,0.4,1.2l-0.4,10.5c0.1,1.4,0.7,2.1,2,2.1c0.1,0,0.1,0,0.2,0c0.1,0,0.2,0,0.3,0
		s0.3-0.1,0.5-0.1s0.5-0.1,0.9-0.2c1.5-0.3,2.2-1.2,2.3-2.7s0.1-3,0.2-4.6c0.1-1.5,0.1-3.1,0.1-4.6c0-0.5,0.2-0.9,0.4-1.1
		c0.3-0.2,0.6-0.3,1.2-0.3c0.2,0,0.6,0,1.1,0.1s1,0.1,1.6,0.2s1.1,0.2,1.7,0.2c0.5,0.1,0.9,0.1,1.2,0.1c1.2,0,2-0.6,2.5-1.7
		c0.3-0.6,0.4-1,0.5-1.3s0.1-0.5,0.1-0.7c0-0.5-0.2-0.9-0.5-1.2S255.3,456.9,254.7,456.8z"/>
	<path d="M289.7,456c-0.4-0.3-0.6-0.7-0.6-1.2c0-0.2,0-0.3,0.1-0.4s0.1-0.3,0.2-0.5c0.3-0.8,0.5-1.6,0.5-2.4c0-1.5-0.4-2.9-1.1-4
		c-0.7-1.2-1.7-2.1-2.8-2.9c-1.2-0.8-2.5-1.4-3.9-1.7c-1.4-0.4-2.9-0.6-4.4-0.6c-1.4,0-2.8,0.2-4.1,0.5c-1.3,0.3-2.5,0.8-3.6,1.5
		s-1.9,1.5-2.5,2.6s-1,2.4-1,4c0,0.5,0.1,1,0.2,1.6s0.4,1.3,0.8,2.1c0.2,0.4,0.3,0.7,0.3,1c0,0.4-0.2,0.7-0.5,1.1
		c-0.8,1.1-1.4,2.3-1.9,3.6c-0.4,1.3-0.7,2.6-0.7,3.9s0.2,2.4,0.6,3.5c0.4,1,1,2,1.6,2.8c0.7,0.8,1.5,1.5,2.4,2.1s1.9,1.1,3,1.5
		s2.1,0.7,3.3,0.9c1.1,0.2,2.2,0.3,3.3,0.3c1.7,0,3.5-0.2,5.2-0.7c1.7-0.4,3.3-1.1,4.6-2c1.4-0.9,2.5-2,3.3-3.4s1.3-3,1.3-4.8
		c0-1.5-0.3-3-1-4.4C291.7,458.4,290.8,457.1,289.7,456z M272.7,448.5c0.3-0.3,0.6-0.5,1-0.6s0.8-0.2,1.3-0.3c0.5,0,1-0.1,1.4-0.1
		c0.7,0,1.4,0.1,2.3,0.2c0.8,0.2,1.6,0.4,2.4,0.8s1.4,0.9,1.9,1.5s0.8,1.4,0.8,2.2c0,0.1-0.1,0.2-0.2,0.2c-0.2,0-0.7-0.1-1.5-0.3
		c-1.1-0.2-2.3-0.4-3.6-0.4c-0.5,0-1.1,0-1.6,0.1s-1.1,0.2-1.6,0.3c-0.1,0-0.3,0.1-0.3,0.1c-0.1,0-0.2,0-0.3,0c-0.5,0-1-0.2-1.4-0.7
		c-0.3-0.3-0.6-0.7-0.7-1s-0.2-0.7-0.2-1C272.3,449.1,272.5,448.7,272.7,448.5z M286.9,466.9c-0.4,0.6-1,1.1-1.7,1.5s-1.6,0.7-2.6,1
		c-1,0.2-2.1,0.3-3.3,0.3c-1,0-2-0.1-3-0.4s-1.9-0.7-2.8-1.2c-0.8-0.5-1.5-1.2-2-2s-0.8-1.7-0.8-2.8c0-0.4,0-0.8,0.1-1.2
		c0-0.4,0.1-0.8,0.2-1.2c0.1-0.4,0.3-0.8,0.5-1.2c0.2-0.4,0.4-0.7,0.7-0.9l0.2-0.2c0,0,0.1-0.1,0.3-0.1c0.2,0,0.6,0.1,1.1,0.2
		c1.4,0.4,2.9,0.6,4.4,0.6c0.6,0,1.2,0,1.8-0.1c0.6,0,1.2-0.1,1.9-0.2c0.1,0,0.2-0.1,0.3-0.1c0.1,0,0.2,0,0.3,0c0.2,0,0.4,0,0.6,0.1
		c0.2,0,0.4,0.1,0.6,0.3c0.3,0.2,0.6,0.4,0.8,0.6c0.3,0.2,0.6,0.5,0.8,0.8c0.7,0.8,1.2,1.5,1.5,2.2s0.5,1.4,0.5,2
		C287.5,465.6,287.3,466.3,286.9,466.9z"/>
	<path d="M330.8,447.4c-1.7-1.4-3.7-2.4-5.8-3.1c-2.1-0.7-4.4-1-6.9-1c-0.9,0-1.9,0.1-3.1,0.2s-2.5,0.4-3.8,0.7
		c-1.3,0.3-2.6,0.8-3.8,1.3c-1.3,0.5-2.4,1.2-3.4,2.1c-1,0.8-1.8,1.8-2.4,2.9s-0.9,2.4-0.9,3.9c0,1.2,0.3,2.4,0.9,3.4
		s1.4,1.9,2.3,2.7c1,0.8,2,1.4,3.2,1.8s2.4,0.6,3.6,0.6c1.7,0,3.5-0.3,5.3-0.9s3.5-1.5,5.2-2.6c0.4-0.2,0.7-0.4,0.9-0.4
		c0.4,0,0.7,0.3,0.7,0.9c0,0.3,0,0.7,0,1.4c0,0.7-0.1,1.4-0.1,2.2c0,0.8-0.1,1.6-0.1,2.5s0,1.6,0,2.2c0,3.1,0.1,6.2,0.4,9.3
		c0.1,1.5,0.8,2.2,2.1,2.2c0.1,0,0.2,0,0.3,0c0.1,0,0.2,0,0.3-0.1l1.3-0.3c1.4-0.2,2.1-1,2.1-2.3v-0.5c-0.1-1.6-0.2-3.3-0.3-5
		c-0.1-1.7-0.1-3.3-0.1-5c0-2.1,0-4.2,0.1-6.3c0.1-2.1,0.2-4.2,0.4-6.3c0.1-0.6,0.2-1.2,0.4-1.6c0.2-0.4,0.6-0.9,1-1.3
		c0.5-0.4,0.8-0.7,0.9-1c0.2-0.3,0.2-0.6,0.2-0.9s-0.1-0.6-0.2-0.9C331.4,448,331.2,447.7,330.8,447.4z M322.2,451.6
		c-0.3,0.4-0.7,0.8-1,1.2c-0.4,0.4-0.7,0.7-1.2,1.1c-0.6,0.5-1.2,0.9-1.8,1.3c-0.6,0.4-1.3,0.8-1.9,1.1c-0.7,0.3-1.4,0.6-2.1,0.8
		c-0.7,0.2-1.5,0.3-2.2,0.3c-1.6,0-2.9-0.4-3.8-1.1s-1.4-1.6-1.4-2.8c0-0.9,0.3-1.5,1-2.1c0.6-0.5,1.4-1,2.3-1.3s1.8-0.6,2.8-0.7
		c1-0.2,1.8-0.3,2.4-0.3c0.3,0,0.6-0.1,0.9-0.1s0.6,0,0.9,0c0.7,0,1.5,0,2.3,0.1s1.5,0.2,2.2,0.5c0.7,0.2,1.1,0.6,1.1,1.1
		C322.6,450.9,322.4,451.2,322.2,451.6z"/>
	<path d="M368.2,450.3c-1.5-1.3-3.2-2.3-5.2-3.1c-2-0.8-4.2-1.1-6.4-1.1c-2.1,0-4.2,0.4-6,1.2c-1.9,0.8-3.5,1.9-4.9,3.3
		s-2.5,3.1-3.3,5s-1.2,4-1.2,6.2c0,2,0.3,3.9,1,5.5s1.6,3,2.9,4.2c1.2,1.2,2.7,2.1,4.5,2.7s3.7,1,5.8,1c1.6,0,3.2-0.2,4.7-0.5
		c1.5-0.4,2.9-0.9,4.2-1.5s2.5-1.4,3.6-2.3s2-1.9,2.8-2.9c0.8-1.1,1.4-2.2,1.8-3.5c0.4-1.2,0.6-2.5,0.6-3.8c0-2-0.4-3.9-1.3-5.7
		C370.8,453.1,369.7,451.6,368.2,450.3z M366,464.7c-0.6,0.9-1.3,1.8-2.3,2.5s-2.1,1.3-3.4,1.7c-1.3,0.4-2.7,0.6-4.2,0.6
		c-2.8,0-4.9-0.8-6.5-2.5c-1.5-1.7-2.3-4-2.3-7.1c0-1.2,0.2-2.2,0.6-3.2s1-1.9,1.7-2.6s1.5-1.3,2.5-1.8c1-0.4,2-0.7,3.1-0.7
		c1.6,0,3.1,0.3,4.5,0.8s2.7,1.3,3.7,2.2c1.1,0.9,1.9,2,2.5,3.2s0.9,2.5,0.9,3.9C366.9,462.8,366.6,463.8,366,464.7z"/>
	<path d="M396.8,476.4c-0.2-0.3-0.5-0.7-0.7-1c-0.3-0.4-0.5-0.8-0.7-1.2c-0.6-1.3-1.2-2.6-1.6-4.1c-0.4-1.4-0.8-2.8-1-4.3
		c-0.3-1.5-0.4-2.9-0.5-4.4s-0.2-2.9-0.2-4.4c0-1.4,0-2.9,0.1-4.3s0.2-2.9,0.4-4.2c0.2-1.4,0.3-2.6,0.5-3.9c0.2-1.2,0.4-2.3,0.6-3.3
		c0.2-0.8,0.3-1.3,0.3-1.6c0-0.3,0.1-0.5,0.1-0.7c0-0.6-0.2-1-0.6-1.3s-1-0.5-1.7-0.5c-0.6,0-1.2,0.1-1.6,0.2s-0.8,0.2-1.1,0.4
		c-0.3,0.2-0.5,0.4-0.7,0.7s-0.3,0.6-0.4,1c-0.6,2.9-1.1,5.9-1.4,8.9c-0.4,3-0.5,6-0.5,8.9c0,1.9,0.1,3.9,0.3,6c0.2,2.1,0.5,4,0.9,6
		c0.4,1.9,0.9,3.7,1.6,5.4c0.6,1.7,1.4,3.2,2.3,4.4c0.5,0.7,1,1.3,1.5,1.7c0.5,0.4,0.9,0.6,1.2,0.6c0.2,0,0.5-0.1,0.9-0.2
		c0.3-0.2,0.8-0.4,1.4-0.8c0.6-0.5,1.1-0.9,1.4-1.2c0.3-0.3,0.4-0.6,0.4-1c0-0.3-0.1-0.6-0.2-0.9C397.2,477.1,397,476.7,396.8,476.4
		z"/>
	<path d="M416.2,449.4c-0.4-1.9-0.9-3.7-1.6-5.4c-0.6-1.7-1.4-3.2-2.3-4.4c-0.5-0.7-1-1.3-1.5-1.7c-0.5-0.4-0.9-0.6-1.2-0.6
		c-0.3,0-0.6,0.1-0.9,0.2c-0.3,0.2-0.8,0.4-1.4,0.8c-0.6,0.5-1.1,0.9-1.4,1.2c-0.3,0.3-0.4,0.6-0.4,1c0,0.3,0.1,0.6,0.2,0.9
		c0.2,0.3,0.3,0.6,0.6,0.9c0.2,0.3,0.5,0.7,0.7,1c0.3,0.4,0.5,0.8,0.7,1.2c1.3,2.6,2.1,5.4,2.6,8.4c0.5,2.9,0.7,5.9,0.7,8.8
		c0,1.4,0,2.9-0.1,4.3s-0.2,2.9-0.4,4.2c-0.2,1.4-0.3,2.6-0.5,3.9c-0.2,1.2-0.4,2.3-0.6,3.3c-0.2,0.8-0.3,1.3-0.3,1.6
		c-0.1,0.3-0.1,0.5-0.1,0.7c0,0.6,0.2,1,0.6,1.3s1,0.5,1.7,0.5c0.6,0,1.2-0.1,1.7-0.2s0.8-0.2,1.1-0.4c0.3-0.2,0.5-0.4,0.7-0.7
		s0.3-0.6,0.4-1c0.6-2.9,1.1-5.9,1.4-8.9c0.4-3,0.6-6,0.6-8.9c0-1.9-0.1-3.9-0.3-6C416.9,453.4,416.6,451.4,416.2,449.4z"/>
	<path d="M439.3,470.9c-0.4-0.3-0.8-0.6-1.3-0.8s-1-0.3-1.5-0.3c-1.1,0-2,0.3-2.7,0.8s-1,1.2-1,2.1c0,0.5,0.1,1,0.3,1.4
		c0.2,0.4,0.5,0.8,0.9,1.1c0.4,0.3,0.8,0.6,1.3,0.7c0.5,0.2,1.1,0.3,1.7,0.3c1.1,0,2-0.2,2.6-0.7s1-1.2,1-2.1c0-0.5-0.1-0.9-0.3-1.4
		C440,471.6,439.7,471.2,439.3,470.9z"/>
	<path d="M434.6,462.7c0,0.5,0.2,0.8,0.4,1.1c0.2,0.3,0.6,0.4,1.1,0.5l2.6,0.4c0.4,0,0.7-0.1,0.9-0.3c0.2-0.2,0.4-0.4,0.5-0.7
		c0.1-0.3,0.2-0.6,0.2-1s0.1-0.8,0.1-1.2c0-2.1-0.1-4.2-0.2-6.2s-0.3-4-0.5-6s-0.5-3.9-0.8-5.9c-0.3-1.9-0.6-3.8-1-5.7
		c-0.3-1.5-2-2.2-5.2-2.2c-0.7,0-1.2,0.2-1.6,0.6s-0.5,0.9-0.5,1.4c0,0.2,0,0.4,0.1,0.7c0.1,0.2,0.1,0.5,0.2,0.8
		c1.1,4.1,2,8.2,2.6,12.3C434,455.1,434.4,459,434.6,462.7z"/>
	<path d="M468.7,467.8c-0.4-0.3-0.8-0.6-1.3-0.8c-0.5-0.2-1-0.3-1.5-0.3c-1.1,0-2,0.3-2.7,0.8s-1,1.2-1,2.1c0,0.5,0.1,0.9,0.3,1.4
		c0.2,0.4,0.5,0.8,0.9,1.1c0.4,0.3,0.8,0.6,1.4,0.7c0.5,0.2,1.1,0.3,1.7,0.3c1.1,0,2-0.2,2.6-0.7s1-1.2,1-2.1c0-0.5-0.1-0.9-0.3-1.3
		C469.4,468.5,469.1,468.1,468.7,467.8z"/>
	<path d="M477.2,438.7c-1.1-1-2.4-1.8-3.9-2.3s-3.2-0.8-5-0.8c-8.3,0-14.5,4.4-18.6,13.1c-0.2,0.5-0.3,0.9-0.3,1.2
		c0,0.9,0.5,1.6,1.6,2l1.5,0.6c0.4,0.2,0.8,0.2,1.2,0.2c1,0,1.7-0.6,2.1-1.7c1.4-3.4,3-5.9,4.9-7.5s4.2-2.4,6.7-2.4
		c1,0,1.9,0.2,2.8,0.5s1.6,0.8,2.2,1.3c0.6,0.6,1.1,1.2,1.5,2s0.6,1.6,0.6,2.4s-0.1,1.6-0.4,2.3c-0.3,0.7-0.8,1.4-1.5,2.1
		s-1.6,1.3-2.7,2s-2.5,1.3-4.1,1.9c-0.6,0.2-1,0.5-1.3,0.8s-0.4,0.7-0.4,1.1c0,0.5,0.3,1,0.8,1.5l0.4,0.4c0.7,0.7,1.4,1,2.2,1
		c0.4,0,0.8-0.1,1.1-0.2c1.9-0.6,3.6-1.4,5.1-2.3s2.7-2,3.8-3.1c1-1.2,1.8-2.4,2.4-3.8c0.5-1.3,0.8-2.8,0.8-4.2
		c0-1.6-0.3-3.2-0.9-4.5C479.2,440.9,478.3,439.7,477.2,438.7z"/>
	<path d="M513.4,468.7c-0.3-0.3-0.5-0.7-0.5-1c0-0.2,0.1-0.5,0.2-0.7c0.5-1,0.9-1.9,1.1-2.7s0.3-1.7,0.3-2.4c0-0.3,0-0.7-0.1-0.9
		c-0.1-0.3-0.1-0.6-0.2-0.9c-0.1-0.6-0.6-0.9-1.6-0.9c-0.2,0-0.4,0-0.7,0.1c-0.3,0-0.7,0.1-1.2,0.2c-0.7,0.2-1.2,0.4-1.6,0.6
		s-0.5,0.5-0.5,0.8s0,0.6,0.1,0.8c0,0.2,0.1,0.4,0.1,0.7c0,0.1,0,0.3,0,0.5s0,0.4-0.1,0.5c0,0.2-0.1,0.3-0.2,0.4s-0.2,0.2-0.3,0.2
		c-0.1,0-0.2,0-0.3-0.1c-0.2-0.1-0.4-0.3-0.8-0.7l-2.2-2.3c-0.2-0.2-0.4-0.5-0.6-0.6c-0.2-0.2-0.2-0.3-0.2-0.4c0,0,0-0.1,0.1-0.2
		c1.1-0.5,2.1-1,3.1-1.6s1.9-1.3,2.6-2.1c0.8-0.8,1.4-1.7,1.8-2.7c0.4-1,0.7-2.1,0.7-3.4s-0.3-2.5-0.8-3.5c-0.6-1-1.3-1.8-2.2-2.5
		c-0.9-0.7-2-1.2-3.1-1.5c-1.2-0.3-2.4-0.5-3.6-0.5c-1.4,0-2.7,0.2-3.9,0.7c-1.2,0.4-2.3,1.1-3.2,1.9c-0.9,0.8-1.6,1.8-2.1,2.9
		c-0.5,1.2-0.8,2.4-0.8,3.9c0,1.2,0.2,2.3,0.6,3.4s1,2.3,1.7,3.5c0.1,0.2,0.1,0.3,0.2,0.4s0.1,0.3,0.1,0.4c0,0.2,0,0.3-0.1,0.5
		s-0.2,0.3-0.4,0.4c-0.9,0.8-1.6,1.7-2.1,2.7s-0.8,2.2-0.8,3.5s0.3,2.4,0.9,3.4s1.3,1.8,2.2,2.5c0.9,0.7,1.9,1.2,3,1.6
		s2.2,0.6,3.4,0.6c1.1,0,2.2-0.1,3.2-0.4s2-0.6,2.9-1.1c0.2-0.1,0.5-0.2,0.7-0.2c0.4,0,0.7,0.1,1,0.4l1.8,1.6
		c0.3,0.3,0.6,0.5,0.9,0.6c0.3,0.1,0.6,0.2,0.9,0.2c0.3,0,0.6-0.1,0.9-0.2c0.3-0.1,0.8-0.5,1.5-1c0.7-0.6,1.1-1.2,1.1-1.8
		c0-0.6-0.3-1.2-0.9-1.8L513.4,468.7z M499,448.6c0.2-0.5,0.6-0.8,0.9-1.1c0.4-0.3,0.8-0.4,1.3-0.5s0.9-0.2,1.4-0.2s1.1,0.1,1.6,0.3
		c0.5,0.2,0.9,0.4,1.3,0.7c0.4,0.3,0.7,0.7,0.9,1.2c0.2,0.5,0.3,1,0.3,1.6c0,0.5-0.1,1-0.4,1.5s-0.6,0.9-1.1,1.3
		c-0.4,0.4-1,0.8-1.5,1.1c-0.6,0.3-1.1,0.6-1.7,0.9c-0.3,0.1-0.5,0.2-0.7,0.2c-0.4,0-0.7-0.2-1-0.7c-1-1.6-1.6-3.1-1.6-4.5
		C498.6,449.7,498.7,449.1,499,448.6z M503.3,468.6c-0.2,0.2-0.6,0.2-1.2,0.2c-1.3,0-2.3-0.3-3.2-1c-0.9-0.7-1.3-1.7-1.3-3
		c0-0.2,0-0.4,0.1-0.6s0.1-0.4,0.2-0.6c0.2-0.3,0.5-0.5,0.8-0.5s0.6,0.2,0.9,0.5c0.5,0.6,1.1,1.1,1.7,1.7s1.2,1.1,1.9,1.7
		c0.3,0.3,0.4,0.6,0.4,0.9C503.6,468.3,503.5,468.5,503.3,468.6z"/>
	<path d="M536.3,442.2c-0.5-0.3-1-0.5-1.6-0.6s-1-0.2-1.4-0.2s-0.7,0.1-0.9,0.3c-0.2,0.2-0.4,0.6-0.5,1c-0.5,1.9-1.1,3.6-1.8,5.3
		c-0.7,1.6-1.3,3.1-1.9,4.4c-0.6,1.3-1.1,2.3-1.5,3.1c-0.4,0.8-0.6,1.3-0.6,1.5s0.1,0.5,0.4,0.7c0.2,0.3,0.5,0.5,0.9,0.7
		c0.3,0.2,0.7,0.4,1,0.5c0.4,0.1,0.7,0.2,0.9,0.2c0.5,0,1.1-0.3,1.7-1c0.6-0.7,1.3-1.5,2-2.6c0.7-1,1.3-2.2,2-3.4
		c0.6-1.2,1.2-2.4,1.7-3.5s0.9-2.1,1.2-2.9s0.5-1.4,0.5-1.6c0-0.4-0.2-0.7-0.6-1S536.8,442.5,536.3,442.2z"/>
	<path d="M562.1,442.2c-0.5-0.3-1-0.5-1.6-0.6s-1-0.2-1.4-0.2s-0.7,0.1-0.9,0.3c-0.2,0.2-0.4,0.6-0.5,1c-0.5,1.9-1.1,3.6-1.8,5.3
		c-0.7,1.6-1.3,3.1-1.9,4.4c-0.6,1.3-1.1,2.3-1.5,3.1c-0.4,0.8-0.6,1.3-0.6,1.5s0.1,0.5,0.4,0.7c0.2,0.3,0.5,0.5,0.9,0.7
		c0.3,0.2,0.7,0.4,1,0.5c0.4,0.1,0.7,0.2,0.9,0.2c0.5,0,1.1-0.3,1.7-1c0.6-0.7,1.3-1.5,2-2.6c0.7-1,1.3-2.2,2-3.4
		c0.6-1.2,1.2-2.4,1.7-3.5s0.9-2.1,1.2-2.9s0.5-1.4,0.5-1.6c0-0.4-0.2-0.7-0.6-1S562.6,442.5,562.1,442.2z"/>
</g>
</svg>
