<svg xmlns="http://www.w3.org/2000/svg" viewBox="0 0 1000 500"><path d="M7.6 54.7h.7c.9 0 1.4.6 1.4 1.8 0 .2 0 .5-.1.7 0 .2-.1.5-.2.8-.2.8-.4 1.5-.7 2.3-.2.8-.4 1.6-.6 2.3-.1.3-.1.6-.2.9.1.3.1.5.1.7 0 1.1.3 2 1 2.7s1.6 1.1 2.9 1.2l1.8.2h.9c2.3 0 3.9-1.2 4.5-3.7l2.6-9.4c.4-1.6 1.4-2.5 3.1-2.6 4.5-.5 9.1-.8 13.6-1.2 4.5-.3 9.1-.6 13.7-.8 1.4 0 2.6.6 3.5 1.8 1.9 2.5 3.7 4.9 5.6 7.4 1.8 2.5 3.7 5 5.5 7.6.5.7 1.1 1.2 1.7 1.6s1.2.6 1.9.6c.5 0 1-.1 1.4-.3.5-.2 1-.5 1.5-.8l2.2-1.5c1.5-1 2.3-2.2 2.3-3.6 0-.9-.3-1.9-1-2.9l-6.1-8.3c-.5-.8-.8-1.6-.8-2.4 0-.2 0-.5.1-.7 0-.2.1-.5.2-.8l1.1-3.2c.1-.3.2-.6.2-.9v-.8c0-1.1-.4-2-1.1-2.6s-1.8-.9-3.1-.9H64c-.8 0-1.4-.1-2-.4-.5-.3-1.1-.7-1.6-1.3-3.3-4.5-6.1-8.3-8.4-11.4-2.3-3.2-4.4-5.8-6.2-8.1-1.8-2.2-3.4-4.1-4.8-5.5-1.4-1.4-2.9-2.7-4.4-3.7-1.1-.7-2.2-1.1-3.3-1.1-.9 0-1.7.1-2.6.4-.9.2-1.7.6-2.5 1s-1.5.8-2.1 1.3-1.1 1-1.4 1.4c-.8 1.1-1.5 2.3-2.1 3.6s-1.2 2.7-1.6 4c-.5 1.4-.9 2.7-1.3 4.1-.4 1.4-.8 2.7-1.2 3.9-.7 2.2-1.4 4.3-2 6.5s-1.3 4.4-1.9 6.5c-.2.8-.6 1.4-1.1 1.8s-1.2.7-2 .8l-1.3.1c-2.6.5-3.9 2-4 4.8-.1.7-.1 1.2-.1 1.4v.7c0 1.2.2 2.1.5 2.7-.2 1 .3 1.3 1 1.3zm18.6-15.4c0-.2 0-.3.1-.5.7-2.3 1.4-4.5 2.1-6.7s1.4-4.4 2.2-6.6c.4-1.3 1-2 2-2 .3 0 .7.1 1 .3s.6.5 1 .9c1.7 2 3.4 4.1 5 6.1 1.6 2.1 3.2 4.1 4.8 6.3.5.7.7 1.3.7 1.8s-.2 1-.7 1.3c-.4.3-1 .5-1.8.6-2.3.1-4.5.3-6.8.4-2.3.2-4.5.4-6.8.7h-.6c-1.5 0-2.2-.7-2.2-2.1v-.5zm61.1-10.9c.3 0 .6 0 .9-.1.3 0 .5-.1.8-.1s.5.1.7.4c.2.3.3.7.4 1.1 1.4 6.9 2.5 13.8 3.5 20.6 1 6.8 1.7 13.7 2.4 20.6.2 1.6.7 2.8 1.5 3.5s1.8 1 2.9 1c1.2 0 2.4-.4 3.6-1.1s2.1-1.7 2.7-3c.4-.8.9-1.1 1.5-1.1.3 0 .5 0 .7.1 2.3.7 4.8 1.2 7.2 1.7 2.5.4 4.9.7 7.4.7 3.1 0 6.1-.3 8.8-1s5-1.8 7-3.2c2-1.4 3.5-3.2 4.6-5.4 1.1-2.2 1.7-4.7 1.7-7.6 0-2.1-.5-4-1.4-5.9s-2.2-3.5-3.7-4.8c-1.5-1.4-3.4-2.5-5.4-3.4-2.1-.9-4.2-1.4-6.4-1.6-.8-.1-1.1-.3-1.1-.7 0-.2 0-.4.1-.5.1-.2.2-.4.5-.7 1.9-2 3.3-4.2 4.1-6.4s1.2-4.3 1.2-6.2-.4-3.7-1.1-5.5c-.7-1.8-1.9-3.3-3.5-4.7s-3.6-2.5-6-3.3-5.3-1.2-8.7-1.2c-1.9 0-3.9.2-6.2.5-2.3.4-4.6.9-6.9 1.5s-4.6 1.4-6.8 2.2c-2.2.9-4.1 1.8-5.8 2.9-1.7 1-3.1 2.1-4.1 3.3s-1.6 2.4-1.6 3.6c0 1.1.4 2 1.2 2.7.8.7 1.9 1.1 3.3 1.1zm37 19.1c1.7.3 3.3.8 4.7 1.6 1.4.7 2.6 1.7 3.6 2.8.9 1.2 1.4 2.6 1.4 4.3 0 1.2-.2 2.2-.7 3s-1.1 1.5-1.9 2c-.8.5-1.7.9-2.7 1.2-1 .2-2.1.4-3.2.4-1.4 0-2.9-.1-4.5-.3-1.5-.2-3.1-.4-4.6-.7-1.5-.3-3-.6-4.4-1s-2.7-.7-3.9-1c-.9-.2-1.4-.8-1.5-1.8-.2-1.1-.4-2.2-.5-3.2-.2-.8-.3-1.6-.4-2.3-.1-.7-.1-1.1-.1-1.2 0-.9.4-1.5 1.2-1.8 2.2-.6 4.3-1.2 6.4-1.6 2.1-.5 4.2-.7 6.2-.7 1.6-.1 3.2 0 4.9.3zm-22.7-24.8c.2-.2.5-.3 1-.4 1.4-.4 2.9-.7 4.4-1s3.1-.3 4.6-.3 2.8.1 4.1.3c1.2.2 2.3.6 3.3 1.2.9.5 1.7 1.2 2.2 2.1.5.9.8 1.9.8 3.1 0 1.6-.5 3-1.4 4.2s-2.1 2.2-3.5 3.1c-1.4.9-3 1.6-4.7 2.2-1.7.6-3.4 1.2-4.9 1.7-.6.2-1.1.3-1.4.4-.4.1-.7.1-.9.1-.4 0-.7-.1-.9-.4-.2-.3-.4-.8-.5-1.5-.2-1.2-.5-2.5-.8-3.9-.3-1.5-.5-2.9-.8-4.2-.2-1.4-.5-2.6-.6-3.7-.2-1.1-.3-1.8-.3-2.2-.1-.3.1-.6.3-.8zM167 58.1c3.1 2.5 6.8 4.4 11.1 5.8s9 2.1 14.1 2.1c4.6 0 8.9-.5 12.8-1.6 3.9-1.1 7.3-2.6 10.2-4.4 2.9-1.9 5.1-4.1 6.7-6.8 1.6-2.6 2.4-5.5 2.4-8.5 0-1.5-.2-2.9-.6-4.3-.4-1.3-.9-2.5-1.6-3.5-.7-1-1.5-1.8-2.5-2.4-1-.6-2-.9-3.1-.9-.9 0-1.8.2-2.6.5-.9.3-1.6.7-2.3 1.2s-1.2 1.1-1.6 1.8c-.4.7-.6 1.4-.6 2.2s.2 1.4.5 2c.3.5.7 1 1.2 1.5.4.5.8 1.1 1.2 1.7.3.6.5 1.4.5 2.4 0 1.2-.5 2.4-1.5 3.4-1 1.1-2.4 2-4.1 2.8-1.7.8-3.8 1.4-6.1 1.9s-4.8.7-7.4.7c-3.6 0-6.9-.5-9.9-1.5s-5.7-2.4-7.9-4.1c-2.2-1.8-4-3.8-5.3-6.2-1.3-2.4-1.9-4.9-1.9-7.7 0-2.7.4-5.3 1.1-7.7.8-2.4 1.8-4.4 3.1-6.2s2.9-3.1 4.7-4.1 3.7-1.5 5.9-1.5c1 0 1.8.2 2.3.7.6.5 1.1 1 1.6 1.5s1 1 1.6 1.5 1.4.7 2.4.7c.9 0 1.8-.2 2.7-.6.9-.4 1.6-.9 2.2-1.5.6-.6 1.2-1.3 1.6-2.2.4-.8.6-1.7.6-2.6 0-1.1-.3-2.2-.9-3.1-.6-1-1.5-1.8-2.6-2.5s-2.4-1.3-3.9-1.7c-1.5-.4-3.1-.6-4.9-.6-4 0-7.8.9-11.3 2.6s-6.6 4-9.3 6.9c-2.6 2.9-4.7 6.3-6.3 10.2-1.5 3.9-2.3 8-2.3 12.4 0 4 .9 7.7 2.6 11.1 1.9 3.2 4.3 6.1 7.4 8.6zm59.7-35.2c.2 0 .5 0 .9-.1.3 0 .8-.1 1.2-.2 1.5-.2 2.7-.4 3.7-.6.9-.2 1.7-.2 2.4-.2.4 0 .9.5 1.4 1.6.5 1 1 2.4 1.5 4.2.5 1.7 1 3.7 1.4 6 .5 2.2.9 4.6 1.2 7.1.4 2.5.6 4.9.9 7.4.2 2.5.3 4.8.3 6.9 0 .4-.1.7-.3 1.1s-.5.7-.7 1.1-.5.8-.7 1.2c-.2.4-.3.9-.3 1.4 0 2.2 1.2 3.7 3.5 4.3 5.1 1.6 9.7 2.7 13.9 3.5 4.2.7 8.2 1.1 12.1 1.1 4.8 0 9.5-.6 13.9-1.8 4.4-1.2 8.3-2.8 11.7-4.9 3.4-2 6-4.4 8-7.1s3-5.5 3-8.4-.8-5.8-2.4-8.7c-1.6-2.9-3.7-5.6-6.5-8.3-2.8-2.6-6.1-5.1-9.8-7.3-3.8-2.2-7.9-4.2-12.3-5.8s-9-2.9-13.9-3.9c-4.9-.9-9.7-1.4-14.7-1.4-3.7 0-7 .1-10 .4-3 .3-5.8.7-8.4 1.3-2.9.8-4.4 2.7-4.4 5.8 0 1.5.3 2.7.8 3.3.4.6 1.3.9 2.6 1zm23.9-1.1c6 .6 11.7 1.7 16.8 3.3 5.2 1.5 9.7 3.4 13.5 5.5s6.8 4.5 9 7.1 3.3 5.3 3.3 8c0 1.7-.6 3.3-1.8 4.8-1.2 1.5-2.9 2.9-4.9 4.1-2.1 1.2-4.4 2.1-7.1 2.8-2.7.7-5.5 1-8.5 1-2.2 0-4.4-.1-6.5-.4-2.1-.2-4-.6-5.6-1s-2.9-.9-3.9-1.4-1.5-1-1.5-1.6c-.3-3.5-.6-6.6-.9-9.4-.3-2.8-.6-5.3-.9-7.5-.3-2.2-.6-4.3-.9-6.1-.3-1.8-.6-3.5-1-5.1-.2-1-.4-1.7-.5-2.2s-.2-.8-.2-1c-.1-.5.5-.9 1.6-.9zm111 47.8c3.7 0 7.5-.3 11.2-.9s7-1.5 10-2.7 5.3-2.7 7.2-4.5c1.8-1.8 2.7-4 2.7-6.5 0-.9-.2-1.9-.5-2.8-.4-.9-.9-1.7-1.5-2.4-.7-.7-1.4-1.3-2.4-1.7-.9-.4-1.9-.7-3-.7-.9 0-1.7.2-2.6.5-.9.4-1.6.8-2.3 1.4-.7.6-1.2 1.2-1.6 2-.4.7-.6 1.5-.6 2.2 0 .5.1 1 .4 1.5s.4.9.4 1.3c0 .5-.3.8-1 1.2-.7.3-1.6.6-2.7.8-1.1.2-2.3.4-3.6.5l-3.9.3c-1.3.1-2.4.1-3.5.1h-2.4c-1.3 0-2.8-.1-4.3-.3-1.5-.2-3.1-.4-4.7-.8-1.6-.3-3.2-.7-4.6-1.2-1.5-.5-2.8-1-4-1.6s-2.2-1.3-2.9-2c-.8-.7-1.2-1.5-1.3-2.3 0-.2.1-.4.3-.6.2-.2.8-.4 1.8-.6 1.1-.3 2.6-.6 4.4-1s3.7-.9 5.8-1.4c2.1-.5 4.2-1 6.3-1.4 2.2-.5 4.2-1 6-1.4 1.9-.4 3.5-.8 4.8-1.1 1.4-.3 2.3-.6 2.7-.7 1.7-.5 2.9-1.1 3.5-2.1.7-.9 1-1.9 1-3 0-.2 0-.4-.1-.5 0-.2-.1-.3-.1-.5-.2-1.2-.6-2.1-1.1-2.9-.5-.8-1.4-1.2-2.4-1.2-.7 0-2 .2-3.7.6-1.8.4-3.8.8-6.2 1.4-2.3.5-4.8 1.2-7.5 1.8-2.6.7-5.1 1.3-7.5 1.8s-4.6 1-6.5 1.4c-1.9.4-3.3.6-4.2.6-.4 0-.7-.2-.9-.5-.2-.4-.4-.8-.5-1.4-.1-.6-.2-1.2-.3-1.9 0-.7-.1-1.3-.1-2V32c0-.5.1-1 .4-1.3s.7-.5 1.2-.6c3.9-.5 7.7-1.1 11.6-1.6s7.8-1.1 11.6-1.8c3.9-.7 7.7-1.4 11.5-2.2s7.6-1.8 11.3-2.9c1.5-.5 2.6-1.2 3.3-2 .7-.9 1-1.8 1-2.7 0-.6 0-1.2-.1-1.8-.1-.7-.2-1.3-.4-1.8s-.6-1-1-1.3c-.5-.4-1.1-.5-1.9-.5-.6 0-1.2.1-2 .3-2.5.6-5.2 1.2-8.2 1.9-3 .6-6.1 1.3-9.3 1.9s-6.3 1.2-9.4 1.7-5.9 1-8.4 1.4c-2.6.4-4.7.7-6.5 1-1.8.2-3 .3-3.6.3-.3 0-.7-.1-1-.2-.3-.2-.7-.3-1.1-.5s-.9-.4-1.4-.5c-.5-.2-1.2-.2-2-.2-1.9 0-3.5.3-4.7.8s-2.1 1.2-2.8 2c-.7.8-1.1 1.7-1.3 2.6-.2.9-.3 1.7-.3 2.5s.1 1.5.3 2c.2.5.4 1 .7 1.4.2.4.5.8.7 1.2.2.3.3.7.4 1.1.1 1.9.2 3.5.3 4.8.1 1.4.1 2.7.1 3.9 0 .5-.1.8-.4 1-.2.2-.6.5-1 .7-1.4.6-2.4 1.4-3 2.3s-1 1.9-1 2.8c0 1.5.4 2.7 1.2 3.5.8.9 1.7 1.3 2.8 1.3.2 0 .4 0 .6-.1.3 0 .5-.1.8-.1s.5-.1.8-.1c.2 0 .4-.1.5-.1.5 0 1 .4 1.5 1.3 1.3 2.9 3 5.5 5.1 7.5 2.1 2.1 4.6 3.7 7.4 5 2.9 1.3 6.1 2.2 9.7 2.8 3.7.6 7.7.9 12 .9zm38.6-44.1c.2.5.6.8 1 1.1.5.3 1.1.4 2 .4.8 0 1.7-.1 2.7-.4 1-.2 2-.5 3-.9 1-.3 2-.6 2.9-.9.9-.2 1.8-.4 2.5-.4s1.2.1 1.5.4c.3.3.6.6.9 1.1.5.7 1 1.6 1.4 2.6s.8 2.1 1.2 3.2c.3 1.1.6 2.1.8 3.1.2 1 .3 1.8.3 2.4 0 .6-.3 1-.9 1-1.2 0-2.3-.2-3.4-.5-1-.3-2-.7-2.9-1.1-.9-.4-1.8-.8-2.6-1.1-.8-.3-1.5-.5-2.2-.5-.6 0-1.2.2-1.8.5-.6.3-1.2.8-1.7 1.3s-1 1.2-1.3 1.9-.5 1.4-.5 2.1c0 1.1.3 2.1 1 2.9s1.5 1.5 2.6 2.2c1.1.6 2.3 1.1 3.7 1.4 1.4.4 2.8.7 4.3.9 1.5.2 2.9.4 4.3.5s2.7.1 3.8.1c1 0 1.6.5 2 1.5.8 2.9 1.6 5.9 2.4 8.9s1.4 6 2 9.1c.2 1.1.7 1.8 1.5 2.2.8.4 1.7.6 2.5.6 2.4 0 4.2-.5 5.5-1.4s2-2.2 2-4c0-.9-.1-2-.4-3.3-.3-1.4-.6-2.8-1-4.3s-.8-3-1.3-4.6c-.5-1.5-.9-2.9-1.2-4.2 0-.1 0-.2-.1-.3 0-.1-.1-.2-.1-.3 0-.4.1-.8.4-1 .3-.3.6-.4 1.1-.5l1.4-.1c2.7-.3 5.2-.5 7.6-.6 2.4-.2 4.5-.4 6.3-.9 1.8-.4 3.2-1 4.3-1.9 1.1-.9 1.6-2.1 1.6-3.8 0-.4-.1-.8-.2-1.4-.1-.5-.4-1-.7-1.5-.3-.5-.8-.9-1.4-1.2s-1.3-.5-2.2-.5c-1.6 0-3.3.1-4.9.3s-3.3.4-4.9.7c-1.6.2-3.3.5-4.9.7s-3.2.3-4.8.3c-.6 0-1.2-.1-1.5-.3-.4-.2-.7-.7-1-1.3-.3-.8-.8-1.8-1.3-3l-1.5-3.6c-.5-1.2-.9-2.4-1.2-3.4-.3-1.1-.5-1.8-.5-2.3s.4-.8 1.2-1.1c.8-.3 2-.6 3.4-.8s3-.4 4.9-.5c1.8-.1 3.7-.2 5.8-.3 2-.1 4-.1 6.1-.1H460c.9 0 1.7-.2 2.4-.6.7-.4 1.2-.9 1.6-1.4.4-.6.7-1.2.9-1.9.2-.7.3-1.4.3-2 0-.5 0-1.1-.1-1.6s-.2-1-.5-1.4-.7-.8-1.3-1c-.6-.3-1.4-.4-2.5-.4-3.6 0-6.9 0-10.1.1-3.2 0-6.5.2-9.8.4s-6.9.5-10.5 1c-3.7.5-7.8 1.1-12.2 1.9-2.8.5-5.4 1-7.6 1.4s-4.2 1-5.8 1.6-2.8 1.4-3.7 2.3-1.3 2.1-1.3 3.5c0 .5 0 1 .1 1.5-.1.5 0 1 .3 1.5zm87.3 36.2c3.5 2.2 7.8 3.9 12.7 5.1 4.9 1.2 10.4 1.8 16.3 1.8 4.5 0 8.6-.6 12.5-1.8 3.9-1.2 7.2-2.7 10-4.7s5.1-4.3 6.7-6.9c1.6-2.6 2.4-5.3 2.4-8.2 0-2.5-.6-4.9-1.9-7-1.3-2.1-3.1-4-5.4-5.5-2.3-1.5-5.1-2.7-8.4-3.5-3.2-.9-6.8-1.3-10.7-1.3-2.5 0-5 .2-7.6.5-2.6.4-5.2.9-7.8 1.6-2.6.7-5.2 1.6-7.7 2.6-2.6 1-5 2.2-7.3 3.5-.7.4-1.4.6-2 .6s-1-.2-1.3-.5-.5-.8-.5-1.4c0-.7.2-1.5.7-2.6.4-1.1 1-2.2 1.7-3.3.7-1.2 1.5-2.3 2.4-3.5s1.9-2.2 2.8-3.1c.7-.7 1.4-1.3 2-1.9.7-.6 1.5-1.2 2.4-1.8s2.1-1.4 3.4-2.2 3-1.8 4.9-2.9c1-.5 1.7-1.2 2.3-1.9.5-.8.8-1.5.8-2.4 0-.6-.1-1.2-.4-1.8s-.7-1.2-1.2-1.7-1.2-.9-1.9-1.2c-.8-.3-1.6-.5-2.5-.5-.7 0-1.5.1-2.3.3-.8.2-1.6.5-2.4 1-3.9 2.2-7.4 4.6-10.3 7.3s-5.4 5.6-7.4 8.7-3.5 6.4-4.5 9.9-1.5 7-1.5 10.6 1 7 2.9 10c1.8 3.3 4.5 5.9 8.1 8.1zm5.9-13.6c4-2.5 8.2-4.3 12.7-5.6 4.5-1.3 9.1-2 13.9-2 2.5 0 4.8.2 6.8.6 2.1.4 3.8 1 5.3 1.8s2.6 1.7 3.4 2.7c.8 1.1 1.2 2.2 1.2 3.5s-.5 2.5-1.6 3.6-2.5 2.1-4.4 2.9-4.1 1.5-6.6 1.9c-2.5.5-5.2.7-8.1.7-1.8 0-3.7-.1-5.6-.3-1.9-.2-3.7-.5-5.5-.9s-3.5-.8-5-1.4c-1.6-.5-3-1.1-4.1-1.6-1.2-.6-2.1-1.2-2.8-1.8s-1-1.2-1-1.8c0-.9.5-1.7 1.4-2.3zm69.2-11.5c.5.4 1 .7 1.5.9.6.2 1.1.4 1.5.7.5.2.8.5 1.2.9.3.4.5.9.5 1.6 0 1.6 0 3.1.1 4.6 0 1.5.1 3 .1 4.6 0 2.3-.1 4.7-.2 7s-.2 4.5-.2 6.6c0 1.4.5 2.4 1.5 3s2.4.9 4.1.9c.7 0 1.4-.1 2.1-.2.7-.1 1.3-.3 1.9-.6.5-.3 1-.7 1.4-1.2s.6-1.1.7-1.9c.1-2 .2-4.2.3-6.3.1-2.2.1-4.3.1-6.4 0-1.8 0-3.6-.1-5.3 0-1.7-.1-3.5-.1-5.3 0-.8.2-1.4.7-1.9s1.2-.8 2-.9c2.5-.1 5-.3 7.6-.4 2.6-.2 5.2-.3 7.7-.3.8 0 1.4.2 1.9.6.5.4.8 1 1 1.8.3 1.8.6 3.6 1 5.6.4 1.9.7 3.9 1.1 6s.8 4.1 1.2 6.2.9 4.1 1.4 6.1c.2 1.1.6 2 1.2 2.8.6.8 1.5 1.2 2.9 1.2 1.2 0 2.3-.1 3.2-.4s1.7-.7 2.4-1.1c.7-.5 1.2-1 1.5-1.6s.5-1.2.5-1.8c0-.8-.1-1.4-.2-1.9s-.3-1.1-.5-1.9c-.1-.5-.3-1.3-.5-2.5s-.5-2.5-.8-3.9-.6-3-.9-4.6c-.3-1.6-.6-3.1-.8-4.4s-.4-2.5-.6-3.4c-.2-.9-.2-1.4-.2-1.5 0-1.4.9-2.1 2.7-2.3.8-.1 1.5-.1 2.1-.2.5-.1 1.1-.1 1.8-.3l2-.5c1.1-.2 1.8-.7 2.2-1.3.4-.7.6-1.5.6-2.5 0-1.2-.1-2.1-.4-2.9-.2-.8-.6-1.4-1-1.8-.4-.4-.9-.7-1.4-.9s-1-.3-1.6-.3c-.8 0-1.7.1-2.5.2-.9.2-1.7.2-2.4.2s-1.3 0-1.9-.1c-.6-.1-1.1-.3-1.6-.5-.5-.3-.9-.7-1.3-1.2s-.7-1.2-.9-2.2c-.2-1.1-.4-2.4-.7-3.7-.2-1.3-.4-2.7-.7-4.1s-.5-2.9-.8-4.4-.6-3-1-4.4c-.3-1.4-1-2.4-1.9-2.9s-1.9-.8-2.9-.8c-.8 0-1.6.1-2.5.2s-1.7.3-2.4.6c-.8.3-1.4.7-1.9 1.3-.5.5-.7 1.3-.7 2.1 0 .7.1 1.5.3 2.6.2 1 .4 2.1.7 3.3l.9 3.6c.3 1.2.6 2.4.9 3.5.3 1.1.5 2 .7 2.9.2.8.3 1.5.3 1.9 0 1.1-.2 1.9-.5 2.4s-1 .8-2.1.9l-12.9.5c-.9 0-1.6-.2-2-.7s-.7-1.2-.7-2.1l-.2-6c-.1-1.6-.6-2.9-1.4-3.7s-2.5-1.3-4.7-1.3c-.6 0-1.2.1-1.9.2s-1.3.4-1.8.8-1 1-1.3 1.8c-.4.8-.5 1.8-.5 3.1 0 .2 0 .4.1.9 0 .4.1.9.1 1.5s.1 1.2.1 1.8.1 1.2.1 1.6c0 .8-.1 1.3-.4 1.7-.3.4-.6.7-1.1 1-.4.3-.9.5-1.4.7s-1 .4-1.4.7-.8.6-1.1 1-.4 1-.4 1.8c0 1.4.2 2.5.5 3.3.1.6.5 1.2 1 1.6zm79.6-6.4c.5 4.4.9 9.5 1.3 15.2.4 5.7.6 11.8.6 18.3 0 1.1.3 1.9 1 2.4s1.6.8 2.7.8c2.6 0 4.5-.5 5.9-1.4 1.3-.9 2-2.4 2-4.3 0-3.5-.1-7.1-.2-10.8-.1-3.7-.3-7.6-.6-11.7s-.6-8.3-1-12.8-1-9.2-1.6-14.3c-.2-1.2-.7-2.1-1.5-2.7-.8-.6-2.1-.9-3.9-.9-.9 0-1.8.1-2.6.4s-1.5.6-2.1 1-1.1.9-1.4 1.5c-.3.6-.5 1.2-.5 1.9 0 1.1.2 3.1.6 6.1.4 3.2.8 6.9 1.3 11.3zm37.3 29.6c1.4 2.5 3.1 4.8 5 6.9s4.1 3.9 6.4 5.3 4.8 2.6 7.5 3.5c2.7.8 5.4 1.2 8.2 1.2 3.2 0 6.1-.6 8.7-1.7 2.6-1.1 4.8-2.7 6.7-4.8 1.9-2.1 3.3-4.6 4.3-7.5s1.5-6.2 1.5-9.8c0-3.5-.2-6.8-.5-9.9-.4-3.1-.8-5.8-1.2-8.2s-.8-4.4-1.2-6.1c-.4-1.6-.5-2.8-.5-3.5 0-.8.2-1.4.6-1.8.4-.4 1.1-.7 1.9-.8 2.5-.2 4.6-.3 6.3-.6 1.6-.2 2.9-.5 3.9-.9.9-.4 1.6-.8 2-1.4.4-.6.5-1.3.5-2.1 0-1.1-.6-2.2-1.7-3.4-1.2-1.2-2.6-2.3-4.4-3.3-1.8-1-3.7-1.8-5.8-2.5s-4-1-5.9-1-3.7.3-5.4.8-3.2 1.3-4.6 2.2c-.8.5-1.5.8-2.2 1s-1.5.3-2.4.3c-1.5 0-3.2-.1-5-.2-1.8-.1-3.6-.3-5.4-.4l-5.4-.6c-1.8-.2-3.4-.4-4.9-.6s-2.8-.3-3.9-.4c-1.1-.1-1.9-.2-2.4-.2-.9 0-1.6.3-2.1 1-.5.6-.8 1.5-.8 2.6 0 .9.2 1.7.5 2.5s.7 1.5 1.2 2.2 1.1 1.2 1.8 1.6c.7.4 1.4.7 2.2.7 4 .6 8.1 1.2 12.4 1.6 4.3.4 8.7.7 13.2 1 1.7.1 2.8 1.2 3.4 3.2 1.4 5.8 2.5 11.1 3.2 16s1.1 9.5 1.1 13.9c0 3.4-.7 6.1-2 7.9s-3.2 2.7-5.7 2.7c-2.8 0-5.4-.6-7.9-1.9-2.5-1.2-4.7-2.9-6.6-5-1.9-2.1-3.4-4.6-4.5-7.4s-1.7-5.7-1.7-8.8c0-.7-.2-1.4-.7-2s-1.1-1.2-1.8-1.7c-.8-.5-1.7-.9-2.7-1.1-1.1-.3-2.2-.4-3.3-.4-1.3 0-2.3.5-3.2 1.4-.8.9-1.2 2.1-1.2 3.5 0 3 .4 6 1.2 8.8.9 3 1.9 5.7 3.3 8.2zM748.4 23c1.2 2.9 2.4 6 3.5 9.2s2.2 6.5 3.1 9.7c1 3.3 1.9 6.6 2.7 9.9s1.5 6.5 2.1 9.7c.3 2.1 1.6 3.1 3.9 3.1 2.2 0 3.8-.5 5.1-1.4 1.2-1 1.9-2.4 2.1-4.4.2-1.8.4-3.4.7-4.9s.8-2.8 1.3-3.9 1.1-2 1.7-2.6c.6-.6 1.3-.9 2-.9.9 0 2.2.3 3.9.9s3.7 1.3 6 2.1c2.2.8 4.7 1.7 7.2 2.7 2.6 1 5.1 1.9 7.7 2.7 2.6.8 5.1 1.5 7.5 2.1s4.5.9 6.4.9c.8 0 1.6-.2 2.4-.5.8-.3 1.5-.8 2.1-1.3s1.1-1.2 1.4-1.9c.4-.7.5-1.5.5-2.2 0-2-1.3-3.3-4-4-5.3-1.2-10.1-2.4-14.3-3.5s-7.8-2.2-10.8-3.3c-3-1.1-5.3-2.1-6.9-3.2-1.6-1.1-2.4-2.2-2.4-3.3 0-1.4.5-2.6 1.4-3.9 1-1.2 2.2-2.4 3.6-3.6 1.5-1.2 3-2.3 4.7-3.5 1.7-1.1 3.3-2.3 4.7-3.5 1.5-1.2 2.7-2.5 3.6-3.7 1-1.3 1.4-2.7 1.4-4.1 0-.9-.2-1.7-.5-2.5s-.8-1.4-1.4-2c-.6-.6-1.3-1-2.1-1.3s-1.6-.5-2.5-.5c-2.3 0-4.6.7-7.1 2s-4.9 3.2-7.4 5.6c-2.5 2.4-4.9 5.3-7.2 8.7s-4.5 7.1-6.5 11.2c-.3.5-.6.9-.8 1.2s-.5.4-.8.4-.7-.3-1-.9c-.4-.6-.7-1.3-1.1-2.3-.4-.9-.7-2-1.1-3.1-.4-1.2-.8-2.3-1.1-3.4-.4-1.1-.8-2.2-1.2-3.2s-.8-1.8-1.3-2.4c-.9-1.3-1.9-2.2-2.8-2.9-.9-.6-2.1-1-3.7-1-.8 0-1.5.1-2.2.3s-1.3.5-1.8.8-.9.7-1.2 1.2c-.3.4-.5.9-.5 1.4 0 .6.1 1.1.2 1.7.3.4.5 1 .8 1.6zm81.5 9.5c.4 4 .8 8.3 1.3 13.1.4 4.8.8 9.6 1 14.5 0 1.3-.1 2.6-.4 3.8-.3 1.3-.4 2.3-.4 3.1 0 1 .4 1.9 1.1 2.7.8.8 1.8 1.2 3.2 1.2 1.3 0 2.4-.1 3.2-.4.9-.2 1.9-.5 2.9-.7 2.4-.4 5.5-.7 9.3-1 3.8-.2 8.1-.6 12.7-1 1-.1 1.8-.3 2.4-.7.6-.4 1.2-.9 1.5-1.5.4-.6.6-1.2.8-2 .2-.7.2-1.4.2-2.2 0-.5 0-.9-.1-1.4s-.3-.9-.6-1.3-.8-.7-1.4-.9c-.6-.2-1.4-.3-2.3-.3-1.4 0-2.9.1-4.4.3-1.5.2-3.1.4-4.6.5-1.5.2-3.1.4-4.6.5-1.5.2-3.1.3-4.6.3-.8 0-1.4-.2-1.8-.7-.5-.5-.7-1.1-.7-2-.2-5.9-.5-12.3-1-19.1s-1.2-14.2-2.3-22.4c-.2-1.2-.7-2.1-1.5-2.6s-2.1-.8-3.9-.8c-.9 0-1.8.1-2.6.4-.8.2-1.5.6-2.1 1-.6.5-1.1 1-1.4 1.6-.3.6-.5 1.2-.5 1.9 0 1 .2 2.9.5 5.8.4 2.9.7 6.3 1.1 10.3zm127.8 25.2c-.1-.3-.3-.9-.5-1.7-.9-2.8-1.8-5.8-2.7-8.9s-1.9-6.2-2.8-9.2c-1-3-2-5.9-3-8.7s-2.1-5.2-3.1-7.3c-1.1-2.1-2.2-3.7-3.3-5-1.1-1.2-2.3-1.9-3.5-1.9-1 0-1.9.2-2.7.5s-1.5.9-2.3 1.6c-.7.7-1.4 1.7-2.2 2.9-.7 1.2-1.5 2.7-2.4 4.5-1.7 3.5-3.1 6.3-4.3 8.3-1.2 2.1-2.2 3.7-3 4.7-.9 1.1-1.6 1.8-2.3 2.1s-1.4.5-2.1.5-1.5-.4-2.4-1.1c-.9-.7-1.8-1.8-2.8-3.1s-1.9-2.8-2.9-4.6-1.9-3.7-2.7-5.7c-2.1-5-4-8.7-5.8-10.9-1.8-2.2-3.7-3.4-5.6-3.4-2.2 0-4.2 1-6 3s-3.3 4.9-4.6 8.6-2.3 8.1-3 13.3-1 10.9-1 17.2c0 5 .4 8.6 1.2 10.9s2.2 3.4 4.1 3.4c.9 0 1.8-.1 2.7-.4.8-.3 1.6-.6 2.2-1 .6-.4 1.1-.9 1.5-1.5s.6-1.2.6-1.9c0-2-.1-3.9-.3-5.8s-.3-3.8-.3-5.7c0-3.2.1-6.1.3-8.7s.4-4.9.7-6.7c.3-1.9.7-3.3 1.1-4.4.4-1 .9-1.6 1.4-1.6.3 0 .7.2 1.2.5.4.4.9.9 1.3 1.7 2.5 4.6 4.6 8.4 6.3 11.2 1.7 2.9 3.2 5.1 4.6 6.7 1.3 1.6 2.6 2.7 3.7 3.3 1.2.6 2.4.9 3.8.9s2.9-.4 4.5-1.3 3.2-2.1 4.8-3.7 3.2-3.5 4.8-5.8 3.1-4.8 4.6-7.6c.3-.7.7-1.1 1.2-1.1s1.1.6 1.8 1.9c.7 1.3 1.4 2.9 2.1 4.8.7 1.9 1.5 4 2.2 6.3s1.4 4.4 2 6.4 1.2 3.8 1.6 5.2.8 2.4 1 2.7c.3.6.8 1.1 1.4 1.3.6.2 1.4.4 2.5.4.8 0 1.6-.2 2.4-.5.8-.3 1.5-.7 2.2-1.2.6-.5 1.2-1 1.6-1.7s.6-1.3.6-1.9c-.3-.1-.3-.4-.4-.8zM23.3 190c.6 0 1.3.4 2 1.1 1.7 1.7 3.6 3.5 5.6 5.4s4.1 3.9 6.3 5.8 4.4 3.8 6.6 5.6c2.2 1.8 4.5 3.4 6.7 4.7 2.2 1.4 4.4 2.5 6.5 3.3 2.2.8 4.2 1.2 6.2 1.2 2.5 0 4.4-.4 5.9-1.2s2.6-2 3.4-3.6 1.3-3.5 1.5-5.9c.2-2.3.4-5 .4-8.1 0-1.6-.1-3.7-.2-6.1-.1-2.4-.4-5-.7-7.7-.3-2.7-.7-5.4-1.2-8-.5-2.7-1.1-5.1-1.8-7.2-.7-2.1-1.6-3.9-2.6-5.2s-2.1-2-3.3-2c-.6 0-1.3.1-2.2.4-.9.2-1.7.6-2.5 1-.8.5-1.5 1-2 1.7-.6.7-.9 1.5-.9 2.3 0 .5.1 1 .3 1.4s.3.9.5 1.3c.9 2.1 1.6 4.4 2.3 7s1.2 5.1 1.7 7.6.8 4.9 1 7.1c.2 2.2.4 4.1.4 5.6 0 2-.2 3.5-.5 4.4-.3.9-1 1.4-2.1 1.4s-2.3-.3-3.5-1-2.5-1.5-3.7-2.4-2.4-1.9-3.6-3c-1.2-1.1-2.2-2-3.1-2.8-2-1.7-4.1-3.6-6-5.5-2-1.9-3.9-3.9-5.8-5.8s-3.7-3.7-5.5-5.4-3.4-3.2-5-4.6c-1.6-1.3-3-2.4-4.4-3.1-1.4-.8-2.6-1.2-3.7-1.2-1.4 0-2.6.2-3.4.7-.9.5-1.5 1.1-2 1.8-.5.8-.8 1.6-1 2.7-.2 1-.2 2.1-.2 3.2 0 1.3 0 2.9.1 4.7 0 1.9.1 3.9.2 6.1.1 2.2.2 4.5.3 6.9s.2 4.8.4 7.1c.1 2.4.3 4.6.5 6.9s.3 4.2.5 6c.1 1.4.6 2.4 1.6 3.1.9.6 1.9 1 3 1 2.2 0 3.9-.6 5.2-1.7 1.3-1.2 1.9-2.7 1.9-4.5 0-1.7-.1-3.4-.2-5.1-.2-1.7-.3-3.4-.5-5.1-.2-1.7-.4-3.4-.5-5.1-.2-1.7-.2-3.3-.2-4.9 0-.8.1-1.4.4-1.8-.1-.3.3-.5.9-.5zM137 225.3c4.4-1.7 8.2-4 11.4-7 3.2-2.9 5.8-6.4 7.6-10.5 1.9-4 2.8-8.4 2.8-13 0-4.2-.7-7.9-2.2-11.2s-3.6-6.1-6.3-8.5c-2.7-2.3-6.1-4.1-10-5.4-3.9-1.2-8.3-1.9-13.2-1.9-4 0-7.8.4-11.6 1.1-3.8.7-7.2 1.7-10.1 2.9-3 1.2-5.4 2.6-7.2 4.1s-2.7 3.1-2.7 4.7c0 .5.1 1 .3 1.4l.6 1.2c.2.4.4.7.6 1.1.2.3.3.7.3 1.1 0 .3-.2.8-.5 1.5-.7 1.8-1.2 3.8-1.6 5.9-.4 2.1-.6 4.3-.6 6.5 0 4.2.7 8 2.1 11.5s3.3 6.5 5.8 9 5.5 4.5 8.9 5.9c3.5 1.4 7.2 2.1 11.4 2.1 5.1 0 9.8-.8 14.2-2.5zm-25.6-13.5c-1.7-1.8-3-3.9-4-6.5-.9-2.5-1.4-5.3-1.4-8.3 0-6.2 1.6-10.9 4.7-14.1 3.2-3.2 7.8-4.7 14.1-4.7 3.6 0 6.7.4 9.6 1.3 2.8.9 5.2 2.1 7.1 3.7 1.9 1.6 3.4 3.6 4.4 5.9 1 2.3 1.5 5 1.5 7.9 0 3-.5 5.7-1.6 8.2s-2.6 4.7-4.6 6.5c-1.9 1.8-4.3 3.2-7 4.2s-5.7 1.5-9 1.5c-2.8 0-5.4-.5-7.8-1.5-2.3-.9-4.3-2.3-6-4.1zm124-23.1c1.7-2.7 2.6-5.6 2.6-8.6 0-2.6-.7-5.1-2.2-7.3s-3.5-4.2-6.1-5.8-5.7-2.9-9.2-3.9c-3.6-.9-7.4-1.4-11.6-1.4-5.9 0-11.2.5-16 1.5s-8.9 2.4-12.3 4.3c-3.4 1.8-6 4-7.9 6.6s-2.8 5.5-2.8 8.6c0 2.3.5 4 1.5 5.2s2.2 1.8 3.7 1.8c2 0 3.6-.3 4.5-1 1-.6 1.7-1.4 2-2.4.4-.9.5-2 .5-3.1s0-2.1.1-3.1c.1-.9.3-1.7.6-2.4.4-.6 1.1-1 2.2-1 1.2 0 2.1.7 2.6 2 .5 1.4.9 3.5 1.2 6.4.2 2 .4 4.3.6 6.8.2 2.5.4 5.1.7 7.8l.6 8.1c.2 2.7.4 5.3.5 7.7.2 2.4.3 4.6.4 6.6.1 2 .1 3.6.1 4.9 0 1.2.5 2.1 1.5 2.7s2.4.9 4.3.9 3.4-.5 4.4-1.4 1.5-2.4 1.5-4.5c0-1.2-.1-2.5-.2-4s-.3-3-.4-4.6c-.1-1.5-.3-3-.4-4.4-.1-1.4-.2-2.6-.2-3.5 0-1.4.7-2.2 2-2.4 4.7-.9 9.1-2.3 13.3-3.9 4.1-1.7 7.7-3.7 10.7-5.9 3.1-2.1 5.5-4.6 7.2-7.3zM225 185c-.8 1.1-1.9 2.2-3.2 3.3s-2.9 2.1-4.5 3.1c-1.7 1-3.4 1.8-5.2 2.6s-3.5 1.3-5.1 1.8c-1.7.4-3.1.7-4.4.7-.5 0-.8-.2-1-.6-.2-.4-.4-1.2-.5-2.3-.2-1.6-.4-3.4-.7-5.4-.2-2-.4-3.9-.6-5.7-.2-1.8-.3-3.4-.5-4.8-.1-1.4-.2-2.3-.2-2.6 0-.6.1-1 .3-1.4s.6-.7 1.1-.9 1.2-.4 2.1-.5c.9-.1 2-.1 3.3-.1 2.7 0 5.2.3 7.7.8 2.4.5 4.6 1.2 6.4 2.2 1.9.9 3.3 1.9 4.4 3.1 1.1 1.2 1.6 2.4 1.6 3.7.3.8-.1 1.8-1 3zm77.8 57.9c.7-.1 1.5-.2 2.3-.4 2.6-.6 4-2.1 4-4.4 0-1-.1-2.3-.3-3.8-.2-1.5-.5-3-.8-4.6s-.6-3.2-1-4.6c-.3-1.5-.6-2.7-.8-3.8 0-.1-.1-.2-.1-.4 0-.1-.1-.2-.1-.4v-.4c0-1.2.6-2 1.9-2.6 2.1-1.1 4-2.4 5.8-3.9 1.7-1.5 3.2-3.3 4.4-5.2 1.2-2 2.2-4.2 2.9-6.6.7-2.4 1-5.1 1-8 0-3.5-.5-6.7-1.6-9.6-1-2.9-2.4-5.6-4.2-8-1.8-2.4-3.9-4.5-6.2-6.3-2.4-1.8-4.9-3.3-7.6-4.6-2.7-1.2-5.4-2.2-8.2-2.8-2.8-.6-5.5-.9-8.2-.9-3.3 0-6.6.3-9.8.8-3.3.5-6.3 1.4-9.3 2.6-2.9 1.2-5.7 2.7-8.1 4.6-2.5 1.9-4.6 4.1-6.3 6.8-.7 1-1.1 2-1.1 3 0 .7.2 1.3.7 1.7.4.5 1 .7 1.7.8.6.1 1.1.3 1.5.7.4.4.7.8.9 1.3.2.5.3 1.1.4 1.7.1.6.1 1.2.1 1.8s0 1.3-.1 1.9c0 .6-.1 1.1-.1 1.5 0 4.2.8 8.1 2.5 11.8s4 7 7 9.8 6.6 5 10.7 6.7c4.2 1.6 8.7 2.5 13.8 2.5h1.6c.5 0 1 .2 1.4.6.4.4.7 1 .9 1.9.6 2.5 1.1 5 1.6 7.5s.9 5 1.3 7.7c.3 2.7 1.7 4 4 4 .3-.3.8-.3 1.5-.4zm-3.4-43.6c-.4-1.5-.9-2.9-1.4-4.2s-1.1-2.4-1.7-3.2c-.6-.9-1.4-1.3-2.3-1.3-.2 0-.5 0-.7.1-.2 0-.5.1-.9.3-.4.1-.8.3-1.3.6-.5.2-1.2.6-2 .9-1.9.9-2.9 2.3-2.9 4.1 0 .6.1 1.3.3 2l2.9 8.8c.1.3.1.5.2.7 0 .2.1.3.1.5 0 .6-.2 1-.5 1.4-.4.4-.8.6-1.4.6h-.5c-.2 0-.3 0-.5-.1-2.9-.7-5.6-1.7-7.9-3.1-2.3-1.4-4.3-2.9-5.8-4.7-1.6-1.8-2.8-3.7-3.6-5.8-.8-2.1-1.2-4.2-1.2-6.4 0-2.9.3-5.4.8-7.7s1.4-4.2 2.7-5.8c1.3-1.6 3.1-2.8 5.4-3.6s5.2-1.2 8.7-1.2c2.9 0 5.9.6 8.9 1.7s5.6 2.7 8 4.8c2.3 2.1 4.3 4.7 5.7 7.7 1.5 3 2.2 6.5 2.2 10.3 0 1.2-.2 2.5-.6 3.8s-.9 2.6-1.6 3.7c-.6 1.1-1.4 2.1-2.1 2.8-.8.7-1.6 1.1-2.4 1.1-.7 0-1.3-.4-1.8-1.3s-1-1.9-1.4-3.2c-.6-1.4-1-2.8-1.4-4.3zm94.9 22.9c.8.2 1.5.3 2.1.3 1.6 0 3-.8 4.1-2.4.5-.6 1-1.4 1.4-2.1.4-.8.7-1.5.7-2.3 0-1.6-1-2.8-3.1-3.5-4.3-1.5-8.6-2.9-12.9-4.2-4.2-1.2-8.4-2.6-12.4-4-1.2-.5-1.8-1.1-1.8-1.9 0-.7.5-1.3 1.6-2 1.3-.7 2.7-1.5 4.3-2.4 1.6-.9 3.2-2 4.8-3.1 1.6-1.1 3.2-2.4 4.8-3.7 1.5-1.4 2.9-2.8 4.1-4.3s2.2-3.1 2.9-4.8c.7-1.7 1.1-3.4 1.1-5.2 0-2.6-.5-4.7-1.4-6.4s-2.2-3.1-3.7-4.1-3.2-1.7-5.1-2.2c-1.9-.4-3.8-.6-5.8-.6-4.2 0-8.4.5-12.5 1.5s-8.2 2.3-12.1 3.9c-2 .9-3 2.2-3 4 0 .3 0 .6.1 1s.2.9.4 1.4c.7 2.2 1.9 3.2 3.7 3.2.7 0 1.5-.2 2.2-.5 1.4-.6 2.8-1.1 4.3-1.6s3-1 4.6-1.4c1.5-.4 3.1-.7 4.7-1 1.6-.2 3.1-.4 4.5-.4 1.5 0 2.7.1 3.7.3s1.7.5 2.3 1c.6.4 1 .9 1.2 1.5s.3 1.2.3 1.9c0 1.1-.5 2.3-1.4 3.5s-2.1 2.5-3.5 3.8c-1.5 1.3-3.1 2.6-4.9 3.9-1.8 1.3-3.7 2.5-5.6 3.7s-3.7 2.2-5.4 3.1c-1.7.9-3.2 1.7-4.4 2.4-.4.2-.8.3-1.1.4-.3.1-.6.1-.8.1-.8 0-1.3-.7-1.6-2-.6-2.7-1.2-5.4-1.9-8.2-.7-2.8-1.4-5.6-2.2-8.6-.6-2.3-1.9-3.5-4-3.5-.2 0-.3 0-.5.1-.2 0-.4.1-.7.2-.3.1-.7.2-1.2.4s-1.2.4-2 .6c-2.2.7-3.2 2.1-3.2 4.1v.8c0 .3.1.6.2 1 1.8 6.7 3.4 13.3 4.8 20s2.6 13.5 3.5 20.3c.3 2.6 1.5 3.9 3.6 3.9.3 0 .7 0 1-.1s.6-.1 1-.3l2.6-.8c2.3-.8 3.5-2.3 3.5-4.4 0-.6-.1-1.3-.2-2.2s-.3-1.8-.4-2.8c-.2-1-.3-1.9-.5-2.9-.2-.9-.3-1.7-.4-2.2 0-.2 0-.4-.1-.5 0-.2-.1-.3-.1-.4 0-.4.1-.7.3-.8.2-.1.4-.2.7-.2.3 0 .9.1 1.8.3 2.4.8 5 1.6 7.9 2.5 2.8.9 5.7 1.9 8.6 2.9s5.8 2 8.6 3 5.4 2 7.9 3zm63.4-2.4c2-1.4 3.6-3.1 4.8-5.2 1.2-2.1 1.9-4.5 1.9-7.2 0-2.2-.5-4.4-1.6-6.5-1-2.1-2.4-4.1-4.1-5.9-1.7-1.9-3.7-3.6-5.9-5.3-2.2-1.7-4.4-3.3-6.7-4.8s-4.5-2.9-6.7-4.2-4.1-2.5-5.9-3.6c-1.7-1.1-3.1-2.1-4.1-3s-1.6-1.7-1.6-2.4.2-1.3.7-1.8 1.1-.8 1.9-1.1c.8-.2 1.7-.4 2.6-.5 1-.1 1.9-.1 2.9-.1 1.7 0 3.5.2 5.2.5 1.7.4 3.4.5 4.9.5 1.1 0 2-.3 2.7-.8s1.3-1.4 1.8-2.5c.5-1.2.9-2 1-2.5s.2-.9.2-1.3c0-1.1-.4-1.9-1.3-2.4-.9-.6-2-1-3.3-1.3s-2.7-.5-4.2-.5c-1.5-.1-2.9-.1-4.1-.1-1.7 0-3.5.1-5.4.4-1.9.3-3.7.7-5.6 1.3s-3.6 1.3-5.3 2.1c-1.7.8-3.2 1.8-4.5 2.8-1.3 1.1-2.3 2.2-3.1 3.5-.8 1.3-1.2 2.7-1.2 4.2 0 1.6.6 3.2 1.7 4.7 1.1 1.6 2.6 3.1 4.4 4.6s3.9 3.1 6.2 4.6c2.3 1.5 4.7 3.1 7.1 4.6s4.8 3 7.1 4.6c2.3 1.5 4.4 3.1 6.2 4.6 1.8 1.5 3.3 3.1 4.4 4.6s1.7 3.1 1.7 4.7c0 .8-.2 1.5-.6 2.1-.4.5-.9 1-1.6 1.3-.6.3-1.4.6-2.2.7-.8.1-1.6.2-2.3.2-2.5 0-4.9-.4-7.2-1.2-2.3-.8-4.4-1.9-6.2-3.4-1.8-1.5-3.3-3.2-4.4-5.1-1.1-1.9-1.7-4.1-1.7-6.3 0-1.2-.4-2.1-1.3-2.9-.9-.7-1.8-1.3-2.9-1.6-.9-.3-1.6-.5-2-.5-.4-.1-.7-.1-1-.1-.9 0-1.7.2-2.3.7-.6.5-1.1 1.1-1.4 1.8s-.6 1.6-.7 2.6-.2 1.9-.2 2.9c0 2.2.4 4.4 1.2 6.4.8 2 1.9 3.9 3.3 5.7s3.1 3.3 5 4.8c1.9 1.4 4 2.6 6.1 3.6 2.2 1 4.5 1.8 6.8 2.3 2.4.5 4.7.8 7 .8s4.6-.3 7-1c2.7-.7 4.8-1.7 6.8-3.1zm66.1-53.8c.3-.5.5-1.1.6-1.8s.2-1.4.2-2.1c0-1.4-.3-2.5-.9-3.3-.6-.8-1.5-1.2-2.8-1.2-1 0-2.1.1-3.3.2-1.2.2-2.4.3-3.7.6-1.3.2-2.5.5-3.8.8-1.2.3-2.4.6-3.5.9-1 .3-1.9.5-2.7.7-.8.2-1.7.3-2.7.5-4.5.8-8.9 1.6-13.3 2.4-4.4.8-8.8 1.5-13.2 2.2-.9.2-1.6.4-2.2.9-.6.4-1 .9-1.4 1.5-.3.6-.6 1.2-.7 1.9s-.2 1.4-.2 2.1c0 2.6 1.3 4 3.8 4 .3 0 .8-.1 1.6-.2s1.8-.3 2.9-.5 2.3-.4 3.5-.7c1.2-.2 2.4-.5 3.6-.7 1.1-.2 2.1-.3 3-.5.8-.1 1.4-.2 1.7-.2 1.5 0 2.3.9 2.3 2.8 0 1.3 0 2.6.1 3.9 0 1.2.1 2.4.2 3.5.2 6.5.7 13 1.5 19.5.8 6.4 1.7 12.9 2.8 19.4.2 1.2.6 2.1 1.2 2.7.6.6 1.4.9 2.4.9.6 0 1.3-.1 2-.3l2.6-.8c2.3-.9 3.5-2.3 3.5-4.4v-.6c0-.2 0-.4-.1-.6-.8-5.4-1.6-10.8-2.3-16.2s-1.2-10.7-1.6-16.2c-.1-1.6-.2-3.2-.4-4.8-.1-1.6-.2-3.2-.2-4.8v-2.1c0-.7.1-1.5.2-2.2.1-.8.4-1.4.7-1.9.4-.5.9-.9 1.7-1.1 1.8-.5 3.9-1 6.4-1.4 2.5-.4 4.8-.8 6.9-1.1.8-.1 1.5-.3 2-.6.9-.1 1.3-.6 1.6-1.1zm25.1 9c0-.2 0-.4.1-.5 0-.2.1-.3.1-.5 0-1.2-.4-2.2-1.1-2.8-.7-.7-1.8-1-3.1-1-2.5 0-4.2.3-5.3 1s-1.7 1.7-1.9 3c-.5 2.9-1 6-1.4 9.4-.4 3.3-.6 6.7-.6 10 0 4.8.7 9.2 2 13.2 1.3 4.1 3.3 7.6 5.8 10.5 2.6 3 5.7 5.3 9.5 7s8.1 2.5 12.9 2.5c4.5 0 8.5-.7 12.2-2.1 3.6-1.4 6.8-3.3 9.4-5.8 2.6-2.5 4.6-5.5 6-9s2.1-7.4 2.1-11.7c0-3.1-.3-6-.9-8.9s-1.4-5.7-2.4-8.4-2.2-5.4-3.5-8-2.7-5.1-4.1-7.7c-.9-1.7-2.1-2.6-3.5-2.6-.9 0-1.9.3-2.9 1l-2.3 1.5c-1.5 1-2.3 2.3-2.3 3.7 0 .8.3 1.8.8 2.8 1.2 2.3 2.4 4.5 3.5 6.7s2.1 4.5 2.9 6.8c.9 2.3 1.5 4.6 2 6.9.5 2.3.8 4.7.8 7.1 0 2.4-.3 4.7-.9 6.7-.6 2.1-1.5 3.9-2.8 5.4-1.2 1.5-2.8 2.7-4.6 3.6-1.9.9-4 1.3-6.4 1.3-4.3 0-7.8-.7-10.6-2s-5-3.2-6.6-5.5-2.7-5-3.3-8.2c-.6-3.1-.9-6.4-.9-9.9 0-2.7.1-5.4.4-8 .1-2.5.5-5 .9-7.5zm112 35.4c1-2.2 1.9-4.5 2.7-6.7s1.4-4.4 1.9-6.4.9-3.7 1.2-5.1c.5-1.9.9-4 1.4-6.1.5-2.2.9-4.3 1.2-6.4.4-2.1.7-4.1.9-6s.4-3.5.4-4.9c0-.9-.3-1.7-.8-2.5s-1.2-1.5-2.1-2c-.8-.6-1.7-1-2.7-1.4-.9-.3-1.8-.5-2.6-.5-.9 0-1.6.3-2.2.9-.6.6-.9 1.5-1 2.7-.2 2.3-.5 4.9-.9 7.9-.3 3-.7 6.1-1.2 9.3s-1 6.4-1.6 9.5-1.3 5.9-2.1 8.4-1.6 4.4-2.5 6c-.9 1.5-1.9 2.3-3 2.3-.8 0-1.8-.5-3-1.4s-2.4-2.2-3.7-3.7-2.7-3.3-4.2-5.4c-1.5-2-2.9-4.1-4.4-6.3s-2.9-4.4-4.2-6.6c-1.4-2.2-2.6-4.3-3.8-6.2-1.1-1.9-2.1-3.7-3-5.2-.8-1.5-1.5-2.7-1.9-3.5-1-1.7-2.2-2.6-3.5-2.6-.6 0-1.3.2-2.1.7s-1.7 1.1-2.5 1.8-1.5 1.5-2.1 2.3-.9 1.6-.9 2.2c0 1.4.3 2.9 1 4.5.7 1.7 1.7 3.5 2.9 5.5s2.6 4.1 4.2 6.4c1.6 2.3 3.3 4.7 5.1 7.3.9 1.2 1.9 2.7 3.1 4.3s2.5 3.3 3.9 5.1c1.4 1.7 2.9 3.4 4.4 5.1 1.5 1.7 3.1 3.2 4.7 4.5 1.6 1.3 3.2 2.4 4.8 3.2s3.1 1.2 4.6 1.2c2 0 3.9-.6 5.5-1.7s3.1-2.6 4.4-4.4c1.5-1.8 2.7-3.8 3.7-6.1zm114.1 1.3c2.1-3.3 3.7-7.1 4.9-11.5s1.8-9.1 1.8-14.1c0-2.3-.1-4.7-.4-7-.2-2.3-.6-4.7-1-7-.4-2.5-1.6-3.7-3.6-3.7-.6 0-1.3.1-2 .3l-2.6.9c-2.3.8-3.5 2.3-3.5 4.4v.6c0 .2 0 .4.1.6.3 2 .5 4.3.7 6.7s.3 4.9.3 7.4c0 2.3-.2 4.8-.7 7.4-.5 2.6-1.2 5-2.1 7.2-.9 2.2-2.1 4-3.4 5.4-1.4 1.4-2.9 2.2-4.6 2.2-1.9 0-3.6-.5-5.2-1.4-1.5-.9-2.9-2.2-4.1-3.6s-2.3-3.1-3.2-5c-.9-1.8-1.7-3.6-2.4-5.4-.2-.4-.3-.8-.4-1.1-.1-.3-.1-.7-.1-1 0-.6.1-1.2.4-1.8.5-2.1 1-4.2 1.4-6.4.4-2.1.6-4.2.6-6.3 0-1.9-.2-3.8-.7-5.6-.4-1.9-1.2-3.5-2.2-4.9-.5-.8-1.1-1.3-1.8-1.6s-1.4-.5-2.3-.5c-.8 0-1.6.1-2.5.2-.9.1-1.7.3-2.6.7-.8.3-1.6.7-2.2 1.2-.7.5-1.2 1.1-1.5 1.8-.6 1.3-1.1 2.7-1.4 4.3-.3 1.5-.4 3.1-.4 4.7 0 2.7.2 5.3.6 7.6.4 2.3.9 4.7 1.6 7 .1.3.1.7.2 1 0 .3.1.6.1.9 0 .6-.1 1.3-.3 2-.3.8-.8 1.8-1.4 2.9-.6 1.1-1.2 2.3-2 3.5-.7 1.2-1.5 2.4-2.4 3.6-.9 1.2-1.8 2.2-2.7 3.1-.9.9-1.9 1.7-2.9 2.2-1 .6-1.9.9-2.9.9-1.3 0-2.5-.5-3.7-1.5-1.1-1-2.1-2.4-3.1-4.1-.9-1.7-1.8-3.7-2.6-5.9s-1.4-4.6-2-7.1-1.1-5-1.6-7.6-.9-5-1.2-7.4c-.4-2.3-.7-4.5-.9-6.5s-.4-3.6-.6-4.9c-.4-2.6-1.8-4-4.1-4h-.6c-.2 0-.4 0-.7.1l-2.4.5c-2.6.5-3.9 2-3.9 4.4v.9c.4 3.5.8 7.3 1.3 11.3s1.2 8.1 2 12.1 1.8 7.9 3 11.6c1.2 3.7 2.7 7 4.4 9.9 1.8 2.9 3.8 5.2 6.2 6.9s5.2 2.6 8.4 2.6c2 0 3.9-.4 5.8-1.2s3.8-1.9 5.6-3.3c1.8-1.4 3.5-3.1 5-5.1 1.6-2 3-4.1 4.4-6.5.5-1 1.1-1.5 1.8-1.5s1.3.5 1.8 1.5c2.8 4.4 5.8 7.6 9.2 9.7s6.8 3 10.1 3c3.4 0 6.6-.9 9.5-2.8 3.1-2 5.6-4.6 7.7-7.9zm83.8 9.4l2-1.8c1.2-1 1.8-2.1 1.8-3.2 0-1.2-.7-2.3-2-3.3-4.3-3.3-8.7-6.7-13-10.1-4.3-3.4-8.7-6.8-13-10.2-.9-.7-1.4-1.5-1.4-2.4 0-.2 0-.5.1-.7s.2-.5.3-.8c1.9-3.7 3.8-7.4 5.8-11.1 2-3.6 4.1-7.2 6.3-10.8.3-.5.5-1 .7-1.5s.2-1 .2-1.4c0-1.4-.8-2.6-2.3-3.6l-.9-.6c-1.1-.6-2-1-2.8-1-1.4 0-2.6.8-3.6 2.3-2 3.3-4 6.7-6 10.1-1.9 3.4-3.8 6.9-5.6 10.4-.6 1.1-1.4 1.6-2.2 1.6-.3 0-.6-.1-.9-.2-.3-.2-.6-.3-1-.6-2.7-2.1-5.5-4.2-8.2-6.2s-5.5-4.1-8.3-6.1c-.5-.3-1-.6-1.5-.8s-.9-.3-1.4-.3c-1.3 0-2.5.6-3.6 1.9l-1.6 1.9c-.5.5-.8 1-1 1.6-.2.5-.3 1-.3 1.6 0 1.3.7 2.4 2.1 3.4 3.2 2.3 6.4 4.7 9.5 7.1 3.1 2.4 6.3 4.8 9.4 7.2.9.7 1.4 1.5 1.4 2.4 0 .2-.1.5-.2.7-.1.3-.2.5-.3.9-1.5 3.1-2.9 6.1-4.3 9.1s-2.6 5.8-3.8 8.6c-.3.7-.5 1.5-.5 2.3 0 1.6.9 2.9 2.8 3.8l1.5.7c.9.4 1.6.6 2.3.6 1.7 0 3-1 3.8-3l6.5-14.9c.6-1.1 1.3-1.7 2.2-1.7.3 0 .6.1.9.2.3.2.6.3.9.6l22.4 17.5c1.1.9 2.1 1.3 3.1 1.3 1.5 0 2.6-.5 3.7-1.5zm58.3-54.2l-2-1.1c-.5-.3-.9-.5-1.3-.6-.4-.1-.8-.2-1.2-.2-1.7 0-2.9 1.1-3.5 3.3l-5 19.9c-.2 1.4-.8 2-1.9 2-.5 0-1.2-.3-1.9-1-4.6-5-9.3-9.7-14.2-13.9s-10-8.4-15.3-12.3c-.5-.4-1-.7-1.6-.9-.5-.2-1-.3-1.4-.3-1.3 0-2.5.6-3.5 1.8l-1.6 1.9c-.5.5-.8 1-1 1.6-.2.5-.3 1-.3 1.6 0 1.4.7 2.5 2 3.5 6.3 4.7 12.4 9.7 18.2 14.8 5.8 5.2 11.4 10.7 16.7 16.6.3.4.6.8.8 1.2s.3.9.3 1.3c0 .2 0 .4-.1.6 0 .2-.1.4-.2.7-1.1 4.5-2.2 8.9-3.4 13.3-1.2 4.4-2.4 8.9-3.6 13.4-.1.3-.2.6-.2.9v.8c0 1 .3 1.8.8 2.5s1.4 1.2 2.5 1.5l1.9.6c.7.2 1.3.3 1.9.3 2 0 3.3-1.2 3.9-3.5 1.5-5.5 3-11.1 4.4-16.7 1.4-5.6 2.8-11.2 4.2-16.7s2.7-10.9 4-16.1c1.3-5.2 2.6-10.2 3.9-14.9.2-.7.3-1.3.3-1.9.1-1.6-.8-3-2.6-4zM39.5 377.7c.4-.6.7-1.1.7-1.7s-.2-1.1-.5-1.5c-.4-.4-.8-.6-1.2-.6-.3 0-.5 0-.8.1s-.5.2-.8.3l-.9.3c-.3.1-.7.1-1.1.1-1.2 0-2.2-.7-2.9-2s-1.1-3.5-1.2-6.4l-.1-2.4h.3c.4 0 .9-.1 1.3-.3.4-.2.8-.4 1.1-.7.3-.3.6-.6.8-1s.3-.8.3-1.2c0-1-.2-2-.7-2.8-.5-.9-1.1-1.6-1.9-2.2-.8-.6-1.7-1.1-2.7-1.4s-2.1-.5-3.2-.5c-1.4 0-2.9.3-4.5.9s-3.1 1.4-4.7 2.5c-1.5 1-3 2.2-4.4 3.6s-2.6 2.8-3.7 4.3-1.9 3-2.5 4.6c-.6 1.5-.9 3-.9 4.4 0 1 .2 1.9.5 2.7.3.8.8 1.5 1.3 2 .6.6 1.3 1 2.1 1.3.8.3 1.8.5 2.8.5 2.2 0 4.4-.6 6.7-1.9s4.4-3.2 6.4-5.7c.2-.2.4-.4.6-.4s.4.2.5.6c.5 2.5 1.4 4.5 2.6 5.8s2.6 2 4.2 2c.9 0 1.8-.1 2.7-.4s1.7-.7 2.4-1.1c.3-.7.9-1.2 1.4-1.8zm-12.6-15.6c-.6.1-1 .3-1.3.6-.3.3-.6.8-1 1.5-2 3.5-3.9 6.2-5.9 7.9-2 1.8-3.8 2.6-5.4 2.6-.6 0-1.2-.2-1.5-.6-.4-.4-.6-.9-.6-1.6 0-.8.2-1.6.7-2.6s1-2 1.8-2.9c.7-1 1.6-2 2.5-2.9s1.9-1.8 2.9-2.5 2-1.3 2.9-1.8c1-.4 1.8-.7 2.6-.7.7 0 1.3.2 1.7.6.4.4.8.9 1.2 1.4.1.2.2.4.2.5-.1.3-.3.4-.8.5zm48.4 9.6c.5-1.5.8-3 .8-4.7 0-1.8-.3-3.5-.8-5.1-.6-1.6-1.3-2.9-2.3-4.1s-2.1-2.1-3.4-2.7c-1.3-.7-2.7-1-4.3-1-4.1 0-7.6 1.9-10.5 5.8-.2.3-.5.5-.7.5-.3 0-.4-.3-.5-.8-.2-1.8-.4-3.6-.6-5.3s-.5-3.3-.7-4.7c-.2-1.4-.5-2.7-.7-3.8-.2-1.1-.4-1.9-.6-2.5-.5-1.2-1.3-1.7-2.6-1.7-.5 0-.9.1-1.3.2s-.8.3-1.1.5-.6.5-.8.9c-.2.3-.3.8-.3 1.2v.4c0 .2 0 .3.1.4 1 4.7 1.7 9.3 2.2 14s.9 9.4 1.3 14.1c.1 1.7.9 2.6 2.5 2.6.5 0 1-.1 1.3-.2.4-.1.7-.3 1-.7.2-.3.5-.4.7-.4s.4.1.6.2c1.6 1.3 3.3 2.3 5.2 3 1.8.7 3.7 1.1 5.6 1.1 1.5 0 3-.3 4.3-.9s2.4-1.4 3.4-2.5 1.7-2.3 2.2-3.8zm-6.6.4c-.8.9-1.9 1.3-3.3 1.3-.6 0-1.3-.1-2.1-.3-.7-.2-1.5-.6-2.3-1s-1.5-.9-2.3-1.4-1.5-1.1-2.3-1.8c-.2-.2-.4-.4-.4-.8v-.3c0-.1.1-.2.1-.3.4-1.2.9-2.2 1.5-3.2s1.3-1.8 2-2.5 1.5-1.2 2.3-1.6 1.6-.6 2.4-.6 1.5.2 2.2.7c.7.4 1.3 1 1.7 1.8.5.8.9 1.7 1.2 2.8.3 1.1.4 2.2.4 3.5 0 1.6-.4 2.9-1.1 3.7zm37.4 2.1c-.2-.2-.4-.4-.7-.6s-.5-.2-.7-.2c-.4 0-.9.2-1.3.5s-.9.6-1.4 1-1.1.7-1.8 1c-.7.3-1.5.5-2.4.5-2 0-3.5-.7-4.6-2.2s-1.6-3.7-1.6-6.5c0-1 .1-1.9.3-2.8.2-.8.5-1.6.9-2.2s.9-1.1 1.5-1.4 1.2-.5 2-.5c.7 0 1.4.2 1.9.5s1 .7 1.5 1.2l1.2 1.2c.4.4.8.5 1.3.5.4 0 .8-.1 1.2-.3.4-.2.7-.4 1-.8.3-.3.5-.7.7-1.1s.3-.8.3-1.3c0-.7-.2-1.4-.7-2-.5-.7-1.1-1.2-1.8-1.8-.8-.5-1.6-.9-2.6-1.2-1-.3-2-.5-3.1-.5-1.7 0-3.3.3-4.8 1s-2.7 1.7-3.8 2.9-1.9 2.7-2.5 4.4c-.6 1.7-.9 3.6-.9 5.6 0 1.9.3 3.6.8 5.1s1.3 2.9 2.3 4 2.1 2 3.5 2.6c1.3.6 2.8.9 4.4.9 1.2 0 2.4-.2 3.7-.5 1.3-.4 2.4-.8 3.4-1.4s1.9-1.2 2.5-1.9c.7-.7 1-1.4 1-2.1 0-.3-.1-.6-.2-.9-.2-.2-.3-.5-.5-.7zm45.2 2.2c.3-.5.5-1 .5-1.5 0-.6-.1-1.1-.4-1.5s-.6-.6-1-.6c-.6 0-1.1.1-1.5.2s-.9.2-1.4.2c-.9 0-1.7-.2-2.5-.7s-1.4-1.2-1.9-2.2-.9-2.2-1.2-3.7-.4-3.3-.4-5.3c0-1.3 0-2.7.1-4.1s.1-2.6.2-3.8c.1-1.2.1-2.3.2-3.2.1-.9.1-1.7.1-2.1 0-1.3-.3-2.2-.8-2.7s-1.4-.8-2.7-.8-2.2.3-2.7.8-.8 1.4-.8 2.6v9.5c0 .6-.2.9-.7.9-.2 0-.3 0-.4-.1-1-.3-2-.5-3-.6s-1.9-.2-2.7-.2c-2.1 0-4.1.4-5.9 1.1s-3.5 1.8-4.8 3.1c-1.4 1.3-2.5 2.8-3.3 4.5s-1.2 3.6-1.2 5.5c0 1.5.3 2.9.8 4.2.5 1.3 1.3 2.4 2.3 3.4s2.1 1.7 3.5 2.2c1.3.5 2.8.8 4.5.8 1.5 0 3-.2 4.4-.7 1.4-.4 2.7-1.1 3.8-1.9 1.2-.8 2.2-1.9 3.1-3 .9-1.2 1.6-2.5 2.1-4 .1-.3.2-.5.4-.5.1 0 .2.2.3.5.7 2.1 1.7 3.7 3.1 4.7 1.4 1 2.9 1.5 4.6 1.5.8 0 1.5-.1 2.2-.3.7-.2 1.3-.5 1.9-.8.5-.5.9-.9 1.2-1.4zm-16.8-10.2c-.1.7-.4 1.5-.7 2.4s-.7 1.8-1.2 2.8-1.1 1.8-1.8 2.6-1.5 1.4-2.4 1.9-1.9.8-3.1.8c-.9 0-1.7-.2-2.4-.5s-1.4-.7-1.9-1.3c-.5-.5-.9-1.2-1.2-2-.3-.8-.4-1.7-.4-2.6 0-1.1.2-2.1.6-3s.9-1.7 1.6-2.4c.7-.7 1.5-1.2 2.5-1.6s2.1-.5 3.3-.5c.4 0 .9 0 1.4.1.5 0 1.1.1 1.6.2.6.1 1.1.2 1.7.3.6.1 1.2.2 1.7.4.2.1.4.2.5.4.1.2.2.4.2.6.2.2.1.7 0 1.4zm51.3 7.7c-.3-.3-.6-.6-.9-.8-.3-.2-.6-.2-.9-.2-.6 0-1.1.3-1.7.8-.8.6-1.6 1.1-2.4 1.6-.9.5-1.7.8-2.6 1.2-.9.3-1.8.6-2.7.7-.9.2-1.8.3-2.7.3s-1.8-.1-2.7-.3c-.9-.2-1.6-.5-2.3-.9s-1.2-.8-1.6-1.3c-.4-.5-.6-1-.6-1.5 0-.3.1-.6.4-.8.3-.2.6-.3 1-.3l10.5-1.1c1.1-.1 2.1-.3 2.9-.6.9-.3 1.6-.7 2.2-1.3.6-.5 1.1-1.1 1.4-1.8.3-.7.5-1.4.5-2.3 0-1.2-.3-2.3-.8-3.3-.6-1-1.3-1.9-2.3-2.7-1-.8-2.1-1.4-3.4-1.8-1.3-.4-2.7-.7-4.2-.7-1.4 0-2.9.2-4.2.7s-2.7 1.1-3.9 1.9-2.3 1.8-3.3 3-1.8 2.4-2.4 3.8c-.3.8-.9 1.2-1.8 1.2h-.5c-.6 0-1.1.2-1.4.5-.3.3-.5.9-.6 1.6l-.1.6c0 .1-.1.3-.1.5 0 .7.2 1.2.6 1.6.4.4 1 .5 1.7.5.3 0 .6.1.7.3.2.2.3.5.5 1.1.3 1.4.9 2.6 1.6 3.7.8 1.1 1.7 2 2.8 2.8s2.4 1.4 3.8 1.8c1.4.4 3 .6 4.6.6 1.3 0 2.6-.1 3.9-.3 1.3-.2 2.6-.6 3.8-1s2.4-1 3.6-1.6c1.1-.6 2.2-1.4 3.2-2.2.6-.5.9-1.1.9-1.7 0-.3-.1-.6-.2-.9.2-.6 0-1-.3-1.4zm-20-9c.4-.5 1-.9 1.7-1.3s1.5-.7 2.4-1 1.7-.4 2.6-.4c.6 0 1.1.1 1.6.2s1 .3 1.3.5c.4.2.7.5.9.7.2.3.3.5.3.9 0 .3-.1.6-.3.9-.2.2-.5.4-.8.4-.7.1-1.5.3-2.5.4s-1.9.3-2.8.4c-.9.1-1.8.2-2.6.3-.8.1-1.3.1-1.7.1-.6 0-.9-.2-.9-.7s.4-1 .8-1.4zm40.8-17.9c.4-1.1.9-1.9 1.6-2.7s1.3-1.4 2.1-2l.3-.3c.1-.1.1-.3.1-.4 0-.5-.2-1-.5-1.5s-.7-.9-1.2-1.3-1-.7-1.6-1-1.1-.4-1.6-.4c-.3 0-.5.1-.9.3-.3.2-.6.3-.8.5-.7.5-1.4 1.2-2 2.1s-1.1 2.1-1.6 3.6-.9 3.3-1.2 5.4-.6 4.7-.8 7.6c-.1.6-.4.9-.9 1-1.1.1-2.2.1-3.1.2-1 .1-1.8.1-2.6.1-.2 0-.5.1-.6.2-.2.2-.3.3-.5.6s-.2.5-.3.8-.1.6-.1 1c0 .7.1 1.3.4 1.9.3.6.7.9 1.1.9l5.3-.4c.7 0 1 .3 1 .9 0 .7-.1 1.4-.1 2.1v2.2c0 2.9 0 5.6.1 8 0 2.4.1 4.7.2 6.7.1 2.1.2 3.9.3 5.6s.3 3.2.5 4.7c.1.4.3.7.7.9.4.2.8.3 1.4.3.5 0 1.1-.1 1.7-.2.6-.1 1.2-.3 1.7-.6s.9-.5 1.3-.9c.3-.3.5-.7.5-1.2 0-.6-.1-1.5-.3-2.8s-.5-3-.7-5.2c-.3-2.2-.5-4.9-.7-8.1s-.3-7.1-.3-11.5c0-.5 0-.9.1-1.2s.3-.5.8-.5l8.1-.9c.3 0 .6-.2.8-.4.2-.2.4-.5.5-.8s.2-.6.3-1 .1-.8.1-1.1c0-.6-.1-1.2-.3-1.6s-.4-.7-.8-.7c-.5 0-1.1.1-1.7.2s-1.3.2-2.1.4c-.7.1-1.5.3-2.3.4s-1.6.2-2.4.2c-.3 0-.5-.1-.6-.2-.1-.2-.2-.4-.2-.7.1-2.1.4-3.9.6-5.3.5-1.6.8-2.8 1.2-3.9zm21.4 33.3c3.1 0 5.9-.6 8.5-1.9 2.5-1.3 4.8-3.2 6.7-5.8.2-.3.4-.4.7-.4s.5.3.5.9c-.8 13.5-3.4 20.2-7.8 20.2-.8 0-1.4-.2-2-.5-.5-.3-1-.7-1.3-1.2s-.7-1-.9-1.5c-.2-.6-.5-1.1-.7-1.5-.2-.5-.5-.9-.7-1.2-.3-.3-.6-.5-1-.5s-.8.1-1.3.4-1 .6-1.5 1-.9.8-1.2 1.2c-.3.4-.5.8-.5 1.1 0 .9.3 1.9 1 2.9s1.5 1.9 2.6 2.7c1.1.8 2.2 1.5 3.5 2s2.5.8 3.7.8c2.6 0 4.8-.7 6.6-2.2s3.3-3.8 4.4-7.1c1.1-3.2 2-7.5 2.5-12.6.5-5.2.8-11.5.8-18.9 0-.6-.2-1.1-.7-1.5-.4-.4-1.1-.6-1.8-.6s-1.2.1-1.6.3c-.4.2-.7.4-1 .6l-.6.6c-.2.2-.3.3-.5.3s-.6-.1-1.1-.2c-.5-.2-1.1-.3-1.8-.5s-1.5-.3-2.4-.5-1.8-.2-2.8-.2c-1.6 0-3.1.2-4.6.6s-2.9.9-4.2 1.6-2.6 1.5-3.7 2.4c-1.1.9-2.1 2-2.9 3.1-.8 1.1-1.5 2.3-1.9 3.5s-.7 2.5-.7 3.8.2 2.5.7 3.6 1.2 2 2.1 2.8c.9.8 1.9 1.4 3.1 1.8 1.1.4 2.4.6 3.8.6zm-2.9-12.7c.6-1 1.5-2 2.5-2.8s2.2-1.5 3.6-1.9 2.7-.7 4.2-.7c.9 0 1.8.1 2.7.2s1.7.2 2.4.4 1.2.4 1.7.6c.4.2.6.4.6.6v.2c0 .1-.1.2-.1.3-1.6 3.3-3.6 5.9-5.9 7.6-2.3 1.8-4.9 2.6-7.6 2.6-1.4 0-2.6-.4-3.5-1.1s-1.3-1.7-1.3-2.9c-.2-1 .1-2.1.7-3.1zm43.1 15.2c.4-.1.7-.2 1-.4.3-.2.5-.4.7-.7.2-.3.4-.7.5-1.2 1.7-5.1 3.3-8.9 4.8-11.5 1.6-2.5 3.1-3.8 4.7-3.8.7 0 1.3.4 1.9 1.1s1.1 1.8 1.6 3c.4 1.3.8 2.8 1 4.5.3 1.7.4 3.5.4 5.4 0 .8.2 1.3.6 1.7.4.4 1.1.5 2.1.5.7 0 1.3-.1 1.7-.2.5-.1.8-.3 1.1-.6.3-.3.5-.7.6-1.1.1-.5.2-1.1.2-1.8 0-2.7-.2-5.2-.7-7.4s-1.1-4.1-2-5.7-1.9-2.8-3.1-3.6c-1.2-.9-2.6-1.3-4.1-1.3-1.1 0-2.2.2-3.3.7-1.1.4-2.1 1.1-3.1 1.9s-1.9 1.9-2.7 3.1-1.6 2.6-2.3 4.1c-.2.4-.4.5-.5.5s-.2-.1-.3-.2c-.1-.1-.1-.3-.1-.6-.2-2.7-.3-5.1-.4-7.1s-.3-3.7-.4-5.2-.3-2.9-.4-4.1-.3-2.4-.5-3.7c-.1-.5-.3-.8-.6-1.1-.4-.3-.8-.4-1.3-.4-2.8 0-4.3 1.1-4.3 3.3 0 .7.1 2 .4 3.8s.5 4 .9 6.6c.3 2.6.7 5.5 1 8.7s.5 6.6.7 10.1c0 .9.3 1.6.7 2s1.2.6 2.3.6c.3.2.8.2 1.2.1zm40.6-14.6c-.1-1.3-.2-2.6-.2-3.8s-.2-2.4-.3-3.5c-.1-1.1-.2-2.1-.3-2.9-.1-1.3-1.1-1.9-2.9-1.9-1 0-1.8.2-2.4.7s-.9 1-.9 1.7c0 .5.1 1.3.2 2.6s.3 2.9.4 4.8c.2 1.9.3 4.1.4 6.5s.2 5.1.2 7.9c0 .6.2 1 .5 1.3.4.3.8.4 1.5.4 1.4 0 2.4-.3 3.1-.8s1.1-1.3 1.1-2.3 0-2-.1-3.2c0-1.2-.1-2.4-.2-3.7.1-1.2 0-2.5-.1-3.8zm.4-23.1c-.2-.4-.5-.8-.9-1.1-.4-.3-.8-.6-1.3-.8-.5-.2-1-.3-1.5-.3-1.1 0-2 .3-2.7.8s-1 1.2-1 2.1c0 .5.1 1 .3 1.4.2.4.5.8.9 1.1.4.3.8.6 1.3.7.5.2 1.1.3 1.7.3 1.1 0 2-.2 2.6-.7s1-1.2 1-2.1c-.1-.5-.2-.9-.4-1.4zm16.7 6.4c.5.2 1 .3 1.6.3 1.2 0 2-.2 2.7-.7.6-.5.9-1.1.9-2 0-.5-.1-.9-.3-1.4-.2-.4-.5-.8-.9-1.2-.4-.3-.8-.6-1.3-.8-.5-.2-1-.3-1.6-.3-1.1 0-2 .3-2.6.8s-1 1.2-1 2.1c0 .5.1.9.3 1.4.2.4.5.8.9 1.1.3.2.8.5 1.3.7zm5.9 17.7c-.3-2.2-.6-4.2-.9-6.1-.4-1.9-.7-3.5-1.2-5-.3-.9-1.3-1.4-2.8-1.4-1.1 0-2 .3-2.6.7-.6.4-.9 1-.9 1.7 0 .6.1 1.6.4 2.8.3 1.2.6 2.9 1 5 .3 2.1.7 4.6 1 7.6s.4 6.6.4 10.7c0 1.1 0 2-.1 2.6-.1.7-.2 1.2-.4 1.6-.2.4-.5.7-.8.8-.3.2-.8.2-1.3.2-.9 0-1.7-.1-2.4-.4-.7-.3-1.4-.6-2.1-1.1-.6-.4-1.2-.9-1.8-1.4-.5-.5-1-.9-1.5-1.4-.5-.4-.9-.8-1.3-1.1-.4-.3-.8-.4-1.2-.4-.3 0-.7.1-1.1.3-.4.2-.8.5-1.1.8-.4.3-.7.7-.9 1.1-.2.4-.4.7-.4 1 0 .6.2 1.2.6 1.9.4.6 1 1.3 1.7 1.9s1.5 1.2 2.4 1.8 1.9 1.1 2.9 1.5 2.1.7 3.2 1 2.1.4 3.1.4c1.7 0 3.1-.2 4.2-.7s2.1-1.2 2.8-2.3c.7-1.1 1.2-2.4 1.5-4.2.3-1.7.4-3.9.4-6.4 0-2.4-.1-4.8-.2-7.1-.1-2-.3-4.2-.6-6.4zm42.7 10.1c-2.6-.5-4.9-1.1-6.9-1.7s-3.7-1.2-5.1-1.9c-1.4-.6-2.5-1.3-3.2-1.9-.7-.7-1.1-1.3-1.1-1.9 0-.7.2-1.4.7-2.1s1.1-1.4 1.9-2.1c.7-.7 1.5-1.4 2.4-2.2.9-.7 1.7-1.6 2.4-2.4.7-.9 1.4-1.8 1.9-2.7.5-1 .7-2 .7-3.1s-.3-1.9-.9-2.5-1.4-.9-2.5-.9c-1.8 0-3.6.9-5.5 2.8s-3.7 4.5-5.4 8c-.2.4-.4.5-.6.5-.1 0-.2-.1-.3-.2-.1-.1-.2-.3-.2-.6-.1-1.9-.2-3.6-.3-5.1-.1-1.5-.2-2.8-.2-4-.1-1.2-.1-2.2-.2-3.1s-.1-1.8-.2-2.6c-.1-.6-.2-1.1-.3-1.5-.1-.4-.3-.7-.5-1-.2-.2-.5-.4-.9-.5s-.8-.2-1.3-.2c-1.2 0-2 .2-2.6.6s-.9 1-.9 1.9c0 .5.1 1.3.2 2.6.1 1.2.2 2.7.4 4.3.2 1.7.3 3.5.5 5.6.2 2 .3 4.1.5 6.2s.3 4.2.4 6.3c.1 2.1.2 4 .2 5.7 0 .9.2 1.5.5 1.8.4.3 1 .5 1.9.5.7 0 1.3-.1 1.7-.2.5-.1.8-.3 1.1-.5.3-.3.5-.6.6-1s.2-1 .2-1.7v-.6c0-.1.1-.1.2-.1s.2 0 .3.1c.1.1.3.2.5.3.7.5 1.6 1 2.5 1.5s2 1 3.1 1.5 2.2.9 3.4 1.3c1.2.4 2.3.8 3.4 1.1 1.1.3 2.1.6 3.1.7 1 .2 1.8.3 2.5.3.3 0 .7-.1 1.1-.4s.7-.6 1-1 .6-.8.8-1.3c.2-.5.3-.9.3-1.4 0-.4-.1-.7-.3-.9-.3 0-.6-.2-1-.3zm12.9-.8c.3-.3.5-.7.7-1.2.1-.5.2-1.1.2-1.9 0-.7 0-1.7-.1-2.9s-.2-2.6-.4-4.2-.4-3.3-.6-5.2c-.2-1.9-.5-3.8-.7-5.7-.3-2-.5-3.9-.8-5.9s-.5-3.9-.8-5.7c-.1-.6-.2-1.1-.4-1.5-.2-.4-.3-.7-.6-.9-.2-.2-.5-.4-.9-.5s-.8-.2-1.3-.2c-1.4 0-2.4.2-3 .7-.6.4-.9 1.2-.9 2.2 0 .1.1.6.2 1.4s.3 1.8.5 3.1c.2 1.2.4 2.7.7 4.3.3 1.6.5 3.3.8 5s.5 3.5.8 5.3.5 3.5.7 5c.2 1.6.4 3 .5 4.3s.2 2.3.2 3.1c0 .8.2 1.3.6 1.7.4.4 1 .5 1.7.5s1.3-.1 1.8-.2.8-.3 1.1-.6zm45.2-2.8c.3 2.2.6 4.7.9 7.5.1.5.3 1 .7 1.3.4.3 1 .5 1.8.5 1.2 0 2.1-.2 2.7-.7.7-.4 1-1.2 1-2.3-.4-3.9-.9-7.3-1.4-10.2-.6-2.9-1.3-5.2-2-7.1-.8-1.9-1.7-3.3-2.7-4.2-1-.9-2.1-1.4-3.4-1.4-.7 0-1.4.1-2.1.4s-1.4.7-2.1 1.3c-.7.6-1.4 1.3-2 2.2-.6.9-1.2 2-1.7 3.4-.1.3-.2.5-.3.6s-.2.1-.3.1-.2 0-.3-.1-.2-.3-.3-.6c-.8-2.8-1.8-5-3.1-6.5s-2.9-2.2-4.8-2.2c-.6 0-1.2.1-1.8.2-.6.1-1.1.4-1.7.7-.5.4-1 .8-1.5 1.4s-.9 1.4-1.3 2.3c-.3.7-.5 1-.8 1-.2 0-.4-.4-.5-1.1-.1-.5-.2-1-.3-1.4-.1-.4-.2-.7-.3-1.1-.1-.3-.3-.5-.5-.6-.3-.1-.6-.2-.9-.2-.4 0-.9.1-1.4.2-.5.2-1 .4-1.4.7-.4.3-.8.6-1.1 1-.3.4-.4.7-.4 1.1 0 .3.1.9.4 2s.5 2.4.9 4.1.7 3.7 1 6 .5 4.8.7 7.5c0 .3.1.6.1.8l.3.6c.2.1.4.2.7.3.3.1.7.1 1.2.1s1.1 0 1.5-.1c.5-.1.9-.2 1.2-.5.4-.2.6-.5.8-.9.2-.4.3-.9.3-1.5V378c0-2.2.1-4.3.3-6.1.2-1.8.5-3.4.9-4.7.4-1.3.8-2.3 1.3-3s1-1.1 1.5-1.1c.4 0 .8.2 1.2.6.4.4.8 1 1.2 1.8.4.8.7 1.7 1.1 2.7.3 1 .7 2.1.9 3.3.3 1.2.5 2.5.7 3.8s.3 2.7.4 4c0 .8.3 1.3.7 1.6.4.3 1.1.5 2.1.5.9 0 1.6-.2 2.3-.6.6-.4 1-1 1.1-1.8.4-2.8.9-5 1.4-6.8s1-3.2 1.4-4.2.9-1.7 1.3-2.1.7-.6 1-.6c.5 0 1 .4 1.4 1.2.4.8.8 1.9 1.2 3.4.2 1.8.5 3.6.8 5.8zm25.4-15.8c-.2.6-.4.9-.5.9s-.2-.1-.3-.3c-.1-.2-.1-.5-.2-.9-.1-1.3-.2-2.4-.4-3.2-.1-.8-.3-1.5-.4-1.9-.2-.5-.3-.8-.6-.9-.2-.2-.5-.2-.8-.2-.5 0-1.1.1-1.6.2-.5.2-1 .3-1.4.6-.4.2-.8.5-1 .8-.3.3-.4.6-.4.9 0 .4.1 1 .2 1.8s.3 2 .5 3.7.4 3.8.6 6.6c.2 2.7.4 6.2.6 10.4 0 .5.3.9.6 1.2.4.3.9.5 1.7.5 1.1 0 2-.2 2.7-.7s1.1-1.1 1.2-1.9c.4-3 .7-5.5 1.1-7.7.4-2.1.8-3.9 1.2-5.3s.9-2.4 1.3-3.1c.5-.7.9-1 1.5-1 .5 0 1.1.4 1.6 1.3s1.1 2.1 1.6 3.7 1.1 3.6 1.6 6c.6 2.4 1.1 5.1 1.7 8.2.1.5.3.9.7 1 .4.2 1 .3 1.8.3.4 0 .9-.1 1.3-.2s.8-.3 1.2-.5c.3-.2.6-.5.8-.8.2-.3.3-.7.3-1.2v-.5c0-.2-.1-.4-.1-.6-.8-4.4-1.7-8.1-2.5-11-.8-3-1.7-5.4-2.6-7.2-.9-1.8-1.9-3.2-3-4s-2.2-1.2-3.5-1.2c-2.9-.3-5 1.9-6.5 6.2zm41.4 23.2c2 0 3.8-.4 5.6-1.1 1.8-.7 3.3-1.7 4.6-3 1.3-1.3 2.4-2.7 3.1-4.4.8-1.7 1.2-3.4 1.2-5.3s-.4-3.7-1.1-5.4c-.7-1.7-1.7-3.1-3-4.4-1.3-1.2-2.8-2.2-4.5-2.9-1.7-.7-3.5-1.1-5.5-1.1-1.2 0-2.4.1-3.6.4-1.3.3-2.5.6-3.8 1.1s-2.6 1.1-3.9 1.8c-1.3.7-2.5 1.5-3.7 2.4-.5.4-.9.8-1.1 1.3-.3.5-.4.9-.4 1.4 0 .6.1 1.1.4 1.5.3.3.6.6 1 .9.4.2.7.4 1 .6s.4.4.4.8c0 .5 0 1-.1 1.4s-.1.8-.1 1.2c0 1.9.3 3.6 1 5.2s1.6 2.9 2.8 4.1c1.2 1.1 2.6 2 4.3 2.7 1.7.5 3.4.8 5.4.8zm-7.3-14.7c0-2.4.6-4.2 1.8-5.4 1.2-1.2 2.9-1.7 5.2-1.7 1.2 0 2.4.2 3.4.7 1.1.4 2 1.1 2.8 1.8.8.8 1.4 1.7 1.8 2.8.4 1.1.7 2.2.7 3.4 0 1.2-.2 2.3-.7 3.2-.5 1-1.1 1.8-1.9 2.4-.8.7-1.6 1.2-2.5 1.5s-1.8.5-2.6.5c-1.1 0-2.2-.2-3.1-.7-1-.5-1.8-1.1-2.5-1.9s-1.3-1.8-1.7-2.9c-.5-1.2-.7-2.4-.7-3.7zm55.2-11.2c-1.2-1.3-2.7-2.3-4.4-3.1-1.7-.7-3.5-1.1-5.5-1.1-1 0-1.9.1-2.8.4-.9.3-1.7.7-2.4 1.3-.8.6-1.4 1.3-2 2.2s-1.1 1.9-1.4 3c-.2.6-.4.9-.5.9-.2 0-.3-.4-.5-1.1-.2-.6-.3-1.1-.5-1.6-.2-.4-.3-.7-.5-1-.2-.2-.4-.4-.7-.5s-.5-.1-.8-.1c-1.3 0-2.3.2-3 .6s-1.1 1-1.1 1.8c0 .3.1 1 .3 2.1s.5 2.5.9 4.3c.4 1.7.8 3.8 1.4 6.1.5 2.4 1 5 1.6 7.8.5 2.9 1.1 6 1.6 9.3s1 6.8 1.4 10.5c.1 1 .9 1.4 2.4 1.4.5 0 1-.1 1.5-.2s.9-.3 1.2-.5c.4-.2.6-.5.9-.8.2-.3.3-.6.3-1l-1.5-14c0-1 .5-1.5 1.4-1.5l1.5.1c2.2 0 4.3-.4 6.2-1.1 1.9-.8 3.5-1.8 4.8-3.2 1.4-1.3 2.4-3 3.2-4.8.8-1.9 1.1-3.9 1.1-6.1 0-2.1-.4-4-1.1-5.8s-1.7-3-3-4.3zm-2.8 15.2c-.4 1-1 1.8-1.7 2.6-.8.7-1.7 1.3-2.7 1.7s-2.2.6-3.5.6c-.4 0-1-.1-1.7-.2s-1.3-.2-1.8-.3c-.9-.1-1.4-.6-1.5-1.5-.2-1.5-.4-2.9-.5-4.2-.1-1.3-.2-2.6-.2-3.9s.2-2.4.5-3.5.7-2 1.3-2.7 1.2-1.3 2-1.7c.8-.4 1.6-.6 2.6-.6 1.1 0 2.1.3 3.1.8.9.5 1.8 1.3 2.5 2.2.7 1 1.3 2.1 1.7 3.4s.6 2.7.6 4.1c0 1.1-.2 2.2-.7 3.2zm56.9 1.2c-.2 0-.5.1-1 .2s-1.2.3-1.9.4c-.7.2-1.5.4-2.4.6s-1.7.5-2.5.7c-.1 0-.2.1-.3.1h-.2c-.7 0-1.1-.4-1.2-1.3-.2-1.3-.3-2.6-.5-4s-.3-2.7-.5-4-.3-2.4-.4-3.4c-.1-1-.1-1.7-.1-2.2 0-.2 0-.5.1-.7s.2-.4.2-.6.2-.4.3-.6.1-.4.1-.6c0-.3-.1-.6-.4-.9-.2-.3-.6-.5-.9-.8-.4-.2-.8-.4-1.2-.5s-.8-.2-1.2-.2c-.3 0-.6.1-.9.2-.3.2-.6.4-.9.8-.6-.2-1.5-.4-2.5-.5-1-.2-2.2-.2-3.7-.2-1.4 0-2.8.2-4.3.5s-2.9.8-4.4 1.4c-1.4.6-2.8 1.4-4.1 2.3s-2.4 1.9-3.4 2.9c-1 1.1-1.7 2.2-2.3 3.5s-.9 2.6-.9 4c0 1.2.3 2.4.8 3.4s1.2 1.9 2.1 2.7c.9.8 2 1.3 3.3 1.8 1.3.4 2.6.6 4.1.6 2.5 0 4.8-.6 7-1.7s4.1-2.9 6-5.3c.4-.5.7-.8 1.1-.8.5 0 .8.4.9 1.2l.4 4.5c0 .8-.4 1.4-1.1 1.7-1.4.6-2.9 1.2-4.3 1.8-1.4.6-2.8 1.3-4.2 1.9-.4.2-.7.4-.8.8-.2.3-.2.7-.2 1.1s.1.7.2 1.1c.1.4.3.7.5 1s.4.6.7.7c.3.2.5.3.9.3.1 0 .4-.1 1-.3.6-.2 1.3-.5 2-.8.8-.3 1.6-.7 2.4-1 .8-.4 1.6-.7 2.2-1 .3-.1.6-.2.8-.2.6 0 1 .4 1.1 1.2.2 2 .5 4 .7 6 .2 1.9.4 3.9.6 5.9 0 .4.2.7.5 1s.7.4 1.2.4 1-.1 1.6-.2c.5-.2 1-.4 1.4-.7.4-.3.8-.6 1-1 .3-.4.4-.8.4-1.2l-1.6-12.8c0-.8.4-1.3 1.2-1.6 1.3-.4 2.7-.8 4-1.1 1.3-.4 2.7-.7 4.1-1 .4-.1.8-.4 1-1s.3-1.1.3-1.8c0-.8-.2-1.4-.5-1.9-.3-.6-.8-.8-1.4-.8zm-18.3-10.3c-.1.1-.1.3-.2.5-.9 1.9-1.8 3.5-2.6 4.7s-1.8 2.2-2.7 3c-.9.7-1.9 1.2-2.8 1.5-1 .3-2 .4-3 .4-1.8 0-3.1-.3-4.1-1-.9-.7-1.4-1.7-1.4-3.1 0-1 .4-1.9 1.2-2.9.8-.9 1.8-1.8 3-2.5 1.3-.7 2.7-1.3 4.3-1.8 1.6-.4 3.2-.7 4.9-.7.9 0 1.6.1 2.3.2.8.1 1.2.5 1.2 1.2-.1.2-.1.4-.1.5zm43.1-10.5c-.6-.3-1.4-.5-2.2-.6s-1.6-.2-2.4-.2c-1.4 0-2.6.2-3.8.6-1.1.4-2.2 1.1-3 2-.9.9-1.6 2-2.2 3.4-.6 1.4-1 3-1.2 5-.1.7-.2 1-.4 1-.1 0-.2-.1-.2-.2-.1-.2-.1-.4-.2-.9-.5-2.3-1.1-4-1.6-5.1-.6-1.1-1.3-1.6-2-1.6-.5 0-.9.1-1.4.3-.5.2-1 .4-1.4.7-.4.3-.8.6-1 1s-.4.7-.4 1c0 .2.1.5.2.8.1.3.2.5.4.9.9 1.7 1.8 3.5 2.5 5.3s1.3 3.7 1.9 5.5.9 3.7 1.3 5.6c.3 1.9.6 3.7.8 5.5 0 .4.1.7.3.9.2.2.4.4.7.5s.5.2.8.2.5.1.8.1c1.2 0 2.1-.2 2.8-.7.6-.5 1-1.2 1-2.1 0-1.3-.1-2.8-.2-4.4s-.2-3.2-.2-4.8c0-1.2 0-2.5.1-3.7s.2-2.4.3-3.5c.2-1.1.4-2.1.6-3.1.3-.9.6-1.8 1-2.5s.9-1.2 1.5-1.6 1.2-.6 2-.6c.5 0 1 .1 1.5.3.4.2.9.4 1.2.7.4.2.8.5 1.1.7s.7.3 1.1.3c.3 0 .6-.2 1-.5.3-.3.6-.7.8-1.2s.4-.9.6-1.4c.2-.5.2-.9.2-1.3 0-.5-.2-1-.6-1.4-.9-.3-1.4-.6-2.1-.9zm25.6 19.9c-.8-1-1.7-1.8-2.7-2.6-1-.8-2.1-1.6-3.1-2.2-1.1-.7-2.1-1.3-3.1-1.9s-1.9-1.2-2.7-1.7-1.4-1.1-1.9-1.6-.7-1-.7-1.5c0-.6.2-1 .6-1.3.4-.3.9-.5 1.6-.5 1 0 1.9.2 2.8.6.9.4 1.6.9 2.4 1.4.7.5 1.4.9 2 1.4.6.4 1.1.6 1.6.6.4 0 .8-.1 1.3-.3.5-.2.9-.5 1.3-.9s.7-.7 1-1.1.4-.8.4-1.1c0-.6-.4-1.3-1.2-2s-1.8-1.3-2.9-1.9c-1.2-.6-2.5-1-4-1.4-1.4-.4-2.8-.5-4.2-.5-1.2 0-2.4.2-3.5.5-1.1.4-2 .9-2.8 1.5-.8.7-1.4 1.4-1.9 2.4-.5.9-.7 1.9-.7 3 0 1.3.4 2.5 1.2 3.7s1.9 2.2 3.1 3.2c1.3 1 2.6 1.9 4.1 2.9 1.4.9 2.8 1.8 4.1 2.7 1.3.9 2.3 1.8 3.1 2.8.8.9 1.2 1.9 1.2 3 0 1.3-.8 2-2.4 2-.6 0-1.2-.1-1.7-.3-.5-.2-1-.5-1.4-.9s-.7-.8-1-1.3-.4-1-.4-1.5c0-.3 0-.6.1-.9s.2-.6.2-.9c.1-.3.2-.5.3-.8s.1-.5.1-.7c0-.5-.3-.9-.8-1.2-.5-.3-1.2-.5-2-.5-1.4 0-2.4.4-3 1.2-.6.8-1 2.1-1 3.9 0 1.4.3 2.6.8 3.8.5 1.2 1.3 2.1 2.2 3 1 .8 2.1 1.5 3.4 2 1.3.5 2.8.7 4.3.7 1.2 0 2.4-.2 3.4-.5s1.9-.9 2.7-1.5c.7-.7 1.3-1.5 1.7-2.4s.6-2 .6-3.1c0-1.3-.2-2.5-.7-3.7s-1-2.7-1.8-3.6zm36.8-14.1c-.2-.3-.4-.5-.6-.7-.3-.2-.6-.3-1.1-.3-.6 0-1.2 0-2 .1-.7.1-1.5.1-2.3.2s-1.6.1-2.5.2-1.6.2-2.3.2-1.3.1-1.8.2-.9.1-1.1.1c-.8 0-1.3-.5-1.4-1.4l-.9-6c-.3-2-.6-4-.8-5.8-.1-.6-.2-1.1-.4-1.5s-.4-.7-.6-1c-.3-.2-.6-.4-.9-.5-.4-.1-.8-.1-1.3-.1-1.4 0-2.4.2-3 .7-.6.4-.9 1.2-.9 2.3 0 .1.1.5.2 1.1.1.6.3 1.5.5 2.6s.5 2.4.8 3.9.6 3.2.9 5.1c0 .1.1.2.1.3v.3c0 .5-.1.8-.3 1s-.6.4-1 .5c-1.8.3-3.4.7-4.8 1-1.4.4-2.6.7-3.4 1.1-.4.2-.7.4-.9.6-.2.3-.4.5-.5.8s-.2.6-.2.9-.1.6-.1.8c0 .6.1 1.2.3 1.6s.6.6 1 .6c.3 0 .7 0 1.2-.1.4-.1.9-.2 1.5-.4 1-.3 2-.6 3.1-.9s2.3-.6 3.6-.9h.4c.7 0 1.2.4 1.4 1.3l.9 7.2c.3 2.4.5 4.8.6 7.2 0 .7.2 1.3.6 1.7.4.4.9.5 1.7.5s1.5-.1 2-.2 1-.4 1.3-.7c.3-.3.6-.7.7-1.2.1-.5.2-1.1.2-1.8 0-.3 0-.8-.1-1.6s-.2-1.8-.4-3-.3-2.6-.5-4.1-.4-3.2-.7-5v-.4c0-.8.5-1.2 1.4-1.4 1.8-.2 3.6-.3 5.4-.4 1.8-.1 3.6-.2 5.3-.2.4 0 .7-.1 1-.2.3-.2.5-.4.7-.6.2-.3.3-.5.5-.9.1-.3.2-.6.2-.9s0-.7-.1-1c-.3-.4-.4-.7-.6-.9zm25.6-1.9c-1.2 0-2.1.1-2.6.4s-.8.8-.8 1.4c0 .4 0 .9.1 1.3.1.5.2 1 .3 1.6s.2 1.3.3 2 .1 1.7.1 2.7c0 1.7-.2 3.3-.5 4.7-.3 1.4-.8 2.7-1.4 3.8-.6 1.1-1.3 1.9-2.2 2.5-.8.6-1.8.9-2.8.9-1.6 0-2.8-.7-3.6-2.2s-1.2-3.6-1.2-6.3c0-1.1.1-2.3.2-3.4.2-1.2.3-2.2.5-3.3s.3-1.9.5-2.7c.2-.8.2-1.4.2-1.7s-.1-.7-.4-1c-.3-.3-.6-.6-1-.9-.4-.2-1-.4-1.6-.6-.6-.1-1.3-.2-1.9-.2-.8 0-1.4.2-1.9.5-.5.4-.8.8-.8 1.4-.2 1.4-.3 2.7-.4 3.8-.1 1.2-.2 2.3-.3 3.3s-.1 1.9-.2 2.8c0 .9-.1 1.7-.1 2.5 0 2 .3 3.9.9 5.6.6 1.7 1.4 3.2 2.4 4.4s2.2 2.2 3.6 2.9c1.4.7 2.9 1 4.5 1 2.3 0 4.4-.5 6.3-1.6 1.9-1.1 3.4-2.6 4.8-4.6 1.3-2 2.3-4.4 3-7.3s1-6.1 1-9.7c0-1.3-.4-2.3-1.3-3-1-.7-2.2-1-3.7-1zm36.8-2.2c-.7-.4-1.8-.7-3.3-.7-.5 0-.9.1-1.2.2s-.6.3-.7.5c-.2.2-.3.5-.4.9-.1.4-.2.8-.2 1.4l-1.3 15.6c-.1.6-.2 1-.4 1.2s-.5.4-.8.4c-.5 0-1.1-.2-1.6-.6-.6-.4-1.1-1-1.7-1.7-.5-.7-1.1-1.6-1.6-2.5-.5-1-.9-2-1.3-3.1s-.7-2.2-.9-3.3-.3-2.2-.3-3.2c0-.4 0-.9.1-1.3 0-.4.1-.9.1-1.3 0-.7-.1-1.2-.2-1.7-.2-.4-.4-.8-.8-1.1s-.8-.5-1.4-.6c-.6-.1-1.3-.2-2.2-.2-1.3 0-2.2.5-2.7 1.4s-.8 2.3-.8 4.1c0 1.6.2 3.2.7 4.9.5 1.7 1.1 3.3 2 4.9.8 1.6 1.8 3.1 2.9 4.6 1.1 1.4 2.3 2.7 3.5 3.8 1.2 1.1 2.5 1.9 3.8 2.6 1.3.6 2.6.9 3.8.9 1.6 0 2.9-.4 3.7-1.2.8-.8 1.4-2.2 1.7-4.1.5-3.2.9-6.1 1.2-8.7.1-1.1.3-2.2.4-3.3.2-1.1.3-2.1.4-3 .1-.9.2-1.7.3-2.3.1-.6.1-1 .1-1.2.1-1.2-.2-1.9-.9-2.3zm55.2 5.6c-.5-1-1-1.9-1.5-2.5-.6-.6-1.2-1-1.7-1-.4 0-.9.1-1.4.3-.5.2-1 .4-1.4.7-.4.3-.8.6-1 .9s-.4.7-.4 1c0 .6.2 1.2.5 1.7s.6 1.1 1 1.7.7 1.4 1 2.2c.3.9.5 1.9.5 3.2 0 1.2-.2 2.2-.5 3.2-.4 1-.8 1.9-1.5 2.6-.6.7-1.4 1.3-2.2 1.7-.9.4-1.8.6-2.7.6-2.7 0-4.6-1.3-5.6-3.9-.2-.3-.2-.7-.2-1.1v-.4c0-.1.1-.3.1-.5.3-1.2.5-2.4.7-3.6s.2-2.6.2-4c0-4-1.1-5.9-3.4-5.9-1.4 0-2.5.9-3.3 2.6s-1.2 4.2-1.2 7.4c0 .7 0 1.4.1 2.1s.1 1.4.2 2.2c0 .2.1.3.1.4v.4c0 .2 0 .4-.1.6 0 .2-.1.4-.2.6-1.3 2.8-3.4 4.2-6.1 4.2-1.2 0-2.4-.5-3.4-1.5s-1.9-2.4-2.6-4.2c-.7-1.8-1.3-3.9-1.7-6.4s-.6-5.2-.6-8.1c0-.6.1-1.2.2-2s.2-1.5.2-2.1c0-.8-.2-1.4-.6-1.7-.4-.3-1-.5-1.9-.5-.8 0-1.5.1-2 .3-.5.2-1 .6-1.3 1.2s-.5 1.4-.7 2.4c-.1 1-.2 2.3-.2 3.8 0 3.7.3 7.1.9 10.1s1.5 5.6 2.7 7.7 2.6 3.7 4.3 4.9c1.7 1.1 3.6 1.7 5.6 1.7 1.9 0 3.6-.4 5.2-1.2s3-2.1 4.4-3.9c.2-.3.4-.4.5-.5s.3-.2.5-.2.3.1.5.2.3.3.5.5c1 1.4 2.2 2.4 3.4 2.9 1.2.6 2.6.8 4.2.8 1.9 0 3.6-.4 5.3-1.2 1.7-.8 3.1-1.8 4.4-3.1 1.3-1.3 2.2-2.8 3-4.6s1.1-3.6 1.1-5.6c0-1.4-.1-2.7-.4-4s-1-2-1.5-3.1zm38.6 11.4c-.4 0-.9.1-1.4.2s-1 .2-1.5.2c-.6 0-1.2-.1-1.9-.4s-1.3-.7-2-1.2-1.4-1.1-2.2-1.9c-.7-.7-1.5-1.5-2.2-2.4-.2-.2-.3-.4-.3-.5-.1-.2-.1-.4-.1-.5 0-.2 0-.4.1-.5.1-.2.2-.4.4-.6 1.3-1.4 2.6-2.7 3.9-4 1.4-1.3 2.8-2.4 4.3-3.3 1.1-.6 1.9-1.2 2.5-1.6s.9-.9.9-1.4c0-.3-.1-.6-.3-1s-.5-.8-.8-1.1c-.3-.4-.7-.7-1.1-.9-.4-.2-.8-.4-1.2-.4-.2 0-.6.1-1.2.2s-1.2.5-2.1 1c-1.4.8-2.8 1.9-4.2 3.2-1.4 1.3-2.8 2.7-4.2 4.2-.3.4-.7.6-1.1.6-.4 0-.7-.2-1.1-.7-.9-1.3-1.7-2.5-2.5-3.7s-1.5-2.4-2.2-3.6c-.4-.7-.8-1.1-1-1.3-.3-.2-.5-.3-.7-.3-.4 0-.8.1-1.3.3-.5.2-1 .4-1.4.7-.4.3-.8.6-1.1 1s-.5.7-.5 1.1c0 .2 0 .4.1.7.1.3.3.7.5 1.1.5.9 1.3 2.1 2.2 3.6s2 3.1 3.3 4.8c.6.9.9 1.6.9 2.2 0 .2 0 .3-.1.5s-.1.3-.2.4c-1 1.2-1.9 2.3-2.8 3.4-.9 1-1.6 1.9-2.3 2.6-.6.7-1.2 1.2-1.7 1.7s-1 .8-1.4 1.1c-.4.3-.7.6-.9.9s-.3.5-.3.8c0 .2.1.5.2.8.1.3.3.6.6.9s.6.6 1 .8c.4.2.9.3 1.4.3.7 0 1.5-.2 2.2-.7.8-.4 1.5-1.1 2.4-1.8.8-.8 1.7-1.7 2.6-2.7.9-1 1.8-2.1 2.8-3.3.3-.4.7-.6 1.1-.6.4 0 .8.2 1.1.6 1 1 1.9 1.9 2.9 2.7 1 .8 2 1.5 3 2.1s2 1.1 3 1.4 2 .5 3 .5c.6 0 1.2-.1 1.8-.3.6-.2 1.1-.5 1.5-.8s.7-.8 1-1.3c.2-.5.4-1.1.4-1.8 0-.6-.1-1.1-.3-1.4-.5-.4-.9-.6-1.5-.6zm37.3-10.6c-.3-.4-.7-.7-1.2-.9s-1.1-.3-1.8-.3c-.6 0-1.1 0-1.5.1s-.7.2-1 .5c-.2.2-.4.5-.5.9s-.2.9-.2 1.5c-.1 1.4-.2 2.8-.4 4.2l-.3 4.2c0 .4-.1.7-.2 1-.1.3-.2.6-.4.9-.6.8-1.2 1.4-2 1.8s-1.6.7-2.5.7c-1.2 0-2.4-.4-3.5-1.3s-2.1-2.1-2.9-3.6c-.9-1.6-1.6-3.5-2.3-5.7s-1.2-4.8-1.5-7.6c-.2-1.3-1.1-2-2.7-2-1.3 0-2.2.3-2.8.9s-.9 1.6-.9 3c0 1.8.2 3.6.6 5.3s1 3.5 1.7 5.1 1.5 3.2 2.5 4.6 2 2.6 3.1 3.7c1.1 1 2.3 1.8 3.5 2.4s2.4.9 3.6.9c.8 0 1.6-.1 2.3-.3.7-.2 1.4-.5 2.2-.9.3-.2.5-.3.7-.3.2-.1.4-.1.5-.1.2 0 .4.1.5.2s.1.4.1.8v8.3c0 1.3 0 2.6.1 3.8 0 1.2.1 2.4.1 3.5s.1 2 .2 2.8c0 .6.2 1.1.5 1.4.3.4.7.5 1.3.5s1.2-.1 1.7-.2c.5-.2 1-.4 1.4-.6s.7-.6 1-.9c.2-.3.4-.7.4-1.1 0-.3 0-.9-.1-1.6-.1-.8-.2-1.7-.3-2.7s-.2-2.1-.3-3.2-.1-2.2-.1-3.1v-2.9c0-.5 0-1.1.1-1.7s.1-1.4.1-2.2.1-1.9.2-3.1c.1-1.2.2-2.7.3-4.4 0-.7.1-1.3.3-1.8.2-.6.3-1.1.5-1.7s.3-1.2.5-1.9c.1-.7.2-1.4.2-2.3 0-1-.1-1.9-.2-2.6s-.3-1.6-.6-2zm34.1 10.6c-1-1-2.3-1.8-3.8-2.4s-3.2-.9-5.2-1c-.8-.1-1.1-.3-1.1-.6 0-.2.2-.6.6-.9 1-.9 1.8-1.8 2.5-2.6s1.3-1.6 1.7-2.3c.5-.7.8-1.5 1-2.2s.3-1.6.3-2.4c0-1.9-.7-3.4-2-4.4s-3.2-1.5-5.7-1.5c-.9 0-2 .1-3.1.2s-2.3.3-3.4.5c-1.2.2-2.3.4-3.3.7-1.1.3-2 .5-2.8.8-.4.2-.7.5-1 1-.2.5-.3 1.2-.3 1.9 0 .4.1.8.2 1.2s.3.7.5 1 .4.5.7.7.5.2.8.2c.4 0 1-.1 1.8-.4s1.6-.6 2.6-.9 2-.6 3.1-.9 2.2-.4 3.3-.4c.8 0 1.5.2 2 .5s.8.8.8 1.5c0 .6-.2 1.3-.7 2-.4.7-1 1.5-1.6 2.3s-1.3 1.6-2.1 2.4-1.5 1.5-2.1 2.2-1.2 1.3-1.6 1.9c-.4.5-.7 1-.7 1.3s.1.7.2 1.1c.1.4.3.7.5 1s.4.6.6.7c.2.2.5.3.7.3s.6-.1 1-.2.9-.2 1.5-.3c.5-.1 1.1-.2 1.8-.3.6-.1 1.3-.2 2-.2 1.1 0 2.1.2 3.1.6s1.8.9 2.5 1.6 1.2 1.5 1.6 2.4c.4.9.6 1.9.6 3 0 1.3-.2 2.6-.6 3.7-.4 1.1-1 2.1-1.8 2.9s-1.7 1.4-2.7 1.9c-1.1.4-2.2.7-3.5.7-1.1 0-2.1-.2-3-.5-1-.4-1.8-.8-2.5-1.4s-1.3-1.3-1.7-2.1c-.4-.8-.6-1.7-.6-2.6 0-.3 0-.6.1-.9s.1-.6.2-.8c.1-.3.1-.5.2-.7s.1-.4.1-.6-.1-.5-.3-.7-.5-.5-.9-.7-.8-.3-1.3-.5c-.5-.1-1-.2-1.5-.2-.3 0-.6.2-1 .5s-.6.8-.9 1.4c-.3.6-.5 1.3-.6 2-.2.7-.2 1.5-.2 2.2 0 1.6.3 3 1 4.4.7 1.3 1.7 2.5 2.9 3.5s2.6 1.8 4.3 2.4c1.6.6 3.4.9 5.3.9 2.1 0 4.1-.4 6-1.2 1.8-.8 3.5-1.9 4.8-3.2 1.4-1.4 2.4-3 3.2-4.8s1.2-3.8 1.2-6c0-1.7-.3-3.3-.8-4.7-1.1-1.8-1.9-3-2.9-4zM25 465.6c-.1-1-.2-2-.3-3.2-.1-1.1-.3-2.3-.4-3.5s-.3-2.3-.5-3.4-.3-2-.5-2.9c-.1-.5-.2-1-.3-1.6-.1-.6-.2-1.1-.4-1.7s-.3-1.1-.6-1.6c-.2-.5-.5-1-.9-1.4-.3-.4-.8-.7-1.3-1s-1.1-.3-1.8-.3c-.3 0-.7 0-1 .1s-.7.2-1.1.4c-.6.3-1.4.7-2.3 1.2-.9.5-1.8 1-2.8 1.6s-1.9 1.2-2.8 1.8c-.9.6-1.7 1.2-2.5 1.8s-1.3 1.2-1.8 1.7-.7 1-.7 1.4c0 .6.4 1.2 1.1 1.8.4.3.8.6 1.1.7.3.1.6.2.9.2.6 0 1.2-.3 1.8-.8.5-.4 1.1-.9 1.7-1.4.7-.5 1.3-1 2-1.5s1.3-.9 1.9-1.2c.6-.3 1.1-.5 1.5-.5s.8.2 1.1.5c.3.3.5.8.6 1.3.6 2.7 1 5.3 1.3 8s.5 5.4.8 8.1c.1.7.3 1.3.7 1.6.4.4.9.5 1.5.5h.5c.2 0 .7-.1 1.5-.3 1.4-.2 2.1-1.1 2.1-2.5 0-.3 0-.8-.1-1.5.1-.6.1-1.4 0-2.4zm37.4 4.4l-6-.6c-2-.2-4-.3-6-.4-.4 0-.7-.1-.9-.2s-.3-.3-.3-.6c0-.2 0-.3.1-.5s.2-.4.5-.5c1.3-1.2 2.7-2.4 4-3.8 1.3-1.3 2.5-2.8 3.6-4.3s1.9-3 2.6-4.6c.7-1.6 1-3.2 1-4.9 0-1.4-.3-2.7-.8-3.8s-1.3-2.1-2.3-2.9-2.1-1.4-3.3-1.8-2.6-.6-4-.6-2.6.2-3.8.5c-1.1.3-2.2.7-3.1 1.2-.9.5-1.8 1.1-2.5 1.9-.7.7-1.4 1.5-1.9 2.4-.3.4-.4.9-.4 1.4 0 .8.5 1.5 1.4 2 .5.2.9.4 1.2.5s.5.1.7.1c.4 0 .8-.1 1.1-.4s.6-.6.9-1.1c.5-.8 1.2-1.5 2-2.1s1.9-.9 3.2-.9c.7 0 1.4.1 2 .3.6.2 1.2.5 1.7.9s.9.9 1.2 1.5.4 1.2.4 2c0 1.1-.2 2.2-.7 3.2-.5 1.1-1.1 2.2-1.9 3.2-.8 1.1-1.7 2.1-2.7 3.1s-2.1 2-3.1 2.9c-1.1.9-2.2 1.8-3.3 2.6-1.1.8-2.1 1.6-3 2.3-.5.3-.8.7-1.1 1.1s-.4.9-.4 1.5c0 .5 0 .9.1 1.3s.2.8.4 1.1c.2.3.4.6.8.8.3.2.7.3 1.1.3 1.1 0 2.3 0 3.7.1 1.3.1 2.7.2 4.1.3 1.4.1 2.8.2 4.1.3s2.6.2 3.8.3c1.2.1 2.2.2 3 .3.9.1 1.5.1 1.9.1.6 0 1.2-.2 1.6-.5.5-.3.8-.8.9-1.5.2-.6.3-1 .3-1.2v-.6c.1-.8-.6-1.5-1.9-1.7zm37.7-10.7c-.5-.9-1.2-1.7-2-2.5-.8-.7-1.8-1.4-2.9-1.9-.6-.3-.9-.6-.9-.9 0-.2.2-.5.5-.9.5-.7.8-1.4 1-2.1s.3-1.5.3-2.2c0-1.3-.3-2.5-.8-3.6s-1.3-2-2.3-2.8-2.2-1.4-3.6-1.8-3-.6-4.7-.6c-.9 0-1.9.1-2.9.2s-1.9.3-2.9.5c-.9.2-1.8.5-2.7.8-.9.3-1.6.7-2.2 1.1s-1.1.8-1.5 1.2c-.4.4-.6.9-.6 1.3 0 .3.1.6.2.9.2.3.5.8.9 1.4.4.5.7.8 1 1s.6.3 1 .3c.5 0 1.1-.2 1.7-.7 1-.7 2-1.4 3.2-1.8 1.1-.5 2.4-.7 3.7-.7.7 0 1.4.1 2.1.2.7.2 1.4.4 2 .7.6.3 1.1.7 1.5 1.3.4.5.6 1.1.6 1.9 0 1.3-.4 2.3-1.1 3-.8.6-1.7 1-3 1-.6 0-1.1.1-1.7.1-.5.1-1 .2-1.5.4-.4.2-.8.5-1.1.8-.3.4-.4.8-.4 1.4v.5l.2 1.2c.1.7.3 1.2.7 1.6s.8.6 1.5.6h.4c.1 0 .3-.1.4-.1.7-.2 1.5-.4 2.2-.7.7-.2 1.5-.3 2.2-.3.8 0 1.6.1 2.4.4s1.5.7 2.1 1.3c.6.5 1.1 1.2 1.5 2s.6 1.6.6 2.6c0 .8-.1 1.5-.4 2.1s-.7 1-1.2 1.4c-.5.3-1.1.6-1.8.8-.7.2-1.4.2-2.2.2-.6 0-1.2 0-1.8-.1-.6-.1-1.2-.2-1.8-.4-.6-.2-1.1-.4-1.5-.8-.4-.3-.8-.8-1-1.4-.3-.7-.6-1.2-1-1.6-.3-.4-.9-.6-1.6-.7l-2-.2c-.6 0-1.2.2-1.6.5s-.6.8-.6 1.3v.4c0 .1.1.3.1.4.3 1.3.9 2.5 1.6 3.5s1.6 1.9 2.7 2.6 2.2 1.2 3.5 1.6 2.6.5 4.1.5c1.6 0 3.2-.2 4.7-.7 1.5-.4 2.9-1.1 4-2 1.2-.9 2.1-1.9 2.8-3.2.7-1.3 1.1-2.7 1.1-4.4 0-1.1-.1-2.1-.4-3.1.1-.9-.2-1.9-.8-2.8zm36.9 3.6l-1.4-.1c-.5 0-.8-.2-1.1-.3-.3-.2-.5-.5-.6-1-.7-2.7-1.5-5.4-2.3-8s-1.6-5.3-2.4-8c-.1-.3-.1-.7-.1-1.2s-.1-1.1-.3-1.6-.5-1-1-1.4-1.3-.6-2.3-.6c-.4 0-.8 0-1.2.1-.4 0-.8.1-1.2.2-.4.1-.6.3-.9.5-.2.2-.3.6-.3 1 0 .3.1.6.2 1s.2.7.2 1c0 .8-.3 1.4-.8 2.1-1.2 1.7-2.5 3.3-3.8 5s-2.5 3.4-3.5 5.2c-.3.4-.5.9-.8 1.4s-.6.9-.8 1.4l-.6 1.5c-.2.5-.2 1-.2 1.5 0 .7.2 1.4.5 1.9.4.5.8 1 1.4 1.3.6.4 1.2.7 2 .9.7.2 1.5.4 2.3.5s1.5.2 2.3.3c.7.1 1.4.1 2 .2l5.8.5c.3 0 .6.1.8.3.2.1.4.4.6.7.2.3.3.8.5 1.4.1.6.3 1.3.5 2.2.1.8.3 1.6.4 2.2.2.7.3 1.2.5 1.7s.4.8.6 1.1c.2.3.5.4.9.4h.4c.1 0 .3 0 .5-.1.2 0 .4-.1.7-.2s.6-.2 1.1-.3c1.2-.4 1.8-1.1 1.8-2.3 0-.4-.1-.9-.2-1.4-.1-.5-.2-1-.3-1.6-.1-.5-.2-1-.3-1.4s-.2-.8-.2-1.1c0-.4.1-.7.3-.9.2-.1.4-.2.7-.3.3-.1.5-.1.8-.2s.5-.3.7-.7c.1-.1.1-.2.2-.5.1-.2.2-.5.2-.8.1-.3.2-.6.2-.9.1-.3.1-.5.1-.7 0-.6-.2-1.1-.6-1.4-.8-.3-1.3-.5-2-.5zm-10.2-.8c-.2.2-.5.3-.9.3h-.7c-.3 0-.5-.1-.7-.1l-4.9-.5c-.3-.1-.6-.2-.8-.4-.2-.2-.3-.4-.3-.7 0-.3.1-.6.3-1 .6-1 1.2-2 1.9-2.9.7-1 1.3-1.9 2.1-2.9.3-.5.7-.7 1.1-.7.3 0 .6.1.8.4.2.3.3.5.4.7.3.7.5 1.4.7 2s.4 1.2.5 1.7c.2.5.3 1 .4 1.5s.3.9.4 1.4c0 .1.1.2.1.3v.3c-.1.1-.2.4-.4.6zm47.3-3.8c-1-1-2.2-1.8-3.6-2.6s-2.8-1.5-4.3-2.2-3-1.3-4.6-1.9c-1.5-.6-3-1.1-4.5-1.6-.6-.2-1-.6-1-.9 0-.6.4-.9 1.1-.9 1.4-.2 2.9-.3 4.3-.3 1.5-.1 2.9-.1 4.5-.1 1.3 0 2.5 0 3.9.1 1.3.1 2.8.1 4.4.2.6 0 1-.2 1.3-.5s.5-.7.5-1.2v-.5c0-.2-.1-.3-.1-.5l-.2-.7c-.2-.7-.5-1.3-.9-1.6-.4-.4-1-.6-1.7-.6-1.6-.1-3.2-.2-5-.2-2 0-4.2.1-6.5.3-2.3.2-4.9.5-7.7 1-1.3.2-2.3.7-3 1.4s-1.1 1.7-1.3 3c-.1.8-.2 1.4-.2 1.7v.7c0 2 1.1 3.5 3.3 4.4 2.9 1.2 5.5 2.3 7.8 3.2s4.3 1.8 5.9 2.7 2.8 1.8 3.7 2.7c.9.9 1.3 2 1.3 3.2s-.6 2.2-1.7 2.8c-1.1.7-2.8 1-4.9 1-1.1 0-2.2-.1-3.3-.3-1.1-.2-2.2-.6-3.1-1.1-.9-.5-1.7-1.1-2.2-1.9-.6-.8-.9-1.7-.9-2.8 0-.6.1-1.4.4-2.1 0-.1.1-.2.1-.4v-.3c0-.9-.7-1.4-2.2-1.5l-1.5-.1c-.5 0-1 .1-1.5.4s-.8.7-1.1 1.4c-.3.6-.5 1.1-.6 1.7s-.2 1.3-.2 2.1c0 1.8.5 3.3 1.4 4.6.9 1.3 2.1 2.4 3.5 3.3s3.1 1.5 4.9 1.9c1.8.4 3.6.6 5.4.6 2.1 0 4-.3 5.7-.8s3.1-1.2 4.3-2.1 2.1-2 2.8-3.3c.6-1.3 1-2.7 1-4.3 0-1.4-.3-2.7-.9-3.8-1-1.3-1.8-2.3-2.8-3.3zM214 461c-.9-.6-1.8-1-2.9-1.4-1.1-.3-2.2-.5-3.4-.5-2.1 0-4.2.3-6.2.9s-3.9 1.3-5.7 2.2c-.2.1-.5.2-.8.2-.2 0-.4-.1-.5-.2s-.3-.3-.4-.5c-.2-.5-.3-1.1-.4-1.6-.1-.6-.1-1.1-.1-1.6 0-1.1.2-2.2.5-3.2s.8-2 1.4-2.8c.6-.8 1.3-1.5 2.1-1.9.8-.5 1.7-.7 2.7-.7.5 0 1.1.1 1.7.3.6.2 1.2.5 1.8.8.6.4 1.2.6 1.8.6.3 0 .6-.1.9-.2.3-.1.6-.3.9-.6l.8-.7c.6-.6 1-1.2 1-1.9 0-.6-.3-1.1-.9-1.6-.9-.7-1.9-1.3-2.9-1.7-1.1-.4-2.2-.6-3.6-.6-2.2 0-4.2.4-5.9 1.3-1.8.9-3.3 2-4.5 3.5-1.2 1.4-2.2 3.1-2.8 4.9-.7 1.8-1 3.7-1 5.7 0 2.1.4 4.2 1.3 6 .9 1.9 2.1 3.5 3.7 4.9 1.6 1.4 3.5 2.5 5.7 3.3s4.7 1.2 7.5 1.2c1.5 0 2.9-.2 4.2-.6s2.5-1 3.5-1.7 1.8-1.6 2.4-2.7c.6-1.1.9-2.3.9-3.6 0-1.2-.3-2.2-.8-3.1-.5-1.1-1.2-1.8-2-2.4zm-4.6 7.7c-.8.4-1.9.6-3.3.6-1.1 0-2.1-.1-3.1-.3-1-.2-2.1-.6-3.4-1.2-.5-.2-.8-.5-.8-.9 0-.2.1-.3.2-.5.2-.2.3-.3.6-.4 1.1-.4 2.2-.8 3.3-1s2.1-.3 3.1-.3c.4 0 .9 0 1.5.1.5.1 1 .2 1.5.4s.8.4 1.1.7c.3.3.5.7.5 1.2-.1.6-.5 1.1-1.2 1.6zm45.3-11.9c-1.1-.2-2.2-.3-3.4-.4s-2.3-.2-3.4-.3c-1-.1-1.5-.7-1.5-1.6 0-1 0-1.8-.1-2.7 0-.8-.1-1.6-.2-2.3-.1-.7-.3-1.3-.5-1.8s-.5-1-.9-1.4c-.8-.7-1.7-1.3-2.7-1.7-1-.4-2.1-.8-3.2-1-1.1-.2-2.2-.4-3.4-.5-1.1-.1-2.2-.2-3.2-.2-.8 0-1.5-.1-2.3-.1h-5.8c-.8 0-1.4.2-1.8.6-.4.4-.7 1-.7 1.8l-.1.9c0 1.4.8 2.2 2.4 2.2h2.5c1 0 2.1 0 3.2.1s2.2.2 3.2.3 2 .3 2.9.5 1.7.4 2.3.6 1 .5 1.3.9.5.9.6 1.5c0 .3.1.7.1 1v1c0 1-.5 1.5-1.6 1.5-1.6 0-3.3 0-5 .1s-3.3.2-5 .3c-.5 0-.9.2-1.2.4-.3.2-.6.5-.7.8s-.3.7-.4 1.1c-.1.4-.1.8-.1 1.2 0 .7.2 1.2.6 1.6.4.4.9.5 1.6.5.3 0 .8 0 1.5-.1.7 0 1.5-.1 2.4-.1.9-.1 1.9-.1 3-.1s2.1-.1 3.2-.1c.5 0 .9.1 1.1.4.2.3.4.7.4 1.2l-.4 10.5c.1 1.4.7 2.1 2 2.1h.5c.1 0 .3-.1.5-.1s.5-.1.9-.2c1.5-.3 2.2-1.2 2.3-2.7s.1-3 .2-4.6c.1-1.5.1-3.1.1-4.6 0-.5.2-.9.4-1.1.3-.2.6-.3 1.2-.3.2 0 .6 0 1.1.1s1 .1 1.6.2 1.1.2 1.7.2c.5.1.9.1 1.2.1 1.2 0 2-.6 2.5-1.7.3-.6.4-1 .5-1.3s.1-.5.1-.7c0-.5-.2-.9-.5-1.2s-.4-.7-1-.8zm35-.8c-.4-.3-.6-.7-.6-1.2 0-.2 0-.3.1-.4s.1-.3.2-.5c.3-.8.5-1.6.5-2.4 0-1.5-.4-2.9-1.1-4-.7-1.2-1.7-2.1-2.8-2.9-1.2-.8-2.5-1.4-3.9-1.7-1.4-.4-2.9-.6-4.4-.6-1.4 0-2.8.2-4.1.5-1.3.3-2.5.8-3.6 1.5s-1.9 1.5-2.5 2.6-1 2.4-1 4c0 .5.1 1 .2 1.6s.4 1.3.8 2.1c.2.4.3.7.3 1 0 .4-.2.7-.5 1.1-.8 1.1-1.4 2.3-1.9 3.6-.4 1.3-.7 2.6-.7 3.9s.2 2.4.6 3.5c.4 1 1 2 1.6 2.8.7.8 1.5 1.5 2.4 2.1s1.9 1.1 3 1.5 2.1.7 3.3.9c1.1.2 2.2.3 3.3.3 1.7 0 3.5-.2 5.2-.7 1.7-.4 3.3-1.1 4.6-2 1.4-.9 2.5-2 3.3-3.4s1.3-3 1.3-4.8c0-1.5-.3-3-1-4.4-.6-1.6-1.5-2.9-2.6-4zm-17-7.5c.3-.3.6-.5 1-.6s.8-.2 1.3-.3c.5 0 1-.1 1.4-.1.7 0 1.4.1 2.3.2.8.2 1.6.4 2.4.8s1.4.9 1.9 1.5.8 1.4.8 2.2c0 .1-.1.2-.2.2-.2 0-.7-.1-1.5-.3-1.1-.2-2.3-.4-3.6-.4-.5 0-1.1 0-1.6.1s-1.1.2-1.6.3c-.1 0-.3.1-.3.1h-.3c-.5 0-1-.2-1.4-.7-.3-.3-.6-.7-.7-1s-.2-.7-.2-1c-.1-.4.1-.8.3-1zm14.2 18.4c-.4.6-1 1.1-1.7 1.5s-1.6.7-2.6 1c-1 .2-2.1.3-3.3.3-1 0-2-.1-3-.4s-1.9-.7-2.8-1.2c-.8-.5-1.5-1.2-2-2s-.8-1.7-.8-2.8c0-.4 0-.8.1-1.2 0-.4.1-.8.2-1.2.1-.4.3-.8.5-1.2.2-.4.4-.7.7-.9l.2-.2s.1-.1.3-.1c.2 0 .6.1 1.1.2 1.4.4 2.9.6 4.4.6.6 0 1.2 0 1.8-.1.6 0 1.2-.1 1.9-.2.1 0 .2-.1.3-.1h.3c.2 0 .4 0 .6.1.2 0 .4.1.6.3.3.2.6.4.8.6.3.2.6.5.8.8.7.8 1.2 1.5 1.5 2.2s.5 1.4.5 2c.2.7 0 1.4-.4 2zm43.9-19.5c-1.7-1.4-3.7-2.4-5.8-3.1-2.1-.7-4.4-1-6.9-1-.9 0-1.9.1-3.1.2s-2.5.4-3.8.7c-1.3.3-2.6.8-3.8 1.3-1.3.5-2.4 1.2-3.4 2.1-1 .8-1.8 1.8-2.4 2.9s-.9 2.4-.9 3.9c0 1.2.3 2.4.9 3.4s1.4 1.9 2.3 2.7c1 .8 2 1.4 3.2 1.8s2.4.6 3.6.6c1.7 0 3.5-.3 5.3-.9s3.5-1.5 5.2-2.6c.4-.2.7-.4.9-.4.4 0 .7.3.7.9v1.4c0 .7-.1 1.4-.1 2.2 0 .8-.1 1.6-.1 2.5v2.2c0 3.1.1 6.2.4 9.3.1 1.5.8 2.2 2.1 2.2h.3c.1 0 .2 0 .3-.1l1.3-.3c1.4-.2 2.1-1 2.1-2.3v-.5c-.1-1.6-.2-3.3-.3-5-.1-1.7-.1-3.3-.1-5 0-2.1 0-4.2.1-6.3.1-2.1.2-4.2.4-6.3.1-.6.2-1.2.4-1.6.2-.4.6-.9 1-1.3.5-.4.8-.7.9-1 .2-.3.2-.6.2-.9s-.1-.6-.2-.9c-.1-.2-.3-.5-.7-.8zm-8.6 4.2c-.3.4-.7.8-1 1.2-.4.4-.7.7-1.2 1.1-.6.5-1.2.9-1.8 1.3-.6.4-1.3.8-1.9 1.1-.7.3-1.4.6-2.1.8-.7.2-1.5.3-2.2.3-1.6 0-2.9-.4-3.8-1.1s-1.4-1.6-1.4-2.8c0-.9.3-1.5 1-2.1.6-.5 1.4-1 2.3-1.3s1.8-.6 2.8-.7c1-.2 1.8-.3 2.4-.3.3 0 .6-.1.9-.1h.9c.7 0 1.5 0 2.3.1s1.5.2 2.2.5c.7.2 1.1.6 1.1 1.1-.1.2-.3.5-.5.9zm46-1.3c-1.5-1.3-3.2-2.3-5.2-3.1-2-.8-4.2-1.1-6.4-1.1-2.1 0-4.2.4-6 1.2-1.9.8-3.5 1.9-4.9 3.3s-2.5 3.1-3.3 5-1.2 4-1.2 6.2c0 2 .3 3.9 1 5.5s1.6 3 2.9 4.2c1.2 1.2 2.7 2.1 4.5 2.7s3.7 1 5.8 1c1.6 0 3.2-.2 4.7-.5 1.5-.4 2.9-.9 4.2-1.5s2.5-1.4 3.6-2.3 2-1.9 2.8-2.9c.8-1.1 1.4-2.2 1.8-3.5.4-1.2.6-2.5.6-3.8 0-2-.4-3.9-1.3-5.7-1-1.9-2.1-3.4-3.6-4.7zm-2.2 14.4c-.6.9-1.3 1.8-2.3 2.5s-2.1 1.3-3.4 1.7c-1.3.4-2.7.6-4.2.6-2.8 0-4.9-.8-6.5-2.5-1.5-1.7-2.3-4-2.3-7.1 0-1.2.2-2.2.6-3.2s1-1.9 1.7-2.6 1.5-1.3 2.5-1.8c1-.4 2-.7 3.1-.7 1.6 0 3.1.3 4.5.8s2.7 1.3 3.7 2.2c1.1.9 1.9 2 2.5 3.2s.9 2.5.9 3.9c.1 1.1-.2 2.1-.8 3zm30.8 11.7c-.2-.3-.5-.7-.7-1-.3-.4-.5-.8-.7-1.2-.6-1.3-1.2-2.6-1.6-4.1-.4-1.4-.8-2.8-1-4.3-.3-1.5-.4-2.9-.5-4.4s-.2-2.9-.2-4.4c0-1.4 0-2.9.1-4.3s.2-2.9.4-4.2c.2-1.4.3-2.6.5-3.9.2-1.2.4-2.3.6-3.3.2-.8.3-1.3.3-1.6 0-.3.1-.5.1-.7 0-.6-.2-1-.6-1.3s-1-.5-1.7-.5c-.6 0-1.2.1-1.6.2s-.8.2-1.1.4c-.3.2-.5.4-.7.7s-.3.6-.4 1c-.6 2.9-1.1 5.9-1.4 8.9-.4 3-.5 6-.5 8.9 0 1.9.1 3.9.3 6 .2 2.1.5 4 .9 6 .4 1.9.9 3.7 1.6 5.4.6 1.7 1.4 3.2 2.3 4.4.5.7 1 1.3 1.5 1.7.5.4.9.6 1.2.6.2 0 .5-.1.9-.2.3-.2.8-.4 1.4-.8.6-.5 1.1-.9 1.4-1.2.3-.3.4-.6.4-1 0-.3-.1-.6-.2-.9-.6-.2-.8-.6-1-.9zm19.4-27c-.4-1.9-.9-3.7-1.6-5.4-.6-1.7-1.4-3.2-2.3-4.4-.5-.7-1-1.3-1.5-1.7-.5-.4-.9-.6-1.2-.6-.3 0-.6.1-.9.2-.3.2-.8.4-1.4.8-.6.5-1.1.9-1.4 1.2-.3.3-.4.6-.4 1 0 .3.1.6.2.9.2.3.3.6.6.9.2.3.5.7.7 1 .3.4.5.8.7 1.2 1.3 2.6 2.1 5.4 2.6 8.4.5 2.9.7 5.9.7 8.8 0 1.4 0 2.9-.1 4.3s-.2 2.9-.4 4.2c-.2 1.4-.3 2.6-.5 3.9-.2 1.2-.4 2.3-.6 3.3-.2.8-.3 1.3-.3 1.6-.1.3-.1.5-.1.7 0 .6.2 1 .6 1.3s1 .5 1.7.5c.6 0 1.2-.1 1.7-.2s.8-.2 1.1-.4c.3-.2.5-.4.7-.7s.3-.6.4-1c.6-2.9 1.1-5.9 1.4-8.9.4-3 .6-6 .6-8.9 0-1.9-.1-3.9-.3-6 0-2-.3-4-.7-6zm23.1 21.5c-.4-.3-.8-.6-1.3-.8s-1-.3-1.5-.3c-1.1 0-2 .3-2.7.8s-1 1.2-1 2.1c0 .5.1 1 .3 1.4.2.4.5.8.9 1.1.4.3.8.6 1.3.7.5.2 1.1.3 1.7.3 1.1 0 2-.2 2.6-.7s1-1.2 1-2.1c0-.5-.1-.9-.3-1.4-.3-.4-.6-.8-1-1.1zm-4.7-8.2c0 .5.2.8.4 1.1.2.3.6.4 1.1.5l2.6.4c.4 0 .7-.1.9-.3.2-.2.4-.4.5-.7.1-.3.2-.6.2-1s.1-.8.1-1.2c0-2.1-.1-4.2-.2-6.2s-.3-4-.5-6-.5-3.9-.8-5.9c-.3-1.9-.6-3.8-1-5.7-.3-1.5-2-2.2-5.2-2.2-.7 0-1.2.2-1.6.6s-.5.9-.5 1.4c0 .2 0 .4.1.7.1.2.1.5.2.8 1.1 4.1 2 8.2 2.6 12.3.5 3.8.9 7.7 1.1 11.4zm34.1 5.1c-.4-.3-.8-.6-1.3-.8-.5-.2-1-.3-1.5-.3-1.1 0-2 .3-2.7.8s-1 1.2-1 2.1c0 .5.1.9.3 1.4.2.4.5.8.9 1.1.4.3.8.6 1.4.7.5.2 1.1.3 1.7.3 1.1 0 2-.2 2.6-.7s1-1.2 1-2.1c0-.5-.1-.9-.3-1.3-.4-.5-.7-.9-1.1-1.2zm8.5-29.1c-1.1-1-2.4-1.8-3.9-2.3s-3.2-.8-5-.8c-8.3 0-14.5 4.4-18.6 13.1-.2.5-.3.9-.3 1.2 0 .9.5 1.6 1.6 2l1.5.6c.4.2.8.2 1.2.2 1 0 1.7-.6 2.1-1.7 1.4-3.4 3-5.9 4.9-7.5s4.2-2.4 6.7-2.4c1 0 1.9.2 2.8.5s1.6.8 2.2 1.3c.6.6 1.1 1.2 1.5 2s.6 1.6.6 2.4-.1 1.6-.4 2.3c-.3.7-.8 1.4-1.5 2.1s-1.6 1.3-2.7 2-2.5 1.3-4.1 1.9c-.6.2-1 .5-1.3.8s-.4.7-.4 1.1c0 .5.3 1 .8 1.5l.4.4c.7.7 1.4 1 2.2 1 .4 0 .8-.1 1.1-.2 1.9-.6 3.6-1.4 5.1-2.3s2.7-2 3.8-3.1c1-1.2 1.8-2.4 2.4-3.8.5-1.3.8-2.8.8-4.2 0-1.6-.3-3.2-.9-4.5-.6-1.4-1.5-2.6-2.6-3.6zm36.2 30c-.3-.3-.5-.7-.5-1 0-.2.1-.5.2-.7.5-1 .9-1.9 1.1-2.7s.3-1.7.3-2.4c0-.3 0-.7-.1-.9-.1-.3-.1-.6-.2-.9-.1-.6-.6-.9-1.6-.9-.2 0-.4 0-.7.1-.3 0-.7.1-1.2.2-.7.2-1.2.4-1.6.6s-.5.5-.5.8 0 .6.1.8c0 .2.1.4.1.7v.5c0 .2 0 .4-.1.5 0 .2-.1.3-.2.4s-.2.2-.3.2c-.1 0-.2 0-.3-.1-.2-.1-.4-.3-.8-.7l-2.2-2.3c-.2-.2-.4-.5-.6-.6-.2-.2-.2-.3-.2-.4 0 0 0-.1.1-.2 1.1-.5 2.1-1 3.1-1.6s1.9-1.3 2.6-2.1c.8-.8 1.4-1.7 1.8-2.7.4-1 .7-2.1.7-3.4s-.3-2.5-.8-3.5c-.6-1-1.3-1.8-2.2-2.5-.9-.7-2-1.2-3.1-1.5-1.2-.3-2.4-.5-3.6-.5-1.4 0-2.7.2-3.9.7-1.2.4-2.3 1.1-3.2 1.9-.9.8-1.6 1.8-2.1 2.9-.5 1.2-.8 2.4-.8 3.9 0 1.2.2 2.3.6 3.4s1 2.3 1.7 3.5c.1.2.1.3.2.4s.1.3.1.4c0 .2 0 .3-.1.5s-.2.3-.4.4c-.9.8-1.6 1.7-2.1 2.7s-.8 2.2-.8 3.5.3 2.4.9 3.4 1.3 1.8 2.2 2.5c.9.7 1.9 1.2 3 1.6s2.2.6 3.4.6c1.1 0 2.2-.1 3.2-.4s2-.6 2.9-1.1c.2-.1.5-.2.7-.2.4 0 .7.1 1 .4l1.8 1.6c.3.3.6.5.9.6.3.1.6.2.9.2.3 0 .6-.1.9-.2.3-.1.8-.5 1.5-1 .7-.6 1.1-1.2 1.1-1.8 0-.6-.3-1.2-.9-1.8l-2-1.8zM499 448.6c.2-.5.6-.8.9-1.1.4-.3.8-.4 1.3-.5s.9-.2 1.4-.2 1.1.1 1.6.3c.5.2.9.4 1.3.7.4.3.7.7.9 1.2.2.5.3 1 .3 1.6 0 .5-.1 1-.4 1.5s-.6.9-1.1 1.3c-.4.4-1 .8-1.5 1.1-.6.3-1.1.6-1.7.9-.3.1-.5.2-.7.2-.4 0-.7-.2-1-.7-1-1.6-1.6-3.1-1.6-4.5-.1-.7 0-1.3.3-1.8zm4.3 20c-.2.2-.6.2-1.2.2-1.3 0-2.3-.3-3.2-1-.9-.7-1.3-1.7-1.3-3 0-.2 0-.4.1-.6s.1-.4.2-.6c.2-.3.5-.5.8-.5s.6.2.9.5c.5.6 1.1 1.1 1.7 1.7s1.2 1.1 1.9 1.7c.3.3.4.6.4.9 0 .4-.1.6-.3.7zm33-26.4c-.5-.3-1-.5-1.6-.6s-1-.2-1.4-.2-.7.1-.9.3c-.2.2-.4.6-.5 1-.5 1.9-1.1 3.6-1.8 5.3-.7 1.6-1.3 3.1-1.9 4.4-.6 1.3-1.1 2.3-1.5 3.1-.4.8-.6 1.3-.6 1.5s.1.5.4.7c.2.3.5.5.9.7.3.2.7.4 1 .5.4.1.7.2.9.2.5 0 1.1-.3 1.7-1 .6-.7 1.3-1.5 2-2.6.7-1 1.3-2.2 2-3.4.6-1.2 1.2-2.4 1.7-3.5s.9-2.1 1.2-2.9.5-1.4.5-1.6c0-.4-.2-.7-.6-1s-1-.6-1.5-.9zm25.8 0c-.5-.3-1-.5-1.6-.6s-1-.2-1.4-.2-.7.1-.9.3c-.2.2-.4.6-.5 1-.5 1.9-1.1 3.6-1.8 5.3-.7 1.6-1.3 3.1-1.9 4.4-.6 1.3-1.1 2.3-1.5 3.1-.4.8-.6 1.3-.6 1.5s.1.5.4.7c.2.3.5.5.9.7.3.2.7.4 1 .5.4.1.7.2.9.2.5 0 1.1-.3 1.7-1 .6-.7 1.3-1.5 2-2.6.7-1 1.3-2.2 2-3.4.6-1.2 1.2-2.4 1.7-3.5s.9-2.1 1.2-2.9.5-1.4.5-1.6c0-.4-.2-.7-.6-1s-1-.6-1.5-.9z"/></svg>