<svg xmlns="http://www.w3.org/2000/svg" viewBox="0 0 1000 500"><path d="M22.4 69.6L16.1 90H5.9l25.9-79.9h12.8L70.3 90H59.7l-6.2-20.4H22.4zM38 18.5L24.8 61.3H51L38 18.5zm109.8 48.9c0 16.6-12.7 22.6-31 22.6h-22V10.1h18.6c19.4 0 30.8 6.3 30.8 20.1 0 10-7 15.9-14.9 17.5 9.4 1.5 18.5 6.1 18.5 19.7zm-43-23.1h13c9.2 0 16-4.6 16-13.3 0-10-7.2-12.8-19.4-12.8h-9.6v26.1zm32.3 23.1c0-11.4-8.4-15.3-18.2-15.3h-14v29.8h12c11.8 0 20.2-2.8 20.2-14.5zm89.1-50.9l-5.5 6.5c-5.1-4.1-9.9-5.9-15.7-5.9-12.5 0-22.9 8.5-22.9 33 0 23.3 10 32.7 22.8 32.7 7.7 0 12.5-3.2 17.1-6.7l5.1 6.5c-4.4 4.5-12 8.8-22.5 8.8-19.2 0-33.1-14.5-33.1-41.3 0-27.2 14.9-41.3 33-41.3 9.9-.1 15.5 2.7 21.7 7.7zM309 49.6c0 32.7-20.2 40.4-37.3 40.4h-18.6V10.1h16.5c20 0 39.4 6.4 39.4 39.5zM263.1 82h9.4c12.8 0 25.7-5.6 25.7-32.4 0-27.5-13.5-31.3-26.5-31.3h-8.6V82zm86.1-63.7v26.9h27.3v8.1h-27.3v28.6h33.4V90h-43.4V10.1h42.6l-1.2 8.1h-31.4zm73.1 0v28.1h26.5v8h-26.5V90h-10V10.1h41.8l-1.2 8.1h-30.6zm111-1l-5.9 6.2c-5.6-4.4-10.4-6.4-17.6-6.4-11.7 0-23.6 8.9-23.6 32.8 0 23.3 8.2 33.1 22.6 33.1 5.7 0 10.9-1.2 15.6-3.8v-25h-14.5l-1.2-8.2h25.7v38.4c-7.2 4.3-15.4 7-26.2 7-19.7 0-32.6-13.8-32.6-41.4 0-27 16.4-41.2 34-41.2 10.4-.1 16.9 3 23.7 8.5zm41.9 34.8V90h-10V10.1h10v33.7h34.7V10.1H620V90h-10.1V52.1h-34.7zM655.5 90V10.1h10.1V90h-10.1zm37.1 15.4l-2.7-7.3c10.6-4.3 12.8-8.9 12.8-19.6V10.1h10.1V79c0 16.1-7.3 22.1-20.2 26.4zM747.8 90V10.1h10V90h-10zm55.2 0h-12.4l-32.3-42.7 31.1-37.1h11.5l-31 36.6L803 90zm66.5-8.8l-1.2 8.8h-41.8V10.1h10v71h33zm86.8 8.8l-3-36.6c-1.2-12.7-2.1-26.3-2.2-33.1l-18 60.5h-9.4l-18.8-60.6c-.1 9.1-.8 21.9-1.9 33.8l-2.8 36h-9.5l6.7-79.9h13.7l17.5 59.1 16.7-59.1H959l7 79.9h-9.7zM58.6 244.8L25 175.9c.6 6.4 1.4 15.6 1.4 30.3v38.5H17v-79.9h13.1l33.9 69c-.2-2.2-1.3-14.4-1.3-24.3v-44.7h9.4v79.9H58.6zm110.6-39.9c0 26.3-13.5 41.2-33.4 41.2-19.8 0-33.4-14.4-33.4-41.1 0-26.3 13.7-41.6 33.4-41.6 19.9.1 33.4 14.6 33.4 41.5zm-56.1.2c0 23.2 9.3 32.7 22.8 32.7 13.9 0 22.8-9.5 22.8-32.8 0-23.3-8.7-33.1-22.8-33.1-13.8 0-22.8 9.7-22.8 33.2zm137.5-15.7c0 18.2-13.1 25.7-30.6 25.7h-10.4v29.7h-10v-79.9H220c19 0 30.6 7.8 30.6 24.5zm-10.7.1c0-12.3-7.8-16.7-20.1-16.7h-10.3V207h10.1c12.2 0 20.3-3.7 20.3-17.5zM343.1 248l-6.6 8.5c-8.9-8-15.9-10.6-30.3-10.6-19.6 0-33.2-14.2-33.2-40.9 0-26.3 13.7-41.6 33.4-41.6 19.8 0 33.4 14.5 33.4 41.4 0 20.1-7.3 30.2-18.7 35.8 9.1.1 16.2 3.1 22 7.4zm-36.7-10.2c13.9 0 22.8-9.5 22.8-32.8 0-23.3-8.7-33.1-22.8-33.1-13.7 0-22.8 9.8-22.8 33.2.1 23.2 9.4 32.7 22.8 32.7zm73.2-27.4v34.4h-10v-79.9h20.5c19.7 0 29.9 7.7 29.9 22.4 0 11.4-6 18-17.4 21.4l21.6 36.1h-12l-19.5-34.4h-13.1zm29.8-23.1c0-10.1-5.8-14.5-19.4-14.5h-10.4v29.8h11.7c11.5 0 18.1-4.3 18.1-15.3zm85.1-14.6l-5.7 6.4c-5.8-5.1-11.4-7.2-18.1-7.2-8.5 0-14.9 4.1-14.9 11.8 0 7.1 3.4 10.4 17.8 14.9 13.1 3.9 23.4 9.1 23.4 24 0 13.9-10.4 23.6-28 23.6-11.4 0-20.2-3.8-26.8-10.2l5.9-6.5c5.5 5.2 12 8.4 20.8 8.4 9.8 0 17.6-5 17.6-14.9 0-8.2-3.9-11.8-17.6-16-15.7-4.8-23.4-10.7-23.4-22.9 0-12 10.2-20.5 24.7-20.5 10.9-.1 17.8 3.2 24.3 9.1zm52.8.8v71.3h-10v-71.3h-23v-8.6h56.5l-1.2 8.6h-22.3zm74.5 72.6c-18.1 0-27.4-11.1-27.4-26.8v-54.4h10v53.6c0 12.5 5.6 19 17.4 19 12 0 17.4-6.5 17.4-19v-53.6h10.2v54.4c0 15.7-9.7 26.8-27.6 26.8zm76.9-1.3l-25.9-79.9h10.9l20.5 69.1 20.7-69.1h10.2l-25.5 79.9h-10.9zm113.1 0l-15.3-68.1-15.4 68.1h-12.5L752 164.9h10l13.3 71 15.9-71H802l16.2 71 13.8-71h9.3l-16.6 79.9h-12.9zm92.8 0l-19-36.1-19.2 36.1h-10.9l24.1-42.6-21.9-37.3h11.4l16.7 30.5 16.6-30.5h10.8l-21.6 36.7 24.5 43.2h-11.5zm60.3 0h-10.2V214L929 164.9h11.1l20 40.3 19.8-40.3h10.6l-25.7 49v30.9zM35.5 383.4l-1.2 3.7c-3.2-.4-5.2-1.7-6.1-5-2.3 3.5-5.8 5-9.8 5-6.5 0-10.3-4-10.3-9.9 0-7 5.2-10.8 14.2-10.8h5.4v-2.6c0-4.9-2.3-6.7-7-6.7-2.5 0-5.5.6-8.8 1.8l-1.3-3.9c3.9-1.5 7.5-2.2 11.1-2.2 7.8 0 11.3 4 11.3 10.8v15.2c-.2 3 .8 3.9 2.5 4.6zm-8-5.7v-7.8h-4.7c-6.1 0-9.3 2.3-9.3 7 0 4 2.1 6.2 6 6.2 3.5-.1 6.2-1.9 8-5.4zm50.3-7.9C77.8 380.2 73 387 65 387c-3.7 0-6.6-1.7-8.8-4.4l-.6 3.7h-4.5v-45.9l5.2-.6v18c2.2-3 5.4-4.9 9.4-4.9 7.4-.1 12.1 6.1 12.1 16.9zm-5.6 0c0-9.4-3.1-12.9-7.9-12.9-3.7 0-6.2 2.5-8 5.2v16.1c1.7 2.7 4.4 4.5 7.5 4.5 5 .2 8.4-3.8 8.4-12.9zm43.5-13.5l-2.6 3.4c-2.1-1.7-4.2-2.6-7-2.6-5.4 0-8.8 4.2-8.8 12.9s3.4 12.4 8.8 12.4c2.8 0 4.8-.9 7.2-2.7l2.5 3.5c-2.8 2.4-6.1 3.6-9.8 3.6-8.7 0-14.2-6.3-14.2-16.9 0-10.5 5.4-17.4 14.2-17.4 3.6.3 6.7 1.3 9.7 3.8zm38.4 30h-4.5l-.6-4.6c-2.1 3.2-5.4 5.4-9.5 5.4-7.9 0-12.3-6.7-12.3-17 0-10 4.8-17.2 12.8-17.2 4 0 6.8 1.9 8.9 4.1v-17.2l5.2.6v45.9zm-5.2-8.6v-16.3c-2-2.7-4.4-4.4-7.8-4.4-5.1 0-8.3 4.3-8.3 13s2.9 12.9 7.8 12.9c3.8 0 6.1-1.9 8.3-5.2zm47.3-6h-21.1c.6 7.9 4.2 11 9.1 11 3.3 0 5.7-.9 8.6-2.9l2.3 3.1c-3.2 2.6-6.8 4.1-11.3 4.1-9 0-14.3-6.4-14.3-16.8 0-10.3 5.1-17.4 13.4-17.4 8.8 0 13.3 6.2 13.3 16.1.1 1.1 0 2.1 0 2.8zm-5.1-4.3c0-6.6-2.6-10.4-8-10.4-4.5 0-7.6 3.2-8 10.9h16.1v-.5zm26.8-18.6v4.7h8.1l-.6 4h-7.5v28.7h-5.2v-28.7h-5.8v-4h5.8v-4.7c0-5.4 3.5-9.1 10-9.1 3 0 5.2.6 7.8 1.7l-1.7 3.8c-2.1-.9-4-1.2-5.8-1.2-3.7 0-5.1 1.5-5.1 4.8zm37.6 7c3.8 1.7 5.7 4.4 5.7 8.4 0 6.4-4.6 11-12.3 11-1.5 0-2.9-.2-4.2-.6-1.1.7-1.8 1.9-1.8 3.2 0 1.6 1 2.8 4.5 2.8h5.2c6.7 0 11 3.8 11 8.9 0 6.3-5 9.8-15.1 9.8-10.5 0-13.9-3.2-13.9-9.8h4.7c0 3.9 1.9 5.7 9.2 5.7 7.2 0 9.8-1.9 9.8-5.4 0-3.2-2.6-4.9-6.8-4.9h-5.2c-5.7 0-8.3-2.9-8.3-6.1 0-2.2 1.2-4.2 3.5-5.7-3.7-2-5.5-4.9-5.5-9.1 0-6.7 5.2-11.3 12.4-11.3 8.3.2 11.1-1.1 14.8-2.7l1.6 4.8c-2.4.9-5.5 1-9.3 1zm-14 8.3c0 4.6 2.6 7.7 7.2 7.7 4.7 0 7.2-2.8 7.2-7.7s-2.4-7.5-7.3-7.5c-4.6 0-7.1 3.2-7.1 7.5zm60.5-1.3v23.5h-5.2v-22.7c0-5-2.1-6.7-5.5-6.7-3.7 0-6.4 2.4-8.7 6v23.4h-5.2v-45.9l5.2-.6v18.4c2.4-3.3 5.7-5.4 10-5.4 5.9 0 9.4 3.9 9.4 10zm24.4-21.1c0 2.1-1.5 3.6-3.7 3.6s-3.7-1.6-3.7-3.6c0-2.1 1.5-3.6 3.7-3.6s3.7 1.6 3.7 3.6zm-6.3 44.6v-32.7h5.2v32.7h-5.2zm18.7 13l-1.5-3.8c4.3-2.1 6.3-3.7 6.3-10.8v-31.2h5.2v30.9c0 9.2-3.3 11.9-10 14.9zm11.1-57.6c0 2.1-1.5 3.6-3.7 3.6s-3.7-1.6-3.7-3.6c0-2.1 1.5-3.6 3.7-3.6s3.7 1.6 3.7 3.6zm17.3 44.6v-45.9l5.2-.6v46.6h-5.2zm25.3 0h-6.3l-13.4-17.9 12.4-14.9h5.9L378.7 368l13.8 18.3zm19.5-3.6c.8 0 1.5-.1 2.1-.4l1.4 3.7c-1.4.7-3 1.1-4.6 1.1-4 0-6.3-2.4-6.3-7v-39.6l5.2-.6v40.2c0 1.6.6 2.6 2.2 2.6zm58.7-19.9v23.5h-5.2v-22.7c0-5-2.1-6.7-4.8-6.7-3.7 0-5.8 2.4-8.1 6v23.3h-5.2v-22.7c0-5-2.1-6.7-4.8-6.7-3.6 0-5.8 2.4-8 6v23.3h-5.2v-32.7h4.5l.4 4.9c2.3-3.4 5.4-5.7 9.6-5.7 4.1 0 7 2.3 8.2 6.1 2.4-3.6 5.5-6.1 9.9-6.1 5.2.2 8.7 4.1 8.7 10.2zm42.7 0v23.5h-5.2v-22.7c0-5-2.1-6.7-5.4-6.7-3.9 0-6.5 2.4-8.7 6v23.3h-5.2v-32.7h4.5l.4 4.9c2.4-3.4 5.9-5.7 10.3-5.7 5.8.1 9.3 3.9 9.3 10.1zm44.4 7c0 10.3-5.3 17.2-14.4 17.2s-14.4-6.6-14.4-17c0-10.3 5.3-17.2 14.4-17.2 9.2 0 14.4 6.6 14.4 17zm-23.2.2c0 8.7 3.1 12.8 8.8 12.8s8.8-4.2 8.8-12.9-3.1-12.8-8.8-12.8c-5.6-.1-8.8 4.1-8.8 12.9zm65.9-.2c0 10-4.4 17.2-12.8 17.2-3.7 0-6.7-1.3-8.7-3.9v15.6l-5.2.6v-45.9h4.5l.4 4.5c2.4-3.4 5.9-5.3 9.7-5.3 8.6.2 12.1 6.9 12.1 17.2zm-5.6 0c0-8.7-2.6-12.9-7.7-12.9-3.6 0-6.3 2.5-8.2 5.2v16.4c1.7 2.6 4.4 4.2 7.5 4.2 5.5 0 8.4-4.1 8.4-12.9zm46.4 29.6l-5.2-.6v-16.9c-2.1 3.1-5.4 5.1-9.4 5.1-7.9 0-12.3-6.7-12.3-17 0-10 4.8-17.2 12.8-17.2 4.2 0 7.1 2.1 9.3 4.5l.4-3.7h4.5v45.8zm-5.2-21.7v-16.3c-2-2.7-4.4-4.4-7.8-4.4-5.1 0-8.3 4.3-8.3 13s2.9 12.9 7.8 12.9c3.8 0 6.1-1.9 8.3-5.2zm40.7-24.5l-.9 5.1c-1-.2-1.7-.4-2.9-.4-4.2 0-6.5 2.9-8 9.2v19.2h-5.2v-32.7h4.5l.5 6.8c1.7-5 4.8-7.6 8.8-7.6 1.1 0 2.3.1 3.2.4zm32 3.3l-2.3 3.5c-2.9-2.1-5.4-3-8.5-3-3.9 0-6.3 1.8-6.3 4.6s1.9 4 7.3 5.5c6.9 1.8 10.8 4.4 10.8 10.1 0 6.7-6 9.8-12.6 9.8-5.5 0-9.4-1.8-12.3-4.3l2.9-3.3c2.6 2.1 5.5 3.4 9.2 3.4 4.4 0 7.3-2.1 7.3-5.1 0-3.6-1.7-4.9-8.2-6.6-7-1.9-9.8-4.8-9.8-9.5 0-5.1 4.9-8.8 11.6-8.8 4.4 0 7.8 1.4 10.9 3.7zm24.5 30.5c-5.4 0-8.7-3.2-8.7-9.1v-20.3H719v-4h5.7V346l5.2-.6v8.1h7.9l-.6 4h-7.3v20c0 3.4 1.2 5 4.1 5 1.6 0 2.9-.4 4.5-1.4l2 3.6c-2.1 1.6-4.4 2.3-7.2 2.3zm39.1-.7l-.4-5.3c-2.4 4-5.5 6-10.3 6-5.8 0-9.1-3.6-9.1-10v-23.5h5.2v22.9c0 4.7 1.6 6.4 5.4 6.4s6.5-2.4 8.5-5.9v-23.5h5.2v32.7h-4.5zm28.8 0l-11.4-32.7h5.7l8.9 28.1 8.8-28.1h5.5l-11.2 32.7h-6.3zm52.8 0l-6-28-6.2 28h-7l-7.8-32.7h5.3l6.2 29.1 6.7-29.1h5.9l6.5 29.1 6.2-29.1h5l-7.5 32.7H854zm45.3 0l-8.3-14.2-8.5 14.2h-5.9l11.5-17.3-10.1-15.5h6.1l7.2 12.3 7.2-12.3h5.9l-10.1 15.2 11.5 17.6h-6.5zm16.8 13.1l-.6-4.1c6.7-1.2 8.5-3.8 10.4-9H924l-11-32.8h5.6l9 28.9 8.8-28.9h5.4l-11 32.9c-2.3 7-5.9 11.9-14.7 13zm40.2-17.5h17.5l-.6 4.4h-22.8v-3.9l17.3-24.4h-15.9v-4.4h21.8v4l-17.3 24.3zM19.4 479.6v-36l-9.8 6-2.3-3.6 12.8-7.9h4.6v41.6h-5.3zm44.9-30.9c0 7.9-4.9 13.3-17.9 26.5h18.9l-.6 4.4H40.4v-4.2c14.8-15.6 18.4-19.6 18.4-26.5 0-4.5-2.9-7.2-7-7.2-3.6 0-6 1.5-8.7 4.6l-3.5-2.7c3.4-4.1 7.3-6.2 12.4-6.2 7.5 0 12.3 4.9 12.3 11.3zm36.4-.7c0 5.4-3.5 8.5-8.2 9.6 5.2.4 9.4 3.8 9.4 10.1 0 7.3-5.4 12.7-13.9 12.7-5 0-9.2-1.8-12.4-5.5l3.2-3c2.7 3 5.5 4.2 9 4.2 5.4 0 8.7-3.4 8.7-8.4 0-5.9-3.3-7.8-8.5-7.8h-3l.6-4h2.1c4.2 0 7.7-2.6 7.7-7.6 0-4.1-2.8-6.6-7.2-6.6-3.3 0-5.9 1.1-8.7 3.7l-2.7-3.1c3.5-3.2 7.3-4.9 11.8-4.9 7.8 0 12.1 4.9 12.1 10.6zm36.6 21.3v10.4h-5.1v-10.4h-17.9v-3.8l12.6-28 4.4 1.8-11.5 25.7h12.4l.5-11.4h4.5V465h5.4v4.2h-5.3zm23.1-27.1v12.7c2.2-1.1 4.4-1.7 6.8-1.7 7 0 11.8 4.9 11.8 13.1 0 8.3-5.6 14.1-14.2 14.1-5.2 0-9-2-12.1-5.2l3.2-3.1c2.6 2.7 5.2 4 9 4 5.4 0 8.8-3.6 8.8-9.9 0-6.5-3.4-8.9-7.9-8.9-2.4 0-4 .5-6.1 1.6h-4.1v-20.8h22.2l-.7 4.1h-16.7zm58.1 23.4c0 9.1-5.7 14.8-13 14.8-10 0-13.8-8.4-13.8-20.1 0-13.8 5.9-22.8 15.5-22.8 3.4 0 6 .9 8.4 2.5l-2.1 3.5c-1.9-1.2-4-1.8-6.4-1.8-6.2 0-10 6.5-10.2 16.4 2.7-3.9 6.1-5.6 10.1-5.6 6.2-.1 11.5 4.2 11.5 13.1zm-5.3.1c0-6.7-2.9-9.1-7-9.1-3.9 0-7 2.4-9.2 5.9.2 9.1 2.7 13.8 8.5 13.8 5.1-.1 7.7-4.3 7.7-10.6zm22.8 14.5l-4.8-1.6 15.2-36.3h-18.7V438h24v3.9L236 480.2zm53.8-11.6c0 7-5.9 11.8-14.3 11.8-8.5 0-14-4.9-14-11.7 0-5.4 3.1-8.7 8.4-11-4.6-2.2-6.7-5.4-6.7-9.7 0-6.9 6.2-10.6 12.4-10.6s12.4 3.4 12.4 10.5c0 4.2-2.4 7-7.2 9.5 6 2.4 9 5.9 9 11.2zm-5.4 0c0-4.6-2.4-6.6-9.1-9l-1.7-.6c-4.5 2-6.5 4.9-6.5 9.6 0 4.7 3.3 7.5 8.6 7.5 5.3.1 8.7-2.9 8.7-7.5zm-15.9-20.5c0 4.2 2.7 5.9 7.7 7.6l1.2.4c3.9-2.2 5.6-4.4 5.6-8 0-4.1-2.7-6.7-7.3-6.7-4.4 0-7.2 2.4-7.2 6.7zm59.8 5.7c0 17-6.9 22.8-21.8 27.2l-1.2-3.9c10.6-3 17.2-8 17.7-17.7-1.9 2.9-5.3 5.2-9.5 5.2-6.5 0-11.5-5.1-11.5-13.3 0-8.7 5.9-13.7 13.1-13.7 8.8-.2 13.2 6.3 13.2 16.2zm-5.4 1.1c.2-9.5-2.4-13.3-7.8-13.3-5 0-8 3.5-8 9.6s3 9 7.2 9c3.8.1 6.5-2 8.6-5.3zm45.9 4c0 13.8-4.5 21.5-13.7 21.5s-13.7-7.7-13.7-21.5c0-13.9 4.5-21.4 13.7-21.4s13.7 7.5 13.7 21.4zm-22 0c0 12.4 2.9 17.4 8.3 17.4s8.3-5 8.3-17.3c0-12.4-2.9-17.3-8.3-17.3-5.4-.1-8.3 4.8-8.3 17.2zm39.9-1c0 13.4 3.7 20.2 9.3 28.4l-3.3 2.2c-6.1-8.6-11.5-16-11.5-30.7s5.4-22.1 11.5-30.7l3.3 2.2c-5.5 8.4-9.3 15.1-9.3 28.6zm35.8 0c0 14.7-5.4 22.1-11.5 30.7l-3.3-2.2c5.6-8.3 9.3-15.1 9.3-28.4 0-13.4-3.7-20.2-9.3-28.4l3.3-2.2c6.1 8.4 11.5 15.8 11.5 30.5zm20.4 18.4c0 2.2-1.7 4-4 4-2.2 0-4-1.8-4-4s1.7-4 4-4c2.3.1 4 1.9 4 4zm-6.4-10.8l-.6-28.7h5.7l-.5 28.7h-4.6zm42.5-19.8c0 9.8-11.3 8.5-11.3 16.9v2.9h-5.2v-3.2c0-10.5 11-9.4 11-16.3 0-3.5-2.5-5.5-6.5-5.5-3.3 0-6.2 1.4-8.8 4.5l-3.5-2.7c3.5-4.1 7.6-6.1 12.7-6.1 7.5-.1 11.6 4.5 11.6 9.5zm-9.7 30.6c0 2.2-1.7 4-4 4-2.2 0-4-1.8-4-4s1.7-4 4-4c2.3.1 4 1.9 4 4zm47.9-30.8c0 5.3-4 8.5-9 11.5l11.4 10.7c1.5-3.1 2.9-6.7 3.8-10.8l4.9 1.4c-1.6 5.2-3.4 9.2-5.5 12.5l7.2 6.7-3.8 3-6.3-6c-3.4 3.9-7.7 6-13.8 6-8 0-13.8-4.5-13.8-11.6 0-5.5 3.4-9 8.8-12.4-3.8-3.6-6.2-6.4-6.2-10.7 0-5.4 4-9.6 11-9.6 6.7-.1 11.3 3.9 11.3 9.3zm-19.5 23.1c0 4.7 3.7 7.6 9 7.6 4.2 0 7.3-1.7 10.1-4.8l-12.7-12.1c-4.3 2.7-6.4 5.5-6.4 9.3zm2.5-22.9c0 3.2 1.7 5.3 5 8.4 4.2-2.5 6.8-4.9 6.8-8.3 0-3.7-2.4-5.8-5.9-5.8-3.8 0-5.9 2.4-5.9 5.7zm51.5-9.1c0 .9-.2 1.8-1 3.4l-4 8.6h-3.4l2.4-9.1c-1-.7-1.5-1.7-1.5-2.9 0-2 1.7-3.6 3.7-3.6 2.1 0 3.8 1.6 3.8 3.6zm20.3 0c0 .9-.2 1.8-1 3.4l-4 8.6h-3.4l2.4-9.1c-1-.7-1.5-1.7-1.5-2.9 0-2 1.7-3.6 3.7-3.6 2.1 0 3.8 1.6 3.8 3.6z"/></svg>