<svg id="Layer_1" xmlns="http://www.w3.org/2000/svg" viewBox="0 0 200 57"><style>.st0{fill:#231f20}</style><path class="st0" d="M44.2 50.7H0V11.4l17-11L44.2 20v30.7zm-39-5.3H39V22.7L16.8 6.8 5.2 14.3v31.1zM66.4 8.9h-4.1v17h-2.6v-17h-6V6.8h14.7v2.1h-2zm12.6 17h-.6v-8.2c0-2.1-.5-3.5-2.7-3.5-1.1 0-2.7.6-3.6 1.4v10.3h-2.4V6h2.4v7.7c1.3-.9 2.8-1.5 4.3-1.5 1.8 0 3.3.9 3.9 2.4.3.7.5 1.3.5 2.4v9H79zm15.4-6.2h-8.8c.1 2.5 1.5 4.7 4.1 4.7 1.6 0 3-.5 4.3-1.6l.3 1.9c-1.5 1.1-3.1 1.6-4.9 1.6-4.3 0-6.4-3.2-6.4-7.2 0-3.8 2.2-7 6.3-7 1.1 0 2.1.3 2.9.8 1.7 1.1 2.4 3 2.4 5.1-.1.5-.1 1.1-.2 1.7zM89 14c-2.2 0-3.3 1.8-3.5 3.8H92v-.3c0-1.7-1-3.5-3-3.5zm22.3 12.2c-6.2 0-9-4.2-9-9.9 0-5.6 3.3-10 9.2-10 1.6 0 3 .4 4.5 1l-.7 2c-1.2-.6-2.5-.9-3.8-.9-4.5 0-6.5 3.7-6.5 7.7 0 3.9 1.6 7.8 6 7.8 1.1 0 2.3-.2 3.2-.7V19h-2.6v-2.1h5.2v7.5c-1.4 1.1-3.6 1.8-5.5 1.8zm14.8-11.8c-.3-.1-.8-.1-1.3-.1-1.2 0-2.3.8-3 1.8V26h-2.4V12.5h1.9l.3 1.4c.7-1.1 2.1-1.7 3.4-1.7.4 0 .8.1 1.3.2l-.2 2zm9 11.5l-.1-1.1c-1 .9-2.5 1.5-3.9 1.5-2.3 0-4.3-1.4-4.3-4.2 0-4 4.5-4.9 7.6-4.9h.5c0-2.1-.6-3.1-2.5-3.1-1 0-2.7.4-4.2 1.4l-.7-1.7c1.6-1.1 3.6-1.7 5.1-1.7 3.2 0 4.7 1.6 4.7 5.2v8.6h-2.2zm-.3-6.9c-1.9 0-5.4.3-5.4 3 0 1.5 1.2 2.2 2.4 2.2 1.1 0 2.5-.8 3.1-1.4V19zm10.8 7.1c-1.2 0-2.4-.4-3.3-1v6.4H140v-19h1.8l.3 1.2c1.2-1.1 2.7-1.6 3.9-1.6 1.3 0 2.5.5 3.4 1.2 1.4 1.2 2.2 3.2 2.2 5.6.1 4.3-2.7 7.2-6 7.2zm0-11.9c-1.2 0-2.5.6-3.2 1.4V23c.8.6 2 1 3 1 1.8 0 3.7-1.5 3.7-5 0-3.2-1.4-4.8-3.5-4.8zM163 25.9h-.6v-8.2c0-2.1-.5-3.5-2.7-3.5-1.1 0-2.7.6-3.6 1.4v10.3h-2.4V6h2.4v7.7c1.3-.9 2.8-1.5 4.3-1.5 1.8 0 3.3.9 3.9 2.4.3.7.5 1.3.5 2.4v9H163zm6.1-14.9c-.8 0-1.6-.5-1.6-1.4 0-.9.7-1.4 1.6-1.4.8 0 1.6.5 1.6 1.4 0 .9-.8 1.4-1.6 1.4zm-1.2 14.9V12.5h2.5v13.4h-2.5zm11.6.4c-4 0-6.6-3-6.6-6.9 0-4.2 2.7-7.3 7-7.3 1.5 0 2.9.4 4.1 1.3l-.5 1.8c-1.1-.8-2.3-1.2-3.5-1.2-2.8 0-4.5 2.4-4.5 5.1 0 2.7 1.4 5.3 4.4 5.3 1.3 0 2.6-.4 3.8-1.2l.5 1.8c-1.6.8-3.1 1.3-4.7 1.3zM60.7 51c-1.8 0-3.6-.1-5.4-.1V31.6c1.6-.3 3.1-.4 4.7-.4 6.7 0 10 3.5 10 10.2 0 5.8-3.2 9.6-9.3 9.6zm-.5-17.7c-.8 0-1.5.1-2.3.1v15.3c.9.1 1.8.1 2.6.1 4.7 0 6.7-3.2 6.7-7.6 0-4.5-2.1-7.9-7-7.9zM83 44.5h-8.8c.1 2.5 1.5 4.7 4.1 4.7 1.6 0 3-.5 4.3-1.6l.3 1.9C81.4 50.6 79.7 51 78 51c-4.3 0-6.4-3.2-6.4-7.2 0-3.8 2.2-7 6.3-7 1.1 0 2.1.3 2.9.8 1.7 1.1 2.4 3 2.4 5.1-.1.6-.1 1.2-.2 1.8zm-5.3-5.7c-2.2 0-3.3 1.8-3.5 3.8h6.4v-.3c0-1.8-1-3.5-2.9-3.5zM88.6 51c-1.4 0-2.8-.4-4.1-1l.6-1.8c1.2.6 2.4.9 3.7.9 1.1 0 2.3-.6 2.3-1.8 0-.9-.6-1.5-1.5-1.9-2-1.2-5.1-1.8-5.1-4.7 0-2.6 2.4-3.8 4.6-3.8 1.3 0 2.6.3 3.9 1l-.7 1.8c-1-.6-2-.9-3-.9-1.1 0-2.3.5-2.3 1.7 0 .7.6 1.1 1.6 1.6.4.2 1.5.7 1.9 1 1.5.8 3 1.9 3 4-.1 2.7-2.4 3.9-4.9 3.9zm8.2-15.2c-.8 0-1.6-.5-1.6-1.4 0-.9.7-1.4 1.6-1.4.8 0 1.6.5 1.6 1.4 0 .8-.8 1.4-1.6 1.4zm-1.2 14.9V37.3h2.5v13.4h-2.5zm17-12.8c-.7 0-1.4.1-1.9.7.9.8 1.2 2.1 1.2 3.3 0 3.2-2.9 4.5-5.7 4.5-.6 0-1.4-.1-2-.3l-.3.5c-.1.2-.2.3-.2.5 0 .3.6.5.8.5.8.2 1.6.2 2.4.3 2.4.4 5.3 1.1 5.3 4.1 0 3.1-3.8 4.4-6.4 4.4-2.6 0-5.9-1.1-5.9-4.2 0-1.3.8-2.5 1.9-3.2-.3-.2-.5-.6-.5-.9 0-.7.3-1.1.8-1.7l.8-.9c-1.3-.7-2.2-2.2-2.2-3.8 0-3.1 2.7-4.9 5.8-4.9 1 0 2.3.3 3.2.8.7-.8 1.8-1.5 2.8-1.5.2 0 .5 0 .7.1V38c-.2-.1-.4-.1-.6-.1zM105.2 50c-.7-.1-1.5-.2-2.1-.3-.6.6-1.1 1.4-1.1 2.3 0 2.1 2.2 2.9 4 2.9 1.7 0 4-.6 4-2.6.1-1.8-3.6-2.1-4.8-2.3zm1.3-11.4c-1.9 0-3.2 1.3-3.2 3.2 0 1.9 1.2 3.1 3.1 3.1 2 0 3.1-1.2 3.1-3.2-.1-1.8-1.2-3.1-3-3.1zM123 50.7v-8.2c0-2.1-.7-3.5-2.7-3.5-1.1 0-2.5.5-3.6 1.3v10.4h-2.4V37.2h2l.2 1.3c1.5-1.1 3.2-1.6 4.6-1.6 2.1 0 3.4 1.2 3.9 2.4.4 1 .5 1.9.5 4.3v7.1H123zm22.4 0v-9h-8.5v9h-2.6V31.6h2.6v7.9h8.5v-7.9h2.6v19.1h-2.6zm11.5.3c-4.3 0-6.5-3.1-6.5-7.1 0-3.9 2.5-7.1 6.6-7.1s6.5 3.1 6.5 7.1c-.1 3.9-2.4 7.1-6.6 7.1zm.1-12.3c-2.8 0-4 2.7-4 5.2s1.1 5.3 3.9 5.3 4-2.8 4-5.3c-.1-2.5-1.1-5.2-3.9-5.2zm17.3 12l-.2-1.3c-1.4 1.1-3 1.6-4.3 1.6-2.1 0-3.3-1.1-3.8-2.4-.4-1-.5-1.9-.5-4.3v-7.1h2.4v8.2c0 2.1.5 3.5 2.6 3.5 1.1 0 2.5-.5 3.4-1.3V37.3h2.4v13.4h-2zm8.1.3c-1.4 0-2.8-.4-4.1-1l.6-1.8c1.2.6 2.4.9 3.7.9 1.1 0 2.3-.6 2.3-1.8 0-.9-.6-1.5-1.5-1.9-2-1.2-5.1-1.8-5.1-4.7 0-2.6 2.4-3.8 4.6-3.8 1.3 0 2.6.3 3.9 1l-.7 1.8c-1-.6-2-.9-3-.9-1.1 0-2.3.5-2.3 1.7 0 .7.6 1.1 1.6 1.6.4.2 1.5.7 1.9 1 1.5.8 3 1.9 3 4-.1 2.7-2.4 3.9-4.9 3.9zm17.5-6.5H191c.1 2.5 1.5 4.7 4.1 4.7 1.6 0 3-.5 4.3-1.6l.3 1.9c-1.5 1.1-3.1 1.6-4.9 1.6-4.3 0-6.4-3.2-6.4-7.2 0-3.8 2.2-7 6.3-7 1.1 0 2.1.3 2.9.8 1.7 1.1 2.4 3 2.4 5.1 0 .5 0 1.1-.1 1.7zm-5.4-5.7c-2.2 0-3.3 1.8-3.5 3.8h6.4v-.3c.1-1.8-.9-3.5-2.9-3.5z"/></svg>