<?xml version="1.0" encoding="utf-8"?>
<!-- Generator: Adobe Illustrator 21.0.2, SVG Export Plug-In . SVG Version: 6.00 Build 0)  -->
<svg version="1.1" id="octagon_x5F_headings" xmlns="http://www.w3.org/2000/svg" xmlns:xlink="http://www.w3.org/1999/xlink"
	 x="0px" y="0px" viewBox="0 0 1000 500" style="enable-background:new 0 0 1000 500;" xml:space="preserve">
<g>
	<path d="M37.2,4.6L56.4,90H44l-3.4-17.6H21.9L18.6,90H7.3l18-85.4H37.2z M38.9,62.8l-7.4-39h-0.2l-7.4,39H38.9z"/>
	<path d="M76.9,4.6h16.6c19.2,0,23.9,12.4,23.9,21.4c0,9.4-3.4,14.7-11.5,18.3c9.8,3.1,13.3,11.1,13.3,20.9c0,7.9-3,24.8-25.2,24.8
		H76.9V4.6z M88.7,39.6h1.9c8.5,0,15-3.1,15-12.5c0-8-4.1-12.4-14.5-12.4h-2.3V39.6z M88.7,79.9c12.3,0,18.1-4.1,18.1-15.1
		c0-10.6-5.5-15.7-16.4-15.7h-1.7V79.9z"/>
	<path d="M172.8,26.3c-1.4-9.2-4.8-12.8-8.8-12.8c-9.3,0-11.6,16-11.6,32.7c0,19.2,2.1,34.8,11.3,34.8c6.4,0,9.5-8.4,10.6-16.6
		l11.4,4.1c-1.9,12.8-8.1,23.2-22.2,23.2c-15.7,0-23.4-12.3-23.4-45c0-16.7,2.3-43.9,24.1-43.9c10.1,0,17.2,6.3,20.4,19.5
		L172.8,26.3z"/>
	<path d="M207.5,4.6h13.7c22.5,0,28.7,21.2,28.7,43.4c0,18.2-5.7,42-27.7,42h-14.6V4.6z M219.4,79.9c14.2,0,18.1-14.4,18.1-32.7
		c0-21.1-6.3-32.5-18.1-32.5V79.9z"/>
	<path d="M304,4.6v10.1h-19.3v25H304v10.1h-19.3v30.2H304V90h-31.1V4.6H304z"/>
	<path d="M356.5,4.6v10.1h-19.3v25h19.3v10.1h-19.3V90h-11.8V4.6H356.5z"/>
	<path d="M407,26c-1-7.9-3.7-12.5-8.7-12.5c-6.2,0-10.2,8.6-10.2,35.6c0,17.3,1.6,31.9,10.2,31.9c8,0,9.8-11.8,10.2-29.6h-12.1V40.8
		h23.9v9.9c0,20.5-3.9,41.1-22.1,41.1c-20.5,0-22.6-22.4-22.6-44.5c0-23.6,4.2-44.5,22.6-44.5c11.8,0,17.5,7.8,20.2,18.9L407,26z"/>
	<path d="M443.2,4.6H455v35.1h17.1V4.6h11.8V90h-11.8V49.7H455V90h-11.8V4.6z"/>
	<path d="M510,4.6h11.8V90H510V4.6z"/>
	<path d="M575.9,4.6v68.9c0,9.3-4.4,18.2-16.8,18.2c-7.2,0-12.2-2.8-15.6-7.7l8-8.1c1.5,3.4,4.1,5.7,6.6,5.7c3.8,0,5.9-3,5.9-7V4.6
		H575.9z"/>
	<path d="M612.3,4.6v38.7h0.2l18.7-38.7H644l-20.4,40L645.4,90h-13.2l-19.6-42.6h-0.2V90h-11.8V4.6H612.3z"/>
	<path d="M679.2,4.6v74.8h19V90h-30.9V4.6H679.2z"/>
	<path d="M731,4.6l17.2,57h0.2l17.2-57h12.8V90h-11.3V33.1h-0.2l-14,48.5h-9.1l-14-48.5h-0.2V90h-11.3V4.6H731z"/>
	<path d="M814.8,4.6l17.4,54.1h0.2V4.6h11.3V90h-11.8l-17.4-54.1h-0.2V90H803V4.6H814.8z"/>
	<path d="M888.8,2.8c20.4,0,22.5,22.4,22.5,44.5c0,23.6-4.2,44.5-22.5,44.5c-20.5,0-22.6-22.4-22.6-44.5
		C866.2,23.7,870.3,2.8,888.8,2.8z M888.8,81c8.4,0,10.1-14.6,10.1-36.4c0-25.9-4.4-31.1-10.1-31.1c-6.2,0-10.2,8.6-10.2,35.6
		C878.6,66.4,880.2,81,888.8,81z"/>
	<path d="M933.7,4.6h12c15.3,0,25.5,7.2,25.5,26.5c0,15.8-7.7,26.7-23.7,26.7h-2V90h-11.8V4.6z M945.5,47.6
		c10.2,0,13.2-7.5,13.2-16.8c0-9.9-4.1-16.1-13.2-16.1V47.6z"/>
	<path d="M38.5,245.3c-1,0.3-2.1,0.7-3.1,0.9c-1.2,0.1-2.2,0.2-3.5,0.2c-20.5,0-22.6-22.4-22.6-44.5c0-23.6,4.2-44.5,22.6-44.5
		c20.4,0,22.5,22.4,22.5,44.5c0,15.1-1.7,29.1-7.9,37.3l5.2,8l-8.9,5.9L38.5,245.3z M36.3,223.5l3.1,4.8c2-6.3,2.6-16.4,2.6-28.9
		c0-25.9-4.4-31.1-10.1-31.1c-6.2,0-10.2,8.6-10.2,35.6c0,17.3,1.6,31.9,10.2,31.9c0.5,0,0.8,0,1.3-0.1l-4.3-7.9L36.3,223.5z"/>
	<path d="M77.5,159.3h19.2c12.9,0,22.1,9.2,22.1,23.4c0,8.7-4.9,18.5-14.6,21.1l17.3,40.9h-13.6l-15.7-39.1h-2.8v39.1H77.5V159.3z
		 M89.4,195.5c11.6,0,16.9-3.6,16.9-13.6c0-7.1-4.5-12.5-12.9-12.5h-4.1V195.5z"/>
	<path d="M167.7,180.1c-0.5-6.4-2.6-11.8-8.6-11.8c-4.6,0-7.4,4.2-7.4,8.9c0,4.3,1.9,9.2,8,15.2l9.6,9.4
		c8.1,7.9,10.6,14.4,10.6,23.3c0,11.7-7.1,21.4-20.5,21.4c-11.6,0-19.3-7.2-20.7-20.4l11.3-3.6c0.7,7.9,3.6,13.9,9.5,13.9
		c4.3,0,8.6-3.6,8.6-10.4c0-4.6-2-9.9-8.4-16.3l-9.3-9.2c-7.7-7.7-10.6-14.3-10.6-22.6c0-12.7,9.2-20.3,19-20.3
		c11.7,0,19.2,7.1,19.5,18.7L167.7,180.1z"/>
	<path d="M212.3,170h-15.1v-10.7h42V170h-15.1v74.8h-11.8V170z"/>
	<path d="M300.6,223.6c0,17.5-8.6,22.9-20.2,22.9c-11.8,0-20.4-5.3-20.4-22.9v-64.3h11.8v64.2c0,5.3,1.3,12.3,8.6,12.3
		c7.1,0,8.4-7,8.4-12.3v-64.2h11.8V223.6z"/>
	<path d="M333.5,159.3l9.3,60.1h0.2l8.8-60.1h11.8l-15.3,85.4h-11.3l-16-85.4H333.5z"/>
	<path d="M448.8,159.3l-14.6,85.4h-11.3l-8.6-60.4H414l-8.6,60.4h-11.3l-14.6-85.4H392l8,60.1h0.2l7.7-60.1h12.4l7.8,60.1h0.2
		l8.6-60.1H448.8z"/>
	<path d="M465.9,159.3h12.4l7.2,27.4h0.2l7.8-27.4H506l-14.2,41.1l15.4,44.3h-12.4l-9.1-31h-0.2l-8.5,31h-12.4l15.3-44.3
		L465.9,159.3z"/>
	<path d="M535.9,159.3l9.3,35.6h0.2l8.8-35.6h11.8l-15.1,51v34.5h-11.8v-34.5l-15.7-51H535.9z"/>
</g>
<g>
	<path d="M20.6,386.3v-4.9h-0.1c-1.7,3.9-3.9,5.5-7,5.5c-2.4,0-6.8-1.3-6.8-9.5c0-8.8,3.4-11.8,11.7-11.8h2.2v-4.3
		c0-2.2-1-3.9-3.8-3.9c-2.4,0-3.5,1.3-3.9,4.2l-5.4-1.5c0.9-6,4.8-7.8,9.5-7.8c5.8,0,9.2,2.6,9.2,8.8v25.3H20.6z M16,381.7
		c1.9,0,4.7-2.2,4.7-7.2v-4.4h-1.6c-5.7,0-6.3,3.2-6.3,6.5C12.7,379.6,13.3,381.7,16,381.7z"/>
	<path d="M38.7,340.5h5.7V358h0.1c1.4-4.1,3.2-5.8,6.4-5.8c4,0,7.6,3.4,7.6,17.2c0,10.7-2.6,17.4-7.8,17.4c-3.3,0-5.1-2.2-6.2-6
		l-0.1-0.1v5.5h-5.7V340.5z M48.4,381.4c1.7,0,3.9-1.6,3.9-11.9s-2.2-11.9-3.9-11.9c-1.7,0-3.9,1.6-3.9,11.9S46.6,381.4,48.4,381.4z
		"/>
	<path d="M81.5,362.6c-0.1-3.2-0.7-4.9-2.7-4.9s-3.4,1.6-3.4,12c0,7.7,0.9,11.8,3.5,11.8c2,0,2.9-1.6,3.3-5.7l5.4,1.9
		c-0.9,6.1-3.4,9.3-8.7,9.3c-6.5,0-9.5-5.2-9.5-16.7c0-12.4,3-17.9,9.8-17.9c5.8,0,8,4.9,8.2,9.1L81.5,362.6z"/>
	<path d="M111.6,380.7l-0.1,0.1c-1.1,3.9-2.9,6-6.2,6c-5.2,0-7.8-6.7-7.8-17.4c0-13.8,3.6-17.2,7.6-17.2c3.2,0,5,1.7,6.4,5.8h0.1
		v-17.6h5.7v45.8h-5.7V380.7z M107.6,381.4c1.7,0,3.9-1.6,3.9-11.9s-2.2-11.9-3.9-11.9c-1.7,0-3.9,1.6-3.9,11.9
		S106,381.4,107.6,381.4z"/>
	<path d="M135.5,370.2c0.1,6,0.4,11.6,4.3,11.6c2.8,0,3.7-3.4,3.8-5.9h5.4c-0.1,5.7-3,11-9.3,11c-7,0-10.2-4.9-10.2-18.2
		c0-11.4,3.9-16.4,10.3-16.4c6,0,9.8,4.7,9.8,13.1v4.8H135.5z M143.8,365.6c0-4-1-8.2-4.2-8.2c-3.3,0-4.1,4.2-4.1,8.2H143.8z"/>
	<path d="M168.9,386.3h-6v-28.1h-3.2v-5.4h3.2v-5c0-4.9,1-7.9,6.4-7.9c1.1,0,2.1,0.1,2.9,0.2v5.7c-0.2-0.1-0.6-0.2-1.1-0.2
		c-1.2,0-2.1,0.7-2.1,2.6v4.5h3.2v5.4h-3.2V386.3z"/>
	<path d="M201.7,352.8v35.5c0,5.7-3.4,10.2-10.2,10.2c-4.4,0-7.3-1.4-9.3-4.5l4.9-3.4c0.9,1.6,2.5,2.8,4.5,2.8
		c3.5,0,4.5-3.2,4.5-9.8v-2.9h-0.1c-1.1,3.9-2.9,6-6.2,6c-5.2,0-7.8-6.7-7.8-17.4c0-13.8,3.6-17.2,7.6-17.2c3.5,0,5.3,2.2,6.7,6h0.1
		v-5.5H201.7z M192,357.6c-1.7,0-3.9,1.6-3.9,11.9s2.2,11.9,3.9,11.9c1.7,0,3.9-1.6,3.9-11.9S193.8,357.6,192,357.6z"/>
	<path d="M214.5,340.5h6v16.1h0.1c1.1-2.4,3.2-4.4,6.3-4.4c3.4,0,6.3,3,6.3,7.4v26.6h-6v-24.2c0-2.6-1.2-4.1-2.9-4.1
		c-2.4,0-3.7,2.3-3.7,4.7v23.6h-6V340.5z"/>
	<path d="M249.1,341.2c2.2,0,3.9,1.7,3.9,3.9c0,2.2-1.7,3.9-3.9,3.9c-2.1,0-3.9-1.7-3.9-3.9C245.2,343,246.9,341.2,249.1,341.2z
		 M246.1,352.8h6v33.5h-6V352.8z"/>
	<path d="M271,352.8V389c0,6.8-3.2,9.1-7.3,9.1c-0.7,0-1.8-0.2-2.6-0.4V392c0.4,0.2,0.8,0.4,1.2,0.4c1.7,0,2.6-1.6,2.6-4.3v-35.4
		H271z M267.9,341.2c2.2,0,3.9,1.7,3.9,3.9c0,2.2-1.7,3.9-3.9,3.9c-2.1,0-3.9-1.7-3.9-3.9C264.1,343,265.8,341.2,267.9,341.2z"/>
	<path d="M283.8,340.5h6v26.1h0.1l5.2-13.8h6l-5.9,14.1l5.9,19.4h-6L290,369h-0.1v17.3h-6V340.5z"/>
	<path d="M311.9,340.5h6v36.6c0,2.6,1.1,4,3.9,4h0.6v5.7h-2.2c-5,0-8.3-2.2-8.3-8.5V340.5z"/>
	<path d="M332,352.8h5.7v5h0.1c1.4-3.5,3.5-5.6,6.7-5.6c3.2,0,4.9,2.1,6,5.5h0.1c0.9-2.4,2.7-5.5,7.2-5.5c4.2,0,6.7,3,6.7,7.3v26.8
		h-6v-23.5c0-2.6-0.8-4.9-3.2-4.9c-2.8,0-4,2.7-4,6v22.3h-6v-23.5c0-2.6-0.8-4.9-3.2-4.9c-2.8,0-4,2.7-4,6v22.3h-6V352.8z"/>
	<path d="M377.3,352.8h5.7v4.5h0.1c1.5-3.7,3.7-5.1,6.7-5.1c3.3,0,6.2,3,6.2,7.4v26.6h-6v-24.2c0-2.6-1.2-4.1-2.9-4.1
		c-2.4,0-3.7,2.3-3.7,4.7v23.6h-6V352.8z"/>
	<path d="M407.8,369.5c0-9.6,2.6-17.3,10.5-17.3c7.9,0,10.5,7.7,10.5,17.3s-2.6,17.3-10.5,17.3C410.4,386.8,407.8,379.1,407.8,369.5
		z M422.4,367.9c0-6.1-0.9-10.6-4.1-10.6s-4.1,4.5-4.1,10.6c0,9.1,1.3,13.8,4.1,13.8S422.4,377.1,422.4,367.9z"/>
	<path d="M440.5,352.8h5.4v5.5h0.1c1.4-3.9,3.2-6,6.7-6c4,0,7.6,3.4,7.6,17.2c0,10.7-2.6,17.4-7.8,17.4c-3.3,0-5.1-2.2-6.2-6
		l-0.1-0.1v17.4h-5.7V352.8z M450.2,381.4c1.7,0,3.9-1.6,3.9-11.9s-2.2-11.9-3.9-11.9c-1.7,0-3.9,1.6-3.9,11.9
		S448.4,381.4,450.2,381.4z"/>
	<path d="M485.2,380.7l-0.1,0.1c-1.1,3.9-2.9,6-6.2,6c-5.2,0-7.8-6.7-7.8-17.4c0-13.8,3.6-17.2,7.6-17.2c3.5,0,5.3,2.2,6.7,6h0.1
		v-5.5h5.4v45.4h-5.7V380.7z M481.3,381.4c1.7,0,3.9-1.6,3.9-11.9s-2.2-11.9-3.9-11.9c-1.7,0-3.9,1.6-3.9,11.9
		S479.6,381.4,481.3,381.4z"/>
	<path d="M503.8,352.8h5.7v6.1h0.1c0.6-3,2.7-6.3,7.2-6.7h0.1v7c-0.5-0.2-1.1-0.3-1.8-0.3c-2.3,0-5.3,1.6-5.3,7.8v19.5h-6V352.8z"/>
	<path d="M531.3,377.1c0.1,2.4,1.6,4.7,4.1,4.7c2.2,0,3.4-1.7,3.4-3.4c0-1.6-0.9-3.4-3.7-5.6l-3.2-2.5c-4.1-3.2-5.5-5.7-5.5-9.2
		c0-5.5,3.9-8.8,8.9-8.8c5.2,0,7.7,2.9,9.1,6.5l-5.2,3.1c-0.1-2.4-1.4-4.5-4-4.5c-1.9,0-3.1,1.2-3.1,3c0,1.4,0.6,2.6,3.7,5l3.8,2.9
		c3.9,3,5.2,6.1,5.2,9.4c0,4.9-3.4,9.1-9.6,9.1c-4.4,0-7.3-1.9-9.2-6.5L531.3,377.1z"/>
	<path d="M566.4,358.2h-3.2v19.7c0,1.7,0.9,2.6,2.5,2.6h0.7v5.4c-1,0.2-2,0.3-2.9,0.3c-3.9,0-6.4-1.8-6.4-6v-22h-3.2v-5.4h3.2v-8.3
		h6v8.3h3.2V358.2z"/>
	<path d="M595.9,386.3h-5.7v-4.5h-0.1c-1.5,3.7-3.7,5.1-6.7,5.1c-3.3,0-6.2-3-6.2-7.4v-26.6h6V377c0,2.6,1.2,4.1,2.9,4.1
		c2.4,0,3.7-2.3,3.7-4.7v-23.6h6V386.3z"/>
	<path d="M626.1,352.8l-6.8,33.5h-5.7l-6.8-33.5h6.3l3.5,21.9h0.1l3.4-21.9H626.1z"/>
	<path d="M658.8,386.3H653l-3.3-25.4h-0.1l-3.2,25.4h-5.7l-5.9-33.5h6l2.9,21.9h0.1l2.8-21.9h6l3,21.9h0.1l2.7-21.9h6L658.8,386.3z"
		/>
	<path d="M680,352.8l3.2,10.8h0.1l3-10.8h5.7l-6.2,15.9l6.7,17.6h-6l-3.6-12.2h-0.1l-3.2,12.2h-6l6.7-17.5l-6.5-16H680z"/>
	<path d="M720.9,352.8l-9.3,45.4h-6l3-13.4l-7-31.9h6l4,22h0.1l3.2-22H720.9z"/>
	<path d="M740.7,358.2H730v-5.4h18.5v0.7l-10.5,27h10.6v5.7h-18.5v-0.7L740.7,358.2z"/>
	<path d="M12,479.6v-35c-1.1,1.2-4.2,3-5.7,3.5v-5.7c3.9-1.7,8-4.7,10.9-7.3h1.2v44.5H12z"/>
	<path d="M52.7,479.6H31.4l10.5-20.3c2.2-4.3,4.8-9.5,4.8-13.3c0-2.6-1.4-5.2-3.9-5.2c-3.1,0-4.1,2.9-4.4,7.8H32
		c0-7.3,2.6-13.5,11-13.5c6.9,0,10.3,5.4,10.3,10.6c0,5.4-3.5,11.8-6.6,17.4l-5.9,10.8h12V479.6z"/>
	<path d="M74.8,441.6H64.4v-5.7h19.8v0.7l-10.1,16.1c0.7-0.2,1.4-0.2,2.2-0.2c5.7,0,8.1,5.3,8.1,14.1c0,8-4.1,13.8-11,13.8
		c-6.8,0-9.9-5-9.9-12.8h6.3c0,4.2,0.9,7,4,7c3.2,0,4.2-3.9,4.2-8.9c0-5-1.5-8.7-4.9-8.7c-1.5,0-2.7,0.6-3.8,2.1l-3.7-2.9
		L74.8,441.6z"/>
	<path d="M112.4,435.9V466h4.7v5.4h-4.7v8.3h-6v-8.3H93.6V467l13-31.1H112.4z M106.3,466v-18.7h-0.1L98.7,466H106.3z"/>
	<path d="M146.2,441.6h-12.5l-0.2,10.8l0.1,0.1c1.4-2.2,3.2-3.2,6-3.2c3.6,0,8.1,3.5,8.1,14.2c0,7-1.1,16.8-10.5,16.8
		c-8.3,0-10.5-6.4-10.5-11.9V467h6c0,3.7,0.9,8,4,8c3.6,0,4.5-4.6,4.5-10.8c0-6.7-1.7-9.3-4.4-9.3c-1.7,0-3.6,1.1-3.8,4.7h-5.4
		l0.2-23.6h18.2V441.6z"/>
	<path d="M176.7,435.9c-3,4.2-6.2,10.1-9,15.4h0.1c0.9-0.5,2.1-0.8,3.4-0.8c3.8,0,8.2,3.3,8.2,15.1c0,6.8-2.7,14.8-10.6,14.8
		c-7.3,0-10.6-6-10.6-15c0-8.1,2.6-15.1,11.2-29.5H176.7z M164.3,465.3c0,4,0.9,9.7,4.5,9.7c2.8,0,4.1-3.4,4.1-9.7
		c0-6.1-1.2-9.3-4-9.3C165.5,455.9,164.3,460.4,164.3,465.3z"/>
	<path d="M190.6,435.9h21l-14.3,43.8h-6.3l12.5-38h-12.8V435.9z"/>
	<path d="M227.3,455.9c-4-1.9-4.9-4.9-4.9-9.2c0-6.6,3.3-11.6,9.6-11.6c6.3,0,9.6,5,9.6,11.6c0,4.4-0.9,7.3-4.9,9.2
		c4.2,1.9,5.7,5.7,5.7,11.5c0,6.2-2.6,13-10.5,13c-7.9,0-10.5-6.8-10.5-13C221.6,461.6,223.1,457.8,227.3,455.9z M232.1,474.7
		c3.2,0,4.1-3.8,4.1-7.9c0-4.5-1-7.7-4.1-7.7c-3.1,0-4.1,3.2-4.1,7.7C228,470.9,228.8,474.7,232.1,474.7z M232.1,453.6
		c2.7,0,3.6-3,3.6-6.7c0-3.7-1.1-6.3-3.6-6.3c-2.6,0-3.6,2.6-3.6,6.3C228.5,450.6,229.3,453.6,232.1,453.6z"/>
	<path d="M255.8,479.6c3-4.2,6.2-10.1,9-15.4h-0.1c-0.9,0.5-2.1,0.8-3.4,0.8c-3.8,0-8.2-3.3-8.2-15.1c0-6.8,2.7-14.8,10.6-14.8
		c7.3,0,10.6,6,10.6,15c0,8.1-2.6,15.1-11.2,29.5H255.8z M268.2,450.3c0-4-0.9-9.7-4.5-9.7c-2.8,0-4.1,3.4-4.1,9.7
		c0,6.1,1.2,9.3,4,9.3C267,459.6,268.2,455.1,268.2,450.3z"/>
	<path d="M284.9,457.1c0-11.1,0.7-21.9,10.5-21.9c9.8,0,10.5,10.8,10.5,21.9c0,13.8-1.4,23.3-10.5,23.3
		C286.2,480.4,284.9,470.8,284.9,457.1z M291.2,457.1c0,12.7,0.7,17.6,4.1,17.6c3.7,0,4.1-4,4.1-17.6c0-12.5-0.6-16.2-4.1-16.2
		C291.8,440.9,291.2,444.5,291.2,457.1z"/>
	<path d="M331.2,433.8c-4.3,8.2-6.3,17.4-6.3,26.9c0,9.5,2.1,18.7,6.3,26.9l-5.4,2.7c-4.9-9.1-7-19.5-7-29.6c0-10.1,2.1-20.4,7-29.6
		L331.2,433.8z"/>
	<path d="M340.4,487.6c4.3-8.2,6.3-17.4,6.3-26.9c0-9.5-2.1-18.7-6.3-26.9l5.4-2.7c4.9,9.1,7,19.5,7,29.6c0,10.1-2.1,20.4-7,29.6
		L340.4,487.6z"/>
	<path d="M371,472.6c2.1,0,3.7,1.7,3.7,3.7c0,2.1-1.7,3.7-3.7,3.7c-2.1,0-3.7-1.7-3.7-3.7C367.3,474.2,368.9,472.6,371,472.6z
		 M374.5,433.8l-1.2,34h-4.6l-1.2-34H374.5z"/>
	<path d="M391.8,467.8c0.2-7.7,0.7-9.4,2.4-12.2l2.6-4.2c1.9-3,2.2-4.5,2.2-8c0-3.5-0.9-5.1-3.2-5.1c-3,0-3.4,3.6-3.5,7.8h-6.3v-1
		c0-7.2,3.1-12.3,10.1-12.3c5,0,9.3,3,9.3,10.6c0,3.8-0.7,6-2.9,9.3l-2.7,4.1c-2.1,3-2.4,5.5-2.5,10.8H391.8z M394.5,472.6
		c2.1,0,3.7,1.7,3.7,3.7c0,2.1-1.7,3.7-3.7,3.7c-2.1,0-3.7-1.7-3.7-3.7C390.8,474.2,392.5,472.6,394.5,472.6z"/>
	<path d="M436.8,467.9l3-4.3l4.4,3.5l-4.5,6.1l3.3,6.3h-6.3l-1.3-2.9c-2.1,2.2-5.3,3.4-9,3.4c-7.2,0-11-5.2-11-11.2
		c0-4.7,2.9-9.1,8.7-13.4c-2.3-4.5-3-7.1-3-10c0-4.9,3.4-8.3,8.2-8.3c4.1,0,8.3,2.9,8.3,8.3c0,4.1-2,7.9-6.4,11.3L436.8,467.9z
		 M426.6,460.5c-3.6,2.4-5.3,5.2-5.3,8c0,3.4,2.4,6.2,5.7,6.2c2.2,0,4-0.9,5.4-2.4L426.6,460.5z M428.9,452.1
		c2.2-2.3,2.9-4.4,2.9-6.1c0-2.2-1.1-3.3-2.6-3.3s-2.6,1.1-2.6,3.3C426.7,447.3,427.5,450,428.9,452.1z"/>
	<path d="M454,446.5l3.7-12.7h6l-5.1,12.7H454z"/>
	<path d="M470.2,446.5l3.7-12.7h6l-5.1,12.7H470.2z"/>
</g>
</svg>
