<?xml version="1.0" encoding="utf-8"?>
<!-- Generator: Adobe Illustrator 21.0.2, SVG Export Plug-In . SVG Version: 6.00 Build 0)  -->
<svg version="1.1" id="octagon_x5F_headings" xmlns="http://www.w3.org/2000/svg" xmlns:xlink="http://www.w3.org/1999/xlink"
	 x="0px" y="0px" viewBox="0 0 1000 500" style="enable-background:new 0 0 1000 500;" xml:space="preserve">
<g>
	<path d="M53.2,16.8L70.7,81c0.2,1.3,0,1.6-1.2,1.6h-8c-0.8,0-1-0.3-1.3-1.6l-6.3-22.6H23.1L16.7,81c-0.3,1.3-0.4,1.6-1.3,1.6h-8
		c-1.2,0-1.4-0.3-1.2-1.6l18.1-64.2c3-10.5,4.7-12,14.2-12C48.9,4.9,50.4,6.3,53.2,16.8z M34,19.3l-8.4,30.2h25.8l-8-30.2
		c-1.3-4.7-1.5-5.4-5.1-5.4C35.5,13.9,35.3,14.6,34,19.3z"/>
	<path d="M146.3,26.3c0,9.7-2.6,15.7-9,17.3v0.3c8.8,1.5,10.9,9.5,10.9,18.4c0,17.3-9.4,20.9-25.4,20.9c-5.7,0-22.2-0.2-29.4-0.7
		c-1.2-0.1-1.5-0.3-1.5-1.5V7.1c0-1.2,0.3-1.4,1.5-1.5c7.3-0.5,20.4-0.7,26.3-0.7C137,4.9,146.3,9.6,146.3,26.3z M102.2,14v26h12.6
		c15.4,0,21.1-0.5,21.1-12.7c0-11.2-5.5-13.4-17.2-13.4h-16.5V14z M102.2,48.3v25.8H123c10.1,0,14.9-2,14.9-12.3
		c0-11.5-5.8-13.6-14.7-13.6h-21V48.3z"/>
	<path d="M219.6,5.9c1,0.1,1.6,0.7,1.6,1.7v4.8c0,1-0.5,1.5-1.5,1.5h-19.1c-17.7,0-20.7,6.7-20.7,30.1c0,23.3,3.1,30,20.7,30h19.1
		c1,0,1.5,0.5,1.5,1.5v4.8c0,1-0.6,1.6-1.6,1.8c-5.1,0.7-12.4,0.9-19,0.9c-24.9,0-31.1-8.9-31.1-39.1s6.1-39.2,31.1-39.2
		C207.3,4.9,214.5,5.2,219.6,5.9z"/>
	<path d="M304.9,44c0,27.7-8.7,39.2-31.8,39.2c-9,0-20.8-0.2-28.1-0.7c-1.2-0.1-1.5-0.3-1.5-1.4v-74c0-1.2,0.3-1.4,1.5-1.5
		c7.3-0.5,19.1-0.7,28.1-0.7C296.2,4.9,304.9,16.5,304.9,44z M253.8,14v60.2h19.3c15.6,0,21.3-8.9,21.3-30.1c0-20.9-6.1-30-22.8-30
		L253.8,14L253.8,14z"/>
	<path d="M378.4,5.4c1,0,1.5,0.5,1.5,1.5v6c0,1-0.5,1.5-1.5,1.5h-39v26.3h35.5c1,0,1.5,0.5,1.5,1.5v5.9c0,1-0.5,1.5-1.5,1.5h-35.5
		v23.9h39c1,0,1.5,0.5,1.5,1.5v6c0,1-0.5,1.5-1.5,1.5h-47.8c-1,0-1.5-0.5-1.5-1.5V6.9c0-1,0.5-1.5,1.5-1.5H378.4z"/>
	<path d="M452.5,5.4c1,0,1.5,0.5,1.5,1.5v6c0,1-0.5,1.5-1.5,1.5h-38.7v26.3h35.1c1,0,1.5,0.5,1.5,1.5v5.9c0,1-0.5,1.5-1.5,1.5h-35.1
		v31.5c0,1-0.5,1.5-1.5,1.5H405c-1,0-1.5-0.5-1.5-1.5V6.9c0-1,0.5-1.5,1.5-1.5H452.5z"/>
	<path d="M522.9,5.9c1,0.1,1.6,0.7,1.6,1.7v4.8c0,1-0.5,1.5-1.5,1.5h-19.7c-17.7,0-20.7,6.8-20.7,30.2c0,23.3,3.1,29.9,20.7,29.9
		h15.5V46c0-1,0.5-1.6,1.5-1.6h6.7c1,0,1.5,0.6,1.5,1.6v30.4c0,1.1-0.1,1.5-0.3,2c-2.1,4.6-16,4.6-25,4.6c-24.9,0-31.1-8.8-31.1-39
		c0-30.3,6.1-39.3,31.1-39.3C509.5,4.9,517.8,5.2,522.9,5.9z"/>
	<path d="M613.3,5.4c1,0,1.5,0.5,1.5,1.6v74.2c0,1-0.5,1.5-1.5,1.5H606c-1,0-1.5-0.5-1.5-1.5V48h-41.6v33.2c0,1-0.5,1.5-1.5,1.5
		h-7.3c-1,0-1.5-0.5-1.5-1.5V7c0-1.1,0.5-1.6,1.5-1.6h7.3c1,0,1.5,0.5,1.5,1.6v31.9h41.6V7c0-1.1,0.5-1.6,1.5-1.6H613.3z"/>
	<path d="M650.6,5.4c1,0,1.5,0.5,1.5,1.6v74.2c0,1-0.5,1.5-1.5,1.5h-7.3c-1,0-1.5-0.5-1.5-1.5V7c0-1.1,0.5-1.6,1.5-1.6H650.6z"/>
	<path d="M719.9,5.4c1,0,1.5,0.5,1.5,1.5v37.3c0,30.1-6.5,39-32.2,39c-6.2,0-10.2-0.2-15.3-0.9c-1-0.2-1.5-0.8-1.5-1.8v-4.8
		c0-1,0.5-1.5,1.5-1.5h15.3c18.3,0,22-6.6,21.8-29.9V14.5h-25.4c-1,0-1.5-0.5-1.5-1.5V7c0-1,0.5-1.5,1.5-1.5h34.3V5.4z"/>
	<path d="M798.5,5.4c1.8,0,1.8,0.9,0.9,1.9l-30.3,33.9L801.7,80c0.9,1.2,1,2.8-1.7,2.8h-8c-1,0-1.8-0.4-2.2-1.1l-31.6-38v37.6
		c0,1-0.5,1.5-1.5,1.5h-7.4c-1,0-1.5-0.5-1.5-1.5V6.9c0-1,0.5-1.5,1.5-1.5h7.4c1,0,1.5,0.5,1.5,1.5V39l29.9-32.6
		c0.5-0.6,1.2-1,2.1-1C790.2,5.4,798.5,5.4,798.5,5.4z"/>
	<path d="M830.2,5.4c1,0,1.5,0.5,1.5,1.5v66.7h37.1c1,0,1.5,0.5,1.5,1.5v6c0,1-0.5,1.5-1.5,1.5h-45.9c-1,0-1.5-0.5-1.5-1.5V6.9
		c0-1,0.5-1.5,1.5-1.5H830.2z"/>
	<path d="M964.8,5.4c1,0,1.4,0.6,1.5,1.5l6.6,74.3c0.1,1-0.5,1.5-1.5,1.5H964c-1,0-1.4-0.5-1.5-1.5l-4.7-58L935.7,79
		c-0.3,0.8-0.9,1.2-1.8,1.2h-7.3c-1,0-1.6-0.4-1.9-1.2l-22.1-55.8l-4.7,58c-0.1,1-0.5,1.5-1.5,1.5h-7.3c-1,0-1.6-0.5-1.5-1.5
		L894.1,7c0.1-1,0.5-1.6,1.5-1.6h8c2.5,0,3.1,1,4.2,4l22.4,58l22.4-58c1.1-3,1.7-4,4.2-4C956.8,5.4,964.8,5.4,964.8,5.4z"/>
	<path d="M72.8,141.6c1,0,1.5,0.5,1.5,1.6v74.2c0,1-0.5,1.5-1.5,1.5h-6.2c-1.5,0-2.6-0.3-3.6-1.8l-40.3-60.8v61.1
		c0,1-0.5,1.5-1.5,1.5h-7.3c-1,0-1.5-0.5-1.5-1.5v-74.2c0-1.1,0.5-1.6,1.5-1.6h6.9c3.7,0.1,4.3,0.6,5.8,3L64,200.9v-57.6
		c0-1.1,0.5-1.6,1.5-1.6L72.8,141.6L72.8,141.6z"/>
	<path d="M161.1,180.4c0,30.1-6.2,39-31.2,39s-31.2-8.9-31.2-39c0-30.2,6.2-39.3,31.2-39.3S161.1,150.2,161.1,180.4z M109.2,180.4
		c0,23.3,3.1,29.9,20.7,29.9c17.7,0,20.7-6.6,20.7-29.9c0-23.4-3.1-30.2-20.7-30.2S109.2,157,109.2,180.4z"/>
	<path d="M239.4,166c0,21.4-7.7,24-30.6,24h-13v27.4c0,1.2-0.3,1.5-1.5,1.5H187c-1.2,0-1.5-0.3-1.5-1.5v-74.1c0-1.2,0.3-1.4,1.5-1.5
		c7.3-0.5,16-0.7,21.8-0.7C231.8,141.1,239.4,145,239.4,166z M195.8,150.2v31.1h12.1c16.9,0,21.1-0.7,21.1-15c0-14.1-4.3-16-21.1-16
		h-12.1V150.2z"/>
	<path d="M296.7,219.2l3.7,12.5c0.3,1.1-0.5,1.6-1.5,1.6h-6.8c-1,0-1.8-0.5-2.1-1.6l-3.7-12.4c-21.4-1-26.9-10.5-26.9-38.9
		c0-30.2,6.1-39.3,31.2-39.3c24.9,0,31.1,9.1,31.1,39.3C321.6,207.9,316.5,217.7,296.7,219.2z M311.3,180.4
		c0-23.4-3.2-30.2-20.7-30.2c-17.7,0-20.8,6.8-20.8,30.2c0,23.3,3.2,29.9,20.8,29.9C308.1,210.3,311.3,203.7,311.3,180.4z"/>
	<path d="M399.9,166c0,16.3-4.5,21.8-16.8,23.4l17.3,27.5c0.8,1.1,0.3,2-1.2,2h-6.5c-2.3,0-3.1-0.7-4.1-2.2L371.7,190h-15.4v27.4
		c0,1.2-0.3,1.5-1.5,1.5h-7.3c-1.2,0-1.5-0.3-1.5-1.5v-74.1c0-1.2,0.3-1.4,1.5-1.5c7.3-0.5,16-0.7,21.8-0.7
		C392.3,141.1,399.9,145,399.9,166z M356.3,150.2v31.1h12.1c16.9,0,21.1-0.7,21.1-15c0-14.1-4.3-16-21.1-16h-12.1V150.2z"/>
	<path d="M467.5,142.6c1,0.1,1.4,0.5,1.4,1.3v4.7c0,1-0.4,1.5-1.3,1.5h-23c-9,0-13.4,2.8-13.4,9.1v1.7c0,5.1,1.4,7.9,7.7,10.4
		l22.3,9.2c9.4,3.9,11.7,9.7,11.7,17.8v3.3c0,15.5-12.5,17.8-27,17.8c-8.3,0-16.3-0.4-24.9-1.4c-0.9-0.2-1.2-0.6-1.2-1.6v-4.6
		c0-0.9,0.5-1.4,1.4-1.4h28c9,0,13.3-2.6,13.3-9v-1.9c0-5.2-1.4-8.5-7.8-11l-24.2-9.8c-8-3.1-9.6-9.6-9.6-17.4v-2.5
		c0-15.5,12.2-17.7,26.8-17.7C456.2,141.1,459.3,141.6,467.5,142.6z"/>
	<path d="M545.3,141.6c1,0,1.5,0.5,1.5,1.5v6c0,1-0.5,1.5-1.5,1.5h-23.2v66.7c0,1-0.5,1.5-1.5,1.5h-7.3c-1,0-1.5-0.5-1.5-1.5v-66.7
		h-23.2c-1,0-1.5-0.5-1.5-1.5v-6c0-1,0.5-1.5,1.5-1.5H545.3z"/>
	<path d="M625.5,141.6c1.2,0,1.5,0.4,1.5,1.5v37.3c0,31.3-6.1,39-30.4,39c-24.3,0-30.3-7.8-30.3-39v-37.3c0-1.1,0.3-1.5,1.5-1.5h7.3
		c1.2,0,1.5,0.4,1.5,1.5v37.3c0,24,4.1,29.9,20,29.9c16,0,20.1-5.9,20.1-29.9v-37.3c0-1.1,0.3-1.5,1.5-1.5H625.5z"/>
	<path d="M656.8,141.6c0.8,0,0.9,0.4,1.3,1.6l17,61.8c1.3,4.7,1.6,5.5,3.8,5.5c2.8,0,3.2-0.8,4.4-5.5l16.2-61.8
		c0.3-1.2,0.5-1.6,1.3-1.6h8c1.2,0,1.5,0.4,1.3,1.6L693,207.4c-2.8,10.5-3.7,12-14.2,12c-9.5,0-10.6-1.4-13.5-12l-17.9-64.2
		c-0.2-1.2,0.1-1.6,1.3-1.6H656.8z"/>
	<path d="M829.8,141.6c1.2,0,1.5,0.4,1.3,1.6l-13.9,64.2c-2.2,10.5-3.9,12-13.3,12c-10.5,0-11.5-1.4-14.1-12l-11-46.3l-11,46.3
		c-2.7,10.5-3.6,12-14.2,12c-9.3,0-11-1.4-13.3-12l-13.8-64.2c-0.2-1.2,0-1.6,1.2-1.6h8.1c0.8,0,1,0.4,1.3,1.6l13,61.3
		c1,4.7,1.7,5.4,3.8,5.4c2.8,0,3.3-0.7,4.4-5.4l14.6-58.1c0.3-1.3,1-1.6,1.8-1.6h8.2c0.8,0,1.4,0.3,1.7,1.6l14.6,58.1
		c1.2,4.7,1.6,5.4,4.4,5.4c2.1,0,2.8-0.7,3.8-5.4l13-61.3c0.3-1.2,0.5-1.6,1.3-1.6L829.8,141.6L829.8,141.6z"/>
	<path d="M905.9,141.6c1.5,0,2,0.8,1.1,2.2l-23.3,34.8l25.4,38c1.1,1.6,0.3,2.2-1.1,2.2h-7.9c-1.5,0-2-0.5-2.8-1.6l-19.8-29.7
		L858,217.3c-0.8,1.1-1.2,1.6-2.8,1.6h-8c-1.4,0-2.2-0.6-1.1-2.2l25.4-38l-23.4-34.8c-0.9-1.4-0.4-2.2,1.1-2.2h7.9
		c1.6,0,2.1,0.6,2.8,1.6l17.7,26.7l17.7-26.7c0.6-1,1.1-1.6,2.8-1.6h7.8V141.6z"/>
	<path d="M986.2,141.6c1.4,0,2,0.6,1.1,2.2l-27.7,51.6v22c0,1-0.5,1.5-1.5,1.5h-7.4c-1,0-1.5-0.5-1.5-1.5v-22l-27.7-51.6
		c-0.9-1.6-0.3-2.2,1.1-2.2h8c1.5,0,2,0.5,2.8,1.6l21,41l21.1-41c0.5-1.1,1.2-1.6,2.8-1.6L986.2,141.6L986.2,141.6z"/>
</g>
<g>
	<path d="M33.2,361.7v21.8c0,0.6,0,1.3-1.2,1.7c-2.2,0.8-7.6,1.4-13.8,1.4c-8.2,0-12-1.7-12-10c0-7.5,3.9-9.6,11-9.6l10-0.1v-4.2
		c0-3.9-2.2-5.6-8.1-5.6H9.8c-0.7,0-0.9-0.2-0.9-0.9v-2.6c0-0.7,0.2-0.9,0.9-1c3.7-0.6,6.8-0.7,9.4-0.7
		C28.8,351.9,33.2,354.9,33.2,361.7z M17.3,371.8c-3.4,0-5.2,1.1-5.2,4.7c0,4.1,2.1,5,7.2,5c1.9,0,5.6-0.1,8-0.7v-9H17.3z"/>
	<path d="M52.8,339.2c0.6,0,0.9,0.3,0.9,0.9v12.2c1.9-0.2,4.7-0.4,8.3-0.4c11.8,0,14.2,3.6,14.2,17.4s-2.4,17.2-14.5,17.2
		c-4.7,0-7.5-0.2-12.9-1.1c-0.6-0.1-1-0.3-1-1V340c0-0.6,0.3-0.9,0.9-0.9L52.8,339.2L52.8,339.2z M53.7,357.2v23.7
		c2.5,0.3,5.6,0.5,8,0.5c7.7,0,8.5-2.6,8.5-12.1c0-9.8-0.9-12.1-8.6-12.1H53.7z"/>
	<path d="M112.9,352.5c0.6,0.1,0.9,0.4,0.9,1.1v2.7c0,0.6-0.3,0.9-0.9,0.9h-9.4c-7.5,0-8.5,2.4-8.5,12.1c0,9.6,0.9,12.1,8.5,12.1
		h9.4c0.6,0,0.9,0.3,0.9,0.9v2.7c0,0.6-0.3,1-0.9,1.1c-3.2,0.4-6.8,0.6-9.5,0.6c-12.1,0-14.4-3.4-14.4-17.3s2.4-17.4,14.4-17.4
		C106,351.9,109.7,352,112.9,352.5z"/>
	<path d="M152.9,339.2c0.6,0,0.9,0.3,0.9,0.9v44.4c0,0.7-0.4,0.9-1,1c-5.5,0.9-8.3,1.1-12.9,1.1c-12.1,0-14.5-3.4-14.5-17.2
		c0-13.8,2.4-17.4,14.2-17.4c3.5,0,6.4,0.2,8.3,0.4v-12.2c0-0.6,0.3-0.9,0.9-0.9L152.9,339.2L152.9,339.2z M140,357.2
		c-7.7,0-8.6,2.4-8.6,12.1c0,9.6,0.8,12.1,8.5,12.1c2.4,0,5.5-0.2,8-0.5v-23.7H140z"/>
	<path d="M195.7,368.4v1.8c0,1.2-0.3,1.7-2.2,1.7h-19.8c0.2,7.6,1.6,9.5,8.3,9.5h10.2c0.6,0,0.9,0.3,0.9,0.9v2.7
		c0,0.6-0.3,0.9-0.9,1c-3.2,0.4-6.6,0.6-10.4,0.6c-11.7,0-14.2-3.4-14.2-17.3s2.5-17.4,14.2-17.4C193,351.9,195.6,355.2,195.7,368.4
		z M173.6,367h16.1c-0.1-7.9-1.4-9.9-7.9-9.9C175.1,357.2,173.7,359.1,173.6,367z"/>
	<path d="M225.7,339.4c0.6,0.1,0.8,0.4,0.8,1v2.7c0,0.6-0.3,0.9-0.9,0.9h-3.4c-3.5,0-5.2,0.2-5.2,3.4v4.9h8c0.7,0,0.9,0.3,0.8,1
		l-0.5,3c-0.1,0.6-0.4,0.8-1,0.8H217v28.3c0,0.6-0.3,0.9-0.9,0.9H212c-0.6,0-0.9-0.3-0.9-0.9v-28.3h-4.4c-0.6,0-0.9-0.3-0.9-0.9
		v-2.9c0-0.6,0.3-0.9,0.9-0.9h4.4v-6.2c0-7,5.7-7.3,9.3-7.3C221.9,338.9,224.1,339.1,225.7,339.4z"/>
	<path d="M263.4,353c0.6,0.1,1,0.4,1,1.1v29.1c-0.1,12.2-2.4,15.7-14.4,15.7c-2.4,0-5.8-0.1-9-0.6c-0.6-0.1-0.8-0.4-0.8-1v-2.7
		c0-0.6,0.2-0.9,0.9-0.9h8.8c7,0,8.5-1.7,8.5-7.3V386c-2.7,0.4-5.1,0.5-8.2,0.5c-11.8,0-14.3-3.5-14.3-17.4
		c0-13.8,2.6-17.2,14.6-17.2C256.5,351.9,260.8,352.4,263.4,353z M250.5,357.2c-7.7,0-8.5,2.4-8.5,12.1s0.9,12.1,8.7,12.1
		c2.4,0,5.4-0.1,7.8-0.4v-23.8L250.5,357.2L250.5,357.2z"/>
	<path d="M284.2,339.2c0.6,0,0.9,0.3,0.9,0.9v12.1c3-0.3,6.1-0.3,7.9-0.3c11.1,0,14.4,1.4,14.4,14.6v18.9c0,0.6-0.3,0.9-0.9,0.9
		h-4.1c-0.6,0-0.9-0.3-0.9-0.9V367c0-9.5-1.9-9.9-7.8-9.9h-8.5v28.3c0,0.6-0.3,0.9-0.9,0.9h-4.1c-0.6,0-0.9-0.3-0.9-0.9v-45.2
		c0-0.6,0.3-0.9,0.9-0.9L284.2,339.2L284.2,339.2z"/>
	<path d="M328.7,342.3c0,2.4-1.2,3.7-3.7,3.7c-2.4,0-3.7-1.3-3.7-3.7c0-2.4,1.3-3.6,3.7-3.6C327.5,338.7,328.7,339.9,328.7,342.3z
		 M327.1,352.2c0.6,0,0.9,0.3,0.9,0.9v32.2c0,0.6-0.3,0.9-0.9,0.9H323c-0.6,0-0.9-0.3-0.9-0.9v-32.2c0-0.6,0.3-0.9,0.9-0.9H327.1z"
		/>
	<path d="M348.1,352.2c0.6,0,0.9,0.3,0.9,0.9v40.5c0,5-3.7,5.2-6.8,5.2c-0.6,0-2.9-0.1-3.4-0.2c-0.6-0.1-0.9-0.4-0.9-1v-3.1
		c0-0.6,0.4-0.9,1-0.9h1.4c2.6,0,2.7-0.2,2.7-2.7v-37.8c0-0.6,0.3-0.9,0.9-0.9H348.1z M349.7,342.3c0,2.4-1.2,3.7-3.7,3.7
		c-2.4,0-3.7-1.3-3.7-3.7c0-2.4,1.4-3.6,3.7-3.6C348.5,338.7,349.7,339.9,349.7,342.3z"/>
	<path d="M368.9,339.2c0.6,0,0.9,0.4,0.9,1v24.1l10.2-11.5c0.3-0.4,0.7-0.6,1.3-0.6h5.2c1.1,0,1.2,0.6,0.6,1.2l-11,12.2l14.6,19
		c0.6,0.7,0.6,1.7-1.1,1.7h-4.4c-0.6,0-1.1-0.3-1.4-0.7l-14-18.6v18.2c0,0.7-0.3,1-0.9,1h-4.1c-0.6,0-0.9-0.3-0.9-1v-45.1
		c0-0.6,0.3-1,0.9-1h4.1V339.2z"/>
	<path d="M406.5,339.2c0.6,0,0.9,0.3,0.9,0.9v45.2c0,0.6-0.3,0.9-0.9,0.9h-4.1c-0.6,0-0.9-0.3-0.9-0.9v-45.2c0-0.6,0.3-0.9,0.9-0.9
		H406.5z"/>
	<path d="M468.1,366.2l-0.1,19.1c0,0.6-0.3,0.9-0.9,0.9h-4c-0.6,0-0.9-0.3-0.9-0.9V367c0-9.5-1.9-9.9-7.7-9.9
		c-2.6,0-5.2,0.2-7.3,0.6c0.7,2.1,1,4.9,1,8.8l-0.1,18.9c0,0.7-0.2,0.9-0.8,0.9h-4.1c-0.6,0-0.9-0.3-0.9-0.9v-18.7
		c0-9.1-1.9-9.5-7.7-9.5h-6.2v28.2c0,0.6-0.3,0.9-0.9,0.9h-4.1c-0.6,0-0.9-0.3-0.9-0.9V354c0-0.7,0.3-0.9,0.9-1
		c3.2-0.6,7.5-1,10.4-1c3.9,0,8,0.8,10.3,1.9c3.2-1.1,7.2-1.9,10-1.9C464.7,351.9,468.1,353.4,468.1,366.2z"/>
	<path d="M510.9,366.5v18.9c0,0.6-0.4,0.9-1.1,0.9h-4c-0.6,0-0.9-0.3-0.9-0.9V367c0-9.5-1.9-9.8-7.8-9.8h-8.5v28.2
		c0,0.6-0.3,0.9-0.9,0.9h-4.1c-0.6,0-0.9-0.3-0.9-0.9V354c0-0.8,0.3-0.9,0.9-1c4.9-0.9,10-1,12.9-1
		C507.6,351.9,510.9,353.3,510.9,366.5z"/>
	<path d="M553.3,369.3c0,13.9-2.4,17.3-14.4,17.3s-14.5-3.4-14.5-17.3s2.5-17.4,14.5-17.4C550.9,351.9,553.3,355.4,553.3,369.3z
		 M530.3,369.3c0,9.6,0.9,12.1,8.5,12.1c7.5,0,8.5-2.4,8.5-12.1s-0.9-12.1-8.5-12.1C531.3,357.2,530.3,359.6,530.3,369.3z"/>
	<path d="M595.5,369.2c0,13.9-2.5,17.4-14.3,17.4c-3.1,0-5.5-0.1-8.2-0.4v11.5c0,0.6-0.3,0.9-0.9,0.9H568c-0.6,0-0.9-0.3-0.9-0.9
		V354c0-0.7,0.4-0.9,1-1.1c5.5-0.9,8.2-1.1,12.9-1.1C593,351.9,595.5,355.5,595.5,369.2z M573,357.2v23.7c2.5,0.3,5.4,0.5,7.8,0.5
		c7.7,0,8.7-2.4,8.7-12.1c0-9.6-0.9-12.1-8.5-12.1H573z"/>
	<path d="M635.5,353c0.7,0.1,1,0.4,1,1.1v43.6c0,0.6-0.3,0.9-0.9,0.9h-4.1c-0.6,0-0.9-0.3-0.9-0.9v-11.4c-2.7,0.3-5,0.3-8.2,0.3
		c-11.7,0-14.2-3.5-14.2-17.4c0-13.8,2.5-17.2,14.5-17.2C627.3,351.9,630.1,352.1,635.5,353z M622.6,357.2c-7.7,0-8.5,2.4-8.5,12.1
		s0.9,12.1,8.6,12.1c2.4,0,5.4-0.1,7.8-0.4v-23.8L622.6,357.2L622.6,357.2z"/>
	<path d="M668,352.6c0.6,0.2,0.9,0.4,0.9,1.1v2.6c0,0.6-0.4,0.9-1,0.9h-5.4c-4.3,0-5.4,0.7-5.4,3.5v24.7c0,0.6-0.3,0.9-0.9,0.9h-4
		c-0.6,0-0.9-0.3-0.9-0.9v-26.1c0-7,6.2-7.3,9.8-7.3C662.5,351.9,666.7,352.2,668,352.6z"/>
	<path d="M701.3,352.5c0.6,0.1,0.9,0.4,0.9,1v2.7c0,0.6-0.3,0.9-0.9,0.9h-11.6c-2.9,0-4.5,1-4.5,3.2v0.8c0,1.7,0.8,3.2,3.9,4.4
		l8.3,3.3c5.7,2.2,6.2,5.4,6.2,8.8v0.7c0,7-4.2,8.3-12.6,8.3c-5.4,0-10.3-0.4-11.4-0.6c-0.7-0.1-0.9-0.4-0.9-0.9v-2.7
		c0-0.6,0.3-0.9,0.9-0.9h11.5c5,0,6.5-0.6,6.5-3.2v-0.7c0-1.8-0.7-3-3.6-4.2l-8.8-3.4c-4.8-1.9-6-5.5-6-8.9v-1.3
		c0-6.8,6-7.8,12.6-7.8C694.5,351.9,697.7,352,701.3,352.5z"/>
	<path d="M723.2,342.8c0.7-0.2,1.1,0.1,1.1,0.8v8.7h6.5c0.7,0,1,0.3,1,0.9v2.9c0,0.6-0.3,0.9-1,0.9h-6.5v21c0,2.7,0.7,3.4,4,3.4h3
		c0.7,0,1,0.2,1,0.9v3c0,0.6-0.3,0.9-0.9,1c-1.2,0.3-2.9,0.4-3.5,0.4c-4.5,0-9.6-0.1-9.6-7.1v-22.4h-3.5c-0.6,0-0.9-0.3-0.9-0.9
		v-2.9c0-0.6,0.3-0.9,0.9-0.9h3.5V345c0-0.6,0.2-0.9,0.8-1L723.2,342.8z"/>
	<path d="M771.2,352.2c0.6,0,0.9,0.3,0.9,0.9v31.5c0,0.7-0.3,0.8-0.9,0.9c-4.9,0.9-10,1-12.9,1c-11.1,0-14.4-1.4-14.4-14.6v-18.8
		c0-0.6,0.4-0.9,1.1-0.9h4c0.6,0,0.9,0.3,0.9,0.9v18.4c0,9.5,1.9,9.8,7.8,9.8h8.5v-28.2c0-0.6,0.3-0.9,0.9-0.9L771.2,352.2
		L771.2,352.2z"/>
	<path d="M814,352.2c0.7,0,0.9,0.2,0.7,1l-7,26.1c-1.7,6.4-1.9,7.3-8.3,7.3c-5.8,0-6.1-0.9-7.9-7.3l-7.3-26.1c-0.1-0.8,0.1-1,0.7-1
		h4.6c0.5,0,0.6,0.2,0.8,1l6.7,24.7c0.8,2.8,1,3.3,2.3,3.3c1.7,0,1.9-0.5,2.7-3.3l6.5-24.7c0.2-0.8,0.3-1,0.8-1H814z"/>
	<path d="M872.1,352.2c0.7,0,0.9,0.2,0.7,1l-5.5,26.3c-1.3,6.2-2.2,7-7.3,7c-5.5,0-5.8-0.8-7.2-7l-4-17.4l-4,17.4
		c-1.4,6.2-1.7,7-7.2,7c-5,0-6-0.9-7.3-7l-5.5-26.3c-0.1-0.8,0.1-1,0.7-1h4.5c0.4,0,0.6,0.2,0.7,1l5.1,25.6c0.5,2.2,0.9,2.4,1.7,2.4
		c1.1,0,1.2-0.2,1.7-2.4l6-24.6c0.2-0.7,0.4-1,0.9-1h5.2c0.5,0,0.7,0.2,0.9,1l6,24.6c0.5,2.2,0.6,2.4,1.7,2.4c0.8,0,1.2-0.2,1.7-2.4
		l5.1-25.6c0.2-0.8,0.3-1,0.8-1H872.1z"/>
	<path d="M911.2,352.2c0.7,0,0.9,0.5,0.5,1.1L901,368.2l12.1,16.9c0.4,0.6,0.2,1.1-0.5,1.1h-5.1c-0.4,0-0.7-0.2-0.9-0.6l-9-12.8
		l-9.1,12.8c-0.2,0.4-0.5,0.6-0.9,0.6h-5c-0.7,0-0.9-0.5-0.6-1.1l12.1-16.9l-10.6-14.9c-0.5-0.6-0.3-1.1,0.4-1.1h5.1
		c0.4,0,0.7,0.2,1,0.6l7.7,10.7l7.6-10.7c0.2-0.4,0.6-0.6,1.1-0.6H911.2z"/>
	<path d="M951.8,352.2c0.6,0,0.9,0.3,0.9,0.9v30c-0.1,12.2-2.4,15.7-14.4,15.7c-3.9,0-6.2-0.1-9.4-0.6c-0.6-0.1-0.9-0.4-0.9-1v-2.7
		c0-0.6,0.3-0.9,0.9-0.9h9.2c7,0,8.5-1.7,8.5-7.3v-0.4c-2.7,0.4-5.1,0.5-8.2,0.5c-11.8,0-14.3-3.5-14.3-17V353
		c0-0.6,0.3-0.9,0.9-0.9h4c0.6,0,0.9,0.3,0.9,0.9v16.1c0,9.7,1,12.1,8.7,12.1c2.4,0,5.4-0.1,7.8-0.4V353c0-0.6,0.3-0.9,0.9-0.9
		L951.8,352.2L951.8,352.2z"/>
	<path d="M991.6,352.2c0.7,0,1,0.3,1,0.9v1.5c0,0.4-0.1,0.7-0.4,1.1L973.8,381h18.4c0.6,0,1,0.3,1,0.9v3.4c0,0.6-0.4,0.9-1,0.9h-26
		c-0.6,0-1-0.3-1-0.9v-1.7c0-0.4,0.1-0.7,0.4-1.1l18.2-25H967c-0.7,0-1-0.3-1-0.9v-3.4c0-0.6,0.3-0.9,1-0.9L991.6,352.2L991.6,352.2
		z"/>
	<path d="M29.8,474.1c0.6,0,1,0.3,1,0.9v3.7c0,0.6-0.4,0.9-1,0.9H8c-0.7,0-1-0.3-1-0.9V475c0-0.6,0.3-0.9,0.9-0.9H16v-33
		c0-2.7-1.1-3.4-5.4-3.4H7.1c-0.6,0.1-1-0.2-1-0.9V434c0-0.6,0.3-0.9,0.9-1.1c1.2-0.4,3.5-0.7,5-0.7c3.7,0,10.1,0.2,10.1,7.3v34.6
		L29.8,474.1L29.8,474.1z"/>
	<path d="M71.7,442.9v4.4c0,4.3-0.6,8-5.5,10.5l-14.3,7.8c-3.5,1.9-4.5,3.4-4.5,6.3v2.2h24.1c0.4,0,0.4,0.1,0.4,0.4v4.8
		c0,0.3-0.1,0.4-0.4,0.4H42c-1.3,0-1.6-0.7-1.6-1.7v-5.5c0-5.2,1.9-8,7.9-11.3l14.8-8.2c2-1.1,2.3-3.2,2.3-5.9v-3.8
		c0-4.9-4.6-5.5-10.2-5.5H43.5c-0.4,0-0.4-0.1-0.4-0.4v-3.5c0-0.4,0.1-0.6,0.5-0.7c4.9-0.6,6.7-0.9,11.8-0.9
		C63.9,432.2,71.7,433.3,71.7,442.9z"/>
	<path d="M114,444.6v1.2c0,5-1.4,9-5.2,10.2c3.9,1.4,5.2,5.2,5.2,10.1v1.1c0,10.3-4,12.7-19.4,12.7c-2.9,0-6-0.2-9.1-0.5
		c-0.6-0.1-0.9-0.1-0.9-0.5v-4c0-0.4,0.3-0.6,0.9-0.6H95c10.7,0,12.8-1.6,12.8-7.5v-0.3c-0.1-5.5-1.1-7.8-8-7.8h-12
		c-0.6,0-0.7-0.2-0.7-0.7v-3.9c0-0.6,0.1-0.7,0.7-0.7h11.9c6.8,0,8-2.2,8-7.9v-0.8c0-6-2.7-7-13.3-7h-9c-0.6,0-0.9-0.1-0.9-0.6v-3.8
		c0-0.4,0.3-0.6,0.9-0.6c3.1-0.4,6.3-0.6,9.1-0.6C109.8,432.2,114,434.3,114,444.6z"/>
	<path d="M140.5,432.5c0.7,0,0.9,0.4,0.7,1.1l-8.3,28.6H148v-12.6c0-0.5,0.2-0.9,0.7-1.1l4.5-1.7c0.7-0.2,1.1-0.1,1.1,0.6v14.9h7.9
		c0.7,0,1,0.3,1,0.9v3.7c0,0.6-0.3,0.9-1,0.9h-7.9v11c0,0.6-0.3,0.9-0.9,0.9h-4.5c-0.6,0-0.9-0.3-0.9-0.9v-11h-21
		c-0.6,0-0.9-0.3-0.9-1v-2.1c0-0.6,0.2-1.2,0.4-2.1l8.6-29.4c0.2-0.5,0.5-0.6,1.1-0.6L140.5,432.5L140.5,432.5z"/>
	<path d="M204,432.5c0.6,0,0.9,0.3,0.9,0.9v3.7c0,0.6-0.3,0.9-0.9,0.9h-22.3l-0.9,13.3c2.1-0.2,4.4-0.2,5.8-0.2
		c15,0,19,2.8,19.2,13.8v1.4c-0.1,10.9-4.3,13.6-19.4,13.6c-2.8,0-7.8-0.1-10.9-0.4c-0.6-0.1-0.9-0.3-0.9-0.7V475
		c0-0.4,0.3-0.6,0.9-0.6H187c9.9,0,12.4-1.8,12.4-8.4v-0.6c-0.1-6.7-2.5-8.8-12.4-8.8h-11.5c-0.7,0-1-0.2-1-0.7V452l1.1-18.7
		c0.1-0.6,0.3-0.9,1-0.9H204V432.5z"/>
	<path d="M237.6,432.5c0.7,0,0.9,0.5,0.6,1.1l-9.1,18.2c1.5-0.5,3.1-0.7,5.5-0.7c11.2,0,16.2,4,16.2,13.7v1.3
		c0,9.9-5,13.8-16.4,13.8s-16.6-3.8-16.6-13.8v-1.2c0-3.4,0.3-5.2,1.4-7.7l12.2-24.1c0.2-0.4,0.6-0.6,1.1-0.6L237.6,432.5
		L237.6,432.5z M224.2,465.5v0.2c0,6.3,2.9,8.8,10.2,8.8s10.1-2.6,10.1-8.7v-0.2c0-6.3-2.9-8.8-10.1-8.8
		C227,456.7,224.2,459.2,224.2,465.5z"/>
	<path d="M290.5,432.5c0.6,0,0.9,0.2,0.9,0.9v2.7c0,0.6-0.2,1-0.4,1.4L270,479c-0.2,0.4-0.6,0.6-1.1,0.6h-5.1
		c-0.7,0-0.9-0.5-0.6-1.1l20.5-40.5h-24c-0.7,0-1-0.3-1-0.9v-3.7c0-0.7,0.3-0.9,1-0.9H290.5z"/>
	<path d="M319.1,432.2c10.1,0,14.8,4.2,14.8,12.9c0,5.5-1.9,8.9-5.9,11.3c4.7,2.2,7,5.2,7,10.8c0,8.7-5.2,12.8-15.9,12.8H318
		c-11,0-15.9-4.1-15.9-13.1c0-4.2,2.6-8.6,7.2-11.4c-3.8-2-5.9-5.5-5.9-10.2c0-8.9,4.7-13.1,14.8-13.1L319.1,432.2L319.1,432.2z
		 M314.9,457.9c-4.9,2.6-6.5,5.4-6.5,9c0,5,3.2,7.5,9.6,7.5h1c6.6,0,9.6-2.5,9.6-7.1c0-4.7-3.2-6-6.4-7L314.9,457.9z M318.2,437.8
		c-5.4,0-8.5,2.2-8.5,6.9c0,4.5,2.7,6.3,6.3,7.7l6.2,1.9c3.7-2.1,5.4-4.9,5.4-9c0-5.1-2.7-7.6-8.5-7.6h-0.9V437.8z"/>
	<path d="M379.6,446v1.2c0,3.4-0.3,5.2-1.4,7.7L366,479c-0.2,0.4-0.6,0.6-1.1,0.6h-5c-0.7,0-0.9-0.5-0.6-1.1l9.1-18.2
		c-1.5,0.4-3.1,0.6-5.4,0.6c-11.3,0-16.2-3.9-16.2-13.7V446c0-9.9,5-13.8,16.5-13.8C374.4,432.2,379.6,436,379.6,446z M352.9,446.5
		v0.2c0,6.3,2.9,8.8,10.1,8.8s10.1-2.5,10.1-8.7v-0.2c0-6.3-2.9-8.8-10.1-8.8C355.7,437.8,352.9,440.3,352.9,446.5z"/>
	<path d="M426.6,456.2c0,18.4-3.3,23.8-17.2,23.8c-13.9,0-17.2-5.4-17.2-23.8s3.3-24,17.2-24C423.3,432.2,426.6,437.8,426.6,456.2z
		 M398.5,456.2c0,14.1,2.1,18.2,10.8,18.2c8.8,0,10.9-4.1,10.9-18.2c0-14.2-2.1-18.4-10.9-18.4C400.6,437.8,398.5,442,398.5,456.2z"
		/>
	<path d="M455.4,428.9c0.2,0,0.3,0.1,0.3,0.3v0.7c0,0.2-0.1,0.3-0.1,0.4c-10.1,13.8-10,16.3-10,28.4s-0.1,14.6,10,28.4
		c0.1,0.1,0.1,0.2,0.1,0.4v0.7c0,0.2-0.1,0.3-0.3,0.3h-4.6c-0.4,0-0.6-0.1-0.8-0.4c-10.3-13.3-10.3-16.4-10.3-29.5
		s0.1-16.2,10.3-29.5c0.2-0.2,0.4-0.4,0.8-0.4h4.6V428.9z"/>
	<path d="M469.3,428.9c0.4,0,0.6,0.1,0.8,0.4c10.3,13.3,10.3,16.4,10.3,29.5s0,16.2-10.3,29.5c-0.2,0.2-0.4,0.4-0.8,0.4h-4.6
		c-0.2,0-0.3-0.1-0.3-0.3v-0.7c0-0.2,0.1-0.3,0.1-0.4c10.1-13.8,10-16.3,10-28.4s0.1-14.6-10-28.4c-0.1-0.1-0.1-0.2-0.1-0.4v-0.7
		c0-0.2,0.1-0.3,0.3-0.3h4.6V428.9z"/>
	<path d="M501.8,476.3c0,2.4-1.2,3.7-3.6,3.7s-3.7-1.3-3.7-3.7c0-2.3,1.3-3.5,3.7-3.5C500.5,472.7,501.8,474,501.8,476.3z
		 M500.2,432.5c0.6,0,0.9,0.3,0.9,1v22.2c0,0.4,0,0.6-0.1,1.3l-1,9.2c-0.1,0.6-0.3,0.9-0.9,0.9H497c-0.6,0-0.8-0.3-0.9-0.9l-1-9.2
		c-0.1-0.7-0.1-0.9-0.1-1.3v-22.2c0-0.7,0.3-1,0.9-1H500.2z"/>
	<path d="M542.3,443.2v3.6c0,6.7-1.7,9.1-6.8,11.4l-6.3,3c-2.8,1.4-3.1,1.8-3.3,3.9l-0.1,1.6c0,0.3-0.2,0.5-0.5,0.5h-4.2
		c-0.3,0-0.5-0.2-0.6-0.5l-0.2-3.8c-0.2-2.3,0.1-3.4,3.2-5l9.1-4.4c2.6-1.2,3.6-2.6,3.6-6.7v-3.3c0-5.6-4.2-5.7-9.7-5.7h-11.2
		c-0.6,0-0.9-0.3-0.9-0.9V434c0-0.6,0.4-1,1-1.1c3.1-0.4,7.1-0.6,11.1-0.6C534.9,432.2,542.3,433.2,542.3,443.2z M526.6,476.3
		c0,2.4-1.2,3.7-3.7,3.7c-2.4,0-3.7-1.3-3.7-3.7c0-2.3,1.3-3.5,3.7-3.5C525.4,472.7,526.6,474,526.6,476.3z"/>
	<path d="M577.8,432.8c0.6,0.1,1,0.2,1,0.8v3.5c0,0.6-0.3,0.7-0.9,0.7h-7.3c-6.8,0-9.5,0.8-9.5,6.8v1c0,5.7,1.2,7.9,7.9,7.9h18.2
		c0.6,0,0.9,0.3,0.9,0.9v2.4c0,0.6-0.3,0.8-0.9,0.9l-4.3,0.9v12.8c0,2.7,0.7,3.4,4,3.4h2.2c0.7,0,1,0.2,1,0.9v2.9
		c0,0.6-0.3,0.9-0.9,1c-1.1,0.3-3.2,0.4-3.8,0.4c-2.3,0-4.6,0-6.5-1.9c-2.7,1.2-6,1.9-9.1,1.9c-10.3,0-14.9-2.4-14.9-12.7v-1.1
		c0-4.9,1.4-8.8,5.3-10.1c-3.9-1.2-5.3-5.2-5.3-10.2v-1.2c0-10.3,4.9-12.4,15.7-12.4C571.5,432.2,575.2,432.3,577.8,432.8z
		 M568.9,458.7c-6.6,0-7.7,2.2-7.8,7.8v0.7c0,5.5,3.2,7.2,8.9,7.2c2.9,0,4.5-0.3,7.1-1.3v-14.4L568.9,458.7L568.9,458.7z"/>
	<path d="M610,432.5c0.4,0,0.6,0.2,0.6,0.6v0.9c0,0.3-0.2,0.6-0.3,0.8l-8.5,14.3c-0.3,0.4-0.6,0.5-0.9,0.3l-1.4-0.7
		c-0.3-0.2-0.3-0.6-0.2-0.9l4.3-14.8c0.1-0.4,0.2-0.5,0.8-0.5L610,432.5L610,432.5z"/>
	<path d="M631.7,432.5c0.4,0,0.6,0.2,0.6,0.6v0.9c0,0.3-0.2,0.6-0.3,0.8l-8.5,14.3c-0.3,0.4-0.6,0.5-0.9,0.3l-1.4-0.7
		c-0.3-0.2-0.3-0.6-0.2-0.9l4.3-14.8c0.1-0.4,0.2-0.5,0.8-0.5L631.7,432.5L631.7,432.5z"/>
</g>
</svg>
