<svg xmlns="http://www.w3.org/2000/svg" viewBox="0 0 321.96 90.3">
  <defs>
    <style>
      .a {
        fill: #231f20;
      }
    </style>
  </defs>
  <title>tgdh-logo</title>
  <path class="a" d="M208.17,457H136.95V393.77l27.34-17.63,43.88,31.53Zm-62.79-8.43h54.35V412L164,386.33l-18.65,12Z" transform="translate(-136.95 -376.13)"/>
  <g>
    <g>
      <path class="a" d="M243.88,389.74h-6.54V417.1h-4.23V389.74h-9.64v-3.41h23.64v3.41Z" transform="translate(-136.95 -376.13)"/>
      <path class="a" d="M264.16,417.1h-.91V403.83c0-3.32-.86-5.59-4.32-5.59a10.75,10.75,0,0,0-5.82,2.23V417.1h-3.86V385h3.86v12.32a11.92,11.92,0,0,1,7-2.41,6.45,6.45,0,0,1,6.27,3.86,9.63,9.63,0,0,1,.77,3.86V417.1Z" transform="translate(-136.95 -376.13)"/>
      <path class="a" d="M288.93,407.1c-1.91,0-3.68,0-5.5,0h-8.77c.18,4,2.36,7.5,6.64,7.5a10.67,10.67,0,0,0,6.91-2.55l.45,3.13a12.79,12.79,0,0,1-7.91,2.5c-6.86,0-10.32-5.14-10.32-11.55,0-6.14,3.54-11.32,10.14-11.32a8.31,8.31,0,0,1,4.68,1.36c2.77,1.82,3.86,4.86,3.86,8.18A19.26,19.26,0,0,1,288.93,407.1Zm-8.64-9.18c-3.55,0-5.27,3-5.59,6.18H285c0-.14,0-.27,0-.41C285.07,400.78,283.48,397.92,280.3,397.92Z" transform="translate(-136.95 -376.13)"/>
      <path class="a" d="M316.16,417.65c-9.91,0-14.41-6.68-14.41-16,0-9,5.32-16,14.86-16a17,17,0,0,1,7.23,1.68l-1.18,3.23a13.87,13.87,0,0,0-6.09-1.41c-7.18,0-10.41,5.91-10.41,12.45,0,6.23,2.59,12.59,9.68,12.59a11.38,11.38,0,0,0,5.23-1.09V406h-4.14V402.6h8.32v12.13A16.61,16.61,0,0,1,316.16,417.65Z" transform="translate(-136.95 -376.13)"/>
      <path class="a" d="M340,398.56a9,9,0,0,0-2-.18,6,6,0,0,0-4.82,2.86V417.1H329.3V395.51h3l.41,2.23a6.83,6.83,0,0,1,5.5-2.82,8.29,8.29,0,0,1,2,.32Z" transform="translate(-136.95 -376.13)"/>
      <path class="a" d="M354.39,417.1l-.23-1.82a10,10,0,0,1-6.32,2.41c-3.63,0-6.86-2.23-6.86-6.73,0-6.36,7.27-7.86,12.18-7.86H354c0-3.41-.91-5-4-5a12.51,12.51,0,0,0-6.77,2.32l-1.14-2.73a15.32,15.32,0,0,1,8.18-2.77c5.14,0,7.59,2.5,7.59,8.36V417.1ZM353.94,406c-3,0-8.77.46-8.77,4.86a3.6,3.6,0,0,0,3.82,3.55,7.77,7.77,0,0,0,5-2.23Z" transform="translate(-136.95 -376.13)"/>
      <path class="a" d="M371.39,417.37a10,10,0,0,1-5.32-1.55v10.36h-3.82V395.51h2.91l.54,2a9.13,9.13,0,0,1,6.23-2.59,8.54,8.54,0,0,1,5.54,2c2.32,2,3.59,5.18,3.59,9C381.08,412.78,376.57,417.37,371.39,417.37Zm-.14-19.18a7.56,7.56,0,0,0-5.18,2.18v12.09a8.2,8.2,0,0,0,4.86,1.59c2.91,0,6-2.45,6-8C376.94,400.83,374.71,398.19,371.26,398.19Z" transform="translate(-136.95 -376.13)"/>
      <path class="a" d="M399.3,417.1h-.91V403.83c0-3.32-.86-5.59-4.32-5.59a10.75,10.75,0,0,0-5.82,2.23V417.1H384.4V385h3.87v12.32a11.91,11.91,0,0,1,7-2.41,6.45,6.45,0,0,1,6.27,3.86,9.63,9.63,0,0,1,.77,3.86V417.1Z" transform="translate(-136.95 -376.13)"/>
      <path class="a" d="M409.17,393.15a2.38,2.38,0,0,1-2.5-2.23,2.34,2.34,0,0,1,2.5-2.32,2.3,2.3,0,0,1,2.5,2.23A2.4,2.4,0,0,1,409.17,393.15Zm-2,24V395.51h4V417.1Z" transform="translate(-136.95 -376.13)"/>
      <path class="a" d="M425.85,417.69c-6.36,0-10.68-4.86-10.68-11.09,0-6.77,4.41-11.77,11.23-11.77a10.88,10.88,0,0,1,6.59,2l-.77,3a9.71,9.71,0,0,0-5.68-1.91c-4.54,0-7.23,3.86-7.23,8.18s2.32,8.54,7.09,8.54a11.07,11.07,0,0,0,6.14-1.91l.73,2.86A14.51,14.51,0,0,1,425.85,417.69Z" transform="translate(-136.95 -376.13)"/>
    </g>
    <path class="a" d="M234.66,457.57c-2.86,0-5.77-.09-8.68-.23V426.2a47.12,47.12,0,0,1,7.55-.68c10.82,0,16.09,5.63,16.09,16.36C249.61,451.38,244.43,457.57,234.66,457.57Zm-.77-28.5a33.31,33.31,0,0,0-3.68.23v24.64q2.12.13,4.23.14c7.59,0,10.73-5.14,10.73-12.23C245.16,434.43,241.79,429.07,233.88,429.07Z" transform="translate(-136.95 -376.13)"/>
    <path class="a" d="M270.61,447c-1.91,0-3.68,0-5.5,0h-8.77c.18,4,2.36,7.5,6.64,7.5a10.66,10.66,0,0,0,6.91-2.54l.45,3.14a12.81,12.81,0,0,1-7.91,2.5c-6.86,0-10.32-5.14-10.32-11.54,0-6.14,3.55-11.32,10.14-11.32a8.33,8.33,0,0,1,4.68,1.36c2.77,1.82,3.86,4.86,3.86,8.18A19.09,19.09,0,0,1,270.61,447ZM262,437.79c-3.54,0-5.27,3-5.59,6.18H266.7c0-.14,0-.28,0-.41C266.75,440.66,265.16,437.79,262,437.79Z" transform="translate(-136.95 -376.13)"/>
    <path class="a" d="M279.57,457.57a16.22,16.22,0,0,1-6.63-1.64l1-2.91a13.43,13.43,0,0,0,6,1.5c1.82,0,3.68-1,3.68-3,0-1.45-1-2.36-2.36-3.13-3.18-1.91-8.23-2.86-8.23-7.64,0-4.18,3.82-6.14,7.45-6.14a12.84,12.84,0,0,1,6.23,1.59l-1.14,2.91a9.33,9.33,0,0,0-4.91-1.46c-1.77,0-3.73.77-3.73,2.68,0,1.14,1,1.82,2.54,2.64.68.36,2.37,1.18,3.14,1.59,2.46,1.23,4.77,3,4.77,6.46C287.3,455.61,283.62,457.57,279.57,457.57Z" transform="translate(-136.95 -376.13)"/>
    <path class="a" d="M292.85,433a2.38,2.38,0,0,1-2.5-2.23,2.34,2.34,0,0,1,2.5-2.32,2.3,2.3,0,0,1,2.5,2.23A2.39,2.39,0,0,1,292.85,433Zm-2,24V435.38h4V457Z" transform="translate(-136.95 -376.13)"/>
    <path class="a" d="M318.16,436.43a3.71,3.71,0,0,0-3.09,1.18,7.26,7.26,0,0,1,2,5.27c0,5.09-4.68,7.27-9.13,7.27a14.45,14.45,0,0,1-3.18-.46l-.54.86a1.56,1.56,0,0,0-.32.82c0,.55,1,.73,1.32.82,1.28.27,2.64.36,3.91.55,3.91.59,8.59,1.77,8.59,6.63s-6.18,7-10.32,7-9.5-1.73-9.5-6.77a6,6,0,0,1,3.09-5.09,1.93,1.93,0,0,1-.82-1.5,4,4,0,0,1,1.36-2.73l1.23-1.41a7,7,0,0,1-3.54-6.14c0-5,4.41-8,9.27-8a10.58,10.58,0,0,1,5.09,1.27,6.78,6.78,0,0,1,4.54-2.36,9,9,0,0,1,1.09.09v2.68A7.26,7.26,0,0,0,318.16,436.43Zm-11.87,19.5a25.35,25.35,0,0,1-3.41-.55,5.31,5.31,0,0,0-1.73,3.64c0,3.46,3.54,4.68,6.45,4.68,2.68,0,6.5-1,6.5-4.18C314.12,456.66,308.3,456.2,306.3,455.93Zm2-18.41a4.84,4.84,0,0,0-5.13,5.13,4.56,4.56,0,0,0,5,5c3.23,0,5-1.91,5-5.09A4.72,4.72,0,0,0,308.34,437.52Z" transform="translate(-136.95 -376.13)"/>
    <path class="a" d="M335,457V443.7c0-3.41-1.09-5.63-4.41-5.63a10.46,10.46,0,0,0-5.82,2.09V457h-3.91V435.34h3.23l.32,2a12.65,12.65,0,0,1,7.41-2.59,6.53,6.53,0,0,1,6.32,3.91c.59,1.54.73,3.13.73,6.91V457Z" transform="translate(-136.95 -376.13)"/>
    <path class="a" d="M371,457v-14.5H357.3V457h-4.23V426.2h4.23V439H371V426.2h4.23V457Z" transform="translate(-136.95 -376.13)"/>
    <path class="a" d="M389.49,457.57c-6.86,0-10.45-5-10.45-11.5s4-11.36,10.59-11.36,10.41,5,10.41,11.36S396.22,457.57,389.49,457.57Zm.14-19.86c-4.55,0-6.46,4.36-6.46,8.36s1.77,8.5,6.32,8.5,6.37-4.5,6.37-8.5S394.17,437.7,389.63,437.7Z" transform="translate(-136.95 -376.13)"/>
    <path class="a" d="M417.54,457l-.36-2a11.88,11.88,0,0,1-7,2.64,6.29,6.29,0,0,1-6.18-3.82c-.64-1.55-.73-3.14-.73-7V435.38h3.86v13.27c0,3.41.82,5.64,4.18,5.64a9.45,9.45,0,0,0,5.5-2V435.38h3.86V457Z" transform="translate(-136.95 -376.13)"/>
    <path class="a" d="M430.54,457.57a16.22,16.22,0,0,1-6.64-1.64l1-2.91a13.44,13.44,0,0,0,6,1.5c1.82,0,3.68-1,3.68-3,0-1.45-1-2.36-2.36-3.13-3.18-1.91-8.23-2.86-8.23-7.64,0-4.18,3.82-6.14,7.46-6.14a12.84,12.84,0,0,1,6.23,1.59l-1.14,2.91a9.33,9.33,0,0,0-4.91-1.46c-1.77,0-3.73.77-3.73,2.68,0,1.14,1,1.82,2.54,2.64.68.36,2.36,1.18,3.13,1.59,2.46,1.23,4.77,3,4.77,6.46C438.27,455.61,434.59,457.57,430.54,457.57Z" transform="translate(-136.95 -376.13)"/>
    <path class="a" d="M458.72,447c-1.91,0-3.68,0-5.5,0h-8.77c.18,4,2.36,7.5,6.64,7.5a10.66,10.66,0,0,0,6.91-2.54l.46,3.14a12.81,12.81,0,0,1-7.91,2.5c-6.86,0-10.32-5.14-10.32-11.54,0-6.14,3.54-11.32,10.13-11.32a8.32,8.32,0,0,1,4.68,1.36c2.77,1.82,3.87,4.86,3.87,8.18A19.38,19.38,0,0,1,458.72,447Zm-8.64-9.18c-3.55,0-5.27,3-5.59,6.18h10.32c0-.14,0-.28,0-.41C454.86,440.66,453.27,437.79,450.09,437.79Z" transform="translate(-136.95 -376.13)"/>
  </g>
</svg>
