<?xml version="1.0" encoding="utf-8"?>
<!-- Generator: Adobe Illustrator 20.1.0, SVG Export Plug-In . SVG Version: 6.00 Build 0)  -->
<svg version="1.1" id="Layer_1" xmlns="http://www.w3.org/2000/svg" xmlns:xlink="http://www.w3.org/1999/xlink" x="0px" y="0px"
	 viewBox="0 0 200 57" style="enable-background:new 0 0 200 57;" xml:space="preserve">
<style type="text/css">
	.st0{fill:#231F20;}
</style>
<path class="st0" d="M44.2,50.7H0V11.4l17-11L44.2,20V50.7z M5.2,45.4H39V22.7L16.8,6.8L5.2,14.3V45.4z"/>
<g>
	<g>
		<path class="st0" d="M66.4,8.9h-4.1v17h-2.6v-17h-6V6.8h14.7v2.1H66.4z"/>
		<path class="st0" d="M79,25.9h-0.6v-8.2c0-2.1-0.5-3.5-2.7-3.5c-1.1,0-2.7,0.6-3.6,1.4v10.3h-2.4V6h2.4v7.7
			c1.3-0.9,2.8-1.5,4.3-1.5c1.8,0,3.3,0.9,3.9,2.4c0.3,0.7,0.5,1.3,0.5,2.4v9H79z"/>
		<path class="st0" d="M94.4,19.7c-1.2,0-2.3,0-3.4,0h-5.4c0.1,2.5,1.5,4.7,4.1,4.7c1.6,0,3-0.5,4.3-1.6l0.3,1.9
			c-1.5,1.1-3.1,1.6-4.9,1.6c-4.3,0-6.4-3.2-6.4-7.2c0-3.8,2.2-7,6.3-7c1.1,0,2.1,0.3,2.9,0.8c1.7,1.1,2.4,3,2.4,5.1
			C94.5,18.5,94.5,19.1,94.4,19.7z M89,14c-2.2,0-3.3,1.8-3.5,3.8H92c0-0.1,0-0.2,0-0.3C92,15.8,91,14,89,14z"/>
		<path class="st0" d="M111.3,26.2c-6.2,0-9-4.2-9-9.9c0-5.6,3.3-10,9.2-10c1.6,0,3,0.4,4.5,1l-0.7,2c-1.2-0.6-2.5-0.9-3.8-0.9
			c-4.5,0-6.5,3.7-6.5,7.7c0,3.9,1.6,7.8,6,7.8c1.1,0,2.3-0.2,3.2-0.7V19h-2.6v-2.1h5.2v7.5C115.4,25.5,113.2,26.2,111.3,26.2z"/>
		<path class="st0" d="M126.1,14.4c-0.3-0.1-0.8-0.1-1.3-0.1c-1.2,0-2.3,0.8-3,1.8v9.9h-2.4V12.5h1.9l0.3,1.4
			c0.7-1.1,2.1-1.7,3.4-1.7c0.4,0,0.8,0.1,1.3,0.2L126.1,14.4z"/>
		<path class="st0" d="M135.1,25.9l-0.1-1.1c-1,0.9-2.5,1.5-3.9,1.5c-2.3,0-4.3-1.4-4.3-4.2c0-4,4.5-4.9,7.6-4.9h0.5
			c0-2.1-0.6-3.1-2.5-3.1c-1,0-2.7,0.4-4.2,1.4l-0.7-1.7c1.6-1.1,3.6-1.7,5.1-1.7c3.2,0,4.7,1.6,4.7,5.2v8.6H135.1z M134.8,19
			c-1.9,0-5.4,0.3-5.4,3c0,1.5,1.2,2.2,2.4,2.2c1.1,0,2.5-0.8,3.1-1.4V19z"/>
		<path class="st0" d="M145.6,26.1c-1.2,0-2.4-0.4-3.3-1v6.4H140V12.5h1.8l0.3,1.2c1.2-1.1,2.7-1.6,3.9-1.6c1.3,0,2.5,0.5,3.4,1.2
			c1.4,1.2,2.2,3.2,2.2,5.6C151.7,23.2,148.9,26.1,145.6,26.1z M145.6,14.2c-1.2,0-2.5,0.6-3.2,1.4V23c0.8,0.6,2,1,3,1
			c1.8,0,3.7-1.5,3.7-5C149.1,15.8,147.7,14.2,145.6,14.2z"/>
		<path class="st0" d="M163,25.9h-0.6v-8.2c0-2.1-0.5-3.5-2.7-3.5c-1.1,0-2.7,0.6-3.6,1.4v10.3h-2.4V6h2.4v7.7
			c1.3-0.9,2.8-1.5,4.3-1.5c1.8,0,3.3,0.9,3.9,2.4c0.3,0.7,0.5,1.3,0.5,2.4v9H163z"/>
		<path class="st0" d="M169.1,11c-0.8,0-1.6-0.5-1.6-1.4c0-0.9,0.7-1.4,1.6-1.4c0.8,0,1.6,0.5,1.6,1.4C170.7,10.5,169.9,11,169.1,11
			z M167.9,25.9V12.5h2.5v13.4H167.9z"/>
		<path class="st0" d="M179.5,26.3c-4,0-6.6-3-6.6-6.9c0-4.2,2.7-7.3,7-7.3c1.5,0,2.9,0.4,4.1,1.3l-0.5,1.8
			c-1.1-0.8-2.3-1.2-3.5-1.2c-2.8,0-4.5,2.4-4.5,5.1c0,2.7,1.4,5.3,4.4,5.3c1.3,0,2.6-0.4,3.8-1.2l0.5,1.8
			C182.6,25.8,181.1,26.3,179.5,26.3z"/>
	</g>
	<path class="st0" d="M60.7,51c-1.8,0-3.6-0.1-5.4-0.1V31.6c1.6-0.3,3.1-0.4,4.7-0.4c6.7,0,10,3.5,10,10.2C70,47.2,66.8,51,60.7,51z
		 M60.2,33.3c-0.8,0-1.5,0.1-2.3,0.1v15.3c0.9,0.1,1.8,0.1,2.6,0.1c4.7,0,6.7-3.2,6.7-7.6C67.2,36.7,65.1,33.3,60.2,33.3z"/>
	<path class="st0" d="M83,44.5c-1.2,0-2.3,0-3.4,0h-5.4c0.1,2.5,1.5,4.7,4.1,4.7c1.6,0,3-0.5,4.3-1.6l0.3,1.9
		C81.4,50.6,79.7,51,78,51c-4.3,0-6.4-3.2-6.4-7.2c0-3.8,2.2-7,6.3-7c1.1,0,2.1,0.3,2.9,0.8c1.7,1.1,2.4,3,2.4,5.1
		C83.1,43.3,83.1,43.9,83,44.5z M77.7,38.8c-2.2,0-3.3,1.8-3.5,3.8h6.4c0-0.1,0-0.2,0-0.3C80.6,40.5,79.6,38.8,77.7,38.8z"/>
	<path class="st0" d="M88.6,51c-1.4,0-2.8-0.4-4.1-1l0.6-1.8c1.2,0.6,2.4,0.9,3.7,0.9c1.1,0,2.3-0.6,2.3-1.8c0-0.9-0.6-1.5-1.5-1.9
		c-2-1.2-5.1-1.8-5.1-4.7c0-2.6,2.4-3.8,4.6-3.8c1.3,0,2.6,0.3,3.9,1l-0.7,1.8c-1-0.6-2-0.9-3-0.9c-1.1,0-2.3,0.5-2.3,1.7
		c0,0.7,0.6,1.1,1.6,1.6c0.4,0.2,1.5,0.7,1.9,1c1.5,0.8,3,1.9,3,4C93.4,49.8,91.1,51,88.6,51z"/>
	<path class="st0" d="M96.8,35.8c-0.8,0-1.6-0.5-1.6-1.4c0-0.9,0.7-1.4,1.6-1.4c0.8,0,1.6,0.5,1.6,1.4
		C98.4,35.2,97.6,35.8,96.8,35.8z M95.6,50.7V37.3h2.5v13.4H95.6z"/>
	<path class="st0" d="M112.6,37.9c-0.7,0-1.4,0.1-1.9,0.7c0.9,0.8,1.2,2.1,1.2,3.3c0,3.2-2.9,4.5-5.7,4.5c-0.6,0-1.4-0.1-2-0.3
		l-0.3,0.5c-0.1,0.2-0.2,0.3-0.2,0.5c0,0.3,0.6,0.5,0.8,0.5c0.8,0.2,1.6,0.2,2.4,0.3c2.4,0.4,5.3,1.1,5.3,4.1c0,3.1-3.8,4.4-6.4,4.4
		c-2.6,0-5.9-1.1-5.9-4.2c0-1.3,0.8-2.5,1.9-3.2c-0.3-0.2-0.5-0.6-0.5-0.9c0-0.7,0.3-1.1,0.8-1.7l0.8-0.9c-1.3-0.7-2.2-2.2-2.2-3.8
		c0-3.1,2.7-4.9,5.8-4.9c1,0,2.3,0.3,3.2,0.8c0.7-0.8,1.8-1.5,2.8-1.5c0.2,0,0.5,0,0.7,0.1V38C113,37.9,112.8,37.9,112.6,37.9z
		 M105.2,50c-0.7-0.1-1.5-0.2-2.1-0.3c-0.6,0.6-1.1,1.4-1.1,2.3c0,2.1,2.2,2.9,4,2.9c1.7,0,4-0.6,4-2.6
		C110.1,50.5,106.4,50.2,105.2,50z M106.5,38.6c-1.9,0-3.2,1.3-3.2,3.2c0,1.9,1.2,3.1,3.1,3.1c2,0,3.1-1.2,3.1-3.2
		C109.4,39.9,108.3,38.6,106.5,38.6z"/>
	<path class="st0" d="M123,50.7v-8.2c0-2.1-0.7-3.5-2.7-3.5c-1.1,0-2.5,0.5-3.6,1.3v10.4h-2.4V37.2h2l0.2,1.3
		c1.5-1.1,3.2-1.6,4.6-1.6c2.1,0,3.4,1.2,3.9,2.4c0.4,1,0.5,1.9,0.5,4.3v7.1H123z"/>
	<path class="st0" d="M145.4,50.7v-9h-8.5v9h-2.6V31.6h2.6v7.9h8.5v-7.9h2.6v19.1H145.4z"/>
	<path class="st0" d="M156.9,51c-4.3,0-6.5-3.1-6.5-7.1c0-3.9,2.5-7.1,6.6-7.1c4.1,0,6.5,3.1,6.5,7.1C163.4,47.8,161.1,51,156.9,51z
		 M157,38.7c-2.8,0-4,2.7-4,5.2c0,2.5,1.1,5.3,3.9,5.3c2.8,0,4-2.8,4-5.3C160.8,41.4,159.8,38.7,157,38.7z"/>
	<path class="st0" d="M174.3,50.7l-0.2-1.3c-1.4,1.1-3,1.6-4.3,1.6c-2.1,0-3.3-1.1-3.8-2.4c-0.4-1-0.5-1.9-0.5-4.3v-7.1h2.4v8.2
		c0,2.1,0.5,3.5,2.6,3.5c1.1,0,2.5-0.5,3.4-1.3V37.3h2.4v13.4H174.3z"/>
	<path class="st0" d="M182.4,51c-1.4,0-2.8-0.4-4.1-1l0.6-1.8c1.2,0.6,2.4,0.9,3.7,0.9c1.1,0,2.3-0.6,2.3-1.8c0-0.9-0.6-1.5-1.5-1.9
		c-2-1.2-5.1-1.8-5.1-4.7c0-2.6,2.4-3.8,4.6-3.8c1.3,0,2.6,0.3,3.9,1l-0.7,1.8c-1-0.6-2-0.9-3-0.9c-1.1,0-2.3,0.5-2.3,1.7
		c0,0.7,0.6,1.1,1.6,1.6c0.4,0.2,1.5,0.7,1.9,1c1.5,0.8,3,1.9,3,4C187.2,49.8,184.9,51,182.4,51z"/>
	<path class="st0" d="M199.9,44.5c-1.2,0-2.3,0-3.4,0H191c0.1,2.5,1.5,4.7,4.1,4.7c1.6,0,3-0.5,4.3-1.6l0.3,1.9
		c-1.5,1.1-3.1,1.6-4.9,1.6c-4.3,0-6.4-3.2-6.4-7.2c0-3.8,2.2-7,6.3-7c1.1,0,2.1,0.3,2.9,0.8c1.7,1.1,2.4,3,2.4,5.1
		C200,43.3,200,43.9,199.9,44.5z M194.5,38.8c-2.2,0-3.3,1.8-3.5,3.8h6.4c0-0.1,0-0.2,0-0.3C197.5,40.5,196.5,38.8,194.5,38.8z"/>
</g>
</svg>
