<?xml version="1.0" encoding="utf-8"?>
<!-- Generator: Adobe Illustrator 21.0.2, SVG Export Plug-In . SVG Version: 6.00 Build 0)  -->
<svg version="1.1" id="st_x5F_wilfs_x5F_body" xmlns="http://www.w3.org/2000/svg" xmlns:xlink="http://www.w3.org/1999/xlink"
	 x="0px" y="0px" viewBox="0 0 1000 500" style="enable-background:new 0 0 1000 500;" xml:space="preserve">
<g>
	<path d="M62.2,60.5H19.5l-7.6,17H4.2L37.2,4h7.4l33,73.5h-7.8L62.2,60.5z M22.5,53.8h36.7L40.8,12L22.5,53.8z"/>
	<path d="M121.2,4c12.9,0,24.6,5.7,24.6,20.2c0,7.1-4.4,13.2-11.5,15.6c9,2.6,13.8,10.4,13.8,17.8c0,15.2-13.5,19.8-26.8,19.8
		c-10.9,0-20.4,0-31.3,0V4H121.2z M97.2,36.6h24.5c8.8,0,16.7-3.6,16.7-12.5c0-9.9-8.2-13.2-17.2-13.2H97.2V36.6z M97.2,70.6h23.9
		c8.4,0,19.4-2.6,19.4-13c-0.1-10.2-10.1-14.3-18.9-14.3c-8.3,0-16.1,0-24.5,0V70.6z"/>
	<path d="M224.2,67.5c-7.5,7.5-16.9,11.1-26.8,11.1c-25.4,0-38.1-17-38.2-37.5C159.1,21.1,171.9,3,197.4,3c9.8,0,19.6,3.5,26,11
		l-4.5,4.5c-6-5.9-13.6-8.8-21.5-8.8c-20.5,0-30.9,15.1-30.9,31.4c0,17.2,10.4,30.8,30.9,30.8c7.9,0,16.2-3.1,22-9L224.2,67.5z"/>
	<path d="M264.2,4C289.1,4,301,21.9,301,40c0,18.6-11.1,37.5-36.9,37.5c-8.5,0-17.4,0-25.9,0V4H264.2z M245.6,70.7h18.6
		c20.5,0,29.7-16,29.4-30.8c-0.3-14.3-9.6-29-29.4-29h-18.6V70.7z"/>
	<path d="M369.5,77.5h-52.7c0-24.5,0-49,0-73.5h51.8v6.9h-44.4v26.4h42.4v6.8h-42.4v26.5h45.4V77.5z"/>
	<path d="M385.6,77.5V4h50.3v6.9h-42.9v27.9h41.4v6.9h-41.4v31.7H385.6z"/>
	<path d="M507.5,18.5c-6-6-14.7-8.8-22.6-8.8c-20.1,0-30.9,14.9-30.8,31.4c0,16.1,10.2,30.3,30.8,30.3c7.3,0,15-2.5,21.1-8V44.8h-24
		V38H513v28.5c-7.6,7.8-16.7,12.1-28.1,12.1c-25.6,0-38.1-17.5-38.1-37.4c-0.1-22.5,14.9-38.4,38.1-38.4c9.8,0,19.5,3.7,27,11
		L507.5,18.5z"/>
	<path d="M581.7,77.5V45h-44.5v32.5h-7.3V4h7.3v34h44.5V4h7.3v73.5H581.7z"/>
	<path d="M609.4,77.5V4h7.3v73.5H609.4z"/>
	<path d="M689.4,4v44.8c0,18.4-12.4,29.6-29.9,29.6c-17.2,0-29.8-11.3-29.8-29.4h7.4c0,13.6,9.1,22.5,22.5,22.5
		c13.3,0,22.6-8.4,22.6-22.7v-38h-27V4H689.4z"/>
	<path d="M759.1,4.5l-35.8,34.8l39,37.7v0.5h-9.1l-36.9-35.6v35.6H709V4h7.3v33.1L750.4,4h8.7V4.5z"/>
	<path d="M779.9,4v66.6h40.8v6.9h-48.2V4H779.9z"/>
	<path d="M897.1,14.8l-27.4,40.3h-2.1l-27.5-40.8v63.2h-7.3V4c3.4,0,5.7,0,9,0l26.9,40.5L895.2,4h9.2v73.5h-7.3V14.8z"/>
	<path d="M977,63.6l-0.4-24.4V4h7.3v73.5h-4.4L932,18.4l0.2,21.7v37.4h-7.3V4h4.6L977,63.6z"/>
	<path d="M81.9,167c-0.1,19.2-12.3,37.9-37.2,37.9c-25,0-37.3-18.7-37.3-38c0-20.7,13.4-38.1,37.3-38.1
		C69.6,128.8,82,147.3,81.9,167z M44.7,197.9c20.1,0,29.7-15.2,29.8-31c0-16.5-9.8-31.2-29.8-31.3c-19.7,0-30.1,14-29.9,31.3
		C15,183,24.7,197.9,44.7,197.9z"/>
	<path d="M104.9,179v24.5h-7.3V130c10.9,0,21.9,0,32.9,0c32.9,0,32.9,48.9,0,49H104.9z M104.9,172.1h25.5c23,0,23-35.2,0-35.2h-25.5
		V172.1z"/>
	<path d="M238.7,166.5c0,8.8-2.7,17.8-8.2,24.8l9.1,8.9l-5,5.2l-9.2-9c-5.9,4.8-14.1,7.9-23.9,7.9c-25.3,0-37.5-18.1-37.3-38.1
		c0.1-19.4,12.4-37.4,37.3-37.4C226.5,128.8,238.7,146.8,238.7,166.5z M171.5,166.3c-0.1,16.2,9.9,31.1,29.9,31.1s30-15,29.8-31
		c-0.1-16.7-9.7-30.7-29.8-30.7C182.9,135.8,171.4,149.6,171.5,166.3z"/>
	<path d="M314.7,203.5h-9.6l-24.4-27.1h-19v27.1h-7.3V130c11,0,21.9,0,33,0c16.4,0,24.3,10.9,24.4,23.3c0.1,11.4-6.6,21.8-22.2,22.6
		L314.7,203.5z M261.8,136.9v32.5H287c11.8,0,17.4-6.9,17.4-16.2s-5.7-16.4-17-16.4H261.8z"/>
	<path d="M374.6,145.1c-4.3-6.9-13.3-9.2-21.1-9.3c-9,0-20.7,2.6-20.7,13.4c0,8.6,9.4,10.9,20.9,12.9c14.5,2.5,29.2,5.8,29.2,21.4
		c-0.1,16.6-16.1,21.1-29.4,21.1c-12.4,0-25-4.5-30.7-16.3l6.4-3.5c5,9.4,15.3,12.7,24.3,12.7c9,0,21.9-2.4,21.9-14.2
		c0.1-10-11-12.5-22.5-14.5c-13.9-2.4-27.5-5.5-27.5-19.7c-0.2-15.4,15.5-20.4,27.9-20.4c10.1,0,20.9,2.7,27.4,12.8L374.6,145.1z"/>
	<path d="M415.5,136.9h-25.9V130c20.8,0,38.4,0,59.2,0v6.9h-25.9v66.6h-7.3V136.9z"/>
	<path d="M518.2,130v44.8c0,19.8-13,29.4-29,29.4s-29.4-9.6-29.4-29.4V130h7.3v44.8c0,14,9.6,22.6,22,22.6
		c11.1,0,21.6-7.2,21.6-22.6V130H518.2z"/>
	<path d="M569.6,203.7h-8.2L530.1,130h8.1l27.3,65.6l26.9-65.6h8.2L569.6,203.7z"/>
	<path d="M687.4,203.7H680l-11-31.6l-8.9-27.8l-8.8,27.7l-11,31.7h-7.6l-26-73.7h8.3l21.4,63.6l21.4-63.6h4.6l21.4,63.6l21.5-63.6
		h8.2L687.4,203.7z"/>
	<path d="M771.1,130h8v0.2l-24.9,35.7l26.6,37.4v0.2h-8.6l-12-17l-10.8-16.2l-11.4,16.9l-11.5,16.3H718v-0.2l26.6-37.4l-24.9-35.7
		V130h8.2l11.1,15.9l10.4,15.5l10.8-16L771.1,130z"/>
	<path d="M816.8,166.8l23.7-36.7h8.6v0.2l-28.7,43.7v29.6h-7.3v-29.6l-28.2-43.7V130h8.5L816.8,166.8z"/>
	<path d="M858.1,130h52.1v3.1l-45.7,63.2h45.7v7.1H854v-3.8l44.9-62.9h-40.8V130z"/>
</g>
<g>
	<path d="M39,346.8h4.5c0,11.7,0,23.4,0,35.1h-4.4v-7c-3.1,5.2-8.7,7.7-13.9,7.7c-9.9,0-17.9-7.1-17.9-18.2c0-11.1,8-18,18-18
		c5.4,0,11.1,2.5,13.8,7.5V346.8z M12,364.4c0,8.3,6,13.8,13.3,13.8c18.1,0,18.1-27.5,0-27.5C18,350.7,12,356.1,12,364.4z"/>
	<path d="M59.3,332.2v21.6c2.6-5.2,8.3-7.6,13.8-7.6c9.9,0,17.7,6.5,17.7,18.2c0,11.6-7.7,18.2-17.7,18.2c-5.5,0-10.5-1.8-13.8-7.4
		l-0.3,6.7h-4.5v-49.7H59.3z M59.5,364.3c0,8.2,5.8,13.7,13.3,13.7c7.2,0,13.2-4.8,13.2-13.6c0-8.9-6-13.6-13.2-13.6
		C65.3,350.7,59.5,356.3,59.5,364.3z"/>
	<path d="M128.7,377.2c-3.7,3.6-8.3,5.3-13.1,5.3c-10,0-18.2-6.7-18.2-18.2c0-11.4,8-18.1,18.2-18.1c4.7,0,8.8,1.6,12.5,5.2
		l-3.1,3.1c-2.7-2.6-5.9-3.8-9.3-3.8c-7.5,0-13.6,5-13.6,13.6c0,8.8,6.2,13.6,13.5,13.6c3.5,0,7.1-1.3,9.8-4L128.7,377.2z"/>
	<path d="M169.5,332.2v49.7h-4.6l-0.1-7c-2.8,5-8.2,7.7-13.8,7.7c-9.9,0-17.7-6.5-17.7-18.2c0-11.7,7.7-18.2,17.7-18.2
		c5.5,0,11.1,2.4,13.8,7.6v-21.6H169.5z M138,364.4c0,8.8,5.9,13.6,13.2,13.6c7.5,0,13.3-5.5,13.3-13.7c0-8-5.8-13.6-13.3-13.6
		C143.9,350.7,138,355.4,138,364.4z"/>
	<path d="M183.2,366.4c0.6,7.3,6.3,11.6,13.3,11.6c4.3,0,9.4-1.7,11.9-4.8l3.2,2.8c-3.5,4.3-9.5,6.5-15.1,6.5
		c-10.4,0-18.2-7-18.2-18.2c0-10.5,7.5-18.1,18-18.1c10.4,0,18.8,6.3,17.5,20.2H183.2z M209.3,362.3c-0.1-7.7-5.9-11.9-12.9-11.9
		s-12.2,4.3-13.1,11.9H209.3z"/>
	<path d="M225.7,381.9v-30.6h-7v-4.1h7v-2.9c0-7.6,3.7-12.4,11.2-12.4c2.8,0,5.3,0.9,7.5,2.5l-2.1,3.5c-1.9-1.1-3.3-1.8-5.4-1.8
		c-4,0-6.5,2.5-6.5,8.2v2.9h11.2v4.1h-11.2v30.6H225.7z"/>
	<path d="M277.6,344.4l3.3,2.7l-3.8,4.5c2.6,2.9,4.7,6,4.7,11.6c0,6.2-3.4,12.6-10.6,14.7c6.6,1.8,10.4,5.7,10.4,11.5
		c0,8.8-8.7,13.3-18,13.3c-10,0-17.8-5.3-17.7-14.5h4.8c-0.1,6.6,6.3,9.9,13,9.9c6.5,0,13.2-2.5,13.2-8.7c0-6.2-6.7-8.9-13.2-8.9
		c-10.8,0-18.4-6.3-18.4-17.3c0-11.4,9.6-17.3,18.4-17.3c3.3,0,7.7,1,10.4,2.8L277.6,344.4z M250,363.2c0,8.7,6,12.9,13.6,12.9
		c8.1,0,13.5-5.9,13.5-12.9c0-8.7-6.6-12.8-13.5-12.8C257.1,350.4,250,354.4,250,363.2z"/>
	<path d="M295.5,332.2v20.7c2.9-4.8,7.5-6.5,12.2-6.6c9.8,0,14.6,6.5,14.6,15.9v19.7h-4.8v-19.7c0-7-3.4-11.4-10.4-11.4
		c-6.8,0-11.6,5.3-11.6,12.1v18.9h-4.8v-49.7H295.5z"/>
	<path d="M338.8,335.8c0,4.5-6.7,4.5-6.7,0S338.8,331.3,338.8,335.8z M332.9,346.7v35.2h4.8v-35.2H332.9z"/>
	<path d="M353.5,346.8v40c0,7.5-1.9,12.6-9.7,12.6c-2.5,0-4.5-0.7-6.7-2l1.5-3.9c1.6,0.9,3.3,1.3,5,1.3c4.8,0,5.1-3.5,5.1-8v-40
		H353.5z M347.8,335.5c0,4.5,6.7,4.5,6.7,0S347.8,331.1,347.8,335.5z"/>
	<path d="M369.3,332.2v29.7l15.3-15.1h6v0.3l-16.8,16.3l18.9,18.2v0.3h-6.1l-17.3-16.8v16.8h-4.7v-49.7H369.3z"/>
	<path d="M404.1,332.2v49.7h-4.8v-49.7H404.1z"/>
	<path d="M441,381.9v-20.3c0-6.2-4.1-10.9-10.3-10.9c-6.2,0-10.3,4.8-10.3,10.9v20.3h-4.8v-35.1h4.5l0.2,5.5
		c2.3-4.4,6.6-6.1,10.9-6.1c5,0,10.3,2.2,12.4,8.1c2.3-5.5,7.5-8.1,12.6-8.1c8.9,0,14.8,6,14.8,15.3v20.4h-4.8v-20.4
		c0-6.2-3.9-10.8-10.1-10.8c-6.2,0-10.4,4.8-10.4,10.9v20.3H441z"/>
	<path d="M509.3,381.9v-19.7c0-7.5-4.4-11.5-11.4-11.5c-6.8,0.1-11.5,5.3-11.5,12.1v19.1h-4.8v-35.1h4.5l0.1,5.9
		c2.9-4.5,7.5-6.5,12.2-6.5c9.1,0,15.6,5.4,15.6,15.9v19.7H509.3z"/>
	<path d="M558.6,364.4c0,10.9-7.7,18-18,18c-10.2,0-18-7.2-18-18c0-10.9,7.5-18.2,18-18.2C550.8,346.2,558.6,353.6,558.6,364.4z
		 M527.3,364.4c0,8.2,5.5,13.6,13.3,13.6c7.9,0,13.3-5.4,13.3-13.6c0-8.1-5.5-13.9-13.3-13.9S527.3,356.3,527.3,364.4z"/>
	<path d="M567.4,398.7v-51.8h4.6l0.1,7.5c2.7-5,8.1-8,14.2-8c9.9,0.3,17.3,7.1,17.3,18.1c0,11.4-7.5,18.2-17.7,18.2
		c-5.4,0-10.9-2.5-13.8-7.8v23.9H567.4z M598.8,364.4c0-8.7-5.7-13.5-13.2-13.5c-7.7,0-13.1,5.8-13.1,13.6c0,7.8,5.6,13.6,13.1,13.6
		C593,378,598.8,373.2,598.8,364.4z"/>
	<path d="M641.8,398.7v-23.9c-2.8,5.3-8.4,7.8-13.8,7.8c-10.2,0-17.8-6.8-17.8-18.2c0-11,7.4-17.8,17.3-18.1c6.1,0,11.5,3.1,14.2,8
		l0.1-7.5h4.6v51.8H641.8z M641.4,364.4c0-7.8-5.4-13.6-13.1-13.6c-7.5,0-13.2,4.8-13.2,13.5c0,8.8,5.8,13.6,13.2,13.6
		C635.8,378,641.4,372.2,641.4,364.4z"/>
	<path d="M662,346.8l0.3,5.8c2.3-4.7,7-6.3,11.1-6.3c3.2,0,5.4,0.7,8,2.5l-2.2,4c-1.8-1.2-3.8-1.8-6-1.8c-6,0.1-10.9,4.7-10.9,11.1
		v20h-4.8v-35.1H662z"/>
	<path d="M710.1,354c-3.3-3-6.6-3.5-10.4-3.5c-5.1-0.1-9.7,1.8-9.5,5.7c0.1,4.1,5.2,5.1,9.6,5.8c6.3,0.9,14.5,2,14.5,10.5
		c-0.1,7.4-7.3,10.2-14.4,10.2c-6,0-12-2-15.5-6.8l3-3.3c3,4,8.2,5.6,12.6,5.7c4,0,9.6-1.1,9.6-5.9c0-4.6-4.5-5.5-10.2-6.2
		c-6.7-1-13.8-2.6-13.8-9.8c0-7.2,7.2-10.2,14.1-10.2c5.3,0,9.6,1.4,13.2,4.8L710.1,354z"/>
	<path d="M731.5,336.5v10.4h11.4v4h-11.4v19.8c0,4.4,1.2,7.3,6,7.3c1.6,0,3.4-0.6,5.1-1.3l1.5,4c-2.3,1.1-4.5,1.7-6.7,1.7
		c-7.5,0.1-10.6-4.3-10.6-11.6v-19.8h-7.2v-4h7.2V337L731.5,336.5z"/>
	<path d="M754.7,346.8v19.7c0,7.3,4.4,11.5,11.5,11.4c6.7,0,11.5-5.3,11.5-12v-19.1h4.7v35.1H778l-0.1-5.9
		c-2.9,4.5-7.5,6.4-12.4,6.5c-9.1,0-15.5-5.9-15.5-15.9v-19.7H754.7z"/>
	<path d="M825,346.8L810.3,382H805l-14.8-35.1h5.3l12.1,29.9l12.1-29.9H825z"/>
	<path d="M858.8,346.8l9.9,29.9l9.9-29.9h5.3L871.5,382h-5.4l-5.2-14.1l-4-13.3l-4,13.3l-5.2,14.1h-5.4l-12.4-35.1h5.3l9.9,29.9
		l9.9-29.9H858.8z"/>
	<path d="M913.4,346.8h5.8v0.2l-12.3,16.8l13.2,17.9v0.1h-5.7l-10.5-14.7l-10.5,14.7h-5.7v-0.1l13.2-17.9L888.6,347v-0.2h5.7
		l9.6,13.8L913.4,346.8z"/>
	<path d="M957.8,346.8l-22.2,51.8h-5.2l7.4-17.2l-14.1-34.6h5.3l7.5,19.4l3.9,10.1l4-10.1l8.2-19.4H957.8z"/>
	<path d="M990,346.8v2.1l-20.7,28.5h20.8v4.5h-28v-1.8l20.9-29h-19.7v-4.3H990z"/>
	<path d="M7.6,463.1h9.4v-39.9l-9,2.3v-4.1l13.6-3.9v45.7h9.4v4H7.6V463.1z"/>
	<path d="M37.7,430.9c0.3-10.9,10.4-14.1,19.5-14.1c9.2,0,19.2,3.8,19.2,14.7c0,10.8-10,14.3-19.2,14.3c-6.5,0-15,1.8-15,9.6v7.1H76
		v4.6H37.4c0-3.8,0-7.7,0-11.6c0-11.1,10.2-14.1,19.5-14.1c5.8,0,14.7-2.1,14.7-9.9c0-8-8-10.4-14.6-10.5c-6.3,0-14.5,1.8-14.6,9.9
		H37.7z"/>
	<path d="M96.2,443.7v-4.2h7.8c8.7,0,13.9-4.5,14-9.2c0-4.6-4.4-9.5-13.8-9.5c-5.7,0-14.1,1.6-14.1,9.1h-4.8
		c0-10.4,10.3-13.2,18.8-13.2c11.2,0,18.2,5.5,18.3,13.6c0,5.3-3.8,10-9.3,11.1c5.7,1.2,10.3,5.5,10.3,11.7
		c0,8.9-7.5,14.5-19.2,14.5c-8.8,0-19.7-2.8-19.7-13.8h4.8c0.1,8.2,9.2,9.2,15,9.2c9,0,14.4-4.3,14.4-9.8c0-4.6-4.5-9.7-14.3-9.7
		H96.2z"/>
	<path d="M164.3,417.4v34.3h5.8v4.2h-5.8v11.2h-4.6v-11.2h-29.6l-0.9-3.8l29.5-34.6H164.3z M159.7,451.7v-28.5l-24.6,28.5H159.7z"/>
	<path d="M214,421.9h-30.2v14.6h14.7c12.7,0,18.3,6.5,18.3,15.3c0,8.9-7,15.8-19.3,15.8c-9.5,0-19.5-3.2-19.5-14.4h4.8
		c0,8.4,8.4,9.9,14.6,9.9c9.2,0,14.5-4.8,14.5-11.3c0-6.2-3.9-10.7-13.4-10.7h-19.4c0-8,0-15.5,0-23.6H214V421.9z"/>
	<path d="M230.6,443c3.3-4.7,9.7-6.5,15.1-6.5c9.5,0,19.7,4,19.7,15.6c0,11.2-10.2,15.6-19.7,15.6c-9.7,0-19.9-4.5-19.9-15.8V431
		c0-9.8,9.7-14.4,19.2-14.4c10.2,0,18.8,3.7,19.2,12.6h-5.1c-0.4-5.6-6.6-8.1-14.1-8.1c-6.3,0-14.4,2.8-14.4,9.9V443z M260.4,452.1
		c0-8.4-7.8-11.2-14.7-11.2c-6.9,0-14.9,3.6-15,11.1c0,8.1,8,11.1,14.9,11.1C252.4,463.1,260.4,460.3,260.4,452.1z"/>
	<path d="M276.9,467.1l25.3-44.9h-30.7v-4.8h36.3l0.5,3.6l-25.8,46.1H276.9z"/>
	<path d="M323.6,441.5c-5.4-1.9-9.4-5.5-9.4-11.2c0-10.3,10.2-13.8,19.7-13.8c9.6,0,19.8,3.4,19.9,13.8c0,5.5-4.2,9.4-9.7,11.2
		c5.7,1.4,10.6,6.2,10.6,12.1c0.1,10.9-10,14.6-20.7,14.6c-10.7,0-20.7-3.6-20.7-14.6C313.3,447.5,318,442.9,323.6,441.5z
		 M318.2,453.6c0,7.2,8.2,10.2,15.8,10.2s15.7-3,15.8-10.2c0-7.5-9.9-10.1-15.8-10.1S318.3,445.9,318.2,453.6z M334.1,439.3
		c6,0,14.8-2.2,14.9-9.2c0-7.2-7.5-9.6-15-9.6c-7.5,0-14.9,2.5-14.8,9.6C319.2,437.1,328,439.3,334.1,439.3z"/>
	<path d="M397.8,441.3c-3.3,4.7-9.9,6.5-15.2,6.5c-9.5,0-19.7-4-19.7-15.6c0-11.2,10.2-15.6,19.7-15.6c9.7,0,19.9,4.5,19.9,15.8
		v20.9c0,9.8-9.9,14.5-19.5,14.5c-10.2,0-19-3.8-19.5-12.6h5.1c0.4,5.6,6.8,8.2,14.3,8.2c6.3,0,14.8-2.9,14.8-10V441.3z
		 M367.9,432.2c0,8.4,7.8,11.2,14.7,11.2c6.9,0,14.9-3.6,15-11.1c0-8.1-8-11.1-14.9-11.1C375.9,421.2,367.9,424.1,367.9,432.2z"/>
	<path d="M412.7,436.9c0-27,39.3-26.9,39.3,0v10.8c0,26.9-39.3,27-39.3,0V436.9z M417.5,447.7c0,20.7,29.5,20.7,29.5,0v-10.9
		c0-20.6-29.5-20.7-29.5,0V447.7z"/>
	<path d="M478.3,417.1c-8.7,6.3-13.2,16.8-13.3,27.7c-0.1,11,4.3,21.5,13.3,28.2l-2.6,3.6c-9.8-6.4-15.1-17.6-15.7-29
		c-0.8-13.1,4.5-26.6,15.8-34L478.3,417.1z"/>
	<path d="M484.4,413.7c10.6,6.9,15.8,19.2,15.8,31.5c0,11.7-5.1,23.9-15.8,31.5L482,473c8.9-6.6,13.3-16.8,13.3-27.6
		c0-12.2-4.2-21-13.3-28.2L484.4,413.7z"/>
	<path d="M516.2,464c0,4.6-7,4.6-7,0C509.2,459.3,516.2,459.3,516.2,464z M515.1,417.4v38.8h-5c0-13.5,0-25.3,0-38.8H515.1z"/>
	<path d="M524,431.4c0-10.7,9.2-14.7,18.5-14.7c9.4,0,18.9,3.5,18.9,14.7c0,9.8-6.7,11.8-11.1,13.5c-6,2.1-7.3,3.5-7.3,11.1h-4.8
		c0-9.5,2.8-12.8,10.4-15.2c4-1.4,7.8-3.1,7.8-9.5c0-8.3-7.7-10-13.9-10c-6,0-13.4,2.3-13.5,10.1H524z M544.4,463.8c0,4.7-7,4.7-7,0
		C537.4,459.2,544.4,459.2,544.4,463.8z"/>
	<path d="M604.4,453.8c0,4.7,1.3,9,5.9,9v4.4c-4,0.4-7.5-1.3-8.7-6.1c-2.6,4.3-10.1,6.7-14.3,6.7c-11.8,0-18.7-4.8-18.7-14.3
		c0-5.8,4.3-10,9.4-11.6c-5-1.6-8.6-6-8.6-11.1c0.1-8.4,7-13.6,17.8-13.6c8.1,0,16.8,2.1,16.8,12.5h-4.4c0-7-6.3-8.4-12.6-8.4
		c-8.9,0-12.9,4.5-12.8,9.5c0,7,7.9,9.2,13.2,9.2c7.5,0,14.1,0,21.6,0v3.9h-4.5V453.8z M573.3,453.5c0,6.1,4.9,9.9,13.7,9.9
		c5.1,0,13-3.1,13-9.7v-10.1c-4.3,0-8.7,0-13,0C576.9,443.7,573.3,448.9,573.3,453.5z"/>
	<path d="M620.1,417.3h5.3l-4.5,12.6h-4L620.1,417.3z M629.9,417.3h5.3l-4.5,12.6h-4L629.9,417.3z"/>
</g>
</svg>
