<svg xmlns="http://www.w3.org/2000/svg" viewBox="0 0 32 32"><path d="M21.442 16A5.44 5.44 0 0 1 16 21.44a5.44 5.44 0 0 1-5.34-6.486H7v7.233A2.812 2.812 0 0 0 9.813 25h12.374A2.814 2.814 0 0 0 25 22.187v-7.233h-3.66c.066.338.102.688.102 1.046zm.745-9H9.813A2.814 2.814 0 0 0 7 9.813v3.047h4.557a5.439 5.439 0 0 1 8.886 0H25V9.813A2.814 2.814 0 0 0 22.187 7zm1.376 3.475a.504.504 0 0 1-.502.503h-1.505a.504.504 0 0 1-.502-.503V8.968c0-.277.227-.503.502-.503h1.506c.278 0 .503.226.503.503v1.507zM19.35 16a3.35 3.35 0 1 0-6.7 0 3.35 3.35 0 0 0 6.7 0z"/></svg>