<svg width="32" height="32" viewBox="0 0 32 32" xmlns="http://www.w3.org/2000/svg"><title>Artboard</title><path d="M30 28.813h-6.212v-8.925c0-2.363-.963-3.938-3.063-3.938-1.663 0-2.538 1.05-2.975 2.1-.175.35-.175.875-.175 1.4v9.363H11.45s.088-15.838 0-17.325h6.125V14.2c.35-1.225 2.363-2.887 5.425-2.887 3.85 0 6.913 2.45 6.913 7.874v9.625H30zM5.325 9.387C3.312 9.387 2 8.074 2 6.411c0-1.75 1.313-2.975 3.325-2.975 2.013 0 3.237 1.313 3.325 2.975 0 1.663-1.313 2.975-3.325 2.975zM2.7 11.574h5.425V28.9H2.7V11.575z"/></svg>