<svg xmlns="http://www.w3.org/2000/svg" viewBox="8 8 32 32"><title>Pinterest-black</title><path d="M24 8C15.2 8 8 15.2 8 24c0 6.5 3.9 12.2 9.6 14.7 0-1.1 0-2.5.3-3.7.3-1.3 2.1-8.7 2.1-8.7s-.5-1-.5-2.5c0-2.4 1.4-4.1 3.1-4.1 1.5 0 2.2 1.1 2.2 2.4 0 1.5-.9 3.7-1.4 5.7-.4 1.7.9 3.1 2.5 3.1 3 0 5.1-3.9 5.1-8.5 0-3.5-2.4-6.1-6.7-6.1-4.9 0-7.9 3.6-7.9 7.7 0 1.4.4 2.4 1.1 3.1.3.4.3.5.2.9-.1.3-.3 1-.3 1.3-.1.4-.4.6-.8.4-2.2-.9-3.3-3.4-3.3-6.1 0-4.5 3.8-10 11.4-10 6.1 0 10.1 4.4 10.1 9.2 0 6.3-3.5 11-8.6 11-1.7 0-3.4-.9-3.9-2 0 0-.9 3.7-1.1 4.4-.3 1.2-1 2.5-1.6 3.4 1.4.4 3 .7 4.5.7 8.8 0 16-7.2 16-16C40 15.2 32.8 8 24 8"/></svg>