<svg xmlns="http://www.w3.org/2000/svg" viewBox="8 4 32 32"><title>Twitter-black</title><path d="M40 9.8c-1.2.5-2.4.9-3.8 1.1 1.4-.8 2.4-2.2 2.9-3.7-1.3.8-2.7 1.3-4.2 1.6-1.2-1.3-2.9-2.1-4.8-2.1-3.6 0-6.6 3-6.6 6.7 0 .5.1 1 .2 1.5-5.5-.3-10.3-3-13.5-7-.6 1-.9 2.2-.9 3.4 0 2.3 1.2 4.4 2.9 5.6-1.1 0-2.1-.3-3-.8v.1c0 3.3 2.3 6 5.3 6.6-.6.2-1.1.2-1.7.2-.4 0-.8 0-1.2-.1.8 2.7 3.3 4.6 6.1 4.7-2.2 1.8-5.1 2.9-8.2 2.9-.5 0-1.1 0-1.6-.1 2.9 1.9 6.4 3 10.1 3 12.1 0 18.7-10.3 18.7-19.2v-.9c1.3-.9 2.4-2.1 3.3-3.5"/></svg>