<svg width="32" height="32" viewBox="0 0 32 32" xmlns="http://www.w3.org/2000/svg"><title>Artboard</title><path d="M27.294 8.682c-.847.353-1.694.636-2.682.777.988-.565 1.694-1.553 2.047-2.612-.918.565-1.906.918-2.965 1.13a4.583 4.583 0 0 0-3.388-1.483c-2.541 0-4.659 2.118-4.659 4.73 0 .352.07.705.141 1.058-3.882-.211-7.27-2.117-9.53-4.94-.423.705-.634 1.552-.634 2.4 0 1.623.847 3.105 2.047 3.952a4.312 4.312 0 0 1-2.118-.565v.071c0 2.33 1.623 4.235 3.741 4.659-.423.141-.776.141-1.2.141-.282 0-.565 0-.847-.07.565 1.905 2.33 3.246 4.306 3.317a9.173 9.173 0 0 1-5.788 2.047c-.353 0-.777 0-1.13-.07a13.015 13.015 0 0 0 7.13 2.117c8.54 0 13.2-7.27 13.2-13.553v-.635c.917-.635 1.694-1.482 2.33-2.47"/></svg>