<svg xmlns="http://www.w3.org/2000/svg" xmlns:xlink="http://www.w3.org/1999/xlink"><symbol viewBox="0 0 32 32" id="facebook"><path fill-rule="evenodd" clip-rule="evenodd" d="M11.7 17.7V32h7V17.8h4.8l1.2-5.9h-5.9V7.5C18.7 6.9 19 6 20 6h3.4V0h-6.3c-2.2 0-5.4 2.7-5.4 5.5v6.1H8v6l3.7.1z"/></symbol><symbol viewBox="7.5 -5.5 32 32" id="flickr"><title>Flickr-black</title><path d="M39.4 10.2c0 3.8-3.2 7-7 7-3.9 0-7.1-3.1-7.1-7 0-3.8 3.2-6.9 7.1-6.9 3.9-.1 7 3 7 6.9m-17.9 0c0 3.8-3.2 7-7.1 7-3.9 0-7-3.1-7-7 0-3.8 3.2-6.9 7-6.9 4-.1 7.1 3 7.1 6.9"/></symbol><symbol viewBox="17 5 32 32" id="googleplus"><title>GooglePlus-black</title><path d="M45.5 19.2v-3.5H43v3.5h-3.6v2.5H43v3.6h2.5v-3.6H49v-2.5h-3.5zM27.2 19v4h5.5c-.9 2.6-2.2 4-5.5 4s-5.9-2.7-5.9-6 2.6-6 5.9-6c1.8 0 2.9.6 3.9 1.5.8-.8.8-1 2.9-3-1.8-1.6-4.2-2.7-6.8-2.7C21.6 10.8 17 15.4 17 21s4.6 10.2 10.2 10.2c8.4 0 10.4-7.3 9.8-12.2h-9.8z"/></symbol><symbol viewBox="0 0 48 48" id="instagram"><title>instagram</title><path d="M24 0c-6.518 0-7.335.028-9.895.144-2.555.117-4.3.523-5.826 1.116-1.578.613-2.917 1.434-4.25 2.768C2.693 5.362 1.872 6.701 1.26 8.28c-.593 1.526-1 3.27-1.116 5.825C.028 16.665 0 17.482 0 24s.028 7.335.144 9.895c.117 2.555.523 4.3 1.116 5.826.613 1.578 1.434 2.917 2.768 4.25 1.334 1.335 2.673 2.156 4.251 2.77 1.527.592 3.271.998 5.826 1.115 2.56.116 3.377.144 9.895.144s7.335-.028 9.895-.144c2.555-.117 4.3-.523 5.826-1.116 1.578-.613 2.917-1.434 4.25-2.768 1.335-1.334 2.156-2.673 2.77-4.251.592-1.527.998-3.271 1.115-5.826.116-2.56.144-3.377.144-9.895s-.028-7.335-.144-9.895c-.117-2.555-.523-4.3-1.116-5.826-.613-1.578-1.434-2.917-2.768-4.25-1.334-1.335-2.673-2.156-4.251-2.769-1.527-.593-3.271-1-5.826-1.116C31.335.028 30.518 0 24 0zm0 4.324c6.408 0 7.167.025 9.698.14 2.34.107 3.61.498 4.457.827 1.12.435 1.92.955 2.76 1.795.839.84 1.359 1.64 1.794 2.76.33.845.72 2.116.827 4.456.115 2.53.14 3.29.14 9.698s-.025 7.167-.14 9.698c-.107 2.34-.498 3.61-.827 4.457-.435 1.12-.955 1.92-1.795 2.76-.84.839-1.64 1.359-2.76 1.794-.845.33-2.116.72-4.456.827-2.53.115-3.29.14-9.698.14-6.409 0-7.168-.025-9.698-.14-2.34-.107-3.61-.498-4.457-.827-1.12-.435-1.92-.955-2.76-1.795-.839-.84-1.359-1.64-1.794-2.76-.33-.845-.72-2.116-.827-4.456-.115-2.53-.14-3.29-.14-9.698s.025-7.167.14-9.698c.107-2.34.498-3.61.827-4.457.435-1.12.955-1.92 1.795-2.76.84-.839 1.64-1.359 2.76-1.794.845-.33 2.116-.72 4.456-.827 2.53-.115 3.29-.14 9.698-.14zm0 7.352c-6.807 0-12.324 5.517-12.324 12.324 0 6.807 5.517 12.324 12.324 12.324 6.807 0 12.324-5.517 12.324-12.324 0-6.807-5.517-12.324-12.324-12.324zM24 32a8 8 0 1 1 0-16 8 8 0 0 1 0 16zm15.691-20.811a2.88 2.88 0 1 1-5.76 0 2.88 2.88 0 0 1 5.76 0z" fill-rule="evenodd"/></symbol><symbol viewBox="6 4 32 32" id="linkedIn"><title>LinkedIn-black</title><path d="M38 34.5h-7.1V24.3c0-2.7-1.1-4.5-3.5-4.5-1.9 0-2.9 1.2-3.4 2.4-.2.4-.2 1-.2 1.6v10.7h-7s.1-18.1 0-19.8h7v3.1c.4-1.4 2.7-3.3 6.2-3.3 4.4 0 7.9 2.8 7.9 9v11h.1zM9.8 12.3C7.5 12.3 6 10.8 6 8.9c0-2 1.5-3.4 3.8-3.4s3.7 1.5 3.8 3.4c0 1.9-1.5 3.4-3.8 3.4zm-3 2.5H13v19.8H6.8V14.8z"/></symbol><symbol viewBox="8 8 32 32" id="pinterest"><title>Pinterest-black</title><path d="M24 8C15.2 8 8 15.2 8 24c0 6.5 3.9 12.2 9.6 14.7 0-1.1 0-2.5.3-3.7.3-1.3 2.1-8.7 2.1-8.7s-.5-1-.5-2.5c0-2.4 1.4-4.1 3.1-4.1 1.5 0 2.2 1.1 2.2 2.4 0 1.5-.9 3.7-1.4 5.7-.4 1.7.9 3.1 2.5 3.1 3 0 5.1-3.9 5.1-8.5 0-3.5-2.4-6.1-6.7-6.1-4.9 0-7.9 3.6-7.9 7.7 0 1.4.4 2.4 1.1 3.1.3.4.3.5.2.9-.1.3-.3 1-.3 1.3-.1.4-.4.6-.8.4-2.2-.9-3.3-3.4-3.3-6.1 0-4.5 3.8-10 11.4-10 6.1 0 10.1 4.4 10.1 9.2 0 6.3-3.5 11-8.6 11-1.7 0-3.4-.9-3.9-2 0 0-.9 3.7-1.1 4.4-.3 1.2-1 2.5-1.6 3.4 1.4.4 3 .7 4.5.7 8.8 0 16-7.2 16-16C40 15.2 32.8 8 24 8"/></symbol><symbol viewBox="8 4 32 32" id="twitter"><title>Twitter-black</title><path d="M40 9.8c-1.2.5-2.4.9-3.8 1.1 1.4-.8 2.4-2.2 2.9-3.7-1.3.8-2.7 1.3-4.2 1.6-1.2-1.3-2.9-2.1-4.8-2.1-3.6 0-6.6 3-6.6 6.7 0 .5.1 1 .2 1.5-5.5-.3-10.3-3-13.5-7-.6 1-.9 2.2-.9 3.4 0 2.3 1.2 4.4 2.9 5.6-1.1 0-2.1-.3-3-.8v.1c0 3.3 2.3 6 5.3 6.6-.6.2-1.1.2-1.7.2-.4 0-.8 0-1.2-.1.8 2.7 3.3 4.6 6.1 4.7-2.2 1.8-5.1 2.9-8.2 2.9-.5 0-1.1 0-1.6-.1 2.9 1.9 6.4 3 10.1 3 12.1 0 18.7-10.3 18.7-19.2v-.9c1.3-.9 2.4-2.1 3.3-3.5"/></symbol><symbol viewBox="8 4.5 32 32" id="vimeo"><title>Vimeo-black</title><path d="M40 13.2c-.1 3.1-2.3 7.3-6.5 12.6-4.4 5.6-8 8.4-11 8.4-1.9 0-3.4-1.7-4.7-5.1-.9-3.1-1.7-6.3-2.6-9.4-1-3.4-2-5.1-3.1-5.1-.2 0-1.1.5-2.5 1.5l-1.5-1.9c1.6-1.4 3.1-2.7 4.7-4.1 2.1-1.8 3.7-2.7 4.7-2.8 2.5-.2 4 1.4 4.6 5 .6 3.9 1 6.3 1.3 7.2.7 3.2 1.5 4.8 2.4 4.8.7 0 1.7-1 3-3.1s2.1-3.7 2.2-4.8c.2-1.8-.5-2.7-2.2-2.7-.8 0-1.6.2-2.4.5 1.6-5.1 4.6-7.5 9-7.4 3.2.1 4.8 2.2 4.6 6.4"/></symbol><symbol viewBox="8 1 32 32" id="youtube"><title>Youtube-black</title><path d="M20.7 21.2v-9.1l8.6 4.5-8.6 4.6zm19-10.6s-.3-2.2-1.3-3.2c-1.2-1.3-2.6-1.3-3.2-1.4-4.5-.3-11.2-.3-11.2-.3s-6.7 0-11.2.3c-.6.1-2 .1-3.2 1.4-1 1-1.3 3.2-1.3 3.2S8 13.2 8 15.8v2.4c0 2.6.3 5.2.3 5.2s.3 2.2 1.3 3.2c1.2 1.3 2.8 1.2 3.5 1.4 2.6.2 10.9.3 10.9.3s6.7 0 11.2-.3c.6-.1 2-.1 3.2-1.4 1-1 1.3-3.2 1.3-3.2s.3-2.6.3-5.2v-2.4c0-2.6-.3-5.2-.3-5.2z"/></symbol></svg>