<svg xmlns="http://www.w3.org/2000/svg" xmlns:xlink="http://www.w3.org/1999/xlink"><symbol viewBox="0 0 96 96" id="arrow-down"><switch><g><path d="M44 12v62.344L22.828 53.172a4 4 0 1 0-5.656 5.657l28 28a4 4 0 0 0 5.656 0l28-28A3.989 3.989 0 0 0 80 56a4 4 0 0 0-6.828-2.828L52 74.344V12a4 4 0 0 0-8 0z"/></g></switch></symbol><symbol viewBox="0 0 96 96" id="arrow-left"><switch><g><path d="M83.999 43.999H21.656l21.172-21.172a4.001 4.001 0 0 0-5.657-5.657l-28 28a4 4 0 0 0-.001 5.656l28 28a3.989 3.989 0 0 0 2.829 1.172 3.999 3.999 0 0 0 2.829-6.828L21.655 51.999h62.344a4 4 0 0 0 0-8z"/></g></switch></symbol><symbol viewBox="0 0 96 96" id="arrow-right"><switch><g><path d="M12 52h62.344L53.172 73.172a4 4 0 1 0 5.657 5.656l28-28a4 4 0 0 0 0-5.656l-28-28A3.989 3.989 0 0 0 56 16a4 4 0 0 0-2.828 6.828L74.344 44H12a4 4 0 0 0 0 8z"/></g></switch></symbol><symbol viewBox="0 0 96 96" id="arrow-up"><switch><g><path d="M52 83.999V21.655l21.172 21.172a4 4 0 1 0 5.656-5.657l-28-28a4 4 0 0 0-5.656 0l-28 28A3.987 3.987 0 0 0 16 39.999a4 4 0 0 0 6.828 2.828L44 21.655v62.344a4 4 0 0 0 8 0z"/></g></switch></symbol><symbol viewBox="0 0 96 96" id="cross"><switch><g><path d="M53.657 48l25.171-25.172a4 4 0 1 0-5.656-5.656L48 42.343 22.829 17.172a4 4 0 0 0-5.657 5.656L42.344 48 17.172 73.172a4 4 0 1 0 5.657 5.656L48 53.657l25.172 25.171C73.953 79.609 74.977 80 76 80s2.048-.391 2.828-1.172a4 4 0 0 0 0-5.656L53.657 48z"/></g></switch></symbol><symbol viewBox="0 0 32 32" id="facebook"><title>Artboard</title><path d="M12.775 17.275V28h5.25V17.35h3.6l.9-4.425H18.1v-3.3c-.075-.45.15-1.125.9-1.125h2.55V4h-4.725c-1.65 0-4.05 2.025-4.05 4.125V12.7H10v4.5l2.775.075z"/></symbol><symbol viewBox="7.5 -5.5 32 32" id="flickr"><title>Flickr-black</title><path d="M39.4 10.2c0 3.8-3.2 7-7 7-3.9 0-7.1-3.1-7.1-7 0-3.8 3.2-6.9 7.1-6.9 3.9-.1 7 3 7 6.9m-17.9 0c0 3.8-3.2 7-7.1 7-3.9 0-7-3.1-7-7 0-3.8 3.2-6.9 7-6.9 4-.1 7.1 3 7.1 6.9"/></symbol><symbol viewBox="17 5 32 32" id="googleplus"><title>GooglePlus-black</title><path d="M45.5 19.2v-3.5H43v3.5h-3.6v2.5H43v3.6h2.5v-3.6H49v-2.5h-3.5zM27.2 19v4h5.5c-.9 2.6-2.2 4-5.5 4s-5.9-2.7-5.9-6 2.6-6 5.9-6c1.8 0 2.9.6 3.9 1.5.8-.8.8-1 2.9-3-1.8-1.6-4.2-2.7-6.8-2.7C21.6 10.8 17 15.4 17 21s4.6 10.2 10.2 10.2c8.4 0 10.4-7.3 9.8-12.2h-9.8z"/></symbol><symbol viewBox="0 0 44 44" id="grid"><title>Group</title><path d="M1 9h8V1H1v8zM0 0h10v10H0V0zm18 9h8V1h-8v8zm-1-9h10v10H17V0zm18 1v8h8V1h-8zm-1-1h10v10H34V0zM1 26h8v-8H1v8zm-1-9h10v10H0V17zm18 9h8v-8h-8v8zm-1-9h10v10H17V17zm18 9h8v-8h-8v8zm-1-9h10v10H34V17zM1 43h8v-8H1v8zm-1-9h10v10H0V34zm18 9h8v-8h-8v8zm-1-9h10v10H17V34zm18 9h8v-8h-8v8zm-1-9h10v10H34V34z"/></symbol><symbol viewBox="0 0 48 48" id="instagram"><title>instagram</title><path d="M24 0c-6.518 0-7.335.028-9.895.144-2.555.117-4.3.523-5.826 1.116-1.578.613-2.917 1.434-4.25 2.768C2.693 5.362 1.872 6.701 1.26 8.28c-.593 1.526-1 3.27-1.116 5.825C.028 16.665 0 17.482 0 24s.028 7.335.144 9.895c.117 2.555.523 4.3 1.116 5.826.613 1.578 1.434 2.917 2.768 4.25 1.334 1.335 2.673 2.156 4.251 2.77 1.527.592 3.271.998 5.826 1.115 2.56.116 3.377.144 9.895.144s7.335-.028 9.895-.144c2.555-.117 4.3-.523 5.826-1.116 1.578-.613 2.917-1.434 4.25-2.768 1.335-1.334 2.156-2.673 2.77-4.251.592-1.527.998-3.271 1.115-5.826.116-2.56.144-3.377.144-9.895s-.028-7.335-.144-9.895c-.117-2.555-.523-4.3-1.116-5.826-.613-1.578-1.434-2.917-2.768-4.25-1.334-1.335-2.673-2.156-4.251-2.769-1.527-.593-3.271-1-5.826-1.116C31.335.028 30.518 0 24 0zm0 4.324c6.408 0 7.167.025 9.698.14 2.34.107 3.61.498 4.457.827 1.12.435 1.92.955 2.76 1.795.839.84 1.359 1.64 1.794 2.76.33.845.72 2.116.827 4.456.115 2.53.14 3.29.14 9.698s-.025 7.167-.14 9.698c-.107 2.34-.498 3.61-.827 4.457-.435 1.12-.955 1.92-1.795 2.76-.84.839-1.64 1.359-2.76 1.794-.845.33-2.116.72-4.456.827-2.53.115-3.29.14-9.698.14-6.409 0-7.168-.025-9.698-.14-2.34-.107-3.61-.498-4.457-.827-1.12-.435-1.92-.955-2.76-1.795-.839-.84-1.359-1.64-1.794-2.76-.33-.845-.72-2.116-.827-4.456-.115-2.53-.14-3.29-.14-9.698s.025-7.167.14-9.698c.107-2.34.498-3.61.827-4.457.435-1.12.955-1.92 1.795-2.76.84-.839 1.64-1.359 2.76-1.794.845-.33 2.116-.72 4.456-.827 2.53-.115 3.29-.14 9.698-.14zm0 7.352c-6.807 0-12.324 5.517-12.324 12.324 0 6.807 5.517 12.324 12.324 12.324 6.807 0 12.324-5.517 12.324-12.324 0-6.807-5.517-12.324-12.324-12.324zM24 32a8 8 0 1 1 0-16 8 8 0 0 1 0 16zm15.691-20.811a2.88 2.88 0 1 1-5.76 0 2.88 2.88 0 0 1 5.76 0z" fill-rule="evenodd"/></symbol><symbol viewBox="0 0 32 32" id="linkedIn"><title>Artboard</title><path d="M30 28.813h-6.212v-8.925c0-2.363-.963-3.938-3.063-3.938-1.663 0-2.538 1.05-2.975 2.1-.175.35-.175.875-.175 1.4v9.363H11.45s.088-15.838 0-17.325h6.125V14.2c.35-1.225 2.363-2.887 5.425-2.887 3.85 0 6.913 2.45 6.913 7.874v9.625H30zM5.325 9.387C3.312 9.387 2 8.074 2 6.411c0-1.75 1.313-2.975 3.325-2.975 2.013 0 3.237 1.313 3.325 2.975 0 1.663-1.313 2.975-3.325 2.975zM2.7 11.574h5.425V28.9H2.7V11.575z"/></symbol><symbol viewBox="8 8 32 32" id="pinterest"><title>Pinterest-black</title><path d="M24 8C15.2 8 8 15.2 8 24c0 6.5 3.9 12.2 9.6 14.7 0-1.1 0-2.5.3-3.7.3-1.3 2.1-8.7 2.1-8.7s-.5-1-.5-2.5c0-2.4 1.4-4.1 3.1-4.1 1.5 0 2.2 1.1 2.2 2.4 0 1.5-.9 3.7-1.4 5.7-.4 1.7.9 3.1 2.5 3.1 3 0 5.1-3.9 5.1-8.5 0-3.5-2.4-6.1-6.7-6.1-4.9 0-7.9 3.6-7.9 7.7 0 1.4.4 2.4 1.1 3.1.3.4.3.5.2.9-.1.3-.3 1-.3 1.3-.1.4-.4.6-.8.4-2.2-.9-3.3-3.4-3.3-6.1 0-4.5 3.8-10 11.4-10 6.1 0 10.1 4.4 10.1 9.2 0 6.3-3.5 11-8.6 11-1.7 0-3.4-.9-3.9-2 0 0-.9 3.7-1.1 4.4-.3 1.2-1 2.5-1.6 3.4 1.4.4 3 .7 4.5.7 8.8 0 16-7.2 16-16C40 15.2 32.8 8 24 8"/></symbol><symbol viewBox="0 0 32 32" id="twitter"><title>Artboard</title><path d="M27.294 8.682c-.847.353-1.694.636-2.682.777.988-.565 1.694-1.553 2.047-2.612-.918.565-1.906.918-2.965 1.13a4.583 4.583 0 0 0-3.388-1.483c-2.541 0-4.659 2.118-4.659 4.73 0 .352.07.705.141 1.058-3.882-.211-7.27-2.117-9.53-4.94-.423.705-.634 1.552-.634 2.4 0 1.623.847 3.105 2.047 3.952a4.312 4.312 0 0 1-2.118-.565v.071c0 2.33 1.623 4.235 3.741 4.659-.423.141-.776.141-1.2.141-.282 0-.565 0-.847-.07.565 1.905 2.33 3.246 4.306 3.317a9.173 9.173 0 0 1-5.788 2.047c-.353 0-.777 0-1.13-.07a13.015 13.015 0 0 0 7.13 2.117c8.54 0 13.2-7.27 13.2-13.553v-.635c.917-.635 1.694-1.482 2.33-2.47"/></symbol><symbol viewBox="8 4.5 32 32" id="vimeo"><title>Vimeo-black</title><path d="M40 13.2c-.1 3.1-2.3 7.3-6.5 12.6-4.4 5.6-8 8.4-11 8.4-1.9 0-3.4-1.7-4.7-5.1-.9-3.1-1.7-6.3-2.6-9.4-1-3.4-2-5.1-3.1-5.1-.2 0-1.1.5-2.5 1.5l-1.5-1.9c1.6-1.4 3.1-2.7 4.7-4.1 2.1-1.8 3.7-2.7 4.7-2.8 2.5-.2 4 1.4 4.6 5 .6 3.9 1 6.3 1.3 7.2.7 3.2 1.5 4.8 2.4 4.8.7 0 1.7-1 3-3.1s2.1-3.7 2.2-4.8c.2-1.8-.5-2.7-2.2-2.7-.8 0-1.6.2-2.4.5 1.6-5.1 4.6-7.5 9-7.4 3.2.1 4.8 2.2 4.6 6.4"/></symbol><symbol viewBox="8 1 32 32" id="youtube"><title>Youtube-black</title><path d="M20.7 21.2v-9.1l8.6 4.5-8.6 4.6zm19-10.6s-.3-2.2-1.3-3.2c-1.2-1.3-2.6-1.3-3.2-1.4-4.5-.3-11.2-.3-11.2-.3s-6.7 0-11.2.3c-.6.1-2 .1-3.2 1.4-1 1-1.3 3.2-1.3 3.2S8 13.2 8 15.8v2.4c0 2.6.3 5.2.3 5.2s.3 2.2 1.3 3.2c1.2 1.3 2.8 1.2 3.5 1.4 2.6.2 10.9.3 10.9.3s6.7 0 11.2-.3c.6-.1 2-.1 3.2-1.4 1-1 1.3-3.2 1.3-3.2s.3-2.6.3-5.2v-2.4c0-2.6-.3-5.2-.3-5.2z"/></symbol></svg>