<svg xmlns="http://www.w3.org/2000/svg" xmlns:xlink="http://www.w3.org/1999/xlink"><symbol viewBox="0 0 32 32" id="arrow-down"><title>Artboard</title><path d="M16 29.5l8.5-8.5-.7-.7-7.3 7.3V3.5h-1v24.1l-7.3-7.3-.7.7 8.5 8.5z"/></symbol><symbol viewBox="0 0 32 32" id="arrow-left"><title>Artboard</title><path d="M3 16.5L11.5 8l.7.7L4.9 16H29v1H4.9l7.3 7.3-.7.7L3 16.5z"/></symbol><symbol viewBox="0 0 32 32" id="arrow-right"><title>Artboard</title><path d="M29 16.5L20.5 8l-.7.7 7.3 7.3H3v1h24.1l-7.3 7.3.7.7 8.5-8.5z"/></symbol><symbol viewBox="0 0 32 32" id="arrow-up"><title>Artboard</title><path d="M16 3.5l8.5 8.5-.7.7-7.3-7.3v24.1h-1V5.4l-7.3 7.3-.7-.7L16 3.5z"/></symbol><symbol viewBox="0 0 32 32" id="behance"><path d="M14.264 15.366s1.704-.134 1.704-2.237c0-2.104-1.394-3.13-3.16-3.13H7v11.753h5.81s3.544.117 3.544-3.468c0 0 .155-2.92-2.09-2.92zM9.56 12.088h3.25s.788 0 .788 1.223c0 1.224-.464 1.4-.992 1.4H9.56V12.09zm3.084 7.576H9.56v-3.14h3.25s1.176-.017 1.176 1.613c0 1.374-.88 1.517-1.342 1.527zm8.44-6.674c-4.293 0-4.29 4.514-4.29 4.514s-.294 4.492 4.29 4.492c0 0 3.82.23 3.82-3.126H22.94s.065 1.265-1.79 1.265c0 0-1.965.138-1.965-2.044h5.785c0 .003.633-5.1-3.886-5.1zm1.747 3.534h-3.666s.24-1.812 1.965-1.812c1.72 0 1.7 1.812 1.7 1.812zm.46-5.832h-4.607v1.447h4.605V10.69z"/></symbol><symbol viewBox="0 0 96 96" id="cross"><switch><g><path d="M53.657 48l25.171-25.172a4 4 0 1 0-5.656-5.656L48 42.343 22.829 17.172a4 4 0 0 0-5.657 5.656L42.344 48 17.172 73.172a4 4 0 1 0 5.657 5.656L48 53.657l25.172 25.171C73.953 79.609 74.977 80 76 80s2.048-.391 2.828-1.172a4 4 0 0 0 0-5.656L53.657 48z"/></g></switch></symbol><symbol viewBox="0 0 32 32" id="dribbble"><path d="M16 25c-4.963 0-9-4.037-9-9s4.037-9 9-9 9 4.037 9 9-4.037 9-9 9zm7.59-7.768c-.263-.083-2.38-.714-4.788-.33 1.006 2.764 1.414 5.014 1.493 5.482a7.696 7.696 0 0 0 3.295-5.152zm-4.587 5.856c-.114-.674-.56-3.025-1.64-5.83-.017.006-.034.01-.05.017-4.337 1.51-5.894 4.518-6.032 4.8a7.666 7.666 0 0 0 7.722 1.013zm-8.714-1.936c.173-.298 2.283-3.79 6.248-5.073.1-.033.2-.064.303-.092a25.012 25.012 0 0 0-.622-1.305c-3.84 1.15-7.564 1.1-7.9 1.094a7.657 7.657 0 0 0 1.971 5.375zm-1.815-6.715c.344.005 3.51.018 7.107-.937a49.346 49.346 0 0 0-2.85-4.446 7.717 7.717 0 0 0-4.257 5.383zm5.724-5.9a41.492 41.492 0 0 1 2.868 4.5c2.733-1.023 3.89-2.58 4.03-2.776a7.672 7.672 0 0 0-6.898-1.722zm7.75 2.613c-.162.22-1.45 1.87-4.293 3.03.18.367.35.74.51 1.114l.165.397c2.558-.32 5.1.195 5.353.248a7.638 7.638 0 0 0-1.735-4.788z"/></symbol><symbol viewBox="0 0 32 32" id="facebook"><path d="M13.1 17.1V26h4.4v-8.9h3l.7-3.7h-3.7v-2.7c0-.4.2-.9.8-.9h2.1V6h-3.9c-1.4 0-3.4 1.7-3.4 3.5v3.8h-2.3v3.8h2.3z"/></symbol><symbol viewBox="0 0 32 32" id="flickr"><path d="M7 16a3.937 3.937 0 1 0 7.874 0A3.937 3.937 0 0 0 7 16zm10.125 0a3.937 3.937 0 1 0 7.874 0 3.937 3.937 0 0 0-7.874 0z"/></symbol><symbol viewBox="0 0 32 32" id="google"><path d="M16.476 21.463c0-.15-.016-.297-.05-.438-.03-.14-.066-.27-.102-.39a1.367 1.367 0 0 0-.19-.372l-.227-.33a2.105 2.105 0 0 0-.286-.32c-.13-.122-.228-.214-.297-.275a6.718 6.718 0 0 0-.346-.276c-.162-.123-.274-.205-.335-.25l-.357-.248a32.238 32.238 0 0 0-.33-.227 4.83 4.83 0 0 0-.54-.022c-.39 0-.773.025-1.148.076a6.916 6.916 0 0 0-1.168.272c-.405.13-.758.295-1.06.497a2.335 2.335 0 0 0-1.039 1.967c0 .49.13.93.385 1.314.256.387.59.69 1.006.91.416.22.85.384 1.305.492.454.108.912.162 1.374.162.424 0 .83-.045 1.216-.135a4.1 4.1 0 0 0 1.087-.423c.34-.19.607-.456.806-.795.197-.34.296-.735.296-1.19zm-1.298-9.325c0-.433-.06-.893-.18-1.38a7.027 7.027 0 0 0-.507-1.41 3.088 3.088 0 0 0-.908-1.126 2.072 2.072 0 0 0-1.293-.443c-.672 0-1.19.248-1.56.745-.367.498-.55 1.093-.55 1.785 0 .34.04.696.123 1.07.083.376.21.75.384 1.126.173.375.375.712.606 1.01.23.3.512.544.844.73.33.188.68.282 1.05.282.7 0 1.205-.218 1.52-.655.314-.435.47-1.014.47-1.735zM13.76 7h4.728l-1.46.854h-1.46c.512.325.91.78 1.19 1.363a4.18 4.18 0 0 1 .422 1.828c0 .534-.083 1.008-.25 1.422-.165.415-.367.748-.605 1-.238.253-.476.486-.714.7a4.19 4.19 0 0 0-.605.66c-.166.226-.25.47-.25.73 0 .187.06.37.18.55.12.18.274.354.465.52.19.166.402.34.633.52.23.18.46.38.692.6.23.22.442.457.633.713.19.256.346.562.465.92.12.357.18.74.18 1.152 0 1.154-.506 2.17-1.515 3.05C15.39 24.53 13.876 25 11.944 25c-.425 0-.856-.036-1.293-.108a6.884 6.884 0 0 1-1.32-.362 5.045 5.045 0 0 1-1.173-.628 2.92 2.92 0 0 1-.833-.963 2.689 2.689 0 0 1-.324-1.315c0-.44.133-.927.4-1.46.23-.46.577-.86 1.038-1.195a5.22 5.22 0 0 1 1.57-.768 12.273 12.273 0 0 1 1.676-.39c.534-.082 1.074-.13 1.622-.145-.46-.598-.692-1.136-.692-1.612 0-.087.007-.17.02-.254.016-.082.034-.152.055-.21.02-.058.05-.135.086-.232a2.31 2.31 0 0 0 .076-.233c-.288.036-.54.054-.757.054-1.074 0-1.996-.354-2.764-1.06-.767-.708-1.15-1.595-1.15-2.662 0-1.01.342-1.913 1.027-2.71a4.588 4.588 0 0 1 2.53-1.53 9.606 9.606 0 0 1 2.024-.218zM25 9.77v1.384h-2.77v2.77h-1.384v-2.77h-2.77V9.77h2.77V7h1.385v2.77H25z"/></symbol><symbol viewBox="17 5 32 32" id="googleplus"><title>GooglePlus-black</title><path d="M45.5 19.2v-3.5H43v3.5h-3.6v2.5H43v3.6h2.5v-3.6H49v-2.5h-3.5zM27.2 19v4h5.5c-.9 2.6-2.2 4-5.5 4s-5.9-2.7-5.9-6 2.6-6 5.9-6c1.8 0 2.9.6 3.9 1.5.8-.8.8-1 2.9-3-1.8-1.6-4.2-2.7-6.8-2.7C21.6 10.8 17 15.4 17 21s4.6 10.2 10.2 10.2c8.4 0 10.4-7.3 9.8-12.2h-9.8z"/></symbol><symbol viewBox="0 0 44 44" id="grid"><title>Group</title><path d="M1 9h8V1H1v8zM0 0h10v10H0V0zm18 9h8V1h-8v8zm-1-9h10v10H17V0zm18 1v8h8V1h-8zm-1-1h10v10H34V0zM1 26h8v-8H1v8zm-1-9h10v10H0V17zm18 9h8v-8h-8v8zm-1-9h10v10H17V17zm18 9h8v-8h-8v8zm-1-9h10v10H34V17zM1 43h8v-8H1v8zm-1-9h10v10H0V34zm18 9h8v-8h-8v8zm-1-9h10v10H17V34zm18 9h8v-8h-8v8zm-1-9h10v10H34V34z"/></symbol><symbol viewBox="0 0 32 32" id="instagram"><path d="M21.442 16A5.44 5.44 0 0 1 16 21.44a5.44 5.44 0 0 1-5.34-6.486H7v7.233A2.812 2.812 0 0 0 9.813 25h12.374A2.814 2.814 0 0 0 25 22.187v-7.233h-3.66c.066.338.102.688.102 1.046zm.745-9H9.813A2.814 2.814 0 0 0 7 9.813v3.047h4.557a5.439 5.439 0 0 1 8.886 0H25V9.813A2.814 2.814 0 0 0 22.187 7zm1.376 3.475a.504.504 0 0 1-.502.503h-1.505a.504.504 0 0 1-.502-.503V8.968c0-.277.227-.503.502-.503h1.506c.278 0 .503.226.503.503v1.507zM19.35 16a3.35 3.35 0 1 0-6.7 0 3.35 3.35 0 0 0 6.7 0z"/></symbol><symbol viewBox="0 0 32 32" id="linkedIn"><path d="M10.529 8.278c0 1.181-.872 2.138-2.307 2.138C6.872 10.415 6 9.459 6 8.278c0-1.209.901-2.138 2.279-2.138 1.378-.001 2.222.928 2.25 2.138zM6.113 25.86V12.104h4.276V25.86H6.113zm6.835-9.368c0-1.716-.056-3.15-.113-4.388h3.713l.198 1.913h.084c.562-.901 1.941-2.222 4.248-2.222 2.812 0 4.922 1.885 4.922 5.936v8.13h-4.276v-7.623c0-1.772-.62-2.982-2.167-2.982-1.181 0-1.883.816-2.193 1.603-.113.281-.141.674-.141 1.069v7.933h-4.276v-9.369z"/></symbol><symbol viewBox="0 0 32 32" id="pinterest"><path d="M14.754 18.905c-.472 2.478-1.05 4.854-2.76 6.095-.526-3.745.776-6.558 1.38-9.544-1.03-1.737.124-5.23 2.3-4.37 2.677 1.06-2.318 6.456 1.035 7.13 3.5.704 4.93-6.075 2.76-8.28-3.138-3.183-9.134-.073-8.396 4.484.18 1.114 1.33 1.452.46 2.99-2.008-.445-2.607-2.03-2.53-4.14.125-3.455 3.106-5.874 6.096-6.21 3.782-.423 7.33 1.39 7.82 4.946.55 4.014-1.707 8.362-5.75 8.05-1.096-.085-1.556-.628-2.416-1.15z"/></symbol><symbol viewBox="0 0 32 32" id="twitter"><path d="M26 9.8c-.7.3-1.5.5-2.4.6.8-.5 1.5-1.3 1.8-2.3-.8.5-1.7.8-2.6 1-.7-.8-1.8-1.3-3-1.3-2.3 0-4.1 1.8-4.1 4.1 0 .3 0 .6.1.9-3.4-.2-6.4-1.8-8.5-4.3-.3.7-.5 1.4-.5 2.2 0 1.4.7 2.7 1.8 3.4-.7 0-1.3-.2-1.9-.5v.1c0 2 1.4 3.6 3.3 4-.3.1-.7.1-1.1.1-.3 0-.5 0-.8-.1.5 1.6 2 2.8 3.8 2.8-1.4 1.1-3.2 1.8-5.1 1.8-.3 0-.7 0-1-.1 1.8 1.2 4 1.8 6.3 1.8 7.5 0 11.7-6.3 11.7-11.7v-.5c1-.5 1.7-1.2 2.2-2z"/></symbol><symbol viewBox="0 0 32 32" id="vimeo"><path d="M7 12.354l.73.977s1.51-1.21 2.01-.605c.504.606 2.422 7.915 3.063 9.263.56 1.182 2.1 2.746 3.792 1.63 1.69-1.116 7.31-6.004 8.316-11.777 1.006-5.77-6.762-4.56-7.584.467 2.056-1.257 3.154.51 2.102 2.514-1.05 2.002-2.01 3.307-2.513 3.307-.502 0-.888-1.34-1.463-3.68-.594-2.42-.59-6.777-3.06-6.282C10.062 8.63 7 12.355 7 12.355z"/></symbol><symbol viewBox="0 0 32 32" id="youtube"><path d="M24.237 10.932c-.497-.878-1.027-1.044-2.104-1.11-1.077-.067-3.782-.1-6.133-.1-2.35 0-5.056.033-6.134.1-1.077.065-1.607.23-2.104 1.11-.496.878-.762 2.4-.762 5.065v.006c0 2.664.266 4.187.762 5.065.497.878 1.027 1.044 2.104 1.11 1.078.066 3.783.1 6.134.1 2.35 0 5.056-.035 6.134-.1 1.077-.066 1.607-.232 2.104-1.11.496-.878.762-2.4.762-5.065v-.006c0-2.664-.266-4.187-.763-5.065zM14.207 19.3v-6.6L19.32 16l-5.112 3.3z" fill-rule="evenodd" clip-rule="evenodd"/></symbol></svg>