<svg xmlns="http://www.w3.org/2000/svg" xmlns:xlink="http://www.w3.org/1999/xlink"><symbol viewBox="0 0 32 32" id="arrow-down"><title>Artboard</title><path d="M16 29.5l8.5-8.5-.7-.7-7.3 7.3V3.5h-1v24.1l-7.3-7.3-.7.7 8.5 8.5z"/></symbol><symbol viewBox="0 0 32 32" id="arrow-left"><title>Artboard</title><path d="M3 16.5L11.5 8l.7.7L4.9 16H29v1H4.9l7.3 7.3-.7.7L3 16.5z"/></symbol><symbol viewBox="0 0 32 32" id="arrow-right"><title>Artboard</title><path d="M29 16.5L20.5 8l-.7.7 7.3 7.3H3v1h24.1l-7.3 7.3.7.7 8.5-8.5z"/></symbol><symbol viewBox="0 0 32 32" id="arrow-up"><title>Artboard</title><path d="M16 3.5l8.5 8.5-.7.7-7.3-7.3v24.1h-1V5.4l-7.3 7.3-.7-.7L16 3.5z"/></symbol><symbol viewBox="0 0 96 96" id="cross"><switch><g><path d="M53.657 48l25.171-25.172a4 4 0 1 0-5.656-5.656L48 42.343 22.829 17.172a4 4 0 0 0-5.657 5.656L42.344 48 17.172 73.172a4 4 0 1 0 5.657 5.656L48 53.657l25.172 25.171C73.953 79.609 74.977 80 76 80s2.048-.391 2.828-1.172a4 4 0 0 0 0-5.656L53.657 48z"/></g></switch></symbol><symbol viewBox="0 0 32 32" id="facebook"><path d="M13.1 17.1V26h4.4v-8.9h3l.7-3.7h-3.7v-2.7c0-.4.2-.9.8-.9h2.1V6h-3.9c-1.4 0-3.4 1.7-3.4 3.5v3.8h-2.3v3.8h2.3z"/></symbol><symbol viewBox="7.5 -5.5 32 32" id="flickr"><title>Flickr-black</title><path d="M39.4 10.2c0 3.8-3.2 7-7 7-3.9 0-7.1-3.1-7.1-7 0-3.8 3.2-6.9 7.1-6.9 3.9-.1 7 3 7 6.9m-17.9 0c0 3.8-3.2 7-7.1 7-3.9 0-7-3.1-7-7 0-3.8 3.2-6.9 7-6.9 4-.1 7.1 3 7.1 6.9"/></symbol><symbol viewBox="17 5 32 32" id="googleplus"><title>GooglePlus-black</title><path d="M45.5 19.2v-3.5H43v3.5h-3.6v2.5H43v3.6h2.5v-3.6H49v-2.5h-3.5zM27.2 19v4h5.5c-.9 2.6-2.2 4-5.5 4s-5.9-2.7-5.9-6 2.6-6 5.9-6c1.8 0 2.9.6 3.9 1.5.8-.8.8-1 2.9-3-1.8-1.6-4.2-2.7-6.8-2.7C21.6 10.8 17 15.4 17 21s4.6 10.2 10.2 10.2c8.4 0 10.4-7.3 9.8-12.2h-9.8z"/></symbol><symbol viewBox="0 0 44 44" id="grid"><title>Group</title><path d="M1 9h8V1H1v8zM0 0h10v10H0V0zm18 9h8V1h-8v8zm-1-9h10v10H17V0zm18 1v8h8V1h-8zm-1-1h10v10H34V0zM1 26h8v-8H1v8zm-1-9h10v10H0V17zm18 9h8v-8h-8v8zm-1-9h10v10H17V17zm18 9h8v-8h-8v8zm-1-9h10v10H34V17zM1 43h8v-8H1v8zm-1-9h10v10H0V34zm18 9h8v-8h-8v8zm-1-9h10v10H17V34zm18 9h8v-8h-8v8zm-1-9h10v10H34V34z"/></symbol><symbol viewBox="0 0 48 48" id="instagram"><title>instagram</title><path d="M24 0c-6.518 0-7.335.028-9.895.144-2.555.117-4.3.523-5.826 1.116-1.578.613-2.917 1.434-4.25 2.768C2.693 5.362 1.872 6.701 1.26 8.28c-.593 1.526-1 3.27-1.116 5.825C.028 16.665 0 17.482 0 24s.028 7.335.144 9.895c.117 2.555.523 4.3 1.116 5.826.613 1.578 1.434 2.917 2.768 4.25 1.334 1.335 2.673 2.156 4.251 2.77 1.527.592 3.271.998 5.826 1.115 2.56.116 3.377.144 9.895.144s7.335-.028 9.895-.144c2.555-.117 4.3-.523 5.826-1.116 1.578-.613 2.917-1.434 4.25-2.768 1.335-1.334 2.156-2.673 2.77-4.251.592-1.527.998-3.271 1.115-5.826.116-2.56.144-3.377.144-9.895s-.028-7.335-.144-9.895c-.117-2.555-.523-4.3-1.116-5.826-.613-1.578-1.434-2.917-2.768-4.25-1.334-1.335-2.673-2.156-4.251-2.769-1.527-.593-3.271-1-5.826-1.116C31.335.028 30.518 0 24 0zm0 4.324c6.408 0 7.167.025 9.698.14 2.34.107 3.61.498 4.457.827 1.12.435 1.92.955 2.76 1.795.839.84 1.359 1.64 1.794 2.76.33.845.72 2.116.827 4.456.115 2.53.14 3.29.14 9.698s-.025 7.167-.14 9.698c-.107 2.34-.498 3.61-.827 4.457-.435 1.12-.955 1.92-1.795 2.76-.84.839-1.64 1.359-2.76 1.794-.845.33-2.116.72-4.456.827-2.53.115-3.29.14-9.698.14-6.409 0-7.168-.025-9.698-.14-2.34-.107-3.61-.498-4.457-.827-1.12-.435-1.92-.955-2.76-1.795-.839-.84-1.359-1.64-1.794-2.76-.33-.845-.72-2.116-.827-4.456-.115-2.53-.14-3.29-.14-9.698s.025-7.167.14-9.698c.107-2.34.498-3.61.827-4.457.435-1.12.955-1.92 1.795-2.76.84-.839 1.64-1.359 2.76-1.794.845-.33 2.116-.72 4.456-.827 2.53-.115 3.29-.14 9.698-.14zm0 7.352c-6.807 0-12.324 5.517-12.324 12.324 0 6.807 5.517 12.324 12.324 12.324 6.807 0 12.324-5.517 12.324-12.324 0-6.807-5.517-12.324-12.324-12.324zM24 32a8 8 0 1 1 0-16 8 8 0 0 1 0 16zm15.691-20.811a2.88 2.88 0 1 1-5.76 0 2.88 2.88 0 0 1 5.76 0z" fill-rule="evenodd"/></symbol><symbol viewBox="0 0 32 32" id="linkedIn"><path d="M10.529 8.278c0 1.181-.872 2.138-2.307 2.138C6.872 10.415 6 9.459 6 8.278c0-1.209.901-2.138 2.279-2.138 1.378-.001 2.222.928 2.25 2.138zM6.113 25.86V12.104h4.276V25.86H6.113zm6.835-9.368c0-1.716-.056-3.15-.113-4.388h3.713l.198 1.913h.084c.562-.901 1.941-2.222 4.248-2.222 2.812 0 4.922 1.885 4.922 5.936v8.13h-4.276v-7.623c0-1.772-.62-2.982-2.167-2.982-1.181 0-1.883.816-2.193 1.603-.113.281-.141.674-.141 1.069v7.933h-4.276v-9.369z"/></symbol><symbol viewBox="8 8 32 32" id="pinterest"><title>Pinterest-black</title><path d="M24 8C15.2 8 8 15.2 8 24c0 6.5 3.9 12.2 9.6 14.7 0-1.1 0-2.5.3-3.7.3-1.3 2.1-8.7 2.1-8.7s-.5-1-.5-2.5c0-2.4 1.4-4.1 3.1-4.1 1.5 0 2.2 1.1 2.2 2.4 0 1.5-.9 3.7-1.4 5.7-.4 1.7.9 3.1 2.5 3.1 3 0 5.1-3.9 5.1-8.5 0-3.5-2.4-6.1-6.7-6.1-4.9 0-7.9 3.6-7.9 7.7 0 1.4.4 2.4 1.1 3.1.3.4.3.5.2.9-.1.3-.3 1-.3 1.3-.1.4-.4.6-.8.4-2.2-.9-3.3-3.4-3.3-6.1 0-4.5 3.8-10 11.4-10 6.1 0 10.1 4.4 10.1 9.2 0 6.3-3.5 11-8.6 11-1.7 0-3.4-.9-3.9-2 0 0-.9 3.7-1.1 4.4-.3 1.2-1 2.5-1.6 3.4 1.4.4 3 .7 4.5.7 8.8 0 16-7.2 16-16C40 15.2 32.8 8 24 8"/></symbol><symbol viewBox="0 0 32 32" id="twitter"><path d="M26 9.8c-.7.3-1.5.5-2.4.6.8-.5 1.5-1.3 1.8-2.3-.8.5-1.7.8-2.6 1-.7-.8-1.8-1.3-3-1.3-2.3 0-4.1 1.8-4.1 4.1 0 .3 0 .6.1.9-3.4-.2-6.4-1.8-8.5-4.3-.3.7-.5 1.4-.5 2.2 0 1.4.7 2.7 1.8 3.4-.7 0-1.3-.2-1.9-.5v.1c0 2 1.4 3.6 3.3 4-.3.1-.7.1-1.1.1-.3 0-.5 0-.8-.1.5 1.6 2 2.8 3.8 2.8-1.4 1.1-3.2 1.8-5.1 1.8-.3 0-.7 0-1-.1 1.8 1.2 4 1.8 6.3 1.8 7.5 0 11.7-6.3 11.7-11.7v-.5c1-.5 1.7-1.2 2.2-2z"/></symbol><symbol viewBox="8 4.5 32 32" id="vimeo"><title>Vimeo-black</title><path d="M40 13.2c-.1 3.1-2.3 7.3-6.5 12.6-4.4 5.6-8 8.4-11 8.4-1.9 0-3.4-1.7-4.7-5.1-.9-3.1-1.7-6.3-2.6-9.4-1-3.4-2-5.1-3.1-5.1-.2 0-1.1.5-2.5 1.5l-1.5-1.9c1.6-1.4 3.1-2.7 4.7-4.1 2.1-1.8 3.7-2.7 4.7-2.8 2.5-.2 4 1.4 4.6 5 .6 3.9 1 6.3 1.3 7.2.7 3.2 1.5 4.8 2.4 4.8.7 0 1.7-1 3-3.1s2.1-3.7 2.2-4.8c.2-1.8-.5-2.7-2.2-2.7-.8 0-1.6.2-2.4.5 1.6-5.1 4.6-7.5 9-7.4 3.2.1 4.8 2.2 4.6 6.4"/></symbol><symbol viewBox="8 1 32 32" id="youtube"><title>Youtube-black</title><path d="M20.7 21.2v-9.1l8.6 4.5-8.6 4.6zm19-10.6s-.3-2.2-1.3-3.2c-1.2-1.3-2.6-1.3-3.2-1.4-4.5-.3-11.2-.3-11.2-.3s-6.7 0-11.2.3c-.6.1-2 .1-3.2 1.4-1 1-1.3 3.2-1.3 3.2S8 13.2 8 15.8v2.4c0 2.6.3 5.2.3 5.2s.3 2.2 1.3 3.2c1.2 1.3 2.8 1.2 3.5 1.4 2.6.2 10.9.3 10.9.3s6.7 0 11.2-.3c.6-.1 2-.1 3.2-1.4 1-1 1.3-3.2 1.3-3.2s.3-2.6.3-5.2v-2.4c0-2.6-.3-5.2-.3-5.2z"/></symbol></svg>