<svg xmlns="http://www.w3.org/2000/svg" viewBox="0 0 32 32"><path d="M21.442 16c0 3.006-2.437 5.44-5.442 5.44-3.006 0-5.442-2.435-5.442-5.44 0-.358.035-.708.102-1.046H7v7.233C7 23.74 8.258 25 9.813 25h12.374C23.74 25 25 23.74 25 22.187v-7.233h-3.66c.066.338.102.688.102 1.046zm.745-9H9.813C8.26 7 7 8.26 7 9.813v3.047h4.557c.985-1.39 2.608-2.302 4.443-2.302 1.836 0 3.46.91 4.443 2.302H25V9.813C25 8.26 23.74 7 22.187 7zm1.376 3.475c0 .277-.226.503-.502.503h-1.505c-.276 0-.502-.226-.502-.503V8.968c0-.277.227-.503.502-.503h1.506c.278 0 .503.226.503.503v1.507zM19.35 16c0-1.85-1.5-3.35-3.35-3.35s-3.35 1.5-3.35 3.35 1.5 3.35 3.35 3.35 3.35-1.5 3.35-3.35z"/></svg>