<?xml version="1.0" encoding="utf-8"?>
<!-- Generator: Adobe Illustrator 17.1.0, SVG Export Plug-In . SVG Version: 6.00 Build 0)  -->
<!DOCTYPE svg PUBLIC "-//W3C//DTD SVG 1.1//EN" "http://www.w3.org/Graphics/SVG/1.1/DTD/svg11.dtd">
<svg version="1.1" id="Layer_1" xmlns="http://www.w3.org/2000/svg" xmlns:xlink="http://www.w3.org/1999/xlink" x="0px" y="0px"
	 viewBox="6 4 32 32" enable-background="new 6 4 32 32" xml:space="preserve">
<title>LinkedIn-black</title>
<desc>Created with Sketch.</desc>
<g id="Icons">
	<g id="Black" transform="translate(-702.000000, -265.000000)">
		<path id="LinkedIn" d="M740,299.5h-7.1v-10.2c0-2.7-1.1-4.5-3.5-4.5c-1.9,0-2.9,1.2-3.4,2.4c-0.2,0.4-0.2,1-0.2,1.6v10.7h-7
			c0,0,0.1-18.1,0-19.8h7v3.1c0.4-1.4,2.7-3.3,6.2-3.3c4.4,0,7.9,2.8,7.9,9V299.5L740,299.5z M711.8,277.3L711.8,277.3
			c-2.3,0-3.8-1.5-3.8-3.4c0-2,1.5-3.4,3.8-3.4c2.3,0,3.7,1.5,3.8,3.4C715.6,275.8,714.1,277.3,711.8,277.3L711.8,277.3L711.8,277.3
			z M708.8,279.8h6.2v19.8h-6.2V279.8L708.8,279.8z"/>
	</g>
</g>
</svg>
