<?xml version="1.0" encoding="UTF-8"?>
<svg width="32px" height="32px" viewBox="0 0 32 32" version="1.1" xmlns="http://www.w3.org/2000/svg" xmlns:xlink="http://www.w3.org/1999/xlink">
    <!-- Generator: Sketch 42 (36781) - http://www.bohemiancoding.com/sketch -->
    <title>Artboard</title>
    <desc>Created with Sketch.</desc>
    <defs></defs>
    <g id="Page-1" stroke="none" stroke-width="1" fill="none" fill-rule="evenodd">
        <g id="Artboard" fill-rule="nonzero" fill="#000000">
            <g id="linkedIn" transform="translate(2.000000, 3.000000)">
                <g id="Layer_1">
                    <g id="Icons">
                        <g id="Black">
                            <path d="M28,25.8125 L21.7875,25.8125 L21.7875,16.8875 C21.7875,14.525 20.825,12.95 18.725,12.95 C17.0625,12.95 16.1875,14 15.75,15.05 C15.575,15.4 15.575,15.925 15.575,16.45 L15.575,25.8125 L9.45,25.8125 C9.45,25.8125 9.5375,9.975 9.45,8.4875 L15.575,8.4875 L15.575,11.2 C15.925,9.975 17.9375,8.3125 21,8.3125 C24.85,8.3125 27.9125,10.7625 27.9125,16.1875 L27.9125,25.8125 L28,25.8125 Z M3.325,6.3875 L3.325,6.3875 C1.3125,6.3875 0,5.075 0,3.4125 C0,1.6625 1.3125,0.4375 3.325,0.4375 C5.3375,0.4375 6.5625,1.75 6.65,3.4125 C6.65,5.075 5.3375,6.3875 3.325,6.3875 L3.325,6.3875 L3.325,6.3875 Z M0.7,8.575 L6.125,8.575 L6.125,25.9 L0.7,25.9 L0.7,8.575 L0.7,8.575 Z" id="LinkedIn"></path>
                        </g>
                    </g>
                </g>
            </g>
        </g>
    </g>
</svg>