<?xml version="1.0" encoding="utf-8"?>
<!-- Generator: Adobe Illustrator 17.1.0, SVG Export Plug-In . SVG Version: 6.00 Build 0)  -->
<!DOCTYPE svg PUBLIC "-//W3C//DTD SVG 1.1//EN" "http://www.w3.org/Graphics/SVG/1.1/DTD/svg11.dtd">
<svg version="1.1" id="Layer_1" xmlns="http://www.w3.org/2000/svg" xmlns:xlink="http://www.w3.org/1999/xlink" x="0px" y="0px"
	 viewBox="8 8 32 32" enable-background="new 8 8 32 32" xml:space="preserve">
<title>Pinterest-black</title>
<desc>Created with Sketch.</desc>
<g id="Icons">
	<g id="Black" transform="translate(-300.000000, -260.000000)">
		<path id="Pinterest" d="M324,268c-8.8,0-16,7.2-16,16c0,6.5,3.9,12.2,9.6,14.7c0-1.1,0-2.5,0.3-3.7c0.3-1.3,2.1-8.7,2.1-8.7
			s-0.5-1-0.5-2.5c0-2.4,1.4-4.1,3.1-4.1c1.5,0,2.2,1.1,2.2,2.4c0,1.5-0.9,3.7-1.4,5.7c-0.4,1.7,0.9,3.1,2.5,3.1
			c3,0,5.1-3.9,5.1-8.5c0-3.5-2.4-6.1-6.7-6.1c-4.9,0-7.9,3.6-7.9,7.7c0,1.4,0.4,2.4,1.1,3.1c0.3,0.4,0.3,0.5,0.2,0.9
			c-0.1,0.3-0.3,1-0.3,1.3c-0.1,0.4-0.4,0.6-0.8,0.4c-2.2-0.9-3.3-3.4-3.3-6.1c0-4.5,3.8-10,11.4-10c6.1,0,10.1,4.4,10.1,9.2
			c0,6.3-3.5,11-8.6,11c-1.7,0-3.4-0.9-3.9-2c0,0-0.9,3.7-1.1,4.4c-0.3,1.2-1,2.5-1.6,3.4c1.4,0.4,3,0.7,4.5,0.7c8.8,0,16-7.2,16-16
			C340,275.2,332.8,268,324,268"/>
	</g>
</g>
</svg>
