<?xml version="1.0" encoding="UTF-8"?>
<svg width="32px" height="32px" viewBox="0 0 32 32" version="1.1" xmlns="http://www.w3.org/2000/svg" xmlns:xlink="http://www.w3.org/1999/xlink">
    <!-- Generator: Sketch 42 (36781) - http://www.bohemiancoding.com/sketch -->
    <title>Artboard</title>
    <desc>Created with Sketch.</desc>
    <defs></defs>
    <g id="Page-1" stroke="none" stroke-width="1" fill="none" fill-rule="evenodd">
        <g id="Artboard" fill-rule="nonzero" fill="#000000">
            <g id="twitter" transform="translate(4.000000, 6.000000)">
                <g id="Layer_1">
                    <g id="Icons">
                        <g id="Black">
                            <path d="M23.2941176,2.68235294 C22.4470588,3.03529412 21.6,3.31764706 20.6117647,3.45882353 C21.6,2.89411765 22.3058824,1.90588235 22.6588235,0.847058824 C21.7411765,1.41176471 20.7529412,1.76470588 19.6941176,1.97647059 C18.8470588,1.05882353 17.6470588,0.494117647 16.3058824,0.494117647 C13.7647059,0.494117647 11.6470588,2.61176471 11.6470588,5.22352941 C11.6470588,5.57647059 11.7176471,5.92941176 11.7882353,6.28235294 C7.90588235,6.07058824 4.51764706,4.16470588 2.25882353,1.34117647 C1.83529412,2.04705882 1.62352941,2.89411765 1.62352941,3.74117647 C1.62352941,5.36470588 2.47058824,6.84705882 3.67058824,7.69411765 C2.89411765,7.69411765 2.18823529,7.48235294 1.55294118,7.12941176 L1.55294118,7.2 C1.55294118,9.52941176 3.17647059,11.4352941 5.29411765,11.8588235 C4.87058824,12 4.51764706,12 4.09411765,12 C3.81176471,12 3.52941176,12 3.24705882,11.9294118 C3.81176471,13.8352941 5.57647059,15.1764706 7.55294118,15.2470588 C6,16.5176471 3.95294118,17.2941176 1.76470588,17.2941176 C1.41176471,17.2941176 0.988235294,17.2941176 0.635294118,17.2235294 C2.68235294,18.5647059 5.15294118,19.3411765 7.76470588,19.3411765 C16.3058824,19.3411765 20.9647059,12.0705882 20.9647059,5.78823529 L20.9647059,5.15294118 C21.8823529,4.51764706 22.6588235,3.67058824 23.2941176,2.68235294" id="Twitter"></path>
                        </g>
                    </g>
                </g>
            </g>
        </g>
    </g>
</svg>