<?xml version="1.0" encoding="utf-8"?>
<!-- Generator: Adobe Illustrator 17.1.0, SVG Export Plug-In . SVG Version: 6.00 Build 0)  -->
<!DOCTYPE svg PUBLIC "-//W3C//DTD SVG 1.1//EN" "http://www.w3.org/Graphics/SVG/1.1/DTD/svg11.dtd">
<svg version="1.1" id="Layer_1" xmlns="http://www.w3.org/2000/svg" xmlns:xlink="http://www.w3.org/1999/xlink" x="0px" y="0px"
	 viewBox="8 4 32 32" enable-background="new 8 4 32 32" xml:space="preserve">
<title>Twitter-black</title>
<desc>Created with Sketch.</desc>
<g id="Icons">
	<g id="Black" transform="translate(-300.000000, -164.000000)">
		<path id="Twitter" d="M340,173.8c-1.2,0.5-2.4,0.9-3.8,1.1c1.4-0.8,2.4-2.2,2.9-3.7c-1.3,0.8-2.7,1.3-4.2,1.6
			c-1.2-1.3-2.9-2.1-4.8-2.1c-3.6,0-6.6,3-6.6,6.7c0,0.5,0.1,1,0.2,1.5c-5.5-0.3-10.3-3-13.5-7c-0.6,1-0.9,2.2-0.9,3.4
			c0,2.3,1.2,4.4,2.9,5.6c-1.1,0-2.1-0.3-3-0.8v0.1c0,3.3,2.3,6,5.3,6.6c-0.6,0.2-1.1,0.2-1.7,0.2c-0.4,0-0.8,0-1.2-0.1
			c0.8,2.7,3.3,4.6,6.1,4.7c-2.2,1.8-5.1,2.9-8.2,2.9c-0.5,0-1.1,0-1.6-0.1c2.9,1.9,6.4,3,10.1,3c12.1,0,18.7-10.3,18.7-19.2
			c0-0.3,0-0.6,0-0.9C338,176.4,339.1,175.2,340,173.8"/>
	</g>
</g>
</svg>
