<?xml version="1.0" encoding="utf-8"?>
<!-- Generator: Adobe Illustrator 17.1.0, SVG Export Plug-In . SVG Version: 6.00 Build 0)  -->
<!DOCTYPE svg PUBLIC "-//W3C//DTD SVG 1.1//EN" "http://www.w3.org/Graphics/SVG/1.1/DTD/svg11.dtd">
<svg version="1.1" id="Layer_1" xmlns="http://www.w3.org/2000/svg" xmlns:xlink="http://www.w3.org/1999/xlink" x="0px" y="0px"
	 viewBox="8 4.5 32 32" enable-background="new 8 4.5 32 32" xml:space="preserve">
<title>Vimeo-black</title>
<desc>Created with Sketch.</desc>
<g id="Icons">
	<g id="Black" transform="translate(-300.000000, -365.000000)">
		<path id="Vimeo" d="M340,378.2c-0.1,3.1-2.3,7.3-6.5,12.6c-4.4,5.6-8,8.4-11,8.4c-1.9,0-3.4-1.7-4.7-5.1c-0.9-3.1-1.7-6.3-2.6-9.4
			c-1-3.4-2-5.1-3.1-5.1c-0.2,0-1.1,0.5-2.5,1.5l-1.5-1.9c1.6-1.4,3.1-2.7,4.7-4.1c2.1-1.8,3.7-2.7,4.7-2.8c2.5-0.2,4,1.4,4.6,5
			c0.6,3.9,1,6.3,1.3,7.2c0.7,3.2,1.5,4.8,2.4,4.8c0.7,0,1.7-1,3-3.1c1.3-2.1,2.1-3.7,2.2-4.8c0.2-1.8-0.5-2.7-2.2-2.7
			c-0.8,0-1.6,0.2-2.4,0.5c1.6-5.1,4.6-7.5,9-7.4C338.6,371.9,340.2,374,340,378.2"/>
	</g>
</g>
</svg>
