<?xml version="1.0" encoding="utf-8"?>
<!-- Generator: Adobe Illustrator 17.1.0, SVG Export Plug-In . SVG Version: 6.00 Build 0)  -->
<!DOCTYPE svg PUBLIC "-//W3C//DTD SVG 1.1//EN" "http://www.w3.org/Graphics/SVG/1.1/DTD/svg11.dtd">
<svg version="1.1" id="Layer_1" xmlns="http://www.w3.org/2000/svg" xmlns:xlink="http://www.w3.org/1999/xlink" x="0px" y="0px"
	 viewBox="8 1 32 32" enable-background="new 8 1 32 32" xml:space="preserve">
<title>Youtube-black</title>
<desc>Created with Sketch.</desc>
<g id="Icons">
	<g id="Black" transform="translate(-200.000000, -368.000000)">
		<path id="Youtube" d="M220.7,389.2l0-9.1l8.6,4.5L220.7,389.2z M239.7,378.6c0,0-0.3-2.2-1.3-3.2c-1.2-1.3-2.6-1.3-3.2-1.4
			c-4.5-0.3-11.2-0.3-11.2-0.3h0c0,0-6.7,0-11.2,0.3c-0.6,0.1-2,0.1-3.2,1.4c-1,1-1.3,3.2-1.3,3.2s-0.3,2.6-0.3,5.2v2.4
			c0,2.6,0.3,5.2,0.3,5.2s0.3,2.2,1.3,3.2c1.2,1.3,2.8,1.2,3.5,1.4c2.6,0.2,10.9,0.3,10.9,0.3s6.7,0,11.2-0.3c0.6-0.1,2-0.1,3.2-1.4
			c1-1,1.3-3.2,1.3-3.2s0.3-2.6,0.3-5.2v-2.4C240,381.2,239.7,378.6,239.7,378.6L239.7,378.6z"/>
	</g>
</g>
</svg>
