<?xml version="1.0" encoding="utf-8"?>
<!-- Generator: Adobe Illustrator 21.0.2, SVG Export Plug-In . SVG Version: 6.00 Build 0)  -->
<svg version="1.1" id="st_x5F_wilfs_x5F_body" xmlns="http://www.w3.org/2000/svg" xmlns:xlink="http://www.w3.org/1999/xlink"
	 x="0px" y="0px" viewBox="0 0 1000 500" style="enable-background:new 0 0 1000 500;" xml:space="preserve">
<style type="text/css">
	.st0{fill:none;}
	.st1{enable-background:new    ;}
</style>
<g>
	<rect x="2" y="4" class="st0" width="1000" height="283.5"/>
</g>
<g class="st1">
	<path d="M61.9,65.9H24.2L18,79.5H3.3L35.6,7.4h14.8l32.3,72.1H68L61.9,65.9z M43.1,22.5L29.7,53.2h26.8L43.1,22.5z"/>
	<path d="M150.7,28.3c0,5.6-2.7,10.9-9.4,13.9c8.4,2.6,11.5,11.5,11.5,16.1c0,16.1-12.1,21.2-27,21.2c-11.4,0-22.8,0-34.2,0V7.4
		c11.3,0,22.8,0,34.2,0C140.1,7.4,150.7,13.8,150.7,28.3z M105.1,36.3h20.8c8.5,0,11.3-3.6,11.3-7.7c0-3.3-2.7-8.9-11.3-8.9h-20.8
		V36.3z M105.1,66.8h20.8c5.6,0,13.5-1.9,13.5-8.7c0-6.5-7.9-9.9-13.5-9.9h-20.8V66.8z"/>
	<path d="M227.5,70.4c-7.4,7.3-17,10.7-27.4,10.7c-26.8,0-38.1-18.4-38.2-37.2c-0.1-18.8,12.2-38,38.2-38c9.8,0,19.1,3.7,26.5,11
		l-9.1,8.8c-4.7-4.6-11.1-6.8-17.4-6.8c-17.4,0-24.9,13-24.8,25c0.1,11.9,7,24.4,24.8,24.4c6.3,0,13.4-2.6,18.1-7.3L227.5,70.4z"/>
	<path d="M302.5,42.8c0.3,18.2-10.8,36.7-36,36.7c-8.9,0-19.5,0-28.3,0V7.4c8.9,0,19.5,0,28.3,0C291.2,7.4,302.2,25,302.5,42.8z
		 M251.6,66.4h14.8c16.4,0,22.9-11.9,22.6-23.7c-0.3-11.2-6.9-22.5-22.6-22.5h-14.8V66.4z"/>
	<path d="M369.5,79.5h-54c0-24,0-48.1,0-72.1h54v13.2H329v16.6h39v12.7h-39v16.3h40.5V79.5z"/>
	<path d="M384,79.5v-72h51.8v13.1h-38.2v19.7h36.2v12.6h-36.2v26.7H384z"/>
	<path d="M500.8,25c-4.8-4.6-12.1-7.2-18.3-7.2c-15.4,0-24.8,11.7-24.8,26.6c0,11.8,6.9,24.1,24.8,24.1c5.7,0,10.6-1.2,16.3-5.8
		V49.9h-18.4V37.8h30.9v30.4c-7.1,8.1-16.1,13-28.7,13c-27.1,0-38.1-17.8-38.1-36.8c0-20.3,12.7-39,38.1-39c9.7,0,19.4,3.7,26.8,11
		L500.8,25z"/>
	<path d="M574.1,79.6V50.5h-35.4v29.1h-13.6V7.5h13.6v30.4h35.4V7.5h13.5v72.1H574.1z"/>
	<path d="M604.7,79.5V7.4h13.5v72.1H604.7z"/>
	<path d="M692.3,48.7c0,18.6-11.8,32.2-31.7,32.2c-18.4,0-31.6-11-31.6-31.4h13.4c0,12.4,6,18.6,18.2,18.6
		c12.4,0,18.1-8.5,18.1-19.5V20.1h-21.7V7.4c11.7,0,23.5,0,35.3,0V48.7z"/>
	<path d="M766.3,7.8l-32,34.5L769,78.7v0.8h-16.8L722,47.6v31.9h-13.6V7.4H722v30.5l27.4-30.5h16.9V7.8z"/>
	<path d="M790.6,7.4v59.5h37.1v12.6H777V7.4H790.6z"/>
	<path d="M900.7,27.3l-23.5,31.3h-2.7l-23-31.4v52.4H838V7.5h15.7l22.6,31l22.6-31h15.6v72.1h-13.6V27.3z"/>
	<path d="M980.8,55.9V7.4h13.6v72.1h-11l-38.3-48v48h-13.6V7.4h11L980.8,55.9z"/>
</g>
<g class="st1">
	<path d="M81.4,169.9c-0.2,18.6-11.6,37.3-37,37.3S7.3,188.9,7.3,170c0-22.8,16.5-38,37.4-38C69.3,132.2,81.6,151.1,81.4,169.9z
		 M44.4,194.7c17,0,23.4-12.8,23.6-24.6c0.2-12.1-6.7-25.4-23.3-25.7c-15.3,0-24.4,11.5-24,25.9C21,182,27.4,194.7,44.4,194.7z"/>
	<path d="M107.7,184.3v21.2H94.2v-72.1c11.2,0,22.8-0.1,34-0.1c35.4,0,35.5,50.7,0,51H107.7z M107.7,171.8h20.4
		c17.4,0,17.3-25.5,0-25.5h-20.4V171.8z"/>
	<path d="M235.8,168.5c0.1,8.2-2.1,16.8-6.7,23.5l8.5,8.4l-9.6,9.6l-8.8-8.7c-5.5,3.5-12.4,5.4-20.5,5.4c-25.6,0-37-18.6-37.1-37.4
		c-0.1-18.8,11.7-37.7,37.1-37.7C224.1,131.7,235.5,150,235.8,168.5z M175.1,169.7c0.2,11.8,8,24.5,23.7,24.5
		c16.3,0,24.1-13.7,23.6-26.1c-0.5-11.6-6.6-24.2-23.6-24.2S174.9,157.5,175.1,169.7z"/>
	<path d="M312.5,205.5H297L276,181.4h-13.8v24.1h-13.6v-72.2c11.4,0,22.9,0.1,34.3,0.1c17,0.1,26,11.4,26,23.9
		c0,9.9-4.5,19.9-18.2,22.7l21.8,24.6V205.5z M262.2,146.1v23.1h20.7c8.7,0,12.4-5.8,12.4-11.5s-3.8-11.5-12.4-11.5H262.2z"/>
	<path d="M366.6,150.8c-2.5-4.1-9.3-8-17.1-8c-10.1,0-14.9,4.2-14.9,9.6c0,6.3,7.4,8,16.1,9.1c15,1.9,29,5.8,29,23
		c0,16.1-14.2,23-30.3,23c-14.7,0-26.1-4.5-31.4-17.7l11.3-5.9c3.2,7.9,11.5,11.4,20.3,11.4c8.5,0,16.6-3,16.6-10.8
		c0-6.8-7.1-9.6-16.7-10.6c-14.7-1.8-28.3-5.7-28.3-21.8c0-14.8,14.6-20.9,27.9-21c11.2,0,22.9,3.2,28.3,14.3L366.6,150.8z"/>
	<path d="M408.1,145.8h-22.9v-12.4c20.8,0,38.4,0,59.3,0v12.4h-22.9v59.7h-13.6V145.8z"/>
	<path d="M517.2,133.5v41.3c0,21.3-13.1,32.2-31.2,32.2c-17.3,0-32-10.5-32-32.2v-41.3h13.5v41.3c0,13,7.4,19.9,18.6,19.9
		s17.6-7.5,17.6-19.9v-41.3H517.2z"/>
	<path d="M569.5,205.8h-14.1l-30-72.4h15.2l21.7,56.1l21.8-56.1h15.2L569.5,205.8z"/>
	<path d="M683.4,205.5h-11.5l-9-22.7l-7.6-22.8l-7.5,23l-8.8,22.5h-11.5L601,133.4h15.2l17,52l17.5-52h8.9l18,52l16.5-52h15.2
		L683.4,205.5z"/>
	<path d="M763.1,133.4h14.9v0.6l-24.4,35l25.1,36v0.4h-15.2l-18.4-27.1l-18.4,27.1h-15.2v-0.4l25-36l-24.3-35v-0.6h14.9l18,26.9
		L763.1,133.4z"/>
	<path d="M815.2,163.2l19.2-29.8h16.4v0.6L822,175.7v29.8h-13.6v-29.8L780.7,134v-0.6h16.2L815.2,163.2z"/>
	<path d="M856.4,133.4h54.5v6.4l-37.4,52.8h37.4v12.9h-56.3v-7.8l36.6-51.8h-34.7V133.4z"/>
</g>
<g>
	<rect x="4" y="332.2" class="st0" width="1000" height="672.5"/>
</g>
<g class="st1">
	<path d="M34.9,347.4H43v34.5H35l-0.4-5c-2,4.1-7.4,6-11.2,6.1c-10.2,0.1-17.8-6.2-17.8-18.3c0-11.9,7.9-18.1,18-18.1
		c4.6,0,9,2.2,11,5.6L34.9,347.4z M14.1,364.6c0,6.6,4.6,10.5,10.2,10.5c13.4,0,13.4-20.9,0-20.9C18.7,354.2,14.1,358,14.1,364.6z"
		/>
	<path d="M60.8,333v19.1c2-3.6,7.7-5.5,11.3-5.5c10.1,0,17.6,6.2,17.6,18.1c0,11.3-7.6,18.1-17.8,18.1c-4.2,0-8.5-1.4-11.1-5.5
		l-0.6,4.8h-8V333H60.8z M61.4,364.6c0,6.2,4.6,10.2,10,10.2c5.5,0,9.8-4.1,9.8-10.2c0-6.2-4.3-10.1-9.8-10.1
		C66,354.5,61.4,358.6,61.4,364.6z"/>
	<path d="M126.6,377.5c-4,3.9-8.2,5.5-13.3,5.5c-10,0-18.3-6-18.3-18.3s8.3-18.3,18.3-18.3c4.9,0,8.7,1.4,12.5,5.1l-5.4,5.7
		c-2-1.8-4.6-2.7-6.9-2.7c-5.7,0-9.9,4.2-9.9,10.2c0,6.6,4.5,10.1,9.8,10.1c2.7,0,5.5-0.8,7.6-2.9L126.6,377.5z"/>
	<path d="M166.9,333v48.9h-8l-0.6-4.8c-2.7,4.1-6.9,5.5-11.1,5.5c-10.2,0-17.8-6.7-17.8-18.1c0-11.9,7.5-18.1,17.6-18.1
		c3.6,0,9.3,2,11.3,5.5V333H166.9z M138,364.6c0,6,4.3,10.2,9.8,10.2c5.4,0,10-3.9,10-10.2c0-6-4.6-10.1-10-10.1
		C142.4,354.5,138,358.4,138,364.6z"/>
	<path d="M183,367.7c0.6,4.3,4.3,7.4,10.3,7.4c3.2,0,7.3-1.2,9.2-3.2l5.5,5.4c-3.6,3.8-9.6,5.6-14.8,5.6c-11.9,0-19-7.4-19-18.4
		c0-10.5,7.1-18.1,18.3-18.1c11.6,0,18.8,7.1,17.4,21.4H183z M201.7,360.6c-0.6-4.5-4.1-6.7-9-6.7c-4.6,0-8.4,2.2-9.7,6.7H201.7z"/>
	<path d="M220.3,381.9v-26.5h-6.4v-7.5h6.4v-2.3c0-9.2,6.2-13.5,13.2-13.5c3,0,6.2,1,9,2.8l-3.2,6.4c-1.8-1.2-3.5-1.8-5.3-1.8
		c-2.9,0-5.2,2-5.2,6.2v2.3H239v7.5h-10.2v26.5H220.3z"/>
	<path d="M274,343.7l6.3,4.8l-4.3,5c3,3.6,4,6.7,4,10.3c0,6.2-2.9,10.4-8.5,13c7.4,2.7,8.5,7.8,8.5,11.2c0,9.8-9.6,14.6-18.8,14.6
		c-12,0-19-6-18.6-15.9h8.5c-0.3,4.8,4.8,7.6,10.2,7.6c4.8,0,9.9-2,9.9-6.3c0-4.1-3.4-6.8-9.8-6.8c-11.4,0-18.9-6.6-18.9-17.4
		c0-11.6,9.2-17.5,18.9-17.5c2.7,0,6.5,0.6,8.9,2.2L274,343.7z M250.9,363.8c0,6,4.8,9.5,10.4,9.5s10.2-3.6,10.2-9.5
		c0-5.9-4.6-9.6-10.2-9.6S250.9,357.3,250.9,363.8z"/>
	<path d="M296.1,332.9v19.2c3.1-4,6.9-5.2,10.8-5.2c9.8,0,14.1,6.7,14.1,16.8v18.2h-8.5v-18.1c0-6.3-3.3-9-7.8-9
		c-5,0-8.5,4.3-8.5,9.5v17.6h-8.5v-49H296.1z"/>
	<path d="M339.1,337.7c0,6.7-10.1,6.7-10.1,0C329,331,339.1,331,339.1,337.7z M329.8,347.2v34.7h8.5v-34.7H329.8z"/>
	<path d="M356,347.2v38.3c0,9.4-3.7,13.7-11.5,13.7c-2.5,0-5.2-0.7-7.6-2.3l3.1-6.7c1.5,0.7,2.9,1.1,4.1,1c2.8-0.1,3.4-2,3.4-5.7
		v-38.3H356z M346.8,337.6c0,6.7,10.1,6.7,10.1,0S346.8,330.9,346.8,337.6z"/>
	<path d="M373.8,333v28.3l11.6-13.9h10.2v0.5l-14.1,15.8l16,17.6v0.6h-10.3l-13.5-15.6v15.6h-8.5V333H373.8z"/>
	<path d="M411,333v48.9h-8.5V333H411z"/>
	<path d="M443.4,381.9v-18.5c0-4.5-2.4-8.7-7.1-8.7c-4.6,0-7.4,4.1-7.4,8.7v18.5h-8.5v-34.6h7.9l0.6,4.2c1.8-3.5,5.8-4.8,9.1-4.8
		c4.1,0,8.3,1.7,10.2,6.4c3.1-4.9,7.1-6.3,11.6-6.3c9.8,0,14.6,6,14.6,16.4v18.6h-8.5v-18.6c0-4.6-1.9-8.4-6.5-8.4
		c-4.6,0-7.5,4-7.5,8.5v18.5H443.4z"/>
	<path d="M508.8,381.9v-18.1c0-5.3-2.9-9.2-8.3-9.2c-5.2,0-8.8,4.4-8.8,9.7v17.6h-8.5v-34.6h7.6l0.6,4.7c3.5-3.4,7-5.2,11.3-5.2
		c8.1,0,14.6,6.1,14.6,16.9v18.1H508.8z"/>
	<path d="M559.9,364.7c0,9.9-6.8,18-18,18s-17.9-8.1-17.9-18c0-9.9,6.9-18,17.9-18S559.9,354.8,559.9,364.7z M532.5,364.7
		c0,5.2,3.2,10.2,9.4,10.2s9.4-4.9,9.4-10.2c0-5.2-3.6-10.2-9.4-10.2C535.8,354.5,532.5,359.5,532.5,364.7z"/>
	<path d="M567.1,397.7v-50.3h8l0.6,4.8c2.7-3.9,7.3-5.5,11.2-5.5c10.6,0,17.7,7.9,17.7,18.1c0,10.1-6.4,18.1-17.4,18.1
		c-3.6,0-9-1.1-11.5-4.9v19.9H567.1z M596,364.7c0-5.4-3.6-9.8-9.8-9.8c-6.2,0-9.8,4.4-9.8,9.8s4,9.8,9.8,9.8S596,370.1,596,364.7z"
		/>
	<path d="M638.5,397.7v-19.9c-2.5,3.8-7.8,4.9-11.5,4.9c-11.1,0-17.4-8-17.4-18.1c0-10.2,7.1-18.1,17.7-18.1c3.9,0,8.5,1.7,11.2,5.5
		l0.6-4.8h8v50.3H638.5z M637.7,364.7c0-5.4-3.6-9.8-9.8-9.8c-6.2,0-9.8,4.4-9.8,9.8s4,9.8,9.8,9.8S637.7,370.1,637.7,364.7z"/>
	<path d="M664.1,347.4l0.6,4c2.7-4.3,6.2-4.9,9.7-4.9c3.6,0,7,1.4,8.9,3.3l-3.9,7.4c-1.8-1.5-3.4-2.2-6.2-2.2
		c-4.5,0-8.6,2.4-8.6,8.8v18.2h-8.5v-34.5H664.1z"/>
	<path d="M709.6,356.6c-2.5-2.3-5.2-3.1-8.5-3.1c-4.1,0-6.3,1.3-6.3,3.4c0,2.2,2,3.5,6.4,3.8c6.5,0.4,14.8,1.9,14.8,11.1
		c0,6.1-5,11.3-14.8,11.3c-5.5,0-10.9-0.9-16-6.2l4.2-6.1c3.3,3.4,8.1,4.8,11.9,4.8c3.2,0.1,6.2-1.3,6.2-3.8c0-2.4-2-3.7-6.9-4
		c-6.5-0.5-14.3-2.9-14.3-10.7c0-8,8.3-10.8,14.6-10.8c5.4,0,9.5,1.1,13.4,4.6L709.6,356.6z"/>
	<path d="M735.1,337.7v9.8h9.5v7.4h-9.6v14.9c0,3.3,1.8,4.9,4.5,4.9c1.3,0,2.9-0.4,4.1-1l2.4,7.3c-2.5,1-4.5,1.4-7.1,1.5
		c-7.5,0.3-12.4-4-12.4-12.6v-14.9h-6.4v-7.4h6.4v-8.9L735.1,337.7z"/>
	<path d="M759.8,347.4v18.1c0,5.3,2.9,9.2,8.3,9.2c5.2,0,8.8-4.4,8.8-9.7v-17.6h8.5V382h-7.6l-0.6-4.7c-3.6,3.5-6.9,5.2-11.7,5.2
		c-8.3,0-14.3-6.2-14.3-16.9v-18.1H759.8z"/>
	<path d="M829.5,347.3L814.8,382h-9.2l-14.8-34.7h9.3l4.8,11.4l5.3,14.6l5.3-14.4l4.8-11.6H829.5z"/>
	<path d="M864,347.3l7.6,26l7.9-26h9.5l-12,34.7h-9.9l-3.6-10.2l-3.1-11.6l-3.1,11.6l-3.6,10.2h-9.9l-12.1-34.7h9.5l7.9,26l7.5-26
		H864z"/>
	<path d="M915.4,347.4h10.2v0.3l-11.3,16.7l12,17.3v0.2h-10.2l-7.5-11.6l-7.5,11.6h-10.2v-0.2l12-17.3l-11.3-16.7v-0.3h10.2
		l6.8,11.7L915.4,347.4z"/>
	<path d="M966.1,347.4l-21.7,50.3H935l7.1-16.4l-13.8-34h9.9l5.2,14.9l3.3,9.7l3.6-9.5l6.3-15.1H966.1z"/>
	<path d="M997.7,347.4v4.1l-15.9,22.1h16v8.4h-29.1v-3.6l16.5-23.2H970v-7.8H997.7z"/>
</g>
<g class="st1">
	<path d="M6.7,459.3h8.5v-29.4l-8.1,2.4v-8.4l17.3-5.7v41.2h8.1v7.8H6.7V459.3z"/>
	<path d="M38.5,432.3c0.9-11.6,10.9-14.8,20.3-14.8c9.2,0,19,3.6,19,15.1c0,12.5-9.4,15.3-19.7,15.3c-4.1,0-10.6,1-10.6,6.4v4.2H78
		v8.6H38.3c0-4.3,0-8.5,0-12.9c0-11.3,10.2-14.6,19.9-14.6c3.7,0,10.5-1.1,10.5-6.8c0-5.4-4.2-7.1-9.9-7.4c-5.4,0-10.9,2-11.1,6.9
		H38.5z"/>
	<path d="M98.1,445.7v-7.6h7.1c5,0,10.2-1.3,10.3-5.9c0-2.8-2.2-6.5-10.1-6.5c-4.3,0-10.2,1.5-10.2,6h-9.2
		c0-10.6,10.5-14.4,19.5-14.4c9.2,0,19.2,4.5,19.3,14.9c0,4.5-2.5,8.3-6.8,9.7c4.7,1.5,8,5.5,8,10.3c0,12-11.3,15.5-20.7,15.5
		c-9.3,0-20-3.9-20-15.1h9.3c0,5,6.8,6.8,10.8,6.8c4.7,0,10.9-2,10.9-7.2c0-2.9-1.6-6.6-10.4-6.6H98.1z"/>
	<path d="M167.4,418.2v30.7h5.7v9h-5.7v9.3h-9.1v-9.3h-26.2l-0.8-9.4l22.1-30.2H167.4z M158.3,448.8v-22.7l-16.6,22.7H158.3z"/>
	<path d="M216.4,426.8h-26.5v8.6h9.5c10.4,0,19.7,4.3,19.7,15.8c0,11.1-9.3,16.5-19.2,16.5c-10.8,0-20-3.9-20.1-15.3h9.2
		c0,5.4,6.2,6.8,10.8,6.8c4.5,0,10.2-2.1,10.2-7.9c0.1-5.5-5.5-7.1-10.5-7.1h-18.6c0-8.8,0-17,0-25.9h35.5V426.8z"/>
	<path d="M235.7,433.1v7.4c2.2-3.4,7.5-5.2,11.3-5.2c9.9,0,20.2,4.1,20.2,16.3c0,10.9-10.4,16.2-20.3,16.2c-10,0-20.4-5.4-20.4-16.4
		v-18.3c0-10.9,10.1-16,20.2-16c10.6,0,20.1,4.2,20.1,14.5h-9.2c0-4.3-5.5-6.5-10.7-6.5c-5.5-0.1-11.1,2.9-11.1,8.3V433.1z
		 M258.1,451.6c0-5.4-4.9-8.3-11.1-8.3c-6.2,0-11.4,2.8-11.3,8.3c0.1,5.4,5.3,8,11.3,8C252.8,459.6,258.1,457,258.1,451.6z"/>
	<path d="M276.8,467.1l20-40.2h-23.9v-8.8h36l0.5,4.9l-22,44.1H276.8z"/>
	<path d="M321,441.8c-4.2-2.2-6.2-5.9-6.2-9.7c0-9.9,9.1-14.9,19.7-14.9c10.6,0,20.1,5.1,20.1,14.9c0,3.4-1.9,7.4-6.3,9.2
		c5,2,7.4,7.1,7.4,10.9c0.2,11.4-10.3,16-21.2,15.9c-10.6-0.1-21.3-4.4-21.1-15.9C313.6,448.5,316,443.9,321,441.8z M323.2,452.5
		c-0.1,3.8,4,7.4,11.5,7.4s11.6-3.5,11.5-7.4c-0.1-4.8-5.3-7-11.5-7C328.9,445.5,323.2,447.6,323.2,452.5z M334.7,438.7
		c5.7,0,10.2-2.6,10.4-6.9c0.1-4.1-4.2-6.9-10.4-6.9c-6.9,0-10.4,3.6-10.3,6.9C324.4,436.2,329.3,438.7,334.7,438.7z"/>
	<path d="M394.4,451.9v-7.4c-2.2,3.4-7.5,5.2-11.3,5.2c-9.9,0-20.2-4.1-20.2-16.3c0-10.9,10.4-16.2,20.3-16.2
		c10,0,20.4,5.4,20.4,16.4v18.3c0,10.9-10.1,16-20.2,16c-10.6,0-20.4-4.2-20.4-14.5h9.2c0,4.3,5.7,6.5,11,6.5
		c5.5,0.1,11.1-2.9,11.1-8.3V451.9z M372,433.4c0,5.4,4.9,8.3,11.1,8.3s11.4-2.8,11.3-8.3c-0.1-5.4-5.3-8-11.3-8
		C377.3,425.4,372,428,372,433.4z"/>
	<path d="M411.7,438.8c0-29.3,42.1-29.2,42.1,0v7.6c0,29.2-42.1,29.3-42.1,0V438.8z M420.9,446.4c0,17.8,23.8,17.8,23.8,0v-7.6
		c0-17.5-23.8-17.7-23.8,0V446.4z"/>
	<path d="M481,421.5c-7.9,6.3-11.9,15.5-11.9,25.5c0,10.6,4,19,11.9,25.3l-4.6,6.2c-10.9-7.2-16.1-19.7-16.1-31.5
		c0-11.7,5.5-23.9,16.5-31.2L481,421.5z"/>
	<path d="M488.1,415.4c10.9,7.4,16.5,19.5,16.5,31.2c0,11.8-5.2,24.3-16.1,31.5l-4.5-6.4c7.9-6.2,11.8-14.5,11.8-25.1
		c0-9.9-4-19.2-11.9-25.5L488.1,415.4z"/>
	<path d="M522.9,462.1c0,7.4-11.2,7.4-11.2,0C511.7,454.6,522.9,454.6,522.9,462.1z M521.8,418.2v36.1h-9.2v-36.1H521.8z"/>
	<path d="M529.7,432.8c0.1-10.4,8.8-15,18.7-15s19,4.3,18.8,14.8c0,10.2-9.3,11.2-13.4,13.9c-1.9,1.3-2.7,3.2-2.7,6.5l-9.2-0.1
		c0.1-9.6,4-11.8,7.7-13.7c3.7-2,8-2.5,8-6.7c0-5.4-5-6.7-9.3-6.7c-4.5,0-9.1,2.5-9.2,6.9H529.7z M552,461.8c0,7.4-11.2,7.4-11.2,0
		C540.8,454.4,552,454.4,552,461.8z"/>
	<path d="M611.6,452.8c0,2.9,1.3,5.3,4.4,5.3v9.2c-3.6,0-7.7-0.8-9.2-6.4c-3.2,5.2-8.8,6.9-14,6.9c-10.7,0-19.4-3.4-19.5-15.5
		c0-4.1,3-8.7,7.6-10.2c-4.4-1.4-6.6-6.1-6.6-9.9c0.1-10.4,9.9-14.7,18.7-14.7c8.5,0,17.9,3.3,17.9,13.9h-8.8c0-4.5-4.4-6-9.4-6
		c-7.2,0-9.6,4-9.5,6.9c0,5,6.2,6.4,9.5,6.4c7.6,0,15.3,0,23,0v7.3h-4.1V452.8z M582.4,452.3c0,5.2,5.1,7.2,10.2,7.2
		c3.3,0,10.2-1.8,10.2-6.7v-7.1c-3.6,0-7.1,0-10.6,0C585.4,445.7,582.4,449.3,582.4,452.3z"/>
	<path d="M626.3,418.1h8.8l-5.5,15.8h-6.7L626.3,418.1z M638.1,418.1h8.8l-5.5,15.8h-6.7L638.1,418.1z"/>
</g>
</svg>
